M48
;DRILL file {KiCad (5.0.2)-1} date 7/19/2020 9:14:14 PM
;FORMAT={-:-/ absolute / inch / decimal}
FMAT,2
INCH,TZ
T1C0.0157
T2C0.0315
T3C0.0394
T4C0.1063
%
G90
G05
T1
X0.8Y-4.1405
X0.8116Y-4.0309
X0.9195Y-4.4
X0.9195Y-4.4443
X0.9805Y-4.4664
X1.0002Y-4.43
X1.0281Y-4.8774
X1.1954Y-3.342
X1.3175Y-4.2396
X1.3175Y-4.7947
X1.38Y-4.8
X1.3801Y-4.2376
X1.42Y-3.07
X1.4218Y-5.1431
X1.471Y-5.1431
X1.5399Y-3.1146
X1.685Y-3.4911
X1.7072Y-4.1294
X1.7072Y-4.1707
X1.7112Y-3.5231
X1.725Y-4.8301
X1.7278Y-4.7859
X1.8578Y-3.4365
X1.8647Y-4.7298
X1.8746Y-4.09
X2.1525Y-3.455
X2.16Y-4.105
X2.16Y-4.76
X2.29Y-2.9639
X2.31Y-3.51
X2.3273Y-4.8282
X2.3351Y-4.1667
X2.38Y-4.165
X2.445Y-4.815
X2.4848Y-3.4798
X2.4848Y-4.779
X2.4946Y-4.1294
X2.6128Y-4.2869
T2
X1.695Y-3.735
X1.695Y-4.235
X1.795Y-3.735
X1.795Y-4.235
X1.895Y-3.735
X1.895Y-4.235
X1.995Y-3.735
X1.995Y-4.235
X2.095Y-3.735
X2.095Y-4.235
X2.195Y-3.735
X2.195Y-4.235
X2.295Y-3.735
X2.295Y-4.235
X2.395Y-3.735
X2.395Y-4.235
X1.695Y-4.39
X1.695Y-4.89
X1.795Y-4.39
X1.795Y-4.89
X1.895Y-4.39
X1.895Y-4.89
X1.995Y-4.39
X1.995Y-4.89
X2.095Y-4.39
X2.095Y-4.89
X2.195Y-4.39
X2.195Y-4.89
X2.295Y-4.39
X2.295Y-4.89
X2.395Y-4.39
X2.395Y-4.89
X1.695Y-3.08
X1.695Y-3.58
X1.795Y-3.08
X1.795Y-3.58
X1.895Y-3.08
X1.895Y-3.58
X1.995Y-3.08
X1.995Y-3.58
X2.095Y-3.08
X2.095Y-3.58
X2.195Y-3.08
X2.195Y-3.58
X2.295Y-3.08
X2.295Y-3.58
X2.395Y-3.08
X2.395Y-3.58
T3
X1.735Y-5.065
X1.735Y-5.165
X1.735Y-5.265
X2.23Y-3.885
X2.23Y-3.985
X2.375Y-3.885
X2.375Y-3.985
X2.23Y-4.545
X2.23Y-4.645
X2.6029Y-4.4002
X2.6029Y-4.5002
X2.6029Y-4.6002
X2.6029Y-4.7002
X2.085Y-4.545
X2.085Y-4.645
X2.375Y-4.545
X2.375Y-4.645
X0.9395Y-2.9876
X1.0395Y-2.9876
X0.88Y-5.29
X0.98Y-5.29
X1.08Y-5.29
X1.18Y-5.29
X1.28Y-5.29
X1.38Y-5.29
X1.48Y-5.29
X1.58Y-5.29
X2.61Y-3.1534
X2.61Y-3.2534
X2.61Y-3.3534
X2.61Y-3.4534
X2.61Y-3.7803
X2.61Y-3.8803
X2.61Y-3.9803
X2.61Y-4.0803
X1.8843Y-5.0665
X1.8843Y-5.1665
X2.225Y-3.24
X2.225Y-3.34
X0.67Y-4.888
X0.673Y-3.3883
X0.673Y-3.4883
X0.673Y-3.5883
X0.673Y-3.6883
X0.673Y-3.7883
X0.673Y-3.8883
X0.673Y-3.9883
X0.673Y-4.0883
X0.673Y-4.1883
X0.673Y-4.2883
X0.673Y-4.3883
X0.673Y-4.4883
X0.673Y-4.5883
X0.673Y-4.6883
X0.673Y-4.7883
X1.47Y-3.788
X1.47Y-3.888
X1.47Y-3.988
X1.47Y-4.088
X1.47Y-4.188
X1.47Y-4.288
X1.47Y-4.388
X1.47Y-4.488
X1.47Y-4.588
X1.47Y-4.688
X1.47Y-4.788
X1.47Y-4.888
X2.37Y-3.24
X2.37Y-3.34
X2.085Y-3.885
X2.085Y-3.985
X2.08Y-3.24
X2.08Y-3.34
T4
X0.67Y-2.965
X0.68Y-5.33
X2.08Y-5.33
X2.595Y-2.965
T2
X2.285Y-5.2812G85X2.285Y-5.1788
G05
X2.4464Y-5.041G85X2.3598Y-5.041
G05
X2.5133Y-5.2733G85X2.5133Y-5.1867
G05
T0
M30
