G04 #@! TF.GenerationSoftware,KiCad,Pcbnew,(5.0.2)-1*
G04 #@! TF.CreationDate,2020-07-19T21:14:17-04:00*
G04 #@! TF.ProjectId,KiCad Schematic,4b694361-6420-4536-9368-656d61746963,rev?*
G04 #@! TF.SameCoordinates,Original*
G04 #@! TF.FileFunction,Paste,Top*
G04 #@! TF.FilePolarity,Positive*
%FSLAX46Y46*%
G04 Gerber Fmt 4.6, Leading zero omitted, Abs format (unit mm)*
G04 Created by KiCad (PCBNEW (5.0.2)-1) date 7/19/2020 9:14:17 PM*
%MOMM*%
%LPD*%
G01*
G04 APERTURE LIST*
%ADD10R,2.000000X3.800000*%
%ADD11R,2.000000X1.500000*%
%ADD12C,0.100000*%
%ADD13C,0.875000*%
%ADD14C,1.600000*%
%ADD15R,0.900000X0.800000*%
%ADD16C,0.975000*%
G04 APERTURE END LIST*
D10*
G04 #@! TO.C,U2*
X21814000Y-82636000D03*
D11*
X28114000Y-82636000D03*
X28114000Y-80336000D03*
X28114000Y-84936000D03*
G04 #@! TD*
D12*
G04 #@! TO.C,D2*
G36*
X35075691Y-74292553D02*
X35096926Y-74295703D01*
X35117750Y-74300919D01*
X35137962Y-74308151D01*
X35157368Y-74317330D01*
X35175781Y-74328366D01*
X35193024Y-74341154D01*
X35208930Y-74355570D01*
X35223346Y-74371476D01*
X35236134Y-74388719D01*
X35247170Y-74407132D01*
X35256349Y-74426538D01*
X35263581Y-74446750D01*
X35268797Y-74467574D01*
X35271947Y-74488809D01*
X35273000Y-74510250D01*
X35273000Y-74947750D01*
X35271947Y-74969191D01*
X35268797Y-74990426D01*
X35263581Y-75011250D01*
X35256349Y-75031462D01*
X35247170Y-75050868D01*
X35236134Y-75069281D01*
X35223346Y-75086524D01*
X35208930Y-75102430D01*
X35193024Y-75116846D01*
X35175781Y-75129634D01*
X35157368Y-75140670D01*
X35137962Y-75149849D01*
X35117750Y-75157081D01*
X35096926Y-75162297D01*
X35075691Y-75165447D01*
X35054250Y-75166500D01*
X34541750Y-75166500D01*
X34520309Y-75165447D01*
X34499074Y-75162297D01*
X34478250Y-75157081D01*
X34458038Y-75149849D01*
X34438632Y-75140670D01*
X34420219Y-75129634D01*
X34402976Y-75116846D01*
X34387070Y-75102430D01*
X34372654Y-75086524D01*
X34359866Y-75069281D01*
X34348830Y-75050868D01*
X34339651Y-75031462D01*
X34332419Y-75011250D01*
X34327203Y-74990426D01*
X34324053Y-74969191D01*
X34323000Y-74947750D01*
X34323000Y-74510250D01*
X34324053Y-74488809D01*
X34327203Y-74467574D01*
X34332419Y-74446750D01*
X34339651Y-74426538D01*
X34348830Y-74407132D01*
X34359866Y-74388719D01*
X34372654Y-74371476D01*
X34387070Y-74355570D01*
X34402976Y-74341154D01*
X34420219Y-74328366D01*
X34438632Y-74317330D01*
X34458038Y-74308151D01*
X34478250Y-74300919D01*
X34499074Y-74295703D01*
X34520309Y-74292553D01*
X34541750Y-74291500D01*
X35054250Y-74291500D01*
X35075691Y-74292553D01*
X35075691Y-74292553D01*
G37*
D13*
X34798000Y-74729000D03*
D12*
G36*
X35075691Y-75867553D02*
X35096926Y-75870703D01*
X35117750Y-75875919D01*
X35137962Y-75883151D01*
X35157368Y-75892330D01*
X35175781Y-75903366D01*
X35193024Y-75916154D01*
X35208930Y-75930570D01*
X35223346Y-75946476D01*
X35236134Y-75963719D01*
X35247170Y-75982132D01*
X35256349Y-76001538D01*
X35263581Y-76021750D01*
X35268797Y-76042574D01*
X35271947Y-76063809D01*
X35273000Y-76085250D01*
X35273000Y-76522750D01*
X35271947Y-76544191D01*
X35268797Y-76565426D01*
X35263581Y-76586250D01*
X35256349Y-76606462D01*
X35247170Y-76625868D01*
X35236134Y-76644281D01*
X35223346Y-76661524D01*
X35208930Y-76677430D01*
X35193024Y-76691846D01*
X35175781Y-76704634D01*
X35157368Y-76715670D01*
X35137962Y-76724849D01*
X35117750Y-76732081D01*
X35096926Y-76737297D01*
X35075691Y-76740447D01*
X35054250Y-76741500D01*
X34541750Y-76741500D01*
X34520309Y-76740447D01*
X34499074Y-76737297D01*
X34478250Y-76732081D01*
X34458038Y-76724849D01*
X34438632Y-76715670D01*
X34420219Y-76704634D01*
X34402976Y-76691846D01*
X34387070Y-76677430D01*
X34372654Y-76661524D01*
X34359866Y-76644281D01*
X34348830Y-76625868D01*
X34339651Y-76606462D01*
X34332419Y-76586250D01*
X34327203Y-76565426D01*
X34324053Y-76544191D01*
X34323000Y-76522750D01*
X34323000Y-76085250D01*
X34324053Y-76063809D01*
X34327203Y-76042574D01*
X34332419Y-76021750D01*
X34339651Y-76001538D01*
X34348830Y-75982132D01*
X34359866Y-75963719D01*
X34372654Y-75946476D01*
X34387070Y-75930570D01*
X34402976Y-75916154D01*
X34420219Y-75903366D01*
X34438632Y-75892330D01*
X34458038Y-75883151D01*
X34478250Y-75875919D01*
X34499074Y-75870703D01*
X34520309Y-75867553D01*
X34541750Y-75866500D01*
X35054250Y-75866500D01*
X35075691Y-75867553D01*
X35075691Y-75867553D01*
G37*
D13*
X34798000Y-76304000D03*
G04 #@! TD*
D12*
G04 #@! TO.C,D1*
G36*
X37361691Y-75867553D02*
X37382926Y-75870703D01*
X37403750Y-75875919D01*
X37423962Y-75883151D01*
X37443368Y-75892330D01*
X37461781Y-75903366D01*
X37479024Y-75916154D01*
X37494930Y-75930570D01*
X37509346Y-75946476D01*
X37522134Y-75963719D01*
X37533170Y-75982132D01*
X37542349Y-76001538D01*
X37549581Y-76021750D01*
X37554797Y-76042574D01*
X37557947Y-76063809D01*
X37559000Y-76085250D01*
X37559000Y-76522750D01*
X37557947Y-76544191D01*
X37554797Y-76565426D01*
X37549581Y-76586250D01*
X37542349Y-76606462D01*
X37533170Y-76625868D01*
X37522134Y-76644281D01*
X37509346Y-76661524D01*
X37494930Y-76677430D01*
X37479024Y-76691846D01*
X37461781Y-76704634D01*
X37443368Y-76715670D01*
X37423962Y-76724849D01*
X37403750Y-76732081D01*
X37382926Y-76737297D01*
X37361691Y-76740447D01*
X37340250Y-76741500D01*
X36827750Y-76741500D01*
X36806309Y-76740447D01*
X36785074Y-76737297D01*
X36764250Y-76732081D01*
X36744038Y-76724849D01*
X36724632Y-76715670D01*
X36706219Y-76704634D01*
X36688976Y-76691846D01*
X36673070Y-76677430D01*
X36658654Y-76661524D01*
X36645866Y-76644281D01*
X36634830Y-76625868D01*
X36625651Y-76606462D01*
X36618419Y-76586250D01*
X36613203Y-76565426D01*
X36610053Y-76544191D01*
X36609000Y-76522750D01*
X36609000Y-76085250D01*
X36610053Y-76063809D01*
X36613203Y-76042574D01*
X36618419Y-76021750D01*
X36625651Y-76001538D01*
X36634830Y-75982132D01*
X36645866Y-75963719D01*
X36658654Y-75946476D01*
X36673070Y-75930570D01*
X36688976Y-75916154D01*
X36706219Y-75903366D01*
X36724632Y-75892330D01*
X36744038Y-75883151D01*
X36764250Y-75875919D01*
X36785074Y-75870703D01*
X36806309Y-75867553D01*
X36827750Y-75866500D01*
X37340250Y-75866500D01*
X37361691Y-75867553D01*
X37361691Y-75867553D01*
G37*
D13*
X37084000Y-76304000D03*
D12*
G36*
X37361691Y-74292553D02*
X37382926Y-74295703D01*
X37403750Y-74300919D01*
X37423962Y-74308151D01*
X37443368Y-74317330D01*
X37461781Y-74328366D01*
X37479024Y-74341154D01*
X37494930Y-74355570D01*
X37509346Y-74371476D01*
X37522134Y-74388719D01*
X37533170Y-74407132D01*
X37542349Y-74426538D01*
X37549581Y-74446750D01*
X37554797Y-74467574D01*
X37557947Y-74488809D01*
X37559000Y-74510250D01*
X37559000Y-74947750D01*
X37557947Y-74969191D01*
X37554797Y-74990426D01*
X37549581Y-75011250D01*
X37542349Y-75031462D01*
X37533170Y-75050868D01*
X37522134Y-75069281D01*
X37509346Y-75086524D01*
X37494930Y-75102430D01*
X37479024Y-75116846D01*
X37461781Y-75129634D01*
X37443368Y-75140670D01*
X37423962Y-75149849D01*
X37403750Y-75157081D01*
X37382926Y-75162297D01*
X37361691Y-75165447D01*
X37340250Y-75166500D01*
X36827750Y-75166500D01*
X36806309Y-75165447D01*
X36785074Y-75162297D01*
X36764250Y-75157081D01*
X36744038Y-75149849D01*
X36724632Y-75140670D01*
X36706219Y-75129634D01*
X36688976Y-75116846D01*
X36673070Y-75102430D01*
X36658654Y-75086524D01*
X36645866Y-75069281D01*
X36634830Y-75050868D01*
X36625651Y-75031462D01*
X36618419Y-75011250D01*
X36613203Y-74990426D01*
X36610053Y-74969191D01*
X36609000Y-74947750D01*
X36609000Y-74510250D01*
X36610053Y-74488809D01*
X36613203Y-74467574D01*
X36618419Y-74446750D01*
X36625651Y-74426538D01*
X36634830Y-74407132D01*
X36645866Y-74388719D01*
X36658654Y-74371476D01*
X36673070Y-74355570D01*
X36688976Y-74341154D01*
X36706219Y-74328366D01*
X36724632Y-74317330D01*
X36744038Y-74308151D01*
X36764250Y-74300919D01*
X36785074Y-74295703D01*
X36806309Y-74292553D01*
X36827750Y-74291500D01*
X37340250Y-74291500D01*
X37361691Y-74292553D01*
X37361691Y-74292553D01*
G37*
D13*
X37084000Y-74729000D03*
G04 #@! TD*
D12*
G04 #@! TO.C,R18*
G36*
X32789691Y-75867553D02*
X32810926Y-75870703D01*
X32831750Y-75875919D01*
X32851962Y-75883151D01*
X32871368Y-75892330D01*
X32889781Y-75903366D01*
X32907024Y-75916154D01*
X32922930Y-75930570D01*
X32937346Y-75946476D01*
X32950134Y-75963719D01*
X32961170Y-75982132D01*
X32970349Y-76001538D01*
X32977581Y-76021750D01*
X32982797Y-76042574D01*
X32985947Y-76063809D01*
X32987000Y-76085250D01*
X32987000Y-76522750D01*
X32985947Y-76544191D01*
X32982797Y-76565426D01*
X32977581Y-76586250D01*
X32970349Y-76606462D01*
X32961170Y-76625868D01*
X32950134Y-76644281D01*
X32937346Y-76661524D01*
X32922930Y-76677430D01*
X32907024Y-76691846D01*
X32889781Y-76704634D01*
X32871368Y-76715670D01*
X32851962Y-76724849D01*
X32831750Y-76732081D01*
X32810926Y-76737297D01*
X32789691Y-76740447D01*
X32768250Y-76741500D01*
X32255750Y-76741500D01*
X32234309Y-76740447D01*
X32213074Y-76737297D01*
X32192250Y-76732081D01*
X32172038Y-76724849D01*
X32152632Y-76715670D01*
X32134219Y-76704634D01*
X32116976Y-76691846D01*
X32101070Y-76677430D01*
X32086654Y-76661524D01*
X32073866Y-76644281D01*
X32062830Y-76625868D01*
X32053651Y-76606462D01*
X32046419Y-76586250D01*
X32041203Y-76565426D01*
X32038053Y-76544191D01*
X32037000Y-76522750D01*
X32037000Y-76085250D01*
X32038053Y-76063809D01*
X32041203Y-76042574D01*
X32046419Y-76021750D01*
X32053651Y-76001538D01*
X32062830Y-75982132D01*
X32073866Y-75963719D01*
X32086654Y-75946476D01*
X32101070Y-75930570D01*
X32116976Y-75916154D01*
X32134219Y-75903366D01*
X32152632Y-75892330D01*
X32172038Y-75883151D01*
X32192250Y-75875919D01*
X32213074Y-75870703D01*
X32234309Y-75867553D01*
X32255750Y-75866500D01*
X32768250Y-75866500D01*
X32789691Y-75867553D01*
X32789691Y-75867553D01*
G37*
D13*
X32512000Y-76304000D03*
D12*
G36*
X32789691Y-74292553D02*
X32810926Y-74295703D01*
X32831750Y-74300919D01*
X32851962Y-74308151D01*
X32871368Y-74317330D01*
X32889781Y-74328366D01*
X32907024Y-74341154D01*
X32922930Y-74355570D01*
X32937346Y-74371476D01*
X32950134Y-74388719D01*
X32961170Y-74407132D01*
X32970349Y-74426538D01*
X32977581Y-74446750D01*
X32982797Y-74467574D01*
X32985947Y-74488809D01*
X32987000Y-74510250D01*
X32987000Y-74947750D01*
X32985947Y-74969191D01*
X32982797Y-74990426D01*
X32977581Y-75011250D01*
X32970349Y-75031462D01*
X32961170Y-75050868D01*
X32950134Y-75069281D01*
X32937346Y-75086524D01*
X32922930Y-75102430D01*
X32907024Y-75116846D01*
X32889781Y-75129634D01*
X32871368Y-75140670D01*
X32851962Y-75149849D01*
X32831750Y-75157081D01*
X32810926Y-75162297D01*
X32789691Y-75165447D01*
X32768250Y-75166500D01*
X32255750Y-75166500D01*
X32234309Y-75165447D01*
X32213074Y-75162297D01*
X32192250Y-75157081D01*
X32172038Y-75149849D01*
X32152632Y-75140670D01*
X32134219Y-75129634D01*
X32116976Y-75116846D01*
X32101070Y-75102430D01*
X32086654Y-75086524D01*
X32073866Y-75069281D01*
X32062830Y-75050868D01*
X32053651Y-75031462D01*
X32046419Y-75011250D01*
X32041203Y-74990426D01*
X32038053Y-74969191D01*
X32037000Y-74947750D01*
X32037000Y-74510250D01*
X32038053Y-74488809D01*
X32041203Y-74467574D01*
X32046419Y-74446750D01*
X32053651Y-74426538D01*
X32062830Y-74407132D01*
X32073866Y-74388719D01*
X32086654Y-74371476D01*
X32101070Y-74355570D01*
X32116976Y-74341154D01*
X32134219Y-74328366D01*
X32152632Y-74317330D01*
X32172038Y-74308151D01*
X32192250Y-74300919D01*
X32213074Y-74295703D01*
X32234309Y-74292553D01*
X32255750Y-74291500D01*
X32768250Y-74291500D01*
X32789691Y-74292553D01*
X32789691Y-74292553D01*
G37*
D13*
X32512000Y-74729000D03*
G04 #@! TD*
D12*
G04 #@! TO.C,R17*
G36*
X39647691Y-74292553D02*
X39668926Y-74295703D01*
X39689750Y-74300919D01*
X39709962Y-74308151D01*
X39729368Y-74317330D01*
X39747781Y-74328366D01*
X39765024Y-74341154D01*
X39780930Y-74355570D01*
X39795346Y-74371476D01*
X39808134Y-74388719D01*
X39819170Y-74407132D01*
X39828349Y-74426538D01*
X39835581Y-74446750D01*
X39840797Y-74467574D01*
X39843947Y-74488809D01*
X39845000Y-74510250D01*
X39845000Y-74947750D01*
X39843947Y-74969191D01*
X39840797Y-74990426D01*
X39835581Y-75011250D01*
X39828349Y-75031462D01*
X39819170Y-75050868D01*
X39808134Y-75069281D01*
X39795346Y-75086524D01*
X39780930Y-75102430D01*
X39765024Y-75116846D01*
X39747781Y-75129634D01*
X39729368Y-75140670D01*
X39709962Y-75149849D01*
X39689750Y-75157081D01*
X39668926Y-75162297D01*
X39647691Y-75165447D01*
X39626250Y-75166500D01*
X39113750Y-75166500D01*
X39092309Y-75165447D01*
X39071074Y-75162297D01*
X39050250Y-75157081D01*
X39030038Y-75149849D01*
X39010632Y-75140670D01*
X38992219Y-75129634D01*
X38974976Y-75116846D01*
X38959070Y-75102430D01*
X38944654Y-75086524D01*
X38931866Y-75069281D01*
X38920830Y-75050868D01*
X38911651Y-75031462D01*
X38904419Y-75011250D01*
X38899203Y-74990426D01*
X38896053Y-74969191D01*
X38895000Y-74947750D01*
X38895000Y-74510250D01*
X38896053Y-74488809D01*
X38899203Y-74467574D01*
X38904419Y-74446750D01*
X38911651Y-74426538D01*
X38920830Y-74407132D01*
X38931866Y-74388719D01*
X38944654Y-74371476D01*
X38959070Y-74355570D01*
X38974976Y-74341154D01*
X38992219Y-74328366D01*
X39010632Y-74317330D01*
X39030038Y-74308151D01*
X39050250Y-74300919D01*
X39071074Y-74295703D01*
X39092309Y-74292553D01*
X39113750Y-74291500D01*
X39626250Y-74291500D01*
X39647691Y-74292553D01*
X39647691Y-74292553D01*
G37*
D13*
X39370000Y-74729000D03*
D12*
G36*
X39647691Y-75867553D02*
X39668926Y-75870703D01*
X39689750Y-75875919D01*
X39709962Y-75883151D01*
X39729368Y-75892330D01*
X39747781Y-75903366D01*
X39765024Y-75916154D01*
X39780930Y-75930570D01*
X39795346Y-75946476D01*
X39808134Y-75963719D01*
X39819170Y-75982132D01*
X39828349Y-76001538D01*
X39835581Y-76021750D01*
X39840797Y-76042574D01*
X39843947Y-76063809D01*
X39845000Y-76085250D01*
X39845000Y-76522750D01*
X39843947Y-76544191D01*
X39840797Y-76565426D01*
X39835581Y-76586250D01*
X39828349Y-76606462D01*
X39819170Y-76625868D01*
X39808134Y-76644281D01*
X39795346Y-76661524D01*
X39780930Y-76677430D01*
X39765024Y-76691846D01*
X39747781Y-76704634D01*
X39729368Y-76715670D01*
X39709962Y-76724849D01*
X39689750Y-76732081D01*
X39668926Y-76737297D01*
X39647691Y-76740447D01*
X39626250Y-76741500D01*
X39113750Y-76741500D01*
X39092309Y-76740447D01*
X39071074Y-76737297D01*
X39050250Y-76732081D01*
X39030038Y-76724849D01*
X39010632Y-76715670D01*
X38992219Y-76704634D01*
X38974976Y-76691846D01*
X38959070Y-76677430D01*
X38944654Y-76661524D01*
X38931866Y-76644281D01*
X38920830Y-76625868D01*
X38911651Y-76606462D01*
X38904419Y-76586250D01*
X38899203Y-76565426D01*
X38896053Y-76544191D01*
X38895000Y-76522750D01*
X38895000Y-76085250D01*
X38896053Y-76063809D01*
X38899203Y-76042574D01*
X38904419Y-76021750D01*
X38911651Y-76001538D01*
X38920830Y-75982132D01*
X38931866Y-75963719D01*
X38944654Y-75946476D01*
X38959070Y-75930570D01*
X38974976Y-75916154D01*
X38992219Y-75903366D01*
X39010632Y-75892330D01*
X39030038Y-75883151D01*
X39050250Y-75875919D01*
X39071074Y-75870703D01*
X39092309Y-75867553D01*
X39113750Y-75866500D01*
X39626250Y-75866500D01*
X39647691Y-75867553D01*
X39647691Y-75867553D01*
G37*
D13*
X39370000Y-76304000D03*
G04 #@! TD*
D12*
G04 #@! TO.C,R16*
G36*
X65141691Y-122662053D02*
X65162926Y-122665203D01*
X65183750Y-122670419D01*
X65203962Y-122677651D01*
X65223368Y-122686830D01*
X65241781Y-122697866D01*
X65259024Y-122710654D01*
X65274930Y-122725070D01*
X65289346Y-122740976D01*
X65302134Y-122758219D01*
X65313170Y-122776632D01*
X65322349Y-122796038D01*
X65329581Y-122816250D01*
X65334797Y-122837074D01*
X65337947Y-122858309D01*
X65339000Y-122879750D01*
X65339000Y-123392250D01*
X65337947Y-123413691D01*
X65334797Y-123434926D01*
X65329581Y-123455750D01*
X65322349Y-123475962D01*
X65313170Y-123495368D01*
X65302134Y-123513781D01*
X65289346Y-123531024D01*
X65274930Y-123546930D01*
X65259024Y-123561346D01*
X65241781Y-123574134D01*
X65223368Y-123585170D01*
X65203962Y-123594349D01*
X65183750Y-123601581D01*
X65162926Y-123606797D01*
X65141691Y-123609947D01*
X65120250Y-123611000D01*
X64682750Y-123611000D01*
X64661309Y-123609947D01*
X64640074Y-123606797D01*
X64619250Y-123601581D01*
X64599038Y-123594349D01*
X64579632Y-123585170D01*
X64561219Y-123574134D01*
X64543976Y-123561346D01*
X64528070Y-123546930D01*
X64513654Y-123531024D01*
X64500866Y-123513781D01*
X64489830Y-123495368D01*
X64480651Y-123475962D01*
X64473419Y-123455750D01*
X64468203Y-123434926D01*
X64465053Y-123413691D01*
X64464000Y-123392250D01*
X64464000Y-122879750D01*
X64465053Y-122858309D01*
X64468203Y-122837074D01*
X64473419Y-122816250D01*
X64480651Y-122796038D01*
X64489830Y-122776632D01*
X64500866Y-122758219D01*
X64513654Y-122740976D01*
X64528070Y-122725070D01*
X64543976Y-122710654D01*
X64561219Y-122697866D01*
X64579632Y-122686830D01*
X64599038Y-122677651D01*
X64619250Y-122670419D01*
X64640074Y-122665203D01*
X64661309Y-122662053D01*
X64682750Y-122661000D01*
X65120250Y-122661000D01*
X65141691Y-122662053D01*
X65141691Y-122662053D01*
G37*
D13*
X64901500Y-123136000D03*
D12*
G36*
X63566691Y-122662053D02*
X63587926Y-122665203D01*
X63608750Y-122670419D01*
X63628962Y-122677651D01*
X63648368Y-122686830D01*
X63666781Y-122697866D01*
X63684024Y-122710654D01*
X63699930Y-122725070D01*
X63714346Y-122740976D01*
X63727134Y-122758219D01*
X63738170Y-122776632D01*
X63747349Y-122796038D01*
X63754581Y-122816250D01*
X63759797Y-122837074D01*
X63762947Y-122858309D01*
X63764000Y-122879750D01*
X63764000Y-123392250D01*
X63762947Y-123413691D01*
X63759797Y-123434926D01*
X63754581Y-123455750D01*
X63747349Y-123475962D01*
X63738170Y-123495368D01*
X63727134Y-123513781D01*
X63714346Y-123531024D01*
X63699930Y-123546930D01*
X63684024Y-123561346D01*
X63666781Y-123574134D01*
X63648368Y-123585170D01*
X63628962Y-123594349D01*
X63608750Y-123601581D01*
X63587926Y-123606797D01*
X63566691Y-123609947D01*
X63545250Y-123611000D01*
X63107750Y-123611000D01*
X63086309Y-123609947D01*
X63065074Y-123606797D01*
X63044250Y-123601581D01*
X63024038Y-123594349D01*
X63004632Y-123585170D01*
X62986219Y-123574134D01*
X62968976Y-123561346D01*
X62953070Y-123546930D01*
X62938654Y-123531024D01*
X62925866Y-123513781D01*
X62914830Y-123495368D01*
X62905651Y-123475962D01*
X62898419Y-123455750D01*
X62893203Y-123434926D01*
X62890053Y-123413691D01*
X62889000Y-123392250D01*
X62889000Y-122879750D01*
X62890053Y-122858309D01*
X62893203Y-122837074D01*
X62898419Y-122816250D01*
X62905651Y-122796038D01*
X62914830Y-122776632D01*
X62925866Y-122758219D01*
X62938654Y-122740976D01*
X62953070Y-122725070D01*
X62968976Y-122710654D01*
X62986219Y-122697866D01*
X63004632Y-122686830D01*
X63024038Y-122677651D01*
X63044250Y-122670419D01*
X63065074Y-122665203D01*
X63086309Y-122662053D01*
X63107750Y-122661000D01*
X63545250Y-122661000D01*
X63566691Y-122662053D01*
X63566691Y-122662053D01*
G37*
D13*
X63326500Y-123136000D03*
G04 #@! TD*
D12*
G04 #@! TO.C,R15*
G36*
X63779191Y-89912053D02*
X63800426Y-89915203D01*
X63821250Y-89920419D01*
X63841462Y-89927651D01*
X63860868Y-89936830D01*
X63879281Y-89947866D01*
X63896524Y-89960654D01*
X63912430Y-89975070D01*
X63926846Y-89990976D01*
X63939634Y-90008219D01*
X63950670Y-90026632D01*
X63959849Y-90046038D01*
X63967081Y-90066250D01*
X63972297Y-90087074D01*
X63975447Y-90108309D01*
X63976500Y-90129750D01*
X63976500Y-90642250D01*
X63975447Y-90663691D01*
X63972297Y-90684926D01*
X63967081Y-90705750D01*
X63959849Y-90725962D01*
X63950670Y-90745368D01*
X63939634Y-90763781D01*
X63926846Y-90781024D01*
X63912430Y-90796930D01*
X63896524Y-90811346D01*
X63879281Y-90824134D01*
X63860868Y-90835170D01*
X63841462Y-90844349D01*
X63821250Y-90851581D01*
X63800426Y-90856797D01*
X63779191Y-90859947D01*
X63757750Y-90861000D01*
X63320250Y-90861000D01*
X63298809Y-90859947D01*
X63277574Y-90856797D01*
X63256750Y-90851581D01*
X63236538Y-90844349D01*
X63217132Y-90835170D01*
X63198719Y-90824134D01*
X63181476Y-90811346D01*
X63165570Y-90796930D01*
X63151154Y-90781024D01*
X63138366Y-90763781D01*
X63127330Y-90745368D01*
X63118151Y-90725962D01*
X63110919Y-90705750D01*
X63105703Y-90684926D01*
X63102553Y-90663691D01*
X63101500Y-90642250D01*
X63101500Y-90129750D01*
X63102553Y-90108309D01*
X63105703Y-90087074D01*
X63110919Y-90066250D01*
X63118151Y-90046038D01*
X63127330Y-90026632D01*
X63138366Y-90008219D01*
X63151154Y-89990976D01*
X63165570Y-89975070D01*
X63181476Y-89960654D01*
X63198719Y-89947866D01*
X63217132Y-89936830D01*
X63236538Y-89927651D01*
X63256750Y-89920419D01*
X63277574Y-89915203D01*
X63298809Y-89912053D01*
X63320250Y-89911000D01*
X63757750Y-89911000D01*
X63779191Y-89912053D01*
X63779191Y-89912053D01*
G37*
D13*
X63539000Y-90386000D03*
D12*
G36*
X65354191Y-89912053D02*
X65375426Y-89915203D01*
X65396250Y-89920419D01*
X65416462Y-89927651D01*
X65435868Y-89936830D01*
X65454281Y-89947866D01*
X65471524Y-89960654D01*
X65487430Y-89975070D01*
X65501846Y-89990976D01*
X65514634Y-90008219D01*
X65525670Y-90026632D01*
X65534849Y-90046038D01*
X65542081Y-90066250D01*
X65547297Y-90087074D01*
X65550447Y-90108309D01*
X65551500Y-90129750D01*
X65551500Y-90642250D01*
X65550447Y-90663691D01*
X65547297Y-90684926D01*
X65542081Y-90705750D01*
X65534849Y-90725962D01*
X65525670Y-90745368D01*
X65514634Y-90763781D01*
X65501846Y-90781024D01*
X65487430Y-90796930D01*
X65471524Y-90811346D01*
X65454281Y-90824134D01*
X65435868Y-90835170D01*
X65416462Y-90844349D01*
X65396250Y-90851581D01*
X65375426Y-90856797D01*
X65354191Y-90859947D01*
X65332750Y-90861000D01*
X64895250Y-90861000D01*
X64873809Y-90859947D01*
X64852574Y-90856797D01*
X64831750Y-90851581D01*
X64811538Y-90844349D01*
X64792132Y-90835170D01*
X64773719Y-90824134D01*
X64756476Y-90811346D01*
X64740570Y-90796930D01*
X64726154Y-90781024D01*
X64713366Y-90763781D01*
X64702330Y-90745368D01*
X64693151Y-90725962D01*
X64685919Y-90705750D01*
X64680703Y-90684926D01*
X64677553Y-90663691D01*
X64676500Y-90642250D01*
X64676500Y-90129750D01*
X64677553Y-90108309D01*
X64680703Y-90087074D01*
X64685919Y-90066250D01*
X64693151Y-90046038D01*
X64702330Y-90026632D01*
X64713366Y-90008219D01*
X64726154Y-89990976D01*
X64740570Y-89975070D01*
X64756476Y-89960654D01*
X64773719Y-89947866D01*
X64792132Y-89936830D01*
X64811538Y-89927651D01*
X64831750Y-89920419D01*
X64852574Y-89915203D01*
X64873809Y-89912053D01*
X64895250Y-89911000D01*
X65332750Y-89911000D01*
X65354191Y-89912053D01*
X65354191Y-89912053D01*
G37*
D13*
X65114000Y-90386000D03*
G04 #@! TD*
D12*
G04 #@! TO.C,R14*
G36*
X65179191Y-107662053D02*
X65200426Y-107665203D01*
X65221250Y-107670419D01*
X65241462Y-107677651D01*
X65260868Y-107686830D01*
X65279281Y-107697866D01*
X65296524Y-107710654D01*
X65312430Y-107725070D01*
X65326846Y-107740976D01*
X65339634Y-107758219D01*
X65350670Y-107776632D01*
X65359849Y-107796038D01*
X65367081Y-107816250D01*
X65372297Y-107837074D01*
X65375447Y-107858309D01*
X65376500Y-107879750D01*
X65376500Y-108392250D01*
X65375447Y-108413691D01*
X65372297Y-108434926D01*
X65367081Y-108455750D01*
X65359849Y-108475962D01*
X65350670Y-108495368D01*
X65339634Y-108513781D01*
X65326846Y-108531024D01*
X65312430Y-108546930D01*
X65296524Y-108561346D01*
X65279281Y-108574134D01*
X65260868Y-108585170D01*
X65241462Y-108594349D01*
X65221250Y-108601581D01*
X65200426Y-108606797D01*
X65179191Y-108609947D01*
X65157750Y-108611000D01*
X64720250Y-108611000D01*
X64698809Y-108609947D01*
X64677574Y-108606797D01*
X64656750Y-108601581D01*
X64636538Y-108594349D01*
X64617132Y-108585170D01*
X64598719Y-108574134D01*
X64581476Y-108561346D01*
X64565570Y-108546930D01*
X64551154Y-108531024D01*
X64538366Y-108513781D01*
X64527330Y-108495368D01*
X64518151Y-108475962D01*
X64510919Y-108455750D01*
X64505703Y-108434926D01*
X64502553Y-108413691D01*
X64501500Y-108392250D01*
X64501500Y-107879750D01*
X64502553Y-107858309D01*
X64505703Y-107837074D01*
X64510919Y-107816250D01*
X64518151Y-107796038D01*
X64527330Y-107776632D01*
X64538366Y-107758219D01*
X64551154Y-107740976D01*
X64565570Y-107725070D01*
X64581476Y-107710654D01*
X64598719Y-107697866D01*
X64617132Y-107686830D01*
X64636538Y-107677651D01*
X64656750Y-107670419D01*
X64677574Y-107665203D01*
X64698809Y-107662053D01*
X64720250Y-107661000D01*
X65157750Y-107661000D01*
X65179191Y-107662053D01*
X65179191Y-107662053D01*
G37*
D13*
X64939000Y-108136000D03*
D12*
G36*
X63604191Y-107662053D02*
X63625426Y-107665203D01*
X63646250Y-107670419D01*
X63666462Y-107677651D01*
X63685868Y-107686830D01*
X63704281Y-107697866D01*
X63721524Y-107710654D01*
X63737430Y-107725070D01*
X63751846Y-107740976D01*
X63764634Y-107758219D01*
X63775670Y-107776632D01*
X63784849Y-107796038D01*
X63792081Y-107816250D01*
X63797297Y-107837074D01*
X63800447Y-107858309D01*
X63801500Y-107879750D01*
X63801500Y-108392250D01*
X63800447Y-108413691D01*
X63797297Y-108434926D01*
X63792081Y-108455750D01*
X63784849Y-108475962D01*
X63775670Y-108495368D01*
X63764634Y-108513781D01*
X63751846Y-108531024D01*
X63737430Y-108546930D01*
X63721524Y-108561346D01*
X63704281Y-108574134D01*
X63685868Y-108585170D01*
X63666462Y-108594349D01*
X63646250Y-108601581D01*
X63625426Y-108606797D01*
X63604191Y-108609947D01*
X63582750Y-108611000D01*
X63145250Y-108611000D01*
X63123809Y-108609947D01*
X63102574Y-108606797D01*
X63081750Y-108601581D01*
X63061538Y-108594349D01*
X63042132Y-108585170D01*
X63023719Y-108574134D01*
X63006476Y-108561346D01*
X62990570Y-108546930D01*
X62976154Y-108531024D01*
X62963366Y-108513781D01*
X62952330Y-108495368D01*
X62943151Y-108475962D01*
X62935919Y-108455750D01*
X62930703Y-108434926D01*
X62927553Y-108413691D01*
X62926500Y-108392250D01*
X62926500Y-107879750D01*
X62927553Y-107858309D01*
X62930703Y-107837074D01*
X62935919Y-107816250D01*
X62943151Y-107796038D01*
X62952330Y-107776632D01*
X62963366Y-107758219D01*
X62976154Y-107740976D01*
X62990570Y-107725070D01*
X63006476Y-107710654D01*
X63023719Y-107697866D01*
X63042132Y-107686830D01*
X63061538Y-107677651D01*
X63081750Y-107670419D01*
X63102574Y-107665203D01*
X63123809Y-107662053D01*
X63145250Y-107661000D01*
X63582750Y-107661000D01*
X63604191Y-107662053D01*
X63604191Y-107662053D01*
G37*
D13*
X63364000Y-108136000D03*
G04 #@! TD*
D12*
G04 #@! TO.C,R13*
G36*
X63566691Y-124412053D02*
X63587926Y-124415203D01*
X63608750Y-124420419D01*
X63628962Y-124427651D01*
X63648368Y-124436830D01*
X63666781Y-124447866D01*
X63684024Y-124460654D01*
X63699930Y-124475070D01*
X63714346Y-124490976D01*
X63727134Y-124508219D01*
X63738170Y-124526632D01*
X63747349Y-124546038D01*
X63754581Y-124566250D01*
X63759797Y-124587074D01*
X63762947Y-124608309D01*
X63764000Y-124629750D01*
X63764000Y-125142250D01*
X63762947Y-125163691D01*
X63759797Y-125184926D01*
X63754581Y-125205750D01*
X63747349Y-125225962D01*
X63738170Y-125245368D01*
X63727134Y-125263781D01*
X63714346Y-125281024D01*
X63699930Y-125296930D01*
X63684024Y-125311346D01*
X63666781Y-125324134D01*
X63648368Y-125335170D01*
X63628962Y-125344349D01*
X63608750Y-125351581D01*
X63587926Y-125356797D01*
X63566691Y-125359947D01*
X63545250Y-125361000D01*
X63107750Y-125361000D01*
X63086309Y-125359947D01*
X63065074Y-125356797D01*
X63044250Y-125351581D01*
X63024038Y-125344349D01*
X63004632Y-125335170D01*
X62986219Y-125324134D01*
X62968976Y-125311346D01*
X62953070Y-125296930D01*
X62938654Y-125281024D01*
X62925866Y-125263781D01*
X62914830Y-125245368D01*
X62905651Y-125225962D01*
X62898419Y-125205750D01*
X62893203Y-125184926D01*
X62890053Y-125163691D01*
X62889000Y-125142250D01*
X62889000Y-124629750D01*
X62890053Y-124608309D01*
X62893203Y-124587074D01*
X62898419Y-124566250D01*
X62905651Y-124546038D01*
X62914830Y-124526632D01*
X62925866Y-124508219D01*
X62938654Y-124490976D01*
X62953070Y-124475070D01*
X62968976Y-124460654D01*
X62986219Y-124447866D01*
X63004632Y-124436830D01*
X63024038Y-124427651D01*
X63044250Y-124420419D01*
X63065074Y-124415203D01*
X63086309Y-124412053D01*
X63107750Y-124411000D01*
X63545250Y-124411000D01*
X63566691Y-124412053D01*
X63566691Y-124412053D01*
G37*
D13*
X63326500Y-124886000D03*
D12*
G36*
X65141691Y-124412053D02*
X65162926Y-124415203D01*
X65183750Y-124420419D01*
X65203962Y-124427651D01*
X65223368Y-124436830D01*
X65241781Y-124447866D01*
X65259024Y-124460654D01*
X65274930Y-124475070D01*
X65289346Y-124490976D01*
X65302134Y-124508219D01*
X65313170Y-124526632D01*
X65322349Y-124546038D01*
X65329581Y-124566250D01*
X65334797Y-124587074D01*
X65337947Y-124608309D01*
X65339000Y-124629750D01*
X65339000Y-125142250D01*
X65337947Y-125163691D01*
X65334797Y-125184926D01*
X65329581Y-125205750D01*
X65322349Y-125225962D01*
X65313170Y-125245368D01*
X65302134Y-125263781D01*
X65289346Y-125281024D01*
X65274930Y-125296930D01*
X65259024Y-125311346D01*
X65241781Y-125324134D01*
X65223368Y-125335170D01*
X65203962Y-125344349D01*
X65183750Y-125351581D01*
X65162926Y-125356797D01*
X65141691Y-125359947D01*
X65120250Y-125361000D01*
X64682750Y-125361000D01*
X64661309Y-125359947D01*
X64640074Y-125356797D01*
X64619250Y-125351581D01*
X64599038Y-125344349D01*
X64579632Y-125335170D01*
X64561219Y-125324134D01*
X64543976Y-125311346D01*
X64528070Y-125296930D01*
X64513654Y-125281024D01*
X64500866Y-125263781D01*
X64489830Y-125245368D01*
X64480651Y-125225962D01*
X64473419Y-125205750D01*
X64468203Y-125184926D01*
X64465053Y-125163691D01*
X64464000Y-125142250D01*
X64464000Y-124629750D01*
X64465053Y-124608309D01*
X64468203Y-124587074D01*
X64473419Y-124566250D01*
X64480651Y-124546038D01*
X64489830Y-124526632D01*
X64500866Y-124508219D01*
X64513654Y-124490976D01*
X64528070Y-124475070D01*
X64543976Y-124460654D01*
X64561219Y-124447866D01*
X64579632Y-124436830D01*
X64599038Y-124427651D01*
X64619250Y-124420419D01*
X64640074Y-124415203D01*
X64661309Y-124412053D01*
X64682750Y-124411000D01*
X65120250Y-124411000D01*
X65141691Y-124412053D01*
X65141691Y-124412053D01*
G37*
D13*
X64901500Y-124886000D03*
G04 #@! TD*
D12*
G04 #@! TO.C,R12*
G36*
X65354191Y-91662053D02*
X65375426Y-91665203D01*
X65396250Y-91670419D01*
X65416462Y-91677651D01*
X65435868Y-91686830D01*
X65454281Y-91697866D01*
X65471524Y-91710654D01*
X65487430Y-91725070D01*
X65501846Y-91740976D01*
X65514634Y-91758219D01*
X65525670Y-91776632D01*
X65534849Y-91796038D01*
X65542081Y-91816250D01*
X65547297Y-91837074D01*
X65550447Y-91858309D01*
X65551500Y-91879750D01*
X65551500Y-92392250D01*
X65550447Y-92413691D01*
X65547297Y-92434926D01*
X65542081Y-92455750D01*
X65534849Y-92475962D01*
X65525670Y-92495368D01*
X65514634Y-92513781D01*
X65501846Y-92531024D01*
X65487430Y-92546930D01*
X65471524Y-92561346D01*
X65454281Y-92574134D01*
X65435868Y-92585170D01*
X65416462Y-92594349D01*
X65396250Y-92601581D01*
X65375426Y-92606797D01*
X65354191Y-92609947D01*
X65332750Y-92611000D01*
X64895250Y-92611000D01*
X64873809Y-92609947D01*
X64852574Y-92606797D01*
X64831750Y-92601581D01*
X64811538Y-92594349D01*
X64792132Y-92585170D01*
X64773719Y-92574134D01*
X64756476Y-92561346D01*
X64740570Y-92546930D01*
X64726154Y-92531024D01*
X64713366Y-92513781D01*
X64702330Y-92495368D01*
X64693151Y-92475962D01*
X64685919Y-92455750D01*
X64680703Y-92434926D01*
X64677553Y-92413691D01*
X64676500Y-92392250D01*
X64676500Y-91879750D01*
X64677553Y-91858309D01*
X64680703Y-91837074D01*
X64685919Y-91816250D01*
X64693151Y-91796038D01*
X64702330Y-91776632D01*
X64713366Y-91758219D01*
X64726154Y-91740976D01*
X64740570Y-91725070D01*
X64756476Y-91710654D01*
X64773719Y-91697866D01*
X64792132Y-91686830D01*
X64811538Y-91677651D01*
X64831750Y-91670419D01*
X64852574Y-91665203D01*
X64873809Y-91662053D01*
X64895250Y-91661000D01*
X65332750Y-91661000D01*
X65354191Y-91662053D01*
X65354191Y-91662053D01*
G37*
D13*
X65114000Y-92136000D03*
D12*
G36*
X63779191Y-91662053D02*
X63800426Y-91665203D01*
X63821250Y-91670419D01*
X63841462Y-91677651D01*
X63860868Y-91686830D01*
X63879281Y-91697866D01*
X63896524Y-91710654D01*
X63912430Y-91725070D01*
X63926846Y-91740976D01*
X63939634Y-91758219D01*
X63950670Y-91776632D01*
X63959849Y-91796038D01*
X63967081Y-91816250D01*
X63972297Y-91837074D01*
X63975447Y-91858309D01*
X63976500Y-91879750D01*
X63976500Y-92392250D01*
X63975447Y-92413691D01*
X63972297Y-92434926D01*
X63967081Y-92455750D01*
X63959849Y-92475962D01*
X63950670Y-92495368D01*
X63939634Y-92513781D01*
X63926846Y-92531024D01*
X63912430Y-92546930D01*
X63896524Y-92561346D01*
X63879281Y-92574134D01*
X63860868Y-92585170D01*
X63841462Y-92594349D01*
X63821250Y-92601581D01*
X63800426Y-92606797D01*
X63779191Y-92609947D01*
X63757750Y-92611000D01*
X63320250Y-92611000D01*
X63298809Y-92609947D01*
X63277574Y-92606797D01*
X63256750Y-92601581D01*
X63236538Y-92594349D01*
X63217132Y-92585170D01*
X63198719Y-92574134D01*
X63181476Y-92561346D01*
X63165570Y-92546930D01*
X63151154Y-92531024D01*
X63138366Y-92513781D01*
X63127330Y-92495368D01*
X63118151Y-92475962D01*
X63110919Y-92455750D01*
X63105703Y-92434926D01*
X63102553Y-92413691D01*
X63101500Y-92392250D01*
X63101500Y-91879750D01*
X63102553Y-91858309D01*
X63105703Y-91837074D01*
X63110919Y-91816250D01*
X63118151Y-91796038D01*
X63127330Y-91776632D01*
X63138366Y-91758219D01*
X63151154Y-91740976D01*
X63165570Y-91725070D01*
X63181476Y-91710654D01*
X63198719Y-91697866D01*
X63217132Y-91686830D01*
X63236538Y-91677651D01*
X63256750Y-91670419D01*
X63277574Y-91665203D01*
X63298809Y-91662053D01*
X63320250Y-91661000D01*
X63757750Y-91661000D01*
X63779191Y-91662053D01*
X63779191Y-91662053D01*
G37*
D13*
X63539000Y-92136000D03*
G04 #@! TD*
D12*
G04 #@! TO.C,R10*
G36*
X51172479Y-130754942D02*
X51193714Y-130758092D01*
X51214538Y-130763308D01*
X51234750Y-130770540D01*
X51254156Y-130779719D01*
X51272569Y-130790755D01*
X51289812Y-130803543D01*
X51305718Y-130817959D01*
X51320134Y-130833865D01*
X51332922Y-130851108D01*
X51343958Y-130869521D01*
X51353137Y-130888927D01*
X51360369Y-130909139D01*
X51365585Y-130929963D01*
X51368735Y-130951198D01*
X51369788Y-130972639D01*
X51369788Y-131485139D01*
X51368735Y-131506580D01*
X51365585Y-131527815D01*
X51360369Y-131548639D01*
X51353137Y-131568851D01*
X51343958Y-131588257D01*
X51332922Y-131606670D01*
X51320134Y-131623913D01*
X51305718Y-131639819D01*
X51289812Y-131654235D01*
X51272569Y-131667023D01*
X51254156Y-131678059D01*
X51234750Y-131687238D01*
X51214538Y-131694470D01*
X51193714Y-131699686D01*
X51172479Y-131702836D01*
X51151038Y-131703889D01*
X50713538Y-131703889D01*
X50692097Y-131702836D01*
X50670862Y-131699686D01*
X50650038Y-131694470D01*
X50629826Y-131687238D01*
X50610420Y-131678059D01*
X50592007Y-131667023D01*
X50574764Y-131654235D01*
X50558858Y-131639819D01*
X50544442Y-131623913D01*
X50531654Y-131606670D01*
X50520618Y-131588257D01*
X50511439Y-131568851D01*
X50504207Y-131548639D01*
X50498991Y-131527815D01*
X50495841Y-131506580D01*
X50494788Y-131485139D01*
X50494788Y-130972639D01*
X50495841Y-130951198D01*
X50498991Y-130929963D01*
X50504207Y-130909139D01*
X50511439Y-130888927D01*
X50520618Y-130869521D01*
X50531654Y-130851108D01*
X50544442Y-130833865D01*
X50558858Y-130817959D01*
X50574764Y-130803543D01*
X50592007Y-130790755D01*
X50610420Y-130779719D01*
X50629826Y-130770540D01*
X50650038Y-130763308D01*
X50670862Y-130758092D01*
X50692097Y-130754942D01*
X50713538Y-130753889D01*
X51151038Y-130753889D01*
X51172479Y-130754942D01*
X51172479Y-130754942D01*
G37*
D13*
X50932288Y-131228889D03*
D12*
G36*
X52747479Y-130754942D02*
X52768714Y-130758092D01*
X52789538Y-130763308D01*
X52809750Y-130770540D01*
X52829156Y-130779719D01*
X52847569Y-130790755D01*
X52864812Y-130803543D01*
X52880718Y-130817959D01*
X52895134Y-130833865D01*
X52907922Y-130851108D01*
X52918958Y-130869521D01*
X52928137Y-130888927D01*
X52935369Y-130909139D01*
X52940585Y-130929963D01*
X52943735Y-130951198D01*
X52944788Y-130972639D01*
X52944788Y-131485139D01*
X52943735Y-131506580D01*
X52940585Y-131527815D01*
X52935369Y-131548639D01*
X52928137Y-131568851D01*
X52918958Y-131588257D01*
X52907922Y-131606670D01*
X52895134Y-131623913D01*
X52880718Y-131639819D01*
X52864812Y-131654235D01*
X52847569Y-131667023D01*
X52829156Y-131678059D01*
X52809750Y-131687238D01*
X52789538Y-131694470D01*
X52768714Y-131699686D01*
X52747479Y-131702836D01*
X52726038Y-131703889D01*
X52288538Y-131703889D01*
X52267097Y-131702836D01*
X52245862Y-131699686D01*
X52225038Y-131694470D01*
X52204826Y-131687238D01*
X52185420Y-131678059D01*
X52167007Y-131667023D01*
X52149764Y-131654235D01*
X52133858Y-131639819D01*
X52119442Y-131623913D01*
X52106654Y-131606670D01*
X52095618Y-131588257D01*
X52086439Y-131568851D01*
X52079207Y-131548639D01*
X52073991Y-131527815D01*
X52070841Y-131506580D01*
X52069788Y-131485139D01*
X52069788Y-130972639D01*
X52070841Y-130951198D01*
X52073991Y-130929963D01*
X52079207Y-130909139D01*
X52086439Y-130888927D01*
X52095618Y-130869521D01*
X52106654Y-130851108D01*
X52119442Y-130833865D01*
X52133858Y-130817959D01*
X52149764Y-130803543D01*
X52167007Y-130790755D01*
X52185420Y-130779719D01*
X52204826Y-130770540D01*
X52225038Y-130763308D01*
X52245862Y-130758092D01*
X52267097Y-130754942D01*
X52288538Y-130753889D01*
X52726038Y-130753889D01*
X52747479Y-130754942D01*
X52747479Y-130754942D01*
G37*
D13*
X52507288Y-131228889D03*
G04 #@! TD*
D12*
G04 #@! TO.C,R9*
G36*
X61401191Y-120430053D02*
X61422426Y-120433203D01*
X61443250Y-120438419D01*
X61463462Y-120445651D01*
X61482868Y-120454830D01*
X61501281Y-120465866D01*
X61518524Y-120478654D01*
X61534430Y-120493070D01*
X61548846Y-120508976D01*
X61561634Y-120526219D01*
X61572670Y-120544632D01*
X61581849Y-120564038D01*
X61589081Y-120584250D01*
X61594297Y-120605074D01*
X61597447Y-120626309D01*
X61598500Y-120647750D01*
X61598500Y-121160250D01*
X61597447Y-121181691D01*
X61594297Y-121202926D01*
X61589081Y-121223750D01*
X61581849Y-121243962D01*
X61572670Y-121263368D01*
X61561634Y-121281781D01*
X61548846Y-121299024D01*
X61534430Y-121314930D01*
X61518524Y-121329346D01*
X61501281Y-121342134D01*
X61482868Y-121353170D01*
X61463462Y-121362349D01*
X61443250Y-121369581D01*
X61422426Y-121374797D01*
X61401191Y-121377947D01*
X61379750Y-121379000D01*
X60942250Y-121379000D01*
X60920809Y-121377947D01*
X60899574Y-121374797D01*
X60878750Y-121369581D01*
X60858538Y-121362349D01*
X60839132Y-121353170D01*
X60820719Y-121342134D01*
X60803476Y-121329346D01*
X60787570Y-121314930D01*
X60773154Y-121299024D01*
X60760366Y-121281781D01*
X60749330Y-121263368D01*
X60740151Y-121243962D01*
X60732919Y-121223750D01*
X60727703Y-121202926D01*
X60724553Y-121181691D01*
X60723500Y-121160250D01*
X60723500Y-120647750D01*
X60724553Y-120626309D01*
X60727703Y-120605074D01*
X60732919Y-120584250D01*
X60740151Y-120564038D01*
X60749330Y-120544632D01*
X60760366Y-120526219D01*
X60773154Y-120508976D01*
X60787570Y-120493070D01*
X60803476Y-120478654D01*
X60820719Y-120465866D01*
X60839132Y-120454830D01*
X60858538Y-120445651D01*
X60878750Y-120438419D01*
X60899574Y-120433203D01*
X60920809Y-120430053D01*
X60942250Y-120429000D01*
X61379750Y-120429000D01*
X61401191Y-120430053D01*
X61401191Y-120430053D01*
G37*
D13*
X61161000Y-120904000D03*
D12*
G36*
X59826191Y-120430053D02*
X59847426Y-120433203D01*
X59868250Y-120438419D01*
X59888462Y-120445651D01*
X59907868Y-120454830D01*
X59926281Y-120465866D01*
X59943524Y-120478654D01*
X59959430Y-120493070D01*
X59973846Y-120508976D01*
X59986634Y-120526219D01*
X59997670Y-120544632D01*
X60006849Y-120564038D01*
X60014081Y-120584250D01*
X60019297Y-120605074D01*
X60022447Y-120626309D01*
X60023500Y-120647750D01*
X60023500Y-121160250D01*
X60022447Y-121181691D01*
X60019297Y-121202926D01*
X60014081Y-121223750D01*
X60006849Y-121243962D01*
X59997670Y-121263368D01*
X59986634Y-121281781D01*
X59973846Y-121299024D01*
X59959430Y-121314930D01*
X59943524Y-121329346D01*
X59926281Y-121342134D01*
X59907868Y-121353170D01*
X59888462Y-121362349D01*
X59868250Y-121369581D01*
X59847426Y-121374797D01*
X59826191Y-121377947D01*
X59804750Y-121379000D01*
X59367250Y-121379000D01*
X59345809Y-121377947D01*
X59324574Y-121374797D01*
X59303750Y-121369581D01*
X59283538Y-121362349D01*
X59264132Y-121353170D01*
X59245719Y-121342134D01*
X59228476Y-121329346D01*
X59212570Y-121314930D01*
X59198154Y-121299024D01*
X59185366Y-121281781D01*
X59174330Y-121263368D01*
X59165151Y-121243962D01*
X59157919Y-121223750D01*
X59152703Y-121202926D01*
X59149553Y-121181691D01*
X59148500Y-121160250D01*
X59148500Y-120647750D01*
X59149553Y-120626309D01*
X59152703Y-120605074D01*
X59157919Y-120584250D01*
X59165151Y-120564038D01*
X59174330Y-120544632D01*
X59185366Y-120526219D01*
X59198154Y-120508976D01*
X59212570Y-120493070D01*
X59228476Y-120478654D01*
X59245719Y-120465866D01*
X59264132Y-120454830D01*
X59283538Y-120445651D01*
X59303750Y-120438419D01*
X59324574Y-120433203D01*
X59345809Y-120430053D01*
X59367250Y-120429000D01*
X59804750Y-120429000D01*
X59826191Y-120430053D01*
X59826191Y-120430053D01*
G37*
D13*
X59586000Y-120904000D03*
G04 #@! TD*
D12*
G04 #@! TO.C,R8*
G36*
X57854191Y-120430053D02*
X57875426Y-120433203D01*
X57896250Y-120438419D01*
X57916462Y-120445651D01*
X57935868Y-120454830D01*
X57954281Y-120465866D01*
X57971524Y-120478654D01*
X57987430Y-120493070D01*
X58001846Y-120508976D01*
X58014634Y-120526219D01*
X58025670Y-120544632D01*
X58034849Y-120564038D01*
X58042081Y-120584250D01*
X58047297Y-120605074D01*
X58050447Y-120626309D01*
X58051500Y-120647750D01*
X58051500Y-121160250D01*
X58050447Y-121181691D01*
X58047297Y-121202926D01*
X58042081Y-121223750D01*
X58034849Y-121243962D01*
X58025670Y-121263368D01*
X58014634Y-121281781D01*
X58001846Y-121299024D01*
X57987430Y-121314930D01*
X57971524Y-121329346D01*
X57954281Y-121342134D01*
X57935868Y-121353170D01*
X57916462Y-121362349D01*
X57896250Y-121369581D01*
X57875426Y-121374797D01*
X57854191Y-121377947D01*
X57832750Y-121379000D01*
X57395250Y-121379000D01*
X57373809Y-121377947D01*
X57352574Y-121374797D01*
X57331750Y-121369581D01*
X57311538Y-121362349D01*
X57292132Y-121353170D01*
X57273719Y-121342134D01*
X57256476Y-121329346D01*
X57240570Y-121314930D01*
X57226154Y-121299024D01*
X57213366Y-121281781D01*
X57202330Y-121263368D01*
X57193151Y-121243962D01*
X57185919Y-121223750D01*
X57180703Y-121202926D01*
X57177553Y-121181691D01*
X57176500Y-121160250D01*
X57176500Y-120647750D01*
X57177553Y-120626309D01*
X57180703Y-120605074D01*
X57185919Y-120584250D01*
X57193151Y-120564038D01*
X57202330Y-120544632D01*
X57213366Y-120526219D01*
X57226154Y-120508976D01*
X57240570Y-120493070D01*
X57256476Y-120478654D01*
X57273719Y-120465866D01*
X57292132Y-120454830D01*
X57311538Y-120445651D01*
X57331750Y-120438419D01*
X57352574Y-120433203D01*
X57373809Y-120430053D01*
X57395250Y-120429000D01*
X57832750Y-120429000D01*
X57854191Y-120430053D01*
X57854191Y-120430053D01*
G37*
D13*
X57614000Y-120904000D03*
D12*
G36*
X56279191Y-120430053D02*
X56300426Y-120433203D01*
X56321250Y-120438419D01*
X56341462Y-120445651D01*
X56360868Y-120454830D01*
X56379281Y-120465866D01*
X56396524Y-120478654D01*
X56412430Y-120493070D01*
X56426846Y-120508976D01*
X56439634Y-120526219D01*
X56450670Y-120544632D01*
X56459849Y-120564038D01*
X56467081Y-120584250D01*
X56472297Y-120605074D01*
X56475447Y-120626309D01*
X56476500Y-120647750D01*
X56476500Y-121160250D01*
X56475447Y-121181691D01*
X56472297Y-121202926D01*
X56467081Y-121223750D01*
X56459849Y-121243962D01*
X56450670Y-121263368D01*
X56439634Y-121281781D01*
X56426846Y-121299024D01*
X56412430Y-121314930D01*
X56396524Y-121329346D01*
X56379281Y-121342134D01*
X56360868Y-121353170D01*
X56341462Y-121362349D01*
X56321250Y-121369581D01*
X56300426Y-121374797D01*
X56279191Y-121377947D01*
X56257750Y-121379000D01*
X55820250Y-121379000D01*
X55798809Y-121377947D01*
X55777574Y-121374797D01*
X55756750Y-121369581D01*
X55736538Y-121362349D01*
X55717132Y-121353170D01*
X55698719Y-121342134D01*
X55681476Y-121329346D01*
X55665570Y-121314930D01*
X55651154Y-121299024D01*
X55638366Y-121281781D01*
X55627330Y-121263368D01*
X55618151Y-121243962D01*
X55610919Y-121223750D01*
X55605703Y-121202926D01*
X55602553Y-121181691D01*
X55601500Y-121160250D01*
X55601500Y-120647750D01*
X55602553Y-120626309D01*
X55605703Y-120605074D01*
X55610919Y-120584250D01*
X55618151Y-120564038D01*
X55627330Y-120544632D01*
X55638366Y-120526219D01*
X55651154Y-120508976D01*
X55665570Y-120493070D01*
X55681476Y-120478654D01*
X55698719Y-120465866D01*
X55717132Y-120454830D01*
X55736538Y-120445651D01*
X55756750Y-120438419D01*
X55777574Y-120433203D01*
X55798809Y-120430053D01*
X55820250Y-120429000D01*
X56257750Y-120429000D01*
X56279191Y-120430053D01*
X56279191Y-120430053D01*
G37*
D13*
X56039000Y-120904000D03*
G04 #@! TD*
D12*
G04 #@! TO.C,R7*
G36*
X55967691Y-87283053D02*
X55988926Y-87286203D01*
X56009750Y-87291419D01*
X56029962Y-87298651D01*
X56049368Y-87307830D01*
X56067781Y-87318866D01*
X56085024Y-87331654D01*
X56100930Y-87346070D01*
X56115346Y-87361976D01*
X56128134Y-87379219D01*
X56139170Y-87397632D01*
X56148349Y-87417038D01*
X56155581Y-87437250D01*
X56160797Y-87458074D01*
X56163947Y-87479309D01*
X56165000Y-87500750D01*
X56165000Y-88013250D01*
X56163947Y-88034691D01*
X56160797Y-88055926D01*
X56155581Y-88076750D01*
X56148349Y-88096962D01*
X56139170Y-88116368D01*
X56128134Y-88134781D01*
X56115346Y-88152024D01*
X56100930Y-88167930D01*
X56085024Y-88182346D01*
X56067781Y-88195134D01*
X56049368Y-88206170D01*
X56029962Y-88215349D01*
X56009750Y-88222581D01*
X55988926Y-88227797D01*
X55967691Y-88230947D01*
X55946250Y-88232000D01*
X55508750Y-88232000D01*
X55487309Y-88230947D01*
X55466074Y-88227797D01*
X55445250Y-88222581D01*
X55425038Y-88215349D01*
X55405632Y-88206170D01*
X55387219Y-88195134D01*
X55369976Y-88182346D01*
X55354070Y-88167930D01*
X55339654Y-88152024D01*
X55326866Y-88134781D01*
X55315830Y-88116368D01*
X55306651Y-88096962D01*
X55299419Y-88076750D01*
X55294203Y-88055926D01*
X55291053Y-88034691D01*
X55290000Y-88013250D01*
X55290000Y-87500750D01*
X55291053Y-87479309D01*
X55294203Y-87458074D01*
X55299419Y-87437250D01*
X55306651Y-87417038D01*
X55315830Y-87397632D01*
X55326866Y-87379219D01*
X55339654Y-87361976D01*
X55354070Y-87346070D01*
X55369976Y-87331654D01*
X55387219Y-87318866D01*
X55405632Y-87307830D01*
X55425038Y-87298651D01*
X55445250Y-87291419D01*
X55466074Y-87286203D01*
X55487309Y-87283053D01*
X55508750Y-87282000D01*
X55946250Y-87282000D01*
X55967691Y-87283053D01*
X55967691Y-87283053D01*
G37*
D13*
X55727500Y-87757000D03*
D12*
G36*
X57542691Y-87283053D02*
X57563926Y-87286203D01*
X57584750Y-87291419D01*
X57604962Y-87298651D01*
X57624368Y-87307830D01*
X57642781Y-87318866D01*
X57660024Y-87331654D01*
X57675930Y-87346070D01*
X57690346Y-87361976D01*
X57703134Y-87379219D01*
X57714170Y-87397632D01*
X57723349Y-87417038D01*
X57730581Y-87437250D01*
X57735797Y-87458074D01*
X57738947Y-87479309D01*
X57740000Y-87500750D01*
X57740000Y-88013250D01*
X57738947Y-88034691D01*
X57735797Y-88055926D01*
X57730581Y-88076750D01*
X57723349Y-88096962D01*
X57714170Y-88116368D01*
X57703134Y-88134781D01*
X57690346Y-88152024D01*
X57675930Y-88167930D01*
X57660024Y-88182346D01*
X57642781Y-88195134D01*
X57624368Y-88206170D01*
X57604962Y-88215349D01*
X57584750Y-88222581D01*
X57563926Y-88227797D01*
X57542691Y-88230947D01*
X57521250Y-88232000D01*
X57083750Y-88232000D01*
X57062309Y-88230947D01*
X57041074Y-88227797D01*
X57020250Y-88222581D01*
X57000038Y-88215349D01*
X56980632Y-88206170D01*
X56962219Y-88195134D01*
X56944976Y-88182346D01*
X56929070Y-88167930D01*
X56914654Y-88152024D01*
X56901866Y-88134781D01*
X56890830Y-88116368D01*
X56881651Y-88096962D01*
X56874419Y-88076750D01*
X56869203Y-88055926D01*
X56866053Y-88034691D01*
X56865000Y-88013250D01*
X56865000Y-87500750D01*
X56866053Y-87479309D01*
X56869203Y-87458074D01*
X56874419Y-87437250D01*
X56881651Y-87417038D01*
X56890830Y-87397632D01*
X56901866Y-87379219D01*
X56914654Y-87361976D01*
X56929070Y-87346070D01*
X56944976Y-87331654D01*
X56962219Y-87318866D01*
X56980632Y-87307830D01*
X57000038Y-87298651D01*
X57020250Y-87291419D01*
X57041074Y-87286203D01*
X57062309Y-87283053D01*
X57083750Y-87282000D01*
X57521250Y-87282000D01*
X57542691Y-87283053D01*
X57542691Y-87283053D01*
G37*
D13*
X57302500Y-87757000D03*
G04 #@! TD*
D12*
G04 #@! TO.C,R6*
G36*
X52284691Y-87283053D02*
X52305926Y-87286203D01*
X52326750Y-87291419D01*
X52346962Y-87298651D01*
X52366368Y-87307830D01*
X52384781Y-87318866D01*
X52402024Y-87331654D01*
X52417930Y-87346070D01*
X52432346Y-87361976D01*
X52445134Y-87379219D01*
X52456170Y-87397632D01*
X52465349Y-87417038D01*
X52472581Y-87437250D01*
X52477797Y-87458074D01*
X52480947Y-87479309D01*
X52482000Y-87500750D01*
X52482000Y-88013250D01*
X52480947Y-88034691D01*
X52477797Y-88055926D01*
X52472581Y-88076750D01*
X52465349Y-88096962D01*
X52456170Y-88116368D01*
X52445134Y-88134781D01*
X52432346Y-88152024D01*
X52417930Y-88167930D01*
X52402024Y-88182346D01*
X52384781Y-88195134D01*
X52366368Y-88206170D01*
X52346962Y-88215349D01*
X52326750Y-88222581D01*
X52305926Y-88227797D01*
X52284691Y-88230947D01*
X52263250Y-88232000D01*
X51825750Y-88232000D01*
X51804309Y-88230947D01*
X51783074Y-88227797D01*
X51762250Y-88222581D01*
X51742038Y-88215349D01*
X51722632Y-88206170D01*
X51704219Y-88195134D01*
X51686976Y-88182346D01*
X51671070Y-88167930D01*
X51656654Y-88152024D01*
X51643866Y-88134781D01*
X51632830Y-88116368D01*
X51623651Y-88096962D01*
X51616419Y-88076750D01*
X51611203Y-88055926D01*
X51608053Y-88034691D01*
X51607000Y-88013250D01*
X51607000Y-87500750D01*
X51608053Y-87479309D01*
X51611203Y-87458074D01*
X51616419Y-87437250D01*
X51623651Y-87417038D01*
X51632830Y-87397632D01*
X51643866Y-87379219D01*
X51656654Y-87361976D01*
X51671070Y-87346070D01*
X51686976Y-87331654D01*
X51704219Y-87318866D01*
X51722632Y-87307830D01*
X51742038Y-87298651D01*
X51762250Y-87291419D01*
X51783074Y-87286203D01*
X51804309Y-87283053D01*
X51825750Y-87282000D01*
X52263250Y-87282000D01*
X52284691Y-87283053D01*
X52284691Y-87283053D01*
G37*
D13*
X52044500Y-87757000D03*
D12*
G36*
X53859691Y-87283053D02*
X53880926Y-87286203D01*
X53901750Y-87291419D01*
X53921962Y-87298651D01*
X53941368Y-87307830D01*
X53959781Y-87318866D01*
X53977024Y-87331654D01*
X53992930Y-87346070D01*
X54007346Y-87361976D01*
X54020134Y-87379219D01*
X54031170Y-87397632D01*
X54040349Y-87417038D01*
X54047581Y-87437250D01*
X54052797Y-87458074D01*
X54055947Y-87479309D01*
X54057000Y-87500750D01*
X54057000Y-88013250D01*
X54055947Y-88034691D01*
X54052797Y-88055926D01*
X54047581Y-88076750D01*
X54040349Y-88096962D01*
X54031170Y-88116368D01*
X54020134Y-88134781D01*
X54007346Y-88152024D01*
X53992930Y-88167930D01*
X53977024Y-88182346D01*
X53959781Y-88195134D01*
X53941368Y-88206170D01*
X53921962Y-88215349D01*
X53901750Y-88222581D01*
X53880926Y-88227797D01*
X53859691Y-88230947D01*
X53838250Y-88232000D01*
X53400750Y-88232000D01*
X53379309Y-88230947D01*
X53358074Y-88227797D01*
X53337250Y-88222581D01*
X53317038Y-88215349D01*
X53297632Y-88206170D01*
X53279219Y-88195134D01*
X53261976Y-88182346D01*
X53246070Y-88167930D01*
X53231654Y-88152024D01*
X53218866Y-88134781D01*
X53207830Y-88116368D01*
X53198651Y-88096962D01*
X53191419Y-88076750D01*
X53186203Y-88055926D01*
X53183053Y-88034691D01*
X53182000Y-88013250D01*
X53182000Y-87500750D01*
X53183053Y-87479309D01*
X53186203Y-87458074D01*
X53191419Y-87437250D01*
X53198651Y-87417038D01*
X53207830Y-87397632D01*
X53218866Y-87379219D01*
X53231654Y-87361976D01*
X53246070Y-87346070D01*
X53261976Y-87331654D01*
X53279219Y-87318866D01*
X53297632Y-87307830D01*
X53317038Y-87298651D01*
X53337250Y-87291419D01*
X53358074Y-87286203D01*
X53379309Y-87283053D01*
X53400750Y-87282000D01*
X53838250Y-87282000D01*
X53859691Y-87283053D01*
X53859691Y-87283053D01*
G37*
D13*
X53619500Y-87757000D03*
G04 #@! TD*
D12*
G04 #@! TO.C,R5*
G36*
X61225691Y-87283053D02*
X61246926Y-87286203D01*
X61267750Y-87291419D01*
X61287962Y-87298651D01*
X61307368Y-87307830D01*
X61325781Y-87318866D01*
X61343024Y-87331654D01*
X61358930Y-87346070D01*
X61373346Y-87361976D01*
X61386134Y-87379219D01*
X61397170Y-87397632D01*
X61406349Y-87417038D01*
X61413581Y-87437250D01*
X61418797Y-87458074D01*
X61421947Y-87479309D01*
X61423000Y-87500750D01*
X61423000Y-88013250D01*
X61421947Y-88034691D01*
X61418797Y-88055926D01*
X61413581Y-88076750D01*
X61406349Y-88096962D01*
X61397170Y-88116368D01*
X61386134Y-88134781D01*
X61373346Y-88152024D01*
X61358930Y-88167930D01*
X61343024Y-88182346D01*
X61325781Y-88195134D01*
X61307368Y-88206170D01*
X61287962Y-88215349D01*
X61267750Y-88222581D01*
X61246926Y-88227797D01*
X61225691Y-88230947D01*
X61204250Y-88232000D01*
X60766750Y-88232000D01*
X60745309Y-88230947D01*
X60724074Y-88227797D01*
X60703250Y-88222581D01*
X60683038Y-88215349D01*
X60663632Y-88206170D01*
X60645219Y-88195134D01*
X60627976Y-88182346D01*
X60612070Y-88167930D01*
X60597654Y-88152024D01*
X60584866Y-88134781D01*
X60573830Y-88116368D01*
X60564651Y-88096962D01*
X60557419Y-88076750D01*
X60552203Y-88055926D01*
X60549053Y-88034691D01*
X60548000Y-88013250D01*
X60548000Y-87500750D01*
X60549053Y-87479309D01*
X60552203Y-87458074D01*
X60557419Y-87437250D01*
X60564651Y-87417038D01*
X60573830Y-87397632D01*
X60584866Y-87379219D01*
X60597654Y-87361976D01*
X60612070Y-87346070D01*
X60627976Y-87331654D01*
X60645219Y-87318866D01*
X60663632Y-87307830D01*
X60683038Y-87298651D01*
X60703250Y-87291419D01*
X60724074Y-87286203D01*
X60745309Y-87283053D01*
X60766750Y-87282000D01*
X61204250Y-87282000D01*
X61225691Y-87283053D01*
X61225691Y-87283053D01*
G37*
D13*
X60985500Y-87757000D03*
D12*
G36*
X59650691Y-87283053D02*
X59671926Y-87286203D01*
X59692750Y-87291419D01*
X59712962Y-87298651D01*
X59732368Y-87307830D01*
X59750781Y-87318866D01*
X59768024Y-87331654D01*
X59783930Y-87346070D01*
X59798346Y-87361976D01*
X59811134Y-87379219D01*
X59822170Y-87397632D01*
X59831349Y-87417038D01*
X59838581Y-87437250D01*
X59843797Y-87458074D01*
X59846947Y-87479309D01*
X59848000Y-87500750D01*
X59848000Y-88013250D01*
X59846947Y-88034691D01*
X59843797Y-88055926D01*
X59838581Y-88076750D01*
X59831349Y-88096962D01*
X59822170Y-88116368D01*
X59811134Y-88134781D01*
X59798346Y-88152024D01*
X59783930Y-88167930D01*
X59768024Y-88182346D01*
X59750781Y-88195134D01*
X59732368Y-88206170D01*
X59712962Y-88215349D01*
X59692750Y-88222581D01*
X59671926Y-88227797D01*
X59650691Y-88230947D01*
X59629250Y-88232000D01*
X59191750Y-88232000D01*
X59170309Y-88230947D01*
X59149074Y-88227797D01*
X59128250Y-88222581D01*
X59108038Y-88215349D01*
X59088632Y-88206170D01*
X59070219Y-88195134D01*
X59052976Y-88182346D01*
X59037070Y-88167930D01*
X59022654Y-88152024D01*
X59009866Y-88134781D01*
X58998830Y-88116368D01*
X58989651Y-88096962D01*
X58982419Y-88076750D01*
X58977203Y-88055926D01*
X58974053Y-88034691D01*
X58973000Y-88013250D01*
X58973000Y-87500750D01*
X58974053Y-87479309D01*
X58977203Y-87458074D01*
X58982419Y-87437250D01*
X58989651Y-87417038D01*
X58998830Y-87397632D01*
X59009866Y-87379219D01*
X59022654Y-87361976D01*
X59037070Y-87346070D01*
X59052976Y-87331654D01*
X59070219Y-87318866D01*
X59088632Y-87307830D01*
X59108038Y-87298651D01*
X59128250Y-87291419D01*
X59149074Y-87286203D01*
X59170309Y-87283053D01*
X59191750Y-87282000D01*
X59629250Y-87282000D01*
X59650691Y-87283053D01*
X59650691Y-87283053D01*
G37*
D13*
X59410500Y-87757000D03*
G04 #@! TD*
D12*
G04 #@! TO.C,R4*
G36*
X59699191Y-103793053D02*
X59720426Y-103796203D01*
X59741250Y-103801419D01*
X59761462Y-103808651D01*
X59780868Y-103817830D01*
X59799281Y-103828866D01*
X59816524Y-103841654D01*
X59832430Y-103856070D01*
X59846846Y-103871976D01*
X59859634Y-103889219D01*
X59870670Y-103907632D01*
X59879849Y-103927038D01*
X59887081Y-103947250D01*
X59892297Y-103968074D01*
X59895447Y-103989309D01*
X59896500Y-104010750D01*
X59896500Y-104523250D01*
X59895447Y-104544691D01*
X59892297Y-104565926D01*
X59887081Y-104586750D01*
X59879849Y-104606962D01*
X59870670Y-104626368D01*
X59859634Y-104644781D01*
X59846846Y-104662024D01*
X59832430Y-104677930D01*
X59816524Y-104692346D01*
X59799281Y-104705134D01*
X59780868Y-104716170D01*
X59761462Y-104725349D01*
X59741250Y-104732581D01*
X59720426Y-104737797D01*
X59699191Y-104740947D01*
X59677750Y-104742000D01*
X59240250Y-104742000D01*
X59218809Y-104740947D01*
X59197574Y-104737797D01*
X59176750Y-104732581D01*
X59156538Y-104725349D01*
X59137132Y-104716170D01*
X59118719Y-104705134D01*
X59101476Y-104692346D01*
X59085570Y-104677930D01*
X59071154Y-104662024D01*
X59058366Y-104644781D01*
X59047330Y-104626368D01*
X59038151Y-104606962D01*
X59030919Y-104586750D01*
X59025703Y-104565926D01*
X59022553Y-104544691D01*
X59021500Y-104523250D01*
X59021500Y-104010750D01*
X59022553Y-103989309D01*
X59025703Y-103968074D01*
X59030919Y-103947250D01*
X59038151Y-103927038D01*
X59047330Y-103907632D01*
X59058366Y-103889219D01*
X59071154Y-103871976D01*
X59085570Y-103856070D01*
X59101476Y-103841654D01*
X59118719Y-103828866D01*
X59137132Y-103817830D01*
X59156538Y-103808651D01*
X59176750Y-103801419D01*
X59197574Y-103796203D01*
X59218809Y-103793053D01*
X59240250Y-103792000D01*
X59677750Y-103792000D01*
X59699191Y-103793053D01*
X59699191Y-103793053D01*
G37*
D13*
X59459000Y-104267000D03*
D12*
G36*
X61274191Y-103793053D02*
X61295426Y-103796203D01*
X61316250Y-103801419D01*
X61336462Y-103808651D01*
X61355868Y-103817830D01*
X61374281Y-103828866D01*
X61391524Y-103841654D01*
X61407430Y-103856070D01*
X61421846Y-103871976D01*
X61434634Y-103889219D01*
X61445670Y-103907632D01*
X61454849Y-103927038D01*
X61462081Y-103947250D01*
X61467297Y-103968074D01*
X61470447Y-103989309D01*
X61471500Y-104010750D01*
X61471500Y-104523250D01*
X61470447Y-104544691D01*
X61467297Y-104565926D01*
X61462081Y-104586750D01*
X61454849Y-104606962D01*
X61445670Y-104626368D01*
X61434634Y-104644781D01*
X61421846Y-104662024D01*
X61407430Y-104677930D01*
X61391524Y-104692346D01*
X61374281Y-104705134D01*
X61355868Y-104716170D01*
X61336462Y-104725349D01*
X61316250Y-104732581D01*
X61295426Y-104737797D01*
X61274191Y-104740947D01*
X61252750Y-104742000D01*
X60815250Y-104742000D01*
X60793809Y-104740947D01*
X60772574Y-104737797D01*
X60751750Y-104732581D01*
X60731538Y-104725349D01*
X60712132Y-104716170D01*
X60693719Y-104705134D01*
X60676476Y-104692346D01*
X60660570Y-104677930D01*
X60646154Y-104662024D01*
X60633366Y-104644781D01*
X60622330Y-104626368D01*
X60613151Y-104606962D01*
X60605919Y-104586750D01*
X60600703Y-104565926D01*
X60597553Y-104544691D01*
X60596500Y-104523250D01*
X60596500Y-104010750D01*
X60597553Y-103989309D01*
X60600703Y-103968074D01*
X60605919Y-103947250D01*
X60613151Y-103927038D01*
X60622330Y-103907632D01*
X60633366Y-103889219D01*
X60646154Y-103871976D01*
X60660570Y-103856070D01*
X60676476Y-103841654D01*
X60693719Y-103828866D01*
X60712132Y-103817830D01*
X60731538Y-103808651D01*
X60751750Y-103801419D01*
X60772574Y-103796203D01*
X60793809Y-103793053D01*
X60815250Y-103792000D01*
X61252750Y-103792000D01*
X61274191Y-103793053D01*
X61274191Y-103793053D01*
G37*
D13*
X61034000Y-104267000D03*
G04 #@! TD*
D12*
G04 #@! TO.C,R3*
G36*
X56094691Y-103793053D02*
X56115926Y-103796203D01*
X56136750Y-103801419D01*
X56156962Y-103808651D01*
X56176368Y-103817830D01*
X56194781Y-103828866D01*
X56212024Y-103841654D01*
X56227930Y-103856070D01*
X56242346Y-103871976D01*
X56255134Y-103889219D01*
X56266170Y-103907632D01*
X56275349Y-103927038D01*
X56282581Y-103947250D01*
X56287797Y-103968074D01*
X56290947Y-103989309D01*
X56292000Y-104010750D01*
X56292000Y-104523250D01*
X56290947Y-104544691D01*
X56287797Y-104565926D01*
X56282581Y-104586750D01*
X56275349Y-104606962D01*
X56266170Y-104626368D01*
X56255134Y-104644781D01*
X56242346Y-104662024D01*
X56227930Y-104677930D01*
X56212024Y-104692346D01*
X56194781Y-104705134D01*
X56176368Y-104716170D01*
X56156962Y-104725349D01*
X56136750Y-104732581D01*
X56115926Y-104737797D01*
X56094691Y-104740947D01*
X56073250Y-104742000D01*
X55635750Y-104742000D01*
X55614309Y-104740947D01*
X55593074Y-104737797D01*
X55572250Y-104732581D01*
X55552038Y-104725349D01*
X55532632Y-104716170D01*
X55514219Y-104705134D01*
X55496976Y-104692346D01*
X55481070Y-104677930D01*
X55466654Y-104662024D01*
X55453866Y-104644781D01*
X55442830Y-104626368D01*
X55433651Y-104606962D01*
X55426419Y-104586750D01*
X55421203Y-104565926D01*
X55418053Y-104544691D01*
X55417000Y-104523250D01*
X55417000Y-104010750D01*
X55418053Y-103989309D01*
X55421203Y-103968074D01*
X55426419Y-103947250D01*
X55433651Y-103927038D01*
X55442830Y-103907632D01*
X55453866Y-103889219D01*
X55466654Y-103871976D01*
X55481070Y-103856070D01*
X55496976Y-103841654D01*
X55514219Y-103828866D01*
X55532632Y-103817830D01*
X55552038Y-103808651D01*
X55572250Y-103801419D01*
X55593074Y-103796203D01*
X55614309Y-103793053D01*
X55635750Y-103792000D01*
X56073250Y-103792000D01*
X56094691Y-103793053D01*
X56094691Y-103793053D01*
G37*
D13*
X55854500Y-104267000D03*
D12*
G36*
X57669691Y-103793053D02*
X57690926Y-103796203D01*
X57711750Y-103801419D01*
X57731962Y-103808651D01*
X57751368Y-103817830D01*
X57769781Y-103828866D01*
X57787024Y-103841654D01*
X57802930Y-103856070D01*
X57817346Y-103871976D01*
X57830134Y-103889219D01*
X57841170Y-103907632D01*
X57850349Y-103927038D01*
X57857581Y-103947250D01*
X57862797Y-103968074D01*
X57865947Y-103989309D01*
X57867000Y-104010750D01*
X57867000Y-104523250D01*
X57865947Y-104544691D01*
X57862797Y-104565926D01*
X57857581Y-104586750D01*
X57850349Y-104606962D01*
X57841170Y-104626368D01*
X57830134Y-104644781D01*
X57817346Y-104662024D01*
X57802930Y-104677930D01*
X57787024Y-104692346D01*
X57769781Y-104705134D01*
X57751368Y-104716170D01*
X57731962Y-104725349D01*
X57711750Y-104732581D01*
X57690926Y-104737797D01*
X57669691Y-104740947D01*
X57648250Y-104742000D01*
X57210750Y-104742000D01*
X57189309Y-104740947D01*
X57168074Y-104737797D01*
X57147250Y-104732581D01*
X57127038Y-104725349D01*
X57107632Y-104716170D01*
X57089219Y-104705134D01*
X57071976Y-104692346D01*
X57056070Y-104677930D01*
X57041654Y-104662024D01*
X57028866Y-104644781D01*
X57017830Y-104626368D01*
X57008651Y-104606962D01*
X57001419Y-104586750D01*
X56996203Y-104565926D01*
X56993053Y-104544691D01*
X56992000Y-104523250D01*
X56992000Y-104010750D01*
X56993053Y-103989309D01*
X56996203Y-103968074D01*
X57001419Y-103947250D01*
X57008651Y-103927038D01*
X57017830Y-103907632D01*
X57028866Y-103889219D01*
X57041654Y-103871976D01*
X57056070Y-103856070D01*
X57071976Y-103841654D01*
X57089219Y-103828866D01*
X57107632Y-103817830D01*
X57127038Y-103808651D01*
X57147250Y-103801419D01*
X57168074Y-103796203D01*
X57189309Y-103793053D01*
X57210750Y-103792000D01*
X57648250Y-103792000D01*
X57669691Y-103793053D01*
X57669691Y-103793053D01*
G37*
D13*
X57429500Y-104267000D03*
G04 #@! TD*
D12*
G04 #@! TO.C,R2*
G36*
X52363191Y-103793053D02*
X52384426Y-103796203D01*
X52405250Y-103801419D01*
X52425462Y-103808651D01*
X52444868Y-103817830D01*
X52463281Y-103828866D01*
X52480524Y-103841654D01*
X52496430Y-103856070D01*
X52510846Y-103871976D01*
X52523634Y-103889219D01*
X52534670Y-103907632D01*
X52543849Y-103927038D01*
X52551081Y-103947250D01*
X52556297Y-103968074D01*
X52559447Y-103989309D01*
X52560500Y-104010750D01*
X52560500Y-104523250D01*
X52559447Y-104544691D01*
X52556297Y-104565926D01*
X52551081Y-104586750D01*
X52543849Y-104606962D01*
X52534670Y-104626368D01*
X52523634Y-104644781D01*
X52510846Y-104662024D01*
X52496430Y-104677930D01*
X52480524Y-104692346D01*
X52463281Y-104705134D01*
X52444868Y-104716170D01*
X52425462Y-104725349D01*
X52405250Y-104732581D01*
X52384426Y-104737797D01*
X52363191Y-104740947D01*
X52341750Y-104742000D01*
X51904250Y-104742000D01*
X51882809Y-104740947D01*
X51861574Y-104737797D01*
X51840750Y-104732581D01*
X51820538Y-104725349D01*
X51801132Y-104716170D01*
X51782719Y-104705134D01*
X51765476Y-104692346D01*
X51749570Y-104677930D01*
X51735154Y-104662024D01*
X51722366Y-104644781D01*
X51711330Y-104626368D01*
X51702151Y-104606962D01*
X51694919Y-104586750D01*
X51689703Y-104565926D01*
X51686553Y-104544691D01*
X51685500Y-104523250D01*
X51685500Y-104010750D01*
X51686553Y-103989309D01*
X51689703Y-103968074D01*
X51694919Y-103947250D01*
X51702151Y-103927038D01*
X51711330Y-103907632D01*
X51722366Y-103889219D01*
X51735154Y-103871976D01*
X51749570Y-103856070D01*
X51765476Y-103841654D01*
X51782719Y-103828866D01*
X51801132Y-103817830D01*
X51820538Y-103808651D01*
X51840750Y-103801419D01*
X51861574Y-103796203D01*
X51882809Y-103793053D01*
X51904250Y-103792000D01*
X52341750Y-103792000D01*
X52363191Y-103793053D01*
X52363191Y-103793053D01*
G37*
D13*
X52123000Y-104267000D03*
D12*
G36*
X53938191Y-103793053D02*
X53959426Y-103796203D01*
X53980250Y-103801419D01*
X54000462Y-103808651D01*
X54019868Y-103817830D01*
X54038281Y-103828866D01*
X54055524Y-103841654D01*
X54071430Y-103856070D01*
X54085846Y-103871976D01*
X54098634Y-103889219D01*
X54109670Y-103907632D01*
X54118849Y-103927038D01*
X54126081Y-103947250D01*
X54131297Y-103968074D01*
X54134447Y-103989309D01*
X54135500Y-104010750D01*
X54135500Y-104523250D01*
X54134447Y-104544691D01*
X54131297Y-104565926D01*
X54126081Y-104586750D01*
X54118849Y-104606962D01*
X54109670Y-104626368D01*
X54098634Y-104644781D01*
X54085846Y-104662024D01*
X54071430Y-104677930D01*
X54055524Y-104692346D01*
X54038281Y-104705134D01*
X54019868Y-104716170D01*
X54000462Y-104725349D01*
X53980250Y-104732581D01*
X53959426Y-104737797D01*
X53938191Y-104740947D01*
X53916750Y-104742000D01*
X53479250Y-104742000D01*
X53457809Y-104740947D01*
X53436574Y-104737797D01*
X53415750Y-104732581D01*
X53395538Y-104725349D01*
X53376132Y-104716170D01*
X53357719Y-104705134D01*
X53340476Y-104692346D01*
X53324570Y-104677930D01*
X53310154Y-104662024D01*
X53297366Y-104644781D01*
X53286330Y-104626368D01*
X53277151Y-104606962D01*
X53269919Y-104586750D01*
X53264703Y-104565926D01*
X53261553Y-104544691D01*
X53260500Y-104523250D01*
X53260500Y-104010750D01*
X53261553Y-103989309D01*
X53264703Y-103968074D01*
X53269919Y-103947250D01*
X53277151Y-103927038D01*
X53286330Y-103907632D01*
X53297366Y-103889219D01*
X53310154Y-103871976D01*
X53324570Y-103856070D01*
X53340476Y-103841654D01*
X53357719Y-103828866D01*
X53376132Y-103817830D01*
X53395538Y-103808651D01*
X53415750Y-103801419D01*
X53436574Y-103796203D01*
X53457809Y-103793053D01*
X53479250Y-103792000D01*
X53916750Y-103792000D01*
X53938191Y-103793053D01*
X53938191Y-103793053D01*
G37*
D13*
X53698000Y-104267000D03*
G04 #@! TD*
D12*
G04 #@! TO.C,R1*
G36*
X53938191Y-120430053D02*
X53959426Y-120433203D01*
X53980250Y-120438419D01*
X54000462Y-120445651D01*
X54019868Y-120454830D01*
X54038281Y-120465866D01*
X54055524Y-120478654D01*
X54071430Y-120493070D01*
X54085846Y-120508976D01*
X54098634Y-120526219D01*
X54109670Y-120544632D01*
X54118849Y-120564038D01*
X54126081Y-120584250D01*
X54131297Y-120605074D01*
X54134447Y-120626309D01*
X54135500Y-120647750D01*
X54135500Y-121160250D01*
X54134447Y-121181691D01*
X54131297Y-121202926D01*
X54126081Y-121223750D01*
X54118849Y-121243962D01*
X54109670Y-121263368D01*
X54098634Y-121281781D01*
X54085846Y-121299024D01*
X54071430Y-121314930D01*
X54055524Y-121329346D01*
X54038281Y-121342134D01*
X54019868Y-121353170D01*
X54000462Y-121362349D01*
X53980250Y-121369581D01*
X53959426Y-121374797D01*
X53938191Y-121377947D01*
X53916750Y-121379000D01*
X53479250Y-121379000D01*
X53457809Y-121377947D01*
X53436574Y-121374797D01*
X53415750Y-121369581D01*
X53395538Y-121362349D01*
X53376132Y-121353170D01*
X53357719Y-121342134D01*
X53340476Y-121329346D01*
X53324570Y-121314930D01*
X53310154Y-121299024D01*
X53297366Y-121281781D01*
X53286330Y-121263368D01*
X53277151Y-121243962D01*
X53269919Y-121223750D01*
X53264703Y-121202926D01*
X53261553Y-121181691D01*
X53260500Y-121160250D01*
X53260500Y-120647750D01*
X53261553Y-120626309D01*
X53264703Y-120605074D01*
X53269919Y-120584250D01*
X53277151Y-120564038D01*
X53286330Y-120544632D01*
X53297366Y-120526219D01*
X53310154Y-120508976D01*
X53324570Y-120493070D01*
X53340476Y-120478654D01*
X53357719Y-120465866D01*
X53376132Y-120454830D01*
X53395538Y-120445651D01*
X53415750Y-120438419D01*
X53436574Y-120433203D01*
X53457809Y-120430053D01*
X53479250Y-120429000D01*
X53916750Y-120429000D01*
X53938191Y-120430053D01*
X53938191Y-120430053D01*
G37*
D13*
X53698000Y-120904000D03*
D12*
G36*
X52363191Y-120430053D02*
X52384426Y-120433203D01*
X52405250Y-120438419D01*
X52425462Y-120445651D01*
X52444868Y-120454830D01*
X52463281Y-120465866D01*
X52480524Y-120478654D01*
X52496430Y-120493070D01*
X52510846Y-120508976D01*
X52523634Y-120526219D01*
X52534670Y-120544632D01*
X52543849Y-120564038D01*
X52551081Y-120584250D01*
X52556297Y-120605074D01*
X52559447Y-120626309D01*
X52560500Y-120647750D01*
X52560500Y-121160250D01*
X52559447Y-121181691D01*
X52556297Y-121202926D01*
X52551081Y-121223750D01*
X52543849Y-121243962D01*
X52534670Y-121263368D01*
X52523634Y-121281781D01*
X52510846Y-121299024D01*
X52496430Y-121314930D01*
X52480524Y-121329346D01*
X52463281Y-121342134D01*
X52444868Y-121353170D01*
X52425462Y-121362349D01*
X52405250Y-121369581D01*
X52384426Y-121374797D01*
X52363191Y-121377947D01*
X52341750Y-121379000D01*
X51904250Y-121379000D01*
X51882809Y-121377947D01*
X51861574Y-121374797D01*
X51840750Y-121369581D01*
X51820538Y-121362349D01*
X51801132Y-121353170D01*
X51782719Y-121342134D01*
X51765476Y-121329346D01*
X51749570Y-121314930D01*
X51735154Y-121299024D01*
X51722366Y-121281781D01*
X51711330Y-121263368D01*
X51702151Y-121243962D01*
X51694919Y-121223750D01*
X51689703Y-121202926D01*
X51686553Y-121181691D01*
X51685500Y-121160250D01*
X51685500Y-120647750D01*
X51686553Y-120626309D01*
X51689703Y-120605074D01*
X51694919Y-120584250D01*
X51702151Y-120564038D01*
X51711330Y-120544632D01*
X51722366Y-120526219D01*
X51735154Y-120508976D01*
X51749570Y-120493070D01*
X51765476Y-120478654D01*
X51782719Y-120465866D01*
X51801132Y-120454830D01*
X51820538Y-120445651D01*
X51840750Y-120438419D01*
X51861574Y-120433203D01*
X51882809Y-120430053D01*
X51904250Y-120429000D01*
X52341750Y-120429000D01*
X52363191Y-120430053D01*
X52363191Y-120430053D01*
G37*
D13*
X52123000Y-120904000D03*
G04 #@! TD*
D12*
G04 #@! TO.C,R19*
G36*
X63566691Y-105912053D02*
X63587926Y-105915203D01*
X63608750Y-105920419D01*
X63628962Y-105927651D01*
X63648368Y-105936830D01*
X63666781Y-105947866D01*
X63684024Y-105960654D01*
X63699930Y-105975070D01*
X63714346Y-105990976D01*
X63727134Y-106008219D01*
X63738170Y-106026632D01*
X63747349Y-106046038D01*
X63754581Y-106066250D01*
X63759797Y-106087074D01*
X63762947Y-106108309D01*
X63764000Y-106129750D01*
X63764000Y-106642250D01*
X63762947Y-106663691D01*
X63759797Y-106684926D01*
X63754581Y-106705750D01*
X63747349Y-106725962D01*
X63738170Y-106745368D01*
X63727134Y-106763781D01*
X63714346Y-106781024D01*
X63699930Y-106796930D01*
X63684024Y-106811346D01*
X63666781Y-106824134D01*
X63648368Y-106835170D01*
X63628962Y-106844349D01*
X63608750Y-106851581D01*
X63587926Y-106856797D01*
X63566691Y-106859947D01*
X63545250Y-106861000D01*
X63107750Y-106861000D01*
X63086309Y-106859947D01*
X63065074Y-106856797D01*
X63044250Y-106851581D01*
X63024038Y-106844349D01*
X63004632Y-106835170D01*
X62986219Y-106824134D01*
X62968976Y-106811346D01*
X62953070Y-106796930D01*
X62938654Y-106781024D01*
X62925866Y-106763781D01*
X62914830Y-106745368D01*
X62905651Y-106725962D01*
X62898419Y-106705750D01*
X62893203Y-106684926D01*
X62890053Y-106663691D01*
X62889000Y-106642250D01*
X62889000Y-106129750D01*
X62890053Y-106108309D01*
X62893203Y-106087074D01*
X62898419Y-106066250D01*
X62905651Y-106046038D01*
X62914830Y-106026632D01*
X62925866Y-106008219D01*
X62938654Y-105990976D01*
X62953070Y-105975070D01*
X62968976Y-105960654D01*
X62986219Y-105947866D01*
X63004632Y-105936830D01*
X63024038Y-105927651D01*
X63044250Y-105920419D01*
X63065074Y-105915203D01*
X63086309Y-105912053D01*
X63107750Y-105911000D01*
X63545250Y-105911000D01*
X63566691Y-105912053D01*
X63566691Y-105912053D01*
G37*
D13*
X63326500Y-106386000D03*
D12*
G36*
X65141691Y-105912053D02*
X65162926Y-105915203D01*
X65183750Y-105920419D01*
X65203962Y-105927651D01*
X65223368Y-105936830D01*
X65241781Y-105947866D01*
X65259024Y-105960654D01*
X65274930Y-105975070D01*
X65289346Y-105990976D01*
X65302134Y-106008219D01*
X65313170Y-106026632D01*
X65322349Y-106046038D01*
X65329581Y-106066250D01*
X65334797Y-106087074D01*
X65337947Y-106108309D01*
X65339000Y-106129750D01*
X65339000Y-106642250D01*
X65337947Y-106663691D01*
X65334797Y-106684926D01*
X65329581Y-106705750D01*
X65322349Y-106725962D01*
X65313170Y-106745368D01*
X65302134Y-106763781D01*
X65289346Y-106781024D01*
X65274930Y-106796930D01*
X65259024Y-106811346D01*
X65241781Y-106824134D01*
X65223368Y-106835170D01*
X65203962Y-106844349D01*
X65183750Y-106851581D01*
X65162926Y-106856797D01*
X65141691Y-106859947D01*
X65120250Y-106861000D01*
X64682750Y-106861000D01*
X64661309Y-106859947D01*
X64640074Y-106856797D01*
X64619250Y-106851581D01*
X64599038Y-106844349D01*
X64579632Y-106835170D01*
X64561219Y-106824134D01*
X64543976Y-106811346D01*
X64528070Y-106796930D01*
X64513654Y-106781024D01*
X64500866Y-106763781D01*
X64489830Y-106745368D01*
X64480651Y-106725962D01*
X64473419Y-106705750D01*
X64468203Y-106684926D01*
X64465053Y-106663691D01*
X64464000Y-106642250D01*
X64464000Y-106129750D01*
X64465053Y-106108309D01*
X64468203Y-106087074D01*
X64473419Y-106066250D01*
X64480651Y-106046038D01*
X64489830Y-106026632D01*
X64500866Y-106008219D01*
X64513654Y-105990976D01*
X64528070Y-105975070D01*
X64543976Y-105960654D01*
X64561219Y-105947866D01*
X64579632Y-105936830D01*
X64599038Y-105927651D01*
X64619250Y-105920419D01*
X64640074Y-105915203D01*
X64661309Y-105912053D01*
X64682750Y-105911000D01*
X65120250Y-105911000D01*
X65141691Y-105912053D01*
X65141691Y-105912053D01*
G37*
D13*
X64901500Y-106386000D03*
G04 #@! TD*
D12*
G04 #@! TO.C,C2*
G36*
X46167504Y-118547204D02*
X46191773Y-118550804D01*
X46215571Y-118556765D01*
X46238671Y-118565030D01*
X46260849Y-118575520D01*
X46281893Y-118588133D01*
X46301598Y-118602747D01*
X46319777Y-118619223D01*
X46336253Y-118637402D01*
X46350867Y-118657107D01*
X46363480Y-118678151D01*
X46373970Y-118700329D01*
X46382235Y-118723429D01*
X46388196Y-118747227D01*
X46391796Y-118771496D01*
X46393000Y-118796000D01*
X46393000Y-121796000D01*
X46391796Y-121820504D01*
X46388196Y-121844773D01*
X46382235Y-121868571D01*
X46373970Y-121891671D01*
X46363480Y-121913849D01*
X46350867Y-121934893D01*
X46336253Y-121954598D01*
X46319777Y-121972777D01*
X46301598Y-121989253D01*
X46281893Y-122003867D01*
X46260849Y-122016480D01*
X46238671Y-122026970D01*
X46215571Y-122035235D01*
X46191773Y-122041196D01*
X46167504Y-122044796D01*
X46143000Y-122046000D01*
X45043000Y-122046000D01*
X45018496Y-122044796D01*
X44994227Y-122041196D01*
X44970429Y-122035235D01*
X44947329Y-122026970D01*
X44925151Y-122016480D01*
X44904107Y-122003867D01*
X44884402Y-121989253D01*
X44866223Y-121972777D01*
X44849747Y-121954598D01*
X44835133Y-121934893D01*
X44822520Y-121913849D01*
X44812030Y-121891671D01*
X44803765Y-121868571D01*
X44797804Y-121844773D01*
X44794204Y-121820504D01*
X44793000Y-121796000D01*
X44793000Y-118796000D01*
X44794204Y-118771496D01*
X44797804Y-118747227D01*
X44803765Y-118723429D01*
X44812030Y-118700329D01*
X44822520Y-118678151D01*
X44835133Y-118657107D01*
X44849747Y-118637402D01*
X44866223Y-118619223D01*
X44884402Y-118602747D01*
X44904107Y-118588133D01*
X44925151Y-118575520D01*
X44947329Y-118565030D01*
X44970429Y-118556765D01*
X44994227Y-118550804D01*
X45018496Y-118547204D01*
X45043000Y-118546000D01*
X46143000Y-118546000D01*
X46167504Y-118547204D01*
X46167504Y-118547204D01*
G37*
D14*
X45593000Y-120296000D03*
D12*
G36*
X46167504Y-113147204D02*
X46191773Y-113150804D01*
X46215571Y-113156765D01*
X46238671Y-113165030D01*
X46260849Y-113175520D01*
X46281893Y-113188133D01*
X46301598Y-113202747D01*
X46319777Y-113219223D01*
X46336253Y-113237402D01*
X46350867Y-113257107D01*
X46363480Y-113278151D01*
X46373970Y-113300329D01*
X46382235Y-113323429D01*
X46388196Y-113347227D01*
X46391796Y-113371496D01*
X46393000Y-113396000D01*
X46393000Y-116396000D01*
X46391796Y-116420504D01*
X46388196Y-116444773D01*
X46382235Y-116468571D01*
X46373970Y-116491671D01*
X46363480Y-116513849D01*
X46350867Y-116534893D01*
X46336253Y-116554598D01*
X46319777Y-116572777D01*
X46301598Y-116589253D01*
X46281893Y-116603867D01*
X46260849Y-116616480D01*
X46238671Y-116626970D01*
X46215571Y-116635235D01*
X46191773Y-116641196D01*
X46167504Y-116644796D01*
X46143000Y-116646000D01*
X45043000Y-116646000D01*
X45018496Y-116644796D01*
X44994227Y-116641196D01*
X44970429Y-116635235D01*
X44947329Y-116626970D01*
X44925151Y-116616480D01*
X44904107Y-116603867D01*
X44884402Y-116589253D01*
X44866223Y-116572777D01*
X44849747Y-116554598D01*
X44835133Y-116534893D01*
X44822520Y-116513849D01*
X44812030Y-116491671D01*
X44803765Y-116468571D01*
X44797804Y-116444773D01*
X44794204Y-116420504D01*
X44793000Y-116396000D01*
X44793000Y-113396000D01*
X44794204Y-113371496D01*
X44797804Y-113347227D01*
X44803765Y-113323429D01*
X44812030Y-113300329D01*
X44822520Y-113278151D01*
X44835133Y-113257107D01*
X44849747Y-113237402D01*
X44866223Y-113219223D01*
X44884402Y-113202747D01*
X44904107Y-113188133D01*
X44925151Y-113175520D01*
X44947329Y-113165030D01*
X44970429Y-113156765D01*
X44994227Y-113150804D01*
X45018496Y-113147204D01*
X45043000Y-113146000D01*
X46143000Y-113146000D01*
X46167504Y-113147204D01*
X46167504Y-113147204D01*
G37*
D14*
X45593000Y-114896000D03*
G04 #@! TD*
D12*
G04 #@! TO.C,C4*
G36*
X46167504Y-96643204D02*
X46191773Y-96646804D01*
X46215571Y-96652765D01*
X46238671Y-96661030D01*
X46260849Y-96671520D01*
X46281893Y-96684133D01*
X46301598Y-96698747D01*
X46319777Y-96715223D01*
X46336253Y-96733402D01*
X46350867Y-96753107D01*
X46363480Y-96774151D01*
X46373970Y-96796329D01*
X46382235Y-96819429D01*
X46388196Y-96843227D01*
X46391796Y-96867496D01*
X46393000Y-96892000D01*
X46393000Y-99892000D01*
X46391796Y-99916504D01*
X46388196Y-99940773D01*
X46382235Y-99964571D01*
X46373970Y-99987671D01*
X46363480Y-100009849D01*
X46350867Y-100030893D01*
X46336253Y-100050598D01*
X46319777Y-100068777D01*
X46301598Y-100085253D01*
X46281893Y-100099867D01*
X46260849Y-100112480D01*
X46238671Y-100122970D01*
X46215571Y-100131235D01*
X46191773Y-100137196D01*
X46167504Y-100140796D01*
X46143000Y-100142000D01*
X45043000Y-100142000D01*
X45018496Y-100140796D01*
X44994227Y-100137196D01*
X44970429Y-100131235D01*
X44947329Y-100122970D01*
X44925151Y-100112480D01*
X44904107Y-100099867D01*
X44884402Y-100085253D01*
X44866223Y-100068777D01*
X44849747Y-100050598D01*
X44835133Y-100030893D01*
X44822520Y-100009849D01*
X44812030Y-99987671D01*
X44803765Y-99964571D01*
X44797804Y-99940773D01*
X44794204Y-99916504D01*
X44793000Y-99892000D01*
X44793000Y-96892000D01*
X44794204Y-96867496D01*
X44797804Y-96843227D01*
X44803765Y-96819429D01*
X44812030Y-96796329D01*
X44822520Y-96774151D01*
X44835133Y-96753107D01*
X44849747Y-96733402D01*
X44866223Y-96715223D01*
X44884402Y-96698747D01*
X44904107Y-96684133D01*
X44925151Y-96671520D01*
X44947329Y-96661030D01*
X44970429Y-96652765D01*
X44994227Y-96646804D01*
X45018496Y-96643204D01*
X45043000Y-96642000D01*
X46143000Y-96642000D01*
X46167504Y-96643204D01*
X46167504Y-96643204D01*
G37*
D14*
X45593000Y-98392000D03*
D12*
G36*
X46167504Y-102043204D02*
X46191773Y-102046804D01*
X46215571Y-102052765D01*
X46238671Y-102061030D01*
X46260849Y-102071520D01*
X46281893Y-102084133D01*
X46301598Y-102098747D01*
X46319777Y-102115223D01*
X46336253Y-102133402D01*
X46350867Y-102153107D01*
X46363480Y-102174151D01*
X46373970Y-102196329D01*
X46382235Y-102219429D01*
X46388196Y-102243227D01*
X46391796Y-102267496D01*
X46393000Y-102292000D01*
X46393000Y-105292000D01*
X46391796Y-105316504D01*
X46388196Y-105340773D01*
X46382235Y-105364571D01*
X46373970Y-105387671D01*
X46363480Y-105409849D01*
X46350867Y-105430893D01*
X46336253Y-105450598D01*
X46319777Y-105468777D01*
X46301598Y-105485253D01*
X46281893Y-105499867D01*
X46260849Y-105512480D01*
X46238671Y-105522970D01*
X46215571Y-105531235D01*
X46191773Y-105537196D01*
X46167504Y-105540796D01*
X46143000Y-105542000D01*
X45043000Y-105542000D01*
X45018496Y-105540796D01*
X44994227Y-105537196D01*
X44970429Y-105531235D01*
X44947329Y-105522970D01*
X44925151Y-105512480D01*
X44904107Y-105499867D01*
X44884402Y-105485253D01*
X44866223Y-105468777D01*
X44849747Y-105450598D01*
X44835133Y-105430893D01*
X44822520Y-105409849D01*
X44812030Y-105387671D01*
X44803765Y-105364571D01*
X44797804Y-105340773D01*
X44794204Y-105316504D01*
X44793000Y-105292000D01*
X44793000Y-102292000D01*
X44794204Y-102267496D01*
X44797804Y-102243227D01*
X44803765Y-102219429D01*
X44812030Y-102196329D01*
X44822520Y-102174151D01*
X44835133Y-102153107D01*
X44849747Y-102133402D01*
X44866223Y-102115223D01*
X44884402Y-102098747D01*
X44904107Y-102084133D01*
X44925151Y-102071520D01*
X44947329Y-102061030D01*
X44970429Y-102052765D01*
X44994227Y-102046804D01*
X45018496Y-102043204D01*
X45043000Y-102042000D01*
X46143000Y-102042000D01*
X46167504Y-102043204D01*
X46167504Y-102043204D01*
G37*
D14*
X45593000Y-103792000D03*
G04 #@! TD*
D12*
G04 #@! TO.C,C1*
G36*
X46548504Y-80127204D02*
X46572773Y-80130804D01*
X46596571Y-80136765D01*
X46619671Y-80145030D01*
X46641849Y-80155520D01*
X46662893Y-80168133D01*
X46682598Y-80182747D01*
X46700777Y-80199223D01*
X46717253Y-80217402D01*
X46731867Y-80237107D01*
X46744480Y-80258151D01*
X46754970Y-80280329D01*
X46763235Y-80303429D01*
X46769196Y-80327227D01*
X46772796Y-80351496D01*
X46774000Y-80376000D01*
X46774000Y-83376000D01*
X46772796Y-83400504D01*
X46769196Y-83424773D01*
X46763235Y-83448571D01*
X46754970Y-83471671D01*
X46744480Y-83493849D01*
X46731867Y-83514893D01*
X46717253Y-83534598D01*
X46700777Y-83552777D01*
X46682598Y-83569253D01*
X46662893Y-83583867D01*
X46641849Y-83596480D01*
X46619671Y-83606970D01*
X46596571Y-83615235D01*
X46572773Y-83621196D01*
X46548504Y-83624796D01*
X46524000Y-83626000D01*
X45424000Y-83626000D01*
X45399496Y-83624796D01*
X45375227Y-83621196D01*
X45351429Y-83615235D01*
X45328329Y-83606970D01*
X45306151Y-83596480D01*
X45285107Y-83583867D01*
X45265402Y-83569253D01*
X45247223Y-83552777D01*
X45230747Y-83534598D01*
X45216133Y-83514893D01*
X45203520Y-83493849D01*
X45193030Y-83471671D01*
X45184765Y-83448571D01*
X45178804Y-83424773D01*
X45175204Y-83400504D01*
X45174000Y-83376000D01*
X45174000Y-80376000D01*
X45175204Y-80351496D01*
X45178804Y-80327227D01*
X45184765Y-80303429D01*
X45193030Y-80280329D01*
X45203520Y-80258151D01*
X45216133Y-80237107D01*
X45230747Y-80217402D01*
X45247223Y-80199223D01*
X45265402Y-80182747D01*
X45285107Y-80168133D01*
X45306151Y-80155520D01*
X45328329Y-80145030D01*
X45351429Y-80136765D01*
X45375227Y-80130804D01*
X45399496Y-80127204D01*
X45424000Y-80126000D01*
X46524000Y-80126000D01*
X46548504Y-80127204D01*
X46548504Y-80127204D01*
G37*
D14*
X45974000Y-81876000D03*
D12*
G36*
X46548504Y-85527204D02*
X46572773Y-85530804D01*
X46596571Y-85536765D01*
X46619671Y-85545030D01*
X46641849Y-85555520D01*
X46662893Y-85568133D01*
X46682598Y-85582747D01*
X46700777Y-85599223D01*
X46717253Y-85617402D01*
X46731867Y-85637107D01*
X46744480Y-85658151D01*
X46754970Y-85680329D01*
X46763235Y-85703429D01*
X46769196Y-85727227D01*
X46772796Y-85751496D01*
X46774000Y-85776000D01*
X46774000Y-88776000D01*
X46772796Y-88800504D01*
X46769196Y-88824773D01*
X46763235Y-88848571D01*
X46754970Y-88871671D01*
X46744480Y-88893849D01*
X46731867Y-88914893D01*
X46717253Y-88934598D01*
X46700777Y-88952777D01*
X46682598Y-88969253D01*
X46662893Y-88983867D01*
X46641849Y-88996480D01*
X46619671Y-89006970D01*
X46596571Y-89015235D01*
X46572773Y-89021196D01*
X46548504Y-89024796D01*
X46524000Y-89026000D01*
X45424000Y-89026000D01*
X45399496Y-89024796D01*
X45375227Y-89021196D01*
X45351429Y-89015235D01*
X45328329Y-89006970D01*
X45306151Y-88996480D01*
X45285107Y-88983867D01*
X45265402Y-88969253D01*
X45247223Y-88952777D01*
X45230747Y-88934598D01*
X45216133Y-88914893D01*
X45203520Y-88893849D01*
X45193030Y-88871671D01*
X45184765Y-88848571D01*
X45178804Y-88824773D01*
X45175204Y-88800504D01*
X45174000Y-88776000D01*
X45174000Y-85776000D01*
X45175204Y-85751496D01*
X45178804Y-85727227D01*
X45184765Y-85703429D01*
X45193030Y-85680329D01*
X45203520Y-85658151D01*
X45216133Y-85637107D01*
X45230747Y-85617402D01*
X45247223Y-85599223D01*
X45265402Y-85582747D01*
X45285107Y-85568133D01*
X45306151Y-85555520D01*
X45328329Y-85545030D01*
X45351429Y-85536765D01*
X45375227Y-85530804D01*
X45399496Y-85527204D01*
X45424000Y-85526000D01*
X46524000Y-85526000D01*
X46548504Y-85527204D01*
X46548504Y-85527204D01*
G37*
D14*
X45974000Y-87276000D03*
G04 #@! TD*
D15*
G04 #@! TO.C,Q1*
X52671288Y-129130889D03*
X52671288Y-127230889D03*
X50671288Y-128180889D03*
G04 #@! TD*
D12*
G04 #@! TO.C,R11*
G36*
X55199430Y-126757063D02*
X55223091Y-126760573D01*
X55246295Y-126766385D01*
X55268817Y-126774443D01*
X55290441Y-126784671D01*
X55310958Y-126796968D01*
X55330171Y-126811218D01*
X55347895Y-126827282D01*
X55363959Y-126845006D01*
X55378209Y-126864219D01*
X55390506Y-126884736D01*
X55400734Y-126906360D01*
X55408792Y-126928882D01*
X55414604Y-126952086D01*
X55418114Y-126975747D01*
X55419288Y-126999639D01*
X55419288Y-127487139D01*
X55418114Y-127511031D01*
X55414604Y-127534692D01*
X55408792Y-127557896D01*
X55400734Y-127580418D01*
X55390506Y-127602042D01*
X55378209Y-127622559D01*
X55363959Y-127641772D01*
X55347895Y-127659496D01*
X55330171Y-127675560D01*
X55310958Y-127689810D01*
X55290441Y-127702107D01*
X55268817Y-127712335D01*
X55246295Y-127720393D01*
X55223091Y-127726205D01*
X55199430Y-127729715D01*
X55175538Y-127730889D01*
X54263038Y-127730889D01*
X54239146Y-127729715D01*
X54215485Y-127726205D01*
X54192281Y-127720393D01*
X54169759Y-127712335D01*
X54148135Y-127702107D01*
X54127618Y-127689810D01*
X54108405Y-127675560D01*
X54090681Y-127659496D01*
X54074617Y-127641772D01*
X54060367Y-127622559D01*
X54048070Y-127602042D01*
X54037842Y-127580418D01*
X54029784Y-127557896D01*
X54023972Y-127534692D01*
X54020462Y-127511031D01*
X54019288Y-127487139D01*
X54019288Y-126999639D01*
X54020462Y-126975747D01*
X54023972Y-126952086D01*
X54029784Y-126928882D01*
X54037842Y-126906360D01*
X54048070Y-126884736D01*
X54060367Y-126864219D01*
X54074617Y-126845006D01*
X54090681Y-126827282D01*
X54108405Y-126811218D01*
X54127618Y-126796968D01*
X54148135Y-126784671D01*
X54169759Y-126774443D01*
X54192281Y-126766385D01*
X54215485Y-126760573D01*
X54239146Y-126757063D01*
X54263038Y-126755889D01*
X55175538Y-126755889D01*
X55199430Y-126757063D01*
X55199430Y-126757063D01*
G37*
D16*
X54719288Y-127243389D03*
D12*
G36*
X55199430Y-128632063D02*
X55223091Y-128635573D01*
X55246295Y-128641385D01*
X55268817Y-128649443D01*
X55290441Y-128659671D01*
X55310958Y-128671968D01*
X55330171Y-128686218D01*
X55347895Y-128702282D01*
X55363959Y-128720006D01*
X55378209Y-128739219D01*
X55390506Y-128759736D01*
X55400734Y-128781360D01*
X55408792Y-128803882D01*
X55414604Y-128827086D01*
X55418114Y-128850747D01*
X55419288Y-128874639D01*
X55419288Y-129362139D01*
X55418114Y-129386031D01*
X55414604Y-129409692D01*
X55408792Y-129432896D01*
X55400734Y-129455418D01*
X55390506Y-129477042D01*
X55378209Y-129497559D01*
X55363959Y-129516772D01*
X55347895Y-129534496D01*
X55330171Y-129550560D01*
X55310958Y-129564810D01*
X55290441Y-129577107D01*
X55268817Y-129587335D01*
X55246295Y-129595393D01*
X55223091Y-129601205D01*
X55199430Y-129604715D01*
X55175538Y-129605889D01*
X54263038Y-129605889D01*
X54239146Y-129604715D01*
X54215485Y-129601205D01*
X54192281Y-129595393D01*
X54169759Y-129587335D01*
X54148135Y-129577107D01*
X54127618Y-129564810D01*
X54108405Y-129550560D01*
X54090681Y-129534496D01*
X54074617Y-129516772D01*
X54060367Y-129497559D01*
X54048070Y-129477042D01*
X54037842Y-129455418D01*
X54029784Y-129432896D01*
X54023972Y-129409692D01*
X54020462Y-129386031D01*
X54019288Y-129362139D01*
X54019288Y-128874639D01*
X54020462Y-128850747D01*
X54023972Y-128827086D01*
X54029784Y-128803882D01*
X54037842Y-128781360D01*
X54048070Y-128759736D01*
X54060367Y-128739219D01*
X54074617Y-128720006D01*
X54090681Y-128702282D01*
X54108405Y-128686218D01*
X54127618Y-128671968D01*
X54148135Y-128659671D01*
X54169759Y-128649443D01*
X54192281Y-128641385D01*
X54215485Y-128635573D01*
X54239146Y-128632063D01*
X54263038Y-128630889D01*
X55175538Y-128630889D01*
X55199430Y-128632063D01*
X55199430Y-128632063D01*
G37*
D16*
X54719288Y-129118389D03*
G04 #@! TD*
M02*
