G04 #@! TF.GenerationSoftware,KiCad,Pcbnew,(5.0.2)-1*
G04 #@! TF.CreationDate,2020-07-19T21:14:16-04:00*
G04 #@! TF.ProjectId,KiCad Schematic,4b694361-6420-4536-9368-656d61746963,rev?*
G04 #@! TF.SameCoordinates,Original*
G04 #@! TF.FileFunction,Copper,L2,Bot*
G04 #@! TF.FilePolarity,Positive*
%FSLAX46Y46*%
G04 Gerber Fmt 4.6, Leading zero omitted, Abs format (unit mm)*
G04 Created by KiCad (PCBNEW (5.0.2)-1) date 7/19/2020 9:14:16 PM*
%MOMM*%
%LPD*%
G01*
G04 APERTURE LIST*
G04 #@! TA.AperFunction,ComponentPad*
%ADD10C,1.700000*%
G04 #@! TD*
G04 #@! TA.AperFunction,ComponentPad*
%ADD11O,1.700000X1.700000*%
G04 #@! TD*
G04 #@! TA.AperFunction,ComponentPad*
%ADD12R,1.700000X1.700000*%
G04 #@! TD*
G04 #@! TA.AperFunction,ComponentPad*
%ADD13R,1.600000X1.600000*%
G04 #@! TD*
G04 #@! TA.AperFunction,ComponentPad*
%ADD14O,1.600000X1.600000*%
G04 #@! TD*
G04 #@! TA.AperFunction,ComponentPad*
%ADD15O,4.000000X1.800000*%
G04 #@! TD*
G04 #@! TA.AperFunction,ComponentPad*
%ADD16O,1.800000X4.000000*%
G04 #@! TD*
G04 #@! TA.AperFunction,ComponentPad*
%ADD17R,1.800000X4.400000*%
G04 #@! TD*
G04 #@! TA.AperFunction,ComponentPad*
%ADD18C,4.700000*%
G04 #@! TD*
G04 #@! TA.AperFunction,ViaPad*
%ADD19C,0.800000*%
G04 #@! TD*
G04 #@! TA.AperFunction,Conductor*
%ADD20C,0.250000*%
G04 #@! TD*
G04 #@! TA.AperFunction,Conductor*
%ADD21C,0.500000*%
G04 #@! TD*
G04 #@! TA.AperFunction,Conductor*
%ADD22C,0.254000*%
G04 #@! TD*
G04 APERTURE END LIST*
D10*
G04 #@! TO.P,U1,27*
G04 #@! TO.N,Net-(U1-Pad27)*
X37338000Y-98754001D03*
D11*
G04 #@! TO.P,U1,26*
G04 #@! TO.N,+5V*
X37338000Y-101294001D03*
G04 #@! TO.P,U1,25*
G04 #@! TO.N,Net-(U1-Pad25)*
X37338000Y-103834001D03*
G04 #@! TO.P,U1,24*
G04 #@! TO.N,/S0_DIR*
X37338000Y-106374001D03*
G04 #@! TO.P,U1,23*
G04 #@! TO.N,/S0_STEP*
X37338000Y-108914001D03*
G04 #@! TO.P,U1,22*
G04 #@! TO.N,/S1_DIR*
X37338000Y-111454001D03*
G04 #@! TO.P,U1,21*
G04 #@! TO.N,/S1_STEP*
X37338000Y-113994001D03*
G04 #@! TO.P,U1,20*
G04 #@! TO.N,/S2_DIR*
X37338000Y-116534001D03*
G04 #@! TO.P,U1,19*
G04 #@! TO.N,/S2_STEP*
X37338000Y-119074001D03*
G04 #@! TO.P,U1,18*
G04 #@! TO.N,/SCL*
X37338000Y-121614001D03*
G04 #@! TO.P,U1,17*
G04 #@! TO.N,/SDA*
X37338000Y-124154001D03*
G04 #@! TO.P,U1,5*
G04 #@! TO.N,/A0*
X17094000Y-96224001D03*
D12*
G04 #@! TO.P,U1,1*
G04 #@! TO.N,Net-(U1-Pad1)*
X17094000Y-86064001D03*
D11*
G04 #@! TO.P,U1,6*
G04 #@! TO.N,/S0_EN*
X17094000Y-98764001D03*
G04 #@! TO.P,U1,2*
G04 #@! TO.N,+3V3*
X17094000Y-88604001D03*
G04 #@! TO.P,U1,9*
G04 #@! TO.N,/MOT_SENSE*
X17094000Y-106384001D03*
G04 #@! TO.P,U1,15*
G04 #@! TO.N,/TX*
X17094000Y-121624001D03*
G04 #@! TO.P,U1,14*
G04 #@! TO.N,/RX*
X17094000Y-119084001D03*
G04 #@! TO.P,U1,11*
G04 #@! TO.N,Net-(U1-Pad11)*
X17094000Y-111464001D03*
G04 #@! TO.P,U1,4*
G04 #@! TO.N,GND*
X17094000Y-93684001D03*
G04 #@! TO.P,U1,13*
G04 #@! TO.N,/MI*
X17094000Y-116544001D03*
G04 #@! TO.P,U1,12*
G04 #@! TO.N,/MO*
X17094000Y-114004001D03*
G04 #@! TO.P,U1,3*
G04 #@! TO.N,Net-(U1-Pad3)*
X17094000Y-91144001D03*
G04 #@! TO.P,U1,7*
G04 #@! TO.N,/S1_EN*
X17094000Y-101304001D03*
G04 #@! TO.P,U1,8*
G04 #@! TO.N,/S2_EN*
X17094000Y-103844001D03*
G04 #@! TO.P,U1,10*
G04 #@! TO.N,/MOT_POWER*
X17094000Y-108924001D03*
D10*
G04 #@! TO.P,U1,28*
G04 #@! TO.N,Net-(U1-Pad28)*
X37338000Y-96214001D03*
G04 #@! TO.P,U1,16*
G04 #@! TO.N,/SERVO*
X17018000Y-124154001D03*
G04 #@! TD*
D12*
G04 #@! TO.P,J21,1*
G04 #@! TO.N,+12V*
X23864000Y-75886000D03*
D11*
G04 #@! TO.P,J21,2*
G04 #@! TO.N,Net-(J21-Pad2)*
X26404000Y-75886000D03*
G04 #@! TD*
D13*
G04 #@! TO.P,A3,1*
G04 #@! TO.N,GND*
X60833000Y-111506000D03*
D14*
G04 #@! TO.P,A3,9*
G04 #@! TO.N,/S2_EN*
X43053000Y-124206000D03*
G04 #@! TO.P,A3,2*
G04 #@! TO.N,+3V3*
X58293000Y-111506000D03*
G04 #@! TO.P,A3,10*
G04 #@! TO.N,/S2_MS1*
X45593000Y-124206000D03*
G04 #@! TO.P,A3,3*
G04 #@! TO.N,/S2_1B*
X55753000Y-111506000D03*
G04 #@! TO.P,A3,11*
G04 #@! TO.N,/S2_MS2*
X48133000Y-124206000D03*
G04 #@! TO.P,A3,4*
G04 #@! TO.N,/S2_1A*
X53213000Y-111506000D03*
G04 #@! TO.P,A3,12*
G04 #@! TO.N,/S2_MS3*
X50673000Y-124206000D03*
G04 #@! TO.P,A3,5*
G04 #@! TO.N,/S2_2A*
X50673000Y-111506000D03*
G04 #@! TO.P,A3,13*
G04 #@! TO.N,Net-(A3-Pad13)*
X53213000Y-124206000D03*
G04 #@! TO.P,A3,6*
G04 #@! TO.N,/S2_2B*
X48133000Y-111506000D03*
G04 #@! TO.P,A3,14*
G04 #@! TO.N,Net-(A3-Pad13)*
X55753000Y-124206000D03*
G04 #@! TO.P,A3,7*
G04 #@! TO.N,GND*
X45593000Y-111506000D03*
G04 #@! TO.P,A3,15*
G04 #@! TO.N,/S2_STEP*
X58293000Y-124206000D03*
G04 #@! TO.P,A3,8*
G04 #@! TO.N,+12V*
X43053000Y-111506000D03*
G04 #@! TO.P,A3,16*
G04 #@! TO.N,/S2_DIR*
X60833000Y-124206000D03*
G04 #@! TD*
D12*
G04 #@! TO.P,J16,1*
G04 #@! TO.N,/TX*
X22352000Y-134366000D03*
D11*
G04 #@! TO.P,J16,2*
G04 #@! TO.N,/RX*
X24892000Y-134366000D03*
G04 #@! TO.P,J16,3*
G04 #@! TO.N,/MI*
X27432000Y-134366000D03*
G04 #@! TO.P,J16,4*
G04 #@! TO.N,/MO*
X29972000Y-134366000D03*
G04 #@! TO.P,J16,5*
G04 #@! TO.N,/A0*
X32512000Y-134366000D03*
G04 #@! TO.P,J16,6*
G04 #@! TO.N,/SCL*
X35052000Y-134366000D03*
G04 #@! TO.P,J16,7*
G04 #@! TO.N,/SDA*
X37592000Y-134366000D03*
G04 #@! TO.P,J16,8*
G04 #@! TO.N,GND*
X40132000Y-134366000D03*
G04 #@! TD*
D12*
G04 #@! TO.P,J15,1*
G04 #@! TO.N,+5V*
X44069000Y-128651000D03*
D11*
G04 #@! TO.P,J15,2*
G04 #@! TO.N,/SERVO*
X44069000Y-131191000D03*
G04 #@! TO.P,J15,3*
G04 #@! TO.N,GND*
X44069000Y-133731000D03*
G04 #@! TD*
D12*
G04 #@! TO.P,J9,1*
G04 #@! TO.N,+3V3*
X60325000Y-117983000D03*
D11*
G04 #@! TO.P,J9,2*
G04 #@! TO.N,/S2_MS3*
X60325000Y-115443000D03*
G04 #@! TD*
G04 #@! TO.P,J1,2*
G04 #@! TO.N,/S2_MS1*
X52959000Y-115443000D03*
D12*
G04 #@! TO.P,J1,1*
G04 #@! TO.N,+3V3*
X52959000Y-117983000D03*
G04 #@! TD*
G04 #@! TO.P,J8,1*
G04 #@! TO.N,+3V3*
X56642000Y-117983000D03*
D11*
G04 #@! TO.P,J8,2*
G04 #@! TO.N,/S2_MS2*
X56642000Y-115443000D03*
G04 #@! TD*
D12*
G04 #@! TO.P,J2,1*
G04 #@! TO.N,+3V3*
X52959000Y-101219000D03*
D11*
G04 #@! TO.P,J2,2*
G04 #@! TO.N,/S1_MS1*
X52959000Y-98679000D03*
G04 #@! TD*
G04 #@! TO.P,J4,2*
G04 #@! TO.N,/S1_MS3*
X60325000Y-98679000D03*
D12*
G04 #@! TO.P,J4,1*
G04 #@! TO.N,+3V3*
X60325000Y-101219000D03*
G04 #@! TD*
G04 #@! TO.P,J3,1*
G04 #@! TO.N,+3V3*
X56642000Y-101219000D03*
D11*
G04 #@! TO.P,J3,2*
G04 #@! TO.N,/S1_MS2*
X56642000Y-98679000D03*
G04 #@! TD*
D15*
G04 #@! TO.P,J13,3*
G04 #@! TO.N,N/C*
X61039000Y-128042000D03*
D16*
G04 #@! TO.P,J13,2*
G04 #@! TO.N,GND*
X63839000Y-132842000D03*
D17*
G04 #@! TO.P,J13,1*
G04 #@! TO.N,+12V*
X58039000Y-132842000D03*
G04 #@! TD*
D12*
G04 #@! TO.P,J14,1*
G04 #@! TO.N,+12V*
X47861288Y-128688889D03*
D11*
G04 #@! TO.P,J14,2*
G04 #@! TO.N,/DCM_OUT*
X47861288Y-131228889D03*
G04 #@! TD*
D12*
G04 #@! TO.P,J5,1*
G04 #@! TO.N,+3V3*
X60198000Y-84836000D03*
D11*
G04 #@! TO.P,J5,2*
G04 #@! TO.N,/S0_MS3*
X60198000Y-82296000D03*
G04 #@! TD*
G04 #@! TO.P,J6,2*
G04 #@! TO.N,/S0_MS1*
X52832000Y-82296000D03*
D12*
G04 #@! TO.P,J6,1*
G04 #@! TO.N,+3V3*
X52832000Y-84836000D03*
G04 #@! TD*
G04 #@! TO.P,J7,1*
G04 #@! TO.N,+3V3*
X56515000Y-84836000D03*
D11*
G04 #@! TO.P,J7,2*
G04 #@! TO.N,/S0_MS2*
X56515000Y-82296000D03*
G04 #@! TD*
D12*
G04 #@! TO.P,J11,1*
G04 #@! TO.N,/S1_1A*
X66294000Y-96020000D03*
D11*
G04 #@! TO.P,J11,2*
G04 #@! TO.N,/S1_2A*
X66294000Y-98560000D03*
G04 #@! TO.P,J11,3*
G04 #@! TO.N,/S1_1B*
X66294000Y-101100000D03*
G04 #@! TO.P,J11,4*
G04 #@! TO.N,/S1_2B*
X66294000Y-103640000D03*
G04 #@! TD*
G04 #@! TO.P,J12,4*
G04 #@! TO.N,/S2_2B*
X66114000Y-119386000D03*
G04 #@! TO.P,J12,3*
G04 #@! TO.N,/S2_1B*
X66114000Y-116846000D03*
G04 #@! TO.P,J12,2*
G04 #@! TO.N,/S2_2A*
X66114000Y-114306000D03*
D12*
G04 #@! TO.P,J12,1*
G04 #@! TO.N,/S2_1A*
X66114000Y-111766000D03*
G04 #@! TD*
G04 #@! TO.P,J10,1*
G04 #@! TO.N,/S0_1A*
X66294000Y-80096000D03*
D11*
G04 #@! TO.P,J10,2*
G04 #@! TO.N,/S0_2A*
X66294000Y-82636000D03*
G04 #@! TO.P,J10,3*
G04 #@! TO.N,/S0_1B*
X66294000Y-85176000D03*
G04 #@! TO.P,J10,4*
G04 #@! TO.N,/S0_2B*
X66294000Y-87716000D03*
G04 #@! TD*
D14*
G04 #@! TO.P,A2,16*
G04 #@! TO.N,/S1_DIR*
X60833000Y-107569000D03*
G04 #@! TO.P,A2,8*
G04 #@! TO.N,+12V*
X43053000Y-94869000D03*
G04 #@! TO.P,A2,15*
G04 #@! TO.N,/S1_STEP*
X58293000Y-107569000D03*
G04 #@! TO.P,A2,7*
G04 #@! TO.N,GND*
X45593000Y-94869000D03*
G04 #@! TO.P,A2,14*
G04 #@! TO.N,Net-(A2-Pad13)*
X55753000Y-107569000D03*
G04 #@! TO.P,A2,6*
G04 #@! TO.N,/S1_2B*
X48133000Y-94869000D03*
G04 #@! TO.P,A2,13*
G04 #@! TO.N,Net-(A2-Pad13)*
X53213000Y-107569000D03*
G04 #@! TO.P,A2,5*
G04 #@! TO.N,/S1_2A*
X50673000Y-94869000D03*
G04 #@! TO.P,A2,12*
G04 #@! TO.N,/S1_MS3*
X50673000Y-107569000D03*
G04 #@! TO.P,A2,4*
G04 #@! TO.N,/S1_1A*
X53213000Y-94869000D03*
G04 #@! TO.P,A2,11*
G04 #@! TO.N,/S1_MS2*
X48133000Y-107569000D03*
G04 #@! TO.P,A2,3*
G04 #@! TO.N,/S1_1B*
X55753000Y-94869000D03*
G04 #@! TO.P,A2,10*
G04 #@! TO.N,/S1_MS1*
X45593000Y-107569000D03*
G04 #@! TO.P,A2,2*
G04 #@! TO.N,+3V3*
X58293000Y-94869000D03*
G04 #@! TO.P,A2,9*
G04 #@! TO.N,/S1_EN*
X43053000Y-107569000D03*
D13*
G04 #@! TO.P,A2,1*
G04 #@! TO.N,GND*
X60833000Y-94869000D03*
G04 #@! TD*
D18*
G04 #@! TO.P,J17,1*
G04 #@! TO.N,GND*
X17018000Y-75311000D03*
G04 #@! TD*
G04 #@! TO.P,J18,1*
G04 #@! TO.N,GND*
X52832000Y-135382000D03*
G04 #@! TD*
G04 #@! TO.P,J19,1*
G04 #@! TO.N,GND*
X17272000Y-135382000D03*
G04 #@! TD*
G04 #@! TO.P,J20,1*
G04 #@! TO.N,GND*
X65913000Y-75311000D03*
G04 #@! TD*
D13*
G04 #@! TO.P,A1,1*
G04 #@! TO.N,GND*
X60833000Y-78232000D03*
D14*
G04 #@! TO.P,A1,9*
G04 #@! TO.N,/S0_EN*
X43053000Y-90932000D03*
G04 #@! TO.P,A1,2*
G04 #@! TO.N,+3V3*
X58293000Y-78232000D03*
G04 #@! TO.P,A1,10*
G04 #@! TO.N,/S0_MS1*
X45593000Y-90932000D03*
G04 #@! TO.P,A1,3*
G04 #@! TO.N,/S0_1B*
X55753000Y-78232000D03*
G04 #@! TO.P,A1,11*
G04 #@! TO.N,/S0_MS2*
X48133000Y-90932000D03*
G04 #@! TO.P,A1,4*
G04 #@! TO.N,/S0_1A*
X53213000Y-78232000D03*
G04 #@! TO.P,A1,12*
G04 #@! TO.N,/S0_MS3*
X50673000Y-90932000D03*
G04 #@! TO.P,A1,5*
G04 #@! TO.N,/S0_2A*
X50673000Y-78232000D03*
G04 #@! TO.P,A1,13*
G04 #@! TO.N,Net-(A1-Pad13)*
X53213000Y-90932000D03*
G04 #@! TO.P,A1,6*
G04 #@! TO.N,/S0_2B*
X48133000Y-78232000D03*
G04 #@! TO.P,A1,14*
G04 #@! TO.N,Net-(A1-Pad13)*
X55753000Y-90932000D03*
G04 #@! TO.P,A1,7*
G04 #@! TO.N,GND*
X45593000Y-78232000D03*
G04 #@! TO.P,A1,15*
G04 #@! TO.N,/S0_STEP*
X58293000Y-90932000D03*
G04 #@! TO.P,A1,8*
G04 #@! TO.N,+12V*
X43053000Y-78232000D03*
G04 #@! TO.P,A1,16*
G04 #@! TO.N,/S0_DIR*
X60833000Y-90932000D03*
G04 #@! TD*
D19*
G04 #@! TO.N,GND*
X36068000Y-77978000D03*
X54673500Y-87757000D03*
X54864000Y-104267000D03*
X47614000Y-103886000D03*
X63364000Y-104886000D03*
X54864000Y-120904000D03*
X47364000Y-120136000D03*
X30364000Y-84886000D03*
X63114000Y-88386000D03*
X63114000Y-121386000D03*
X47189000Y-87286000D03*
G04 #@! TO.N,+3V3*
X58166000Y-75281978D03*
X66363986Y-108886000D03*
G04 #@! TO.N,/S0_STEP*
X58674000Y-89154000D03*
X43464000Y-89486000D03*
G04 #@! TO.N,/S1_STEP*
X60452000Y-105791000D03*
X43364000Y-105936013D03*
G04 #@! TO.N,/S2_STEP*
X62103000Y-122301000D03*
X43815985Y-122684015D03*
G04 #@! TO.N,/S0_DIR*
X42797827Y-88674373D03*
G04 #@! TO.N,/S1_DIR*
X59312492Y-105834492D03*
X43364000Y-104885992D03*
G04 #@! TO.N,/S2_DIR*
X43887007Y-121562990D03*
X59114000Y-122636000D03*
G04 #@! TO.N,+12V*
X39114000Y-79110990D03*
G04 #@! TO.N,/S1_EN*
X35055010Y-107636000D03*
X33464000Y-107686000D03*
G04 #@! TO.N,/S2_EN*
X35052000Y-121920000D03*
X33464000Y-121786000D03*
G04 #@! TO.N,/MOT_POWER*
X24904999Y-113445305D03*
X23354999Y-112886000D03*
G04 #@! TO.N,/MOT_SENSE*
X23354999Y-111760000D03*
X25405010Y-112522000D03*
G04 #@! TO.N,/SERVO*
X26114000Y-123886000D03*
G04 #@! TO.N,/SCL*
X36114000Y-130636000D03*
G04 #@! TO.N,/SDA*
X37364000Y-130636000D03*
G04 #@! TO.N,/A0*
X20614000Y-102386000D03*
X20320000Y-105169000D03*
G04 #@! TD*
D20*
G04 #@! TO.N,+3V3*
X58420000Y-94996000D02*
X58293000Y-94869000D01*
X59092999Y-95668999D02*
X58293000Y-94869000D01*
X61550001Y-98126001D02*
X59092999Y-95668999D01*
X56388000Y-84836000D02*
X56515000Y-84836000D01*
X59092999Y-94069001D02*
X58293000Y-94869000D01*
X59435001Y-94069001D02*
X59092999Y-94069001D01*
X62008001Y-91496001D02*
X59435001Y-94069001D01*
X62008001Y-90367999D02*
X62008001Y-91496001D01*
X61423001Y-89782999D02*
X62008001Y-90367999D01*
X61359501Y-84836000D02*
X60198000Y-84836000D01*
X61423001Y-84772500D02*
X61359501Y-84836000D01*
X61423001Y-84772500D02*
X61423001Y-89782999D01*
X57615000Y-84836000D02*
X60198000Y-84836000D01*
X56515000Y-84836000D02*
X57615000Y-84836000D01*
X53932000Y-84836000D02*
X56515000Y-84836000D01*
X52832000Y-84836000D02*
X53932000Y-84836000D01*
X61423001Y-81707999D02*
X61423001Y-84772500D01*
X60601002Y-80886000D02*
X61423001Y-81707999D01*
X58293000Y-78232000D02*
X58293000Y-80886000D01*
X58293000Y-80886000D02*
X60601002Y-80886000D01*
X61467001Y-101219000D02*
X60325000Y-101219000D01*
X61550001Y-101136000D02*
X61467001Y-101219000D01*
X61550001Y-101136000D02*
X61550001Y-98126001D01*
X60325000Y-101219000D02*
X56642000Y-101219000D01*
X56642000Y-101219000D02*
X52959000Y-101219000D01*
X57742000Y-117983000D02*
X56642000Y-117983000D01*
X58293000Y-117432000D02*
X57742000Y-117983000D01*
X58293000Y-111506000D02*
X58293000Y-117432000D01*
X56642000Y-117983000D02*
X60325000Y-117983000D01*
X55542000Y-117983000D02*
X52959000Y-117983000D01*
X56642000Y-117983000D02*
X55542000Y-117983000D01*
X58293000Y-78232000D02*
X58293000Y-75408978D01*
X58293000Y-75408978D02*
X58166000Y-75281978D01*
X65798301Y-108886000D02*
X66363986Y-108886000D01*
X60913000Y-108886000D02*
X65798301Y-108886000D01*
X58293000Y-111506000D02*
X60913000Y-108886000D01*
G04 #@! TO.N,/S0_STEP*
X58293000Y-90932000D02*
X58293000Y-89535000D01*
X58293000Y-89535000D02*
X58674000Y-89154000D01*
X56847000Y-89486000D02*
X44029685Y-89486000D01*
X44029685Y-89486000D02*
X43464000Y-89486000D01*
X58293000Y-90932000D02*
X56847000Y-89486000D01*
G04 #@! TO.N,/S1_STEP*
X58674000Y-107569000D02*
X58293000Y-107569000D01*
X60452000Y-105791000D02*
X58674000Y-107569000D01*
X57110000Y-106386000D02*
X43813987Y-106386000D01*
X58293000Y-107569000D02*
X57110000Y-106386000D01*
X43813987Y-106386000D02*
X43763999Y-106336012D01*
X43763999Y-106336012D02*
X43364000Y-105936013D01*
G04 #@! TO.N,/S2_STEP*
X59044000Y-124206000D02*
X58293000Y-124206000D01*
X62103000Y-122301000D02*
X60949000Y-122301000D01*
X60949000Y-122301000D02*
X59044000Y-124206000D01*
X57117999Y-123030999D02*
X44162969Y-123030999D01*
X44162969Y-123030999D02*
X43815985Y-122684015D01*
X58293000Y-124206000D02*
X57117999Y-123030999D01*
G04 #@! TO.N,/S0_DIR*
X59411369Y-88378999D02*
X56020001Y-88378999D01*
X60833000Y-89800630D02*
X59411369Y-88378999D01*
X60833000Y-90932000D02*
X60833000Y-89800630D01*
X44211002Y-88885998D02*
X43999377Y-88674373D01*
X43363512Y-88674373D02*
X42797827Y-88674373D01*
X43999377Y-88674373D02*
X43363512Y-88674373D01*
X56020001Y-88378999D02*
X55513002Y-88885998D01*
X55513002Y-88885998D02*
X44211002Y-88885998D01*
G04 #@! TO.N,/S1_DIR*
X59312492Y-105834492D02*
X44562482Y-105834492D01*
X43613982Y-104885992D02*
X43364000Y-104885992D01*
X44562482Y-105834492D02*
X43613982Y-104885992D01*
G04 #@! TO.N,/S2_DIR*
X43887007Y-121659007D02*
X43887007Y-121562990D01*
X44614000Y-122386000D02*
X43887007Y-121659007D01*
X59114000Y-122636000D02*
X58864000Y-122386000D01*
X58864000Y-122386000D02*
X44614000Y-122386000D01*
D21*
G04 #@! TO.N,+12V*
X39679685Y-79110990D02*
X39114000Y-79110990D01*
D20*
G04 #@! TO.N,/S0_MS3*
X50673000Y-90932000D02*
X50999122Y-90932000D01*
G04 #@! TO.N,/S2_MS3*
X50673000Y-124206000D02*
X50673000Y-123571000D01*
G04 #@! TO.N,/S0_MS2*
X48598000Y-90932000D02*
X48133000Y-90932000D01*
G04 #@! TO.N,/S0_MS1*
X45593000Y-90932000D02*
X45974000Y-90932000D01*
G04 #@! TO.N,/S1_EN*
X33514000Y-107636000D02*
X33464000Y-107686000D01*
X35055010Y-107636000D02*
X33514000Y-107636000D01*
G04 #@! TO.N,/S2_EN*
X33598000Y-121920000D02*
X33464000Y-121786000D01*
X35052000Y-121920000D02*
X33598000Y-121920000D01*
G04 #@! TO.N,/MOT_POWER*
X24904999Y-113445305D02*
X23914304Y-113445305D01*
X23914304Y-113445305D02*
X23354999Y-112886000D01*
G04 #@! TO.N,/MOT_SENSE*
X23354999Y-111760000D02*
X24643010Y-111760000D01*
X24643010Y-111760000D02*
X25405010Y-112522000D01*
G04 #@! TO.N,/SERVO*
X25845999Y-124154001D02*
X26114000Y-123886000D01*
X17018000Y-124154001D02*
X25845999Y-124154001D01*
G04 #@! TO.N,/SCL*
X36114000Y-131201685D02*
X36114000Y-130636000D01*
X35052000Y-134366000D02*
X36114000Y-133304000D01*
X36114000Y-133304000D02*
X36114000Y-131201685D01*
G04 #@! TO.N,/SDA*
X37592000Y-130864000D02*
X37364000Y-130636000D01*
X37592000Y-134366000D02*
X37592000Y-130864000D01*
G04 #@! TO.N,/A0*
X20320000Y-105169000D02*
X20320000Y-102680000D01*
X20320000Y-102680000D02*
X20614000Y-102386000D01*
G04 #@! TD*
D22*
G04 #@! TO.N,+12V*
G36*
X43437265Y-77812526D02*
X43458397Y-87871232D01*
X43384107Y-87796942D01*
X43003701Y-87639373D01*
X42591953Y-87639373D01*
X42211547Y-87796942D01*
X41920396Y-88088093D01*
X41762827Y-88468499D01*
X41762827Y-88880247D01*
X41920396Y-89260653D01*
X42211547Y-89551804D01*
X42411639Y-89634685D01*
X42018423Y-89897423D01*
X41701260Y-90372091D01*
X41589887Y-90932000D01*
X41701260Y-91491909D01*
X42018423Y-91966577D01*
X42493091Y-92283740D01*
X42911667Y-92367000D01*
X43194333Y-92367000D01*
X43467727Y-92312618D01*
X43491968Y-103850992D01*
X43158126Y-103850992D01*
X42777720Y-104008561D01*
X42486569Y-104299712D01*
X42329000Y-104680118D01*
X42329000Y-105091866D01*
X42461190Y-105411003D01*
X42329000Y-105730139D01*
X42329000Y-106141887D01*
X42389023Y-106286796D01*
X42018423Y-106534423D01*
X41701260Y-107009091D01*
X41589887Y-107569000D01*
X41701260Y-108128909D01*
X42018423Y-108603577D01*
X42493091Y-108920740D01*
X42911667Y-109004000D01*
X43194333Y-109004000D01*
X43502665Y-108942669D01*
X43527138Y-120591777D01*
X43300727Y-120685559D01*
X43009576Y-120976710D01*
X42852007Y-121357116D01*
X42852007Y-121768864D01*
X42973680Y-122062609D01*
X42938554Y-122097735D01*
X42780985Y-122478141D01*
X42780985Y-122796994D01*
X42493091Y-122854260D01*
X42018423Y-123171423D01*
X41701260Y-123646091D01*
X41589887Y-124206000D01*
X41701260Y-124765909D01*
X42018423Y-125240577D01*
X42493091Y-125557740D01*
X42911667Y-125641000D01*
X43194333Y-125641000D01*
X43612909Y-125557740D01*
X43821664Y-125418255D01*
X44876254Y-125452945D01*
X45033091Y-125557740D01*
X45451667Y-125641000D01*
X45734333Y-125641000D01*
X46152909Y-125557740D01*
X46242485Y-125497887D01*
X47547775Y-125540824D01*
X47573091Y-125557740D01*
X47991667Y-125641000D01*
X48274333Y-125641000D01*
X48603382Y-125575548D01*
X50519491Y-125638578D01*
X50531667Y-125641000D01*
X50593120Y-125641000D01*
X58732535Y-125908744D01*
X58688166Y-127151079D01*
X58493062Y-127443073D01*
X58373928Y-128042000D01*
X58493062Y-128640927D01*
X58627758Y-128842513D01*
X58444047Y-133986413D01*
X47519558Y-128671797D01*
X47464000Y-128659000D01*
X45566440Y-128659000D01*
X45566440Y-127801000D01*
X45517157Y-127553235D01*
X45376809Y-127343191D01*
X45166765Y-127202843D01*
X44919000Y-127153560D01*
X43219000Y-127153560D01*
X42971235Y-127202843D01*
X42761191Y-127343191D01*
X42620843Y-127553235D01*
X42571560Y-127801000D01*
X42571560Y-128659000D01*
X38691000Y-128659000D01*
X38691000Y-124802022D01*
X38736839Y-124733419D01*
X38852092Y-124154001D01*
X38736839Y-123574583D01*
X38691000Y-123505980D01*
X38691000Y-122262022D01*
X38736839Y-122193419D01*
X38852092Y-121614001D01*
X38736839Y-121034583D01*
X38691000Y-120965980D01*
X38691000Y-119722022D01*
X38736839Y-119653419D01*
X38852092Y-119074001D01*
X38736839Y-118494583D01*
X38691000Y-118425980D01*
X38691000Y-117182022D01*
X38736839Y-117113419D01*
X38852092Y-116534001D01*
X38736839Y-115954583D01*
X38691000Y-115885980D01*
X38691000Y-114642022D01*
X38736839Y-114573419D01*
X38852092Y-113994001D01*
X38736839Y-113414583D01*
X38691000Y-113345980D01*
X38691000Y-112102022D01*
X38736839Y-112033419D01*
X38852092Y-111454001D01*
X38736839Y-110874583D01*
X38691000Y-110805980D01*
X38691000Y-109562022D01*
X38736839Y-109493419D01*
X38852092Y-108914001D01*
X38736839Y-108334583D01*
X38691000Y-108265980D01*
X38691000Y-107022022D01*
X38736839Y-106953419D01*
X38852092Y-106374001D01*
X38736839Y-105794583D01*
X38691000Y-105725980D01*
X38691000Y-104482022D01*
X38736839Y-104413419D01*
X38852092Y-103834001D01*
X38736839Y-103254583D01*
X38691000Y-103185980D01*
X38691000Y-101942022D01*
X38736839Y-101873419D01*
X38852092Y-101294001D01*
X38736839Y-100714583D01*
X38691000Y-100645980D01*
X38691000Y-99368062D01*
X38823000Y-99049386D01*
X38823000Y-98458616D01*
X38691000Y-98139940D01*
X38691000Y-96828062D01*
X38823000Y-96509386D01*
X38823000Y-95918616D01*
X38691000Y-95599940D01*
X38691000Y-77794727D01*
X43437265Y-77812526D01*
X43437265Y-77812526D01*
G37*
X43437265Y-77812526D02*
X43458397Y-87871232D01*
X43384107Y-87796942D01*
X43003701Y-87639373D01*
X42591953Y-87639373D01*
X42211547Y-87796942D01*
X41920396Y-88088093D01*
X41762827Y-88468499D01*
X41762827Y-88880247D01*
X41920396Y-89260653D01*
X42211547Y-89551804D01*
X42411639Y-89634685D01*
X42018423Y-89897423D01*
X41701260Y-90372091D01*
X41589887Y-90932000D01*
X41701260Y-91491909D01*
X42018423Y-91966577D01*
X42493091Y-92283740D01*
X42911667Y-92367000D01*
X43194333Y-92367000D01*
X43467727Y-92312618D01*
X43491968Y-103850992D01*
X43158126Y-103850992D01*
X42777720Y-104008561D01*
X42486569Y-104299712D01*
X42329000Y-104680118D01*
X42329000Y-105091866D01*
X42461190Y-105411003D01*
X42329000Y-105730139D01*
X42329000Y-106141887D01*
X42389023Y-106286796D01*
X42018423Y-106534423D01*
X41701260Y-107009091D01*
X41589887Y-107569000D01*
X41701260Y-108128909D01*
X42018423Y-108603577D01*
X42493091Y-108920740D01*
X42911667Y-109004000D01*
X43194333Y-109004000D01*
X43502665Y-108942669D01*
X43527138Y-120591777D01*
X43300727Y-120685559D01*
X43009576Y-120976710D01*
X42852007Y-121357116D01*
X42852007Y-121768864D01*
X42973680Y-122062609D01*
X42938554Y-122097735D01*
X42780985Y-122478141D01*
X42780985Y-122796994D01*
X42493091Y-122854260D01*
X42018423Y-123171423D01*
X41701260Y-123646091D01*
X41589887Y-124206000D01*
X41701260Y-124765909D01*
X42018423Y-125240577D01*
X42493091Y-125557740D01*
X42911667Y-125641000D01*
X43194333Y-125641000D01*
X43612909Y-125557740D01*
X43821664Y-125418255D01*
X44876254Y-125452945D01*
X45033091Y-125557740D01*
X45451667Y-125641000D01*
X45734333Y-125641000D01*
X46152909Y-125557740D01*
X46242485Y-125497887D01*
X47547775Y-125540824D01*
X47573091Y-125557740D01*
X47991667Y-125641000D01*
X48274333Y-125641000D01*
X48603382Y-125575548D01*
X50519491Y-125638578D01*
X50531667Y-125641000D01*
X50593120Y-125641000D01*
X58732535Y-125908744D01*
X58688166Y-127151079D01*
X58493062Y-127443073D01*
X58373928Y-128042000D01*
X58493062Y-128640927D01*
X58627758Y-128842513D01*
X58444047Y-133986413D01*
X47519558Y-128671797D01*
X47464000Y-128659000D01*
X45566440Y-128659000D01*
X45566440Y-127801000D01*
X45517157Y-127553235D01*
X45376809Y-127343191D01*
X45166765Y-127202843D01*
X44919000Y-127153560D01*
X43219000Y-127153560D01*
X42971235Y-127202843D01*
X42761191Y-127343191D01*
X42620843Y-127553235D01*
X42571560Y-127801000D01*
X42571560Y-128659000D01*
X38691000Y-128659000D01*
X38691000Y-124802022D01*
X38736839Y-124733419D01*
X38852092Y-124154001D01*
X38736839Y-123574583D01*
X38691000Y-123505980D01*
X38691000Y-122262022D01*
X38736839Y-122193419D01*
X38852092Y-121614001D01*
X38736839Y-121034583D01*
X38691000Y-120965980D01*
X38691000Y-119722022D01*
X38736839Y-119653419D01*
X38852092Y-119074001D01*
X38736839Y-118494583D01*
X38691000Y-118425980D01*
X38691000Y-117182022D01*
X38736839Y-117113419D01*
X38852092Y-116534001D01*
X38736839Y-115954583D01*
X38691000Y-115885980D01*
X38691000Y-114642022D01*
X38736839Y-114573419D01*
X38852092Y-113994001D01*
X38736839Y-113414583D01*
X38691000Y-113345980D01*
X38691000Y-112102022D01*
X38736839Y-112033419D01*
X38852092Y-111454001D01*
X38736839Y-110874583D01*
X38691000Y-110805980D01*
X38691000Y-109562022D01*
X38736839Y-109493419D01*
X38852092Y-108914001D01*
X38736839Y-108334583D01*
X38691000Y-108265980D01*
X38691000Y-107022022D01*
X38736839Y-106953419D01*
X38852092Y-106374001D01*
X38736839Y-105794583D01*
X38691000Y-105725980D01*
X38691000Y-104482022D01*
X38736839Y-104413419D01*
X38852092Y-103834001D01*
X38736839Y-103254583D01*
X38691000Y-103185980D01*
X38691000Y-101942022D01*
X38736839Y-101873419D01*
X38852092Y-101294001D01*
X38736839Y-100714583D01*
X38691000Y-100645980D01*
X38691000Y-99368062D01*
X38823000Y-99049386D01*
X38823000Y-98458616D01*
X38691000Y-98139940D01*
X38691000Y-96828062D01*
X38823000Y-96509386D01*
X38823000Y-95918616D01*
X38691000Y-95599940D01*
X38691000Y-77794727D01*
X43437265Y-77812526D01*
G04 #@! TO.N,GND*
G36*
X15069968Y-73183363D02*
X17018000Y-75131395D01*
X18966032Y-73183363D01*
X18747731Y-72846000D01*
X64183269Y-72846000D01*
X63964968Y-73183363D01*
X65913000Y-75131395D01*
X67861032Y-73183363D01*
X67642731Y-72846000D01*
X68124000Y-72846000D01*
X68124000Y-73416911D01*
X68040637Y-73362968D01*
X66092605Y-75311000D01*
X68040637Y-77259032D01*
X68124000Y-77205089D01*
X68124001Y-137974000D01*
X54378349Y-137974000D01*
X54516609Y-137916731D01*
X54780032Y-137509637D01*
X52832000Y-135561605D01*
X50883968Y-137509637D01*
X51147391Y-137916731D01*
X51286623Y-137974000D01*
X18818349Y-137974000D01*
X18956609Y-137916731D01*
X19220032Y-137509637D01*
X17272000Y-135561605D01*
X15323968Y-137509637D01*
X15587391Y-137916731D01*
X15726623Y-137974000D01*
X14680000Y-137974000D01*
X14680000Y-136928349D01*
X14737269Y-137066609D01*
X15144363Y-137330032D01*
X17092395Y-135382000D01*
X17451605Y-135382000D01*
X19399637Y-137330032D01*
X19806731Y-137066609D01*
X20258458Y-135968376D01*
X20255524Y-134780873D01*
X19806731Y-133697391D01*
X19526410Y-133516000D01*
X20854560Y-133516000D01*
X20854560Y-135216000D01*
X20903843Y-135463765D01*
X21044191Y-135673809D01*
X21254235Y-135814157D01*
X21502000Y-135863440D01*
X23202000Y-135863440D01*
X23449765Y-135814157D01*
X23659809Y-135673809D01*
X23800157Y-135463765D01*
X23809184Y-135418381D01*
X23821375Y-135436625D01*
X24312582Y-135764839D01*
X24745744Y-135851000D01*
X25038256Y-135851000D01*
X25471418Y-135764839D01*
X25962625Y-135436625D01*
X26162000Y-135138239D01*
X26361375Y-135436625D01*
X26852582Y-135764839D01*
X27285744Y-135851000D01*
X27578256Y-135851000D01*
X28011418Y-135764839D01*
X28502625Y-135436625D01*
X28702000Y-135138239D01*
X28901375Y-135436625D01*
X29392582Y-135764839D01*
X29825744Y-135851000D01*
X30118256Y-135851000D01*
X30551418Y-135764839D01*
X31042625Y-135436625D01*
X31242000Y-135138239D01*
X31441375Y-135436625D01*
X31932582Y-135764839D01*
X32365744Y-135851000D01*
X32658256Y-135851000D01*
X33091418Y-135764839D01*
X33582625Y-135436625D01*
X33782000Y-135138239D01*
X33981375Y-135436625D01*
X34472582Y-135764839D01*
X34905744Y-135851000D01*
X35198256Y-135851000D01*
X35631418Y-135764839D01*
X36122625Y-135436625D01*
X36322000Y-135138239D01*
X36521375Y-135436625D01*
X37012582Y-135764839D01*
X37445744Y-135851000D01*
X37738256Y-135851000D01*
X38171418Y-135764839D01*
X38662625Y-135436625D01*
X38875843Y-135117522D01*
X38936817Y-135247358D01*
X39365076Y-135637645D01*
X39775110Y-135807476D01*
X40005000Y-135686155D01*
X40005000Y-134493000D01*
X40259000Y-134493000D01*
X40259000Y-135686155D01*
X40488890Y-135807476D01*
X40898924Y-135637645D01*
X41327183Y-135247358D01*
X41573486Y-134722892D01*
X41452819Y-134493000D01*
X40259000Y-134493000D01*
X40005000Y-134493000D01*
X39985000Y-134493000D01*
X39985000Y-134239000D01*
X40005000Y-134239000D01*
X40005000Y-133045845D01*
X40259000Y-133045845D01*
X40259000Y-134239000D01*
X41452819Y-134239000D01*
X41532134Y-134087890D01*
X42627524Y-134087890D01*
X42797355Y-134497924D01*
X43187642Y-134926183D01*
X43712108Y-135172486D01*
X43942000Y-135051819D01*
X43942000Y-133858000D01*
X44196000Y-133858000D01*
X44196000Y-135051819D01*
X44425892Y-135172486D01*
X44950358Y-134926183D01*
X45069340Y-134795624D01*
X49845542Y-134795624D01*
X49848476Y-135983127D01*
X50297269Y-137066609D01*
X50704363Y-137330032D01*
X52652395Y-135382000D01*
X53011605Y-135382000D01*
X54959637Y-137330032D01*
X55366731Y-137066609D01*
X55818458Y-135968376D01*
X55815524Y-134780873D01*
X55366731Y-133697391D01*
X54959637Y-133433968D01*
X53011605Y-135382000D01*
X52652395Y-135382000D01*
X50704363Y-133433968D01*
X50297269Y-133697391D01*
X49845542Y-134795624D01*
X45069340Y-134795624D01*
X45340645Y-134497924D01*
X45510476Y-134087890D01*
X45389155Y-133858000D01*
X44196000Y-133858000D01*
X43942000Y-133858000D01*
X42748845Y-133858000D01*
X42627524Y-134087890D01*
X41532134Y-134087890D01*
X41573486Y-134009108D01*
X41327183Y-133484642D01*
X40898924Y-133094355D01*
X40488890Y-132924524D01*
X40259000Y-133045845D01*
X40005000Y-133045845D01*
X39775110Y-132924524D01*
X39365076Y-133094355D01*
X38936817Y-133484642D01*
X38875843Y-133614478D01*
X38662625Y-133295375D01*
X38352000Y-133087822D01*
X38352000Y-130955342D01*
X38399000Y-130841874D01*
X38399000Y-130430126D01*
X38241431Y-130049720D01*
X37950280Y-129758569D01*
X37569874Y-129601000D01*
X37158126Y-129601000D01*
X36777720Y-129758569D01*
X36739000Y-129797289D01*
X36700280Y-129758569D01*
X36319874Y-129601000D01*
X35908126Y-129601000D01*
X35527720Y-129758569D01*
X35236569Y-130049720D01*
X35079000Y-130430126D01*
X35079000Y-130841874D01*
X35236569Y-131222280D01*
X35354001Y-131339712D01*
X35354000Y-132911979D01*
X35198256Y-132881000D01*
X34905744Y-132881000D01*
X34472582Y-132967161D01*
X33981375Y-133295375D01*
X33782000Y-133593761D01*
X33582625Y-133295375D01*
X33091418Y-132967161D01*
X32658256Y-132881000D01*
X32365744Y-132881000D01*
X31932582Y-132967161D01*
X31441375Y-133295375D01*
X31242000Y-133593761D01*
X31042625Y-133295375D01*
X30551418Y-132967161D01*
X30118256Y-132881000D01*
X29825744Y-132881000D01*
X29392582Y-132967161D01*
X28901375Y-133295375D01*
X28702000Y-133593761D01*
X28502625Y-133295375D01*
X28011418Y-132967161D01*
X27578256Y-132881000D01*
X27285744Y-132881000D01*
X26852582Y-132967161D01*
X26361375Y-133295375D01*
X26162000Y-133593761D01*
X25962625Y-133295375D01*
X25471418Y-132967161D01*
X25038256Y-132881000D01*
X24745744Y-132881000D01*
X24312582Y-132967161D01*
X23821375Y-133295375D01*
X23809184Y-133313619D01*
X23800157Y-133268235D01*
X23659809Y-133058191D01*
X23449765Y-132917843D01*
X23202000Y-132868560D01*
X21502000Y-132868560D01*
X21254235Y-132917843D01*
X21044191Y-133058191D01*
X20903843Y-133268235D01*
X20854560Y-133516000D01*
X19526410Y-133516000D01*
X19399637Y-133433968D01*
X17451605Y-135382000D01*
X17092395Y-135382000D01*
X15144363Y-133433968D01*
X14737269Y-133697391D01*
X14680000Y-133836623D01*
X14680000Y-133254363D01*
X15323968Y-133254363D01*
X17272000Y-135202395D01*
X19220032Y-133254363D01*
X18956609Y-132847269D01*
X17858376Y-132395542D01*
X16670873Y-132398476D01*
X15587391Y-132847269D01*
X15323968Y-133254363D01*
X14680000Y-133254363D01*
X14680000Y-123858616D01*
X15533000Y-123858616D01*
X15533000Y-124449386D01*
X15759078Y-124995186D01*
X16176815Y-125412923D01*
X16722615Y-125639001D01*
X17313385Y-125639001D01*
X17859185Y-125412923D01*
X18276922Y-124995186D01*
X18310550Y-124914001D01*
X25771152Y-124914001D01*
X25845999Y-124928889D01*
X25900837Y-124917981D01*
X25908126Y-124921000D01*
X26319874Y-124921000D01*
X26700280Y-124763431D01*
X26991431Y-124472280D01*
X27149000Y-124091874D01*
X27149000Y-123680126D01*
X26991431Y-123299720D01*
X26700280Y-123008569D01*
X26319874Y-122851000D01*
X25908126Y-122851000D01*
X25527720Y-123008569D01*
X25236569Y-123299720D01*
X25197517Y-123394001D01*
X18310550Y-123394001D01*
X18276922Y-123312816D01*
X17861364Y-122897258D01*
X18164625Y-122694626D01*
X18492839Y-122203419D01*
X18608092Y-121624001D01*
X18599365Y-121580126D01*
X32429000Y-121580126D01*
X32429000Y-121991874D01*
X32586569Y-122372280D01*
X32877720Y-122663431D01*
X33258126Y-122821000D01*
X33669874Y-122821000D01*
X34010279Y-122680000D01*
X34348289Y-122680000D01*
X34465720Y-122797431D01*
X34846126Y-122955000D01*
X35257874Y-122955000D01*
X35638280Y-122797431D01*
X35929431Y-122506280D01*
X36013153Y-122304156D01*
X36267375Y-122684626D01*
X36565761Y-122884001D01*
X36267375Y-123083376D01*
X35939161Y-123574583D01*
X35823908Y-124154001D01*
X35939161Y-124733419D01*
X36267375Y-125224626D01*
X36758582Y-125552840D01*
X37191744Y-125639001D01*
X37484256Y-125639001D01*
X37917418Y-125552840D01*
X37929000Y-125545101D01*
X37929000Y-128786000D01*
X37977336Y-129029004D01*
X38114987Y-129235013D01*
X38320996Y-129372664D01*
X38564000Y-129421000D01*
X42571560Y-129421000D01*
X42571560Y-129501000D01*
X42620843Y-129748765D01*
X42761191Y-129958809D01*
X42971235Y-130099157D01*
X43016619Y-130108184D01*
X42998375Y-130120375D01*
X42670161Y-130611582D01*
X42554908Y-131191000D01*
X42670161Y-131770418D01*
X42998375Y-132261625D01*
X43317478Y-132474843D01*
X43187642Y-132535817D01*
X42797355Y-132964076D01*
X42627524Y-133374110D01*
X42748845Y-133604000D01*
X43942000Y-133604000D01*
X43942000Y-133584000D01*
X44196000Y-133584000D01*
X44196000Y-133604000D01*
X45389155Y-133604000D01*
X45510476Y-133374110D01*
X45340645Y-132964076D01*
X44950358Y-132535817D01*
X44820522Y-132474843D01*
X45139625Y-132261625D01*
X45467839Y-131770418D01*
X45583092Y-131191000D01*
X45467839Y-130611582D01*
X45139625Y-130120375D01*
X45121381Y-130108184D01*
X45166765Y-130099157D01*
X45376809Y-129958809D01*
X45517157Y-129748765D01*
X45566440Y-129501000D01*
X45566440Y-129421000D01*
X46363848Y-129421000D01*
X46363848Y-129538889D01*
X46413131Y-129786654D01*
X46553479Y-129996698D01*
X46763523Y-130137046D01*
X46808907Y-130146073D01*
X46790663Y-130158264D01*
X46462449Y-130649471D01*
X46347196Y-131228889D01*
X46462449Y-131808307D01*
X46790663Y-132299514D01*
X47281870Y-132627728D01*
X47715032Y-132713889D01*
X48007544Y-132713889D01*
X48440706Y-132627728D01*
X48931913Y-132299514D01*
X49260127Y-131808307D01*
X49375380Y-131228889D01*
X49260127Y-130649471D01*
X48979443Y-130229398D01*
X53507021Y-132432004D01*
X53418376Y-132395542D01*
X52230873Y-132398476D01*
X51147391Y-132847269D01*
X50883968Y-133254363D01*
X52832000Y-135202395D01*
X54780032Y-133254363D01*
X54588273Y-132958018D01*
X56491560Y-133883941D01*
X56491560Y-135042000D01*
X56540843Y-135289765D01*
X56681191Y-135499809D01*
X56891235Y-135640157D01*
X57139000Y-135689440D01*
X58939000Y-135689440D01*
X59186765Y-135640157D01*
X59396809Y-135499809D01*
X59537157Y-135289765D01*
X59586440Y-135042000D01*
X59586440Y-132969000D01*
X62304000Y-132969000D01*
X62304000Y-134069000D01*
X62469446Y-134646752D01*
X62843394Y-135117212D01*
X63368914Y-135408756D01*
X63474260Y-135433036D01*
X63712000Y-135312378D01*
X63712000Y-132969000D01*
X63966000Y-132969000D01*
X63966000Y-135312378D01*
X64203740Y-135433036D01*
X64309086Y-135408756D01*
X64834606Y-135117212D01*
X65208554Y-134646752D01*
X65374000Y-134069000D01*
X65374000Y-132969000D01*
X63966000Y-132969000D01*
X63712000Y-132969000D01*
X62304000Y-132969000D01*
X59586440Y-132969000D01*
X59586440Y-131615000D01*
X62304000Y-131615000D01*
X62304000Y-132715000D01*
X63712000Y-132715000D01*
X63712000Y-130371622D01*
X63966000Y-130371622D01*
X63966000Y-132715000D01*
X65374000Y-132715000D01*
X65374000Y-131615000D01*
X65208554Y-131037248D01*
X64834606Y-130566788D01*
X64309086Y-130275244D01*
X64203740Y-130250964D01*
X63966000Y-130371622D01*
X63712000Y-130371622D01*
X63474260Y-130250964D01*
X63368914Y-130275244D01*
X62843394Y-130566788D01*
X62469446Y-131037248D01*
X62304000Y-131615000D01*
X59586440Y-131615000D01*
X59586440Y-130642000D01*
X59537157Y-130394235D01*
X59396809Y-130184191D01*
X59343596Y-130148635D01*
X59367001Y-129493294D01*
X59787818Y-129577000D01*
X62290182Y-129577000D01*
X62737927Y-129487938D01*
X63245673Y-129148673D01*
X63584938Y-128640927D01*
X63704072Y-128042000D01*
X63584938Y-127443073D01*
X63245673Y-126935327D01*
X62737927Y-126596062D01*
X62290182Y-126507000D01*
X59787818Y-126507000D01*
X59471407Y-126569938D01*
X59498595Y-125808664D01*
X59458336Y-125562415D01*
X59327532Y-125351992D01*
X59247110Y-125294343D01*
X59327577Y-125240577D01*
X59563000Y-124888242D01*
X59798423Y-125240577D01*
X60273091Y-125557740D01*
X60691667Y-125641000D01*
X60974333Y-125641000D01*
X61392909Y-125557740D01*
X61867577Y-125240577D01*
X62184740Y-124765909D01*
X62296113Y-124206000D01*
X62184740Y-123646091D01*
X61977544Y-123336000D01*
X62308874Y-123336000D01*
X62689280Y-123178431D01*
X62980431Y-122887280D01*
X63138000Y-122506874D01*
X63138000Y-122095126D01*
X62980431Y-121714720D01*
X62689280Y-121423569D01*
X62308874Y-121266000D01*
X61897126Y-121266000D01*
X61516720Y-121423569D01*
X61399289Y-121541000D01*
X61023848Y-121541000D01*
X60949000Y-121526112D01*
X60874152Y-121541000D01*
X60874148Y-121541000D01*
X60700605Y-121575520D01*
X60652462Y-121585096D01*
X60525250Y-121670097D01*
X60401071Y-121753071D01*
X60358671Y-121816527D01*
X60030692Y-122144506D01*
X59991431Y-122049720D01*
X59700280Y-121758569D01*
X59319874Y-121601000D01*
X58908126Y-121601000D01*
X58877318Y-121613761D01*
X58864000Y-121611112D01*
X58789153Y-121626000D01*
X44928802Y-121626000D01*
X44922007Y-121619205D01*
X44922007Y-121357116D01*
X44764438Y-120976710D01*
X44473287Y-120685559D01*
X44289177Y-120609298D01*
X44271647Y-112265097D01*
X44343947Y-112156892D01*
X44440611Y-112361134D01*
X44855577Y-112737041D01*
X45243961Y-112897904D01*
X45466000Y-112775915D01*
X45466000Y-111633000D01*
X45446000Y-111633000D01*
X45446000Y-111379000D01*
X45466000Y-111379000D01*
X45466000Y-110236085D01*
X45243961Y-110114096D01*
X44855577Y-110274959D01*
X44440611Y-110650866D01*
X44343947Y-110855108D01*
X44268448Y-110742115D01*
X44263402Y-108340436D01*
X44323000Y-108251242D01*
X44558423Y-108603577D01*
X45033091Y-108920740D01*
X45451667Y-109004000D01*
X45734333Y-109004000D01*
X46152909Y-108920740D01*
X46627577Y-108603577D01*
X46863000Y-108251242D01*
X47098423Y-108603577D01*
X47573091Y-108920740D01*
X47991667Y-109004000D01*
X48274333Y-109004000D01*
X48692909Y-108920740D01*
X49167577Y-108603577D01*
X49403000Y-108251242D01*
X49638423Y-108603577D01*
X50113091Y-108920740D01*
X50531667Y-109004000D01*
X50814333Y-109004000D01*
X51232909Y-108920740D01*
X51707577Y-108603577D01*
X51943000Y-108251242D01*
X52178423Y-108603577D01*
X52653091Y-108920740D01*
X53071667Y-109004000D01*
X53354333Y-109004000D01*
X53772909Y-108920740D01*
X54247577Y-108603577D01*
X54483000Y-108251242D01*
X54718423Y-108603577D01*
X55193091Y-108920740D01*
X55611667Y-109004000D01*
X55894333Y-109004000D01*
X56312909Y-108920740D01*
X56787577Y-108603577D01*
X57023000Y-108251242D01*
X57258423Y-108603577D01*
X57733091Y-108920740D01*
X58151667Y-109004000D01*
X58434333Y-109004000D01*
X58852909Y-108920740D01*
X59327577Y-108603577D01*
X59563000Y-108251242D01*
X59798423Y-108603577D01*
X59991567Y-108732631D01*
X58616886Y-110107312D01*
X58434333Y-110071000D01*
X58151667Y-110071000D01*
X57733091Y-110154260D01*
X57258423Y-110471423D01*
X57023000Y-110823758D01*
X56787577Y-110471423D01*
X56312909Y-110154260D01*
X55894333Y-110071000D01*
X55611667Y-110071000D01*
X55193091Y-110154260D01*
X54718423Y-110471423D01*
X54483000Y-110823758D01*
X54247577Y-110471423D01*
X53772909Y-110154260D01*
X53354333Y-110071000D01*
X53071667Y-110071000D01*
X52653091Y-110154260D01*
X52178423Y-110471423D01*
X51943000Y-110823758D01*
X51707577Y-110471423D01*
X51232909Y-110154260D01*
X50814333Y-110071000D01*
X50531667Y-110071000D01*
X50113091Y-110154260D01*
X49638423Y-110471423D01*
X49403000Y-110823758D01*
X49167577Y-110471423D01*
X48692909Y-110154260D01*
X48274333Y-110071000D01*
X47991667Y-110071000D01*
X47573091Y-110154260D01*
X47098423Y-110471423D01*
X46842053Y-110855108D01*
X46745389Y-110650866D01*
X46330423Y-110274959D01*
X45942039Y-110114096D01*
X45720000Y-110236085D01*
X45720000Y-111379000D01*
X45740000Y-111379000D01*
X45740000Y-111633000D01*
X45720000Y-111633000D01*
X45720000Y-112775915D01*
X45942039Y-112897904D01*
X46330423Y-112737041D01*
X46745389Y-112361134D01*
X46842053Y-112156892D01*
X47098423Y-112540577D01*
X47573091Y-112857740D01*
X47991667Y-112941000D01*
X48274333Y-112941000D01*
X48692909Y-112857740D01*
X49167577Y-112540577D01*
X49403000Y-112188242D01*
X49638423Y-112540577D01*
X50113091Y-112857740D01*
X50531667Y-112941000D01*
X50814333Y-112941000D01*
X51232909Y-112857740D01*
X51707577Y-112540577D01*
X51943000Y-112188242D01*
X52178423Y-112540577D01*
X52653091Y-112857740D01*
X53071667Y-112941000D01*
X53354333Y-112941000D01*
X53772909Y-112857740D01*
X54247577Y-112540577D01*
X54483000Y-112188242D01*
X54718423Y-112540577D01*
X55193091Y-112857740D01*
X55611667Y-112941000D01*
X55894333Y-112941000D01*
X56312909Y-112857740D01*
X56787577Y-112540577D01*
X57023000Y-112188242D01*
X57258423Y-112540577D01*
X57533000Y-112724044D01*
X57533000Y-114252354D01*
X57221418Y-114044161D01*
X56788256Y-113958000D01*
X56495744Y-113958000D01*
X56062582Y-114044161D01*
X55571375Y-114372375D01*
X55243161Y-114863582D01*
X55127908Y-115443000D01*
X55243161Y-116022418D01*
X55571375Y-116513625D01*
X55589619Y-116525816D01*
X55544235Y-116534843D01*
X55334191Y-116675191D01*
X55193843Y-116885235D01*
X55144560Y-117133000D01*
X55144560Y-117223000D01*
X54456440Y-117223000D01*
X54456440Y-117133000D01*
X54407157Y-116885235D01*
X54266809Y-116675191D01*
X54056765Y-116534843D01*
X54011381Y-116525816D01*
X54029625Y-116513625D01*
X54357839Y-116022418D01*
X54473092Y-115443000D01*
X54357839Y-114863582D01*
X54029625Y-114372375D01*
X53538418Y-114044161D01*
X53105256Y-113958000D01*
X52812744Y-113958000D01*
X52379582Y-114044161D01*
X51888375Y-114372375D01*
X51560161Y-114863582D01*
X51444908Y-115443000D01*
X51560161Y-116022418D01*
X51888375Y-116513625D01*
X51906619Y-116525816D01*
X51861235Y-116534843D01*
X51651191Y-116675191D01*
X51510843Y-116885235D01*
X51461560Y-117133000D01*
X51461560Y-118833000D01*
X51510843Y-119080765D01*
X51651191Y-119290809D01*
X51861235Y-119431157D01*
X52109000Y-119480440D01*
X53809000Y-119480440D01*
X54056765Y-119431157D01*
X54266809Y-119290809D01*
X54407157Y-119080765D01*
X54456440Y-118833000D01*
X54456440Y-118743000D01*
X55144560Y-118743000D01*
X55144560Y-118833000D01*
X55193843Y-119080765D01*
X55334191Y-119290809D01*
X55544235Y-119431157D01*
X55792000Y-119480440D01*
X57492000Y-119480440D01*
X57739765Y-119431157D01*
X57949809Y-119290809D01*
X58090157Y-119080765D01*
X58139440Y-118833000D01*
X58139440Y-118743000D01*
X58827560Y-118743000D01*
X58827560Y-118833000D01*
X58876843Y-119080765D01*
X59017191Y-119290809D01*
X59227235Y-119431157D01*
X59475000Y-119480440D01*
X61175000Y-119480440D01*
X61422765Y-119431157D01*
X61632809Y-119290809D01*
X61773157Y-119080765D01*
X61822440Y-118833000D01*
X61822440Y-117133000D01*
X61773157Y-116885235D01*
X61632809Y-116675191D01*
X61422765Y-116534843D01*
X61377381Y-116525816D01*
X61395625Y-116513625D01*
X61723839Y-116022418D01*
X61839092Y-115443000D01*
X61723839Y-114863582D01*
X61395625Y-114372375D01*
X61296288Y-114306000D01*
X64599908Y-114306000D01*
X64715161Y-114885418D01*
X65043375Y-115376625D01*
X65341761Y-115576000D01*
X65043375Y-115775375D01*
X64715161Y-116266582D01*
X64599908Y-116846000D01*
X64715161Y-117425418D01*
X65043375Y-117916625D01*
X65341761Y-118116000D01*
X65043375Y-118315375D01*
X64715161Y-118806582D01*
X64599908Y-119386000D01*
X64715161Y-119965418D01*
X65043375Y-120456625D01*
X65534582Y-120784839D01*
X65967744Y-120871000D01*
X66260256Y-120871000D01*
X66693418Y-120784839D01*
X67184625Y-120456625D01*
X67512839Y-119965418D01*
X67628092Y-119386000D01*
X67512839Y-118806582D01*
X67184625Y-118315375D01*
X66886239Y-118116000D01*
X67184625Y-117916625D01*
X67512839Y-117425418D01*
X67628092Y-116846000D01*
X67512839Y-116266582D01*
X67184625Y-115775375D01*
X66886239Y-115576000D01*
X67184625Y-115376625D01*
X67512839Y-114885418D01*
X67628092Y-114306000D01*
X67512839Y-113726582D01*
X67184625Y-113235375D01*
X67166381Y-113223184D01*
X67211765Y-113214157D01*
X67421809Y-113073809D01*
X67562157Y-112863765D01*
X67611440Y-112616000D01*
X67611440Y-110916000D01*
X67562157Y-110668235D01*
X67421809Y-110458191D01*
X67211765Y-110317843D01*
X66964000Y-110268560D01*
X65264000Y-110268560D01*
X65016235Y-110317843D01*
X64806191Y-110458191D01*
X64665843Y-110668235D01*
X64616560Y-110916000D01*
X64616560Y-112616000D01*
X64665843Y-112863765D01*
X64806191Y-113073809D01*
X65016235Y-113214157D01*
X65061619Y-113223184D01*
X65043375Y-113235375D01*
X64715161Y-113726582D01*
X64599908Y-114306000D01*
X61296288Y-114306000D01*
X60904418Y-114044161D01*
X60471256Y-113958000D01*
X60178744Y-113958000D01*
X59745582Y-114044161D01*
X59254375Y-114372375D01*
X59053000Y-114673754D01*
X59053000Y-112724043D01*
X59327577Y-112540577D01*
X59398735Y-112434082D01*
X59494673Y-112665698D01*
X59673301Y-112844327D01*
X59906690Y-112941000D01*
X60547250Y-112941000D01*
X60706000Y-112782250D01*
X60706000Y-111633000D01*
X60960000Y-111633000D01*
X60960000Y-112782250D01*
X61118750Y-112941000D01*
X61759310Y-112941000D01*
X61992699Y-112844327D01*
X62171327Y-112665698D01*
X62268000Y-112432309D01*
X62268000Y-111791750D01*
X62109250Y-111633000D01*
X60960000Y-111633000D01*
X60706000Y-111633000D01*
X60686000Y-111633000D01*
X60686000Y-111379000D01*
X60706000Y-111379000D01*
X60706000Y-110229750D01*
X60960000Y-110229750D01*
X60960000Y-111379000D01*
X62109250Y-111379000D01*
X62268000Y-111220250D01*
X62268000Y-110579691D01*
X62171327Y-110346302D01*
X61992699Y-110167673D01*
X61759310Y-110071000D01*
X61118750Y-110071000D01*
X60960000Y-110229750D01*
X60706000Y-110229750D01*
X60675026Y-110198776D01*
X61227802Y-109646000D01*
X65660275Y-109646000D01*
X65777706Y-109763431D01*
X66158112Y-109921000D01*
X66569860Y-109921000D01*
X66950266Y-109763431D01*
X67241417Y-109472280D01*
X67398986Y-109091874D01*
X67398986Y-108680126D01*
X67241417Y-108299720D01*
X66950266Y-108008569D01*
X66569860Y-107851000D01*
X66158112Y-107851000D01*
X65777706Y-108008569D01*
X65660275Y-108126000D01*
X62185319Y-108126000D01*
X62296113Y-107569000D01*
X62184740Y-107009091D01*
X61867577Y-106534423D01*
X61395105Y-106218728D01*
X61487000Y-105996874D01*
X61487000Y-105585126D01*
X61329431Y-105204720D01*
X61038280Y-104913569D01*
X60657874Y-104756000D01*
X60246126Y-104756000D01*
X59865720Y-104913569D01*
X59844647Y-104934642D01*
X59518366Y-104799492D01*
X59106618Y-104799492D01*
X58726212Y-104957061D01*
X58608781Y-105074492D01*
X44877284Y-105074492D01*
X44339667Y-104536876D01*
X44254982Y-104332427D01*
X44236805Y-95680242D01*
X44343947Y-95519892D01*
X44440611Y-95724134D01*
X44855577Y-96100041D01*
X45243961Y-96260904D01*
X45466000Y-96138915D01*
X45466000Y-94996000D01*
X45446000Y-94996000D01*
X45446000Y-94742000D01*
X45466000Y-94742000D01*
X45466000Y-93599085D01*
X45243961Y-93477096D01*
X44855577Y-93637959D01*
X44440611Y-94013866D01*
X44343947Y-94218108D01*
X44233386Y-94052641D01*
X44228560Y-91755581D01*
X44323000Y-91614242D01*
X44558423Y-91966577D01*
X45033091Y-92283740D01*
X45451667Y-92367000D01*
X45734333Y-92367000D01*
X46152909Y-92283740D01*
X46627577Y-91966577D01*
X46863000Y-91614242D01*
X47098423Y-91966577D01*
X47573091Y-92283740D01*
X47991667Y-92367000D01*
X48274333Y-92367000D01*
X48692909Y-92283740D01*
X49167577Y-91966577D01*
X49403000Y-91614242D01*
X49638423Y-91966577D01*
X50113091Y-92283740D01*
X50531667Y-92367000D01*
X50814333Y-92367000D01*
X51232909Y-92283740D01*
X51707577Y-91966577D01*
X51943000Y-91614242D01*
X52178423Y-91966577D01*
X52653091Y-92283740D01*
X53071667Y-92367000D01*
X53354333Y-92367000D01*
X53772909Y-92283740D01*
X54247577Y-91966577D01*
X54483000Y-91614242D01*
X54718423Y-91966577D01*
X55193091Y-92283740D01*
X55611667Y-92367000D01*
X55894333Y-92367000D01*
X56312909Y-92283740D01*
X56787577Y-91966577D01*
X57023000Y-91614242D01*
X57258423Y-91966577D01*
X57733091Y-92283740D01*
X58151667Y-92367000D01*
X58434333Y-92367000D01*
X58852909Y-92283740D01*
X59327577Y-91966577D01*
X59563000Y-91614242D01*
X59798423Y-91966577D01*
X60196582Y-92232618D01*
X59128105Y-93301096D01*
X59092998Y-93294113D01*
X59018151Y-93309001D01*
X59018147Y-93309001D01*
X58796462Y-93353097D01*
X58796460Y-93353098D01*
X58796461Y-93353098D01*
X58620084Y-93470948D01*
X58434333Y-93434000D01*
X58151667Y-93434000D01*
X57733091Y-93517260D01*
X57258423Y-93834423D01*
X57023000Y-94186758D01*
X56787577Y-93834423D01*
X56312909Y-93517260D01*
X55894333Y-93434000D01*
X55611667Y-93434000D01*
X55193091Y-93517260D01*
X54718423Y-93834423D01*
X54483000Y-94186758D01*
X54247577Y-93834423D01*
X53772909Y-93517260D01*
X53354333Y-93434000D01*
X53071667Y-93434000D01*
X52653091Y-93517260D01*
X52178423Y-93834423D01*
X51943000Y-94186758D01*
X51707577Y-93834423D01*
X51232909Y-93517260D01*
X50814333Y-93434000D01*
X50531667Y-93434000D01*
X50113091Y-93517260D01*
X49638423Y-93834423D01*
X49403000Y-94186758D01*
X49167577Y-93834423D01*
X48692909Y-93517260D01*
X48274333Y-93434000D01*
X47991667Y-93434000D01*
X47573091Y-93517260D01*
X47098423Y-93834423D01*
X46842053Y-94218108D01*
X46745389Y-94013866D01*
X46330423Y-93637959D01*
X45942039Y-93477096D01*
X45720000Y-93599085D01*
X45720000Y-94742000D01*
X45740000Y-94742000D01*
X45740000Y-94996000D01*
X45720000Y-94996000D01*
X45720000Y-96138915D01*
X45942039Y-96260904D01*
X46330423Y-96100041D01*
X46745389Y-95724134D01*
X46842053Y-95519892D01*
X47098423Y-95903577D01*
X47573091Y-96220740D01*
X47991667Y-96304000D01*
X48274333Y-96304000D01*
X48692909Y-96220740D01*
X49167577Y-95903577D01*
X49403000Y-95551242D01*
X49638423Y-95903577D01*
X50113091Y-96220740D01*
X50531667Y-96304000D01*
X50814333Y-96304000D01*
X51232909Y-96220740D01*
X51707577Y-95903577D01*
X51943000Y-95551242D01*
X52178423Y-95903577D01*
X52653091Y-96220740D01*
X53071667Y-96304000D01*
X53354333Y-96304000D01*
X53772909Y-96220740D01*
X54247577Y-95903577D01*
X54483000Y-95551242D01*
X54718423Y-95903577D01*
X55193091Y-96220740D01*
X55611667Y-96304000D01*
X55894333Y-96304000D01*
X56312909Y-96220740D01*
X56787577Y-95903577D01*
X57023000Y-95551242D01*
X57258423Y-95903577D01*
X57733091Y-96220740D01*
X58151667Y-96304000D01*
X58434333Y-96304000D01*
X58616887Y-96267688D01*
X59675912Y-97326713D01*
X59254375Y-97608375D01*
X58926161Y-98099582D01*
X58810908Y-98679000D01*
X58926161Y-99258418D01*
X59254375Y-99749625D01*
X59272619Y-99761816D01*
X59227235Y-99770843D01*
X59017191Y-99911191D01*
X58876843Y-100121235D01*
X58827560Y-100369000D01*
X58827560Y-100459000D01*
X58139440Y-100459000D01*
X58139440Y-100369000D01*
X58090157Y-100121235D01*
X57949809Y-99911191D01*
X57739765Y-99770843D01*
X57694381Y-99761816D01*
X57712625Y-99749625D01*
X58040839Y-99258418D01*
X58156092Y-98679000D01*
X58040839Y-98099582D01*
X57712625Y-97608375D01*
X57221418Y-97280161D01*
X56788256Y-97194000D01*
X56495744Y-97194000D01*
X56062582Y-97280161D01*
X55571375Y-97608375D01*
X55243161Y-98099582D01*
X55127908Y-98679000D01*
X55243161Y-99258418D01*
X55571375Y-99749625D01*
X55589619Y-99761816D01*
X55544235Y-99770843D01*
X55334191Y-99911191D01*
X55193843Y-100121235D01*
X55144560Y-100369000D01*
X55144560Y-100459000D01*
X54456440Y-100459000D01*
X54456440Y-100369000D01*
X54407157Y-100121235D01*
X54266809Y-99911191D01*
X54056765Y-99770843D01*
X54011381Y-99761816D01*
X54029625Y-99749625D01*
X54357839Y-99258418D01*
X54473092Y-98679000D01*
X54357839Y-98099582D01*
X54029625Y-97608375D01*
X53538418Y-97280161D01*
X53105256Y-97194000D01*
X52812744Y-97194000D01*
X52379582Y-97280161D01*
X51888375Y-97608375D01*
X51560161Y-98099582D01*
X51444908Y-98679000D01*
X51560161Y-99258418D01*
X51888375Y-99749625D01*
X51906619Y-99761816D01*
X51861235Y-99770843D01*
X51651191Y-99911191D01*
X51510843Y-100121235D01*
X51461560Y-100369000D01*
X51461560Y-102069000D01*
X51510843Y-102316765D01*
X51651191Y-102526809D01*
X51861235Y-102667157D01*
X52109000Y-102716440D01*
X53809000Y-102716440D01*
X54056765Y-102667157D01*
X54266809Y-102526809D01*
X54407157Y-102316765D01*
X54456440Y-102069000D01*
X54456440Y-101979000D01*
X55144560Y-101979000D01*
X55144560Y-102069000D01*
X55193843Y-102316765D01*
X55334191Y-102526809D01*
X55544235Y-102667157D01*
X55792000Y-102716440D01*
X57492000Y-102716440D01*
X57739765Y-102667157D01*
X57949809Y-102526809D01*
X58090157Y-102316765D01*
X58139440Y-102069000D01*
X58139440Y-101979000D01*
X58827560Y-101979000D01*
X58827560Y-102069000D01*
X58876843Y-102316765D01*
X59017191Y-102526809D01*
X59227235Y-102667157D01*
X59475000Y-102716440D01*
X61175000Y-102716440D01*
X61422765Y-102667157D01*
X61632809Y-102526809D01*
X61773157Y-102316765D01*
X61822440Y-102069000D01*
X61822440Y-101895547D01*
X62014930Y-101766929D01*
X62048175Y-101717174D01*
X62097930Y-101683929D01*
X62265905Y-101432537D01*
X62310001Y-101210852D01*
X62310001Y-101210848D01*
X62324889Y-101136000D01*
X62310001Y-101061152D01*
X62310001Y-98560000D01*
X64779908Y-98560000D01*
X64895161Y-99139418D01*
X65223375Y-99630625D01*
X65521761Y-99830000D01*
X65223375Y-100029375D01*
X64895161Y-100520582D01*
X64779908Y-101100000D01*
X64895161Y-101679418D01*
X65223375Y-102170625D01*
X65521761Y-102370000D01*
X65223375Y-102569375D01*
X64895161Y-103060582D01*
X64779908Y-103640000D01*
X64895161Y-104219418D01*
X65223375Y-104710625D01*
X65714582Y-105038839D01*
X66147744Y-105125000D01*
X66440256Y-105125000D01*
X66873418Y-105038839D01*
X67364625Y-104710625D01*
X67692839Y-104219418D01*
X67808092Y-103640000D01*
X67692839Y-103060582D01*
X67364625Y-102569375D01*
X67066239Y-102370000D01*
X67364625Y-102170625D01*
X67692839Y-101679418D01*
X67808092Y-101100000D01*
X67692839Y-100520582D01*
X67364625Y-100029375D01*
X67066239Y-99830000D01*
X67364625Y-99630625D01*
X67692839Y-99139418D01*
X67808092Y-98560000D01*
X67692839Y-97980582D01*
X67364625Y-97489375D01*
X67346381Y-97477184D01*
X67391765Y-97468157D01*
X67601809Y-97327809D01*
X67742157Y-97117765D01*
X67791440Y-96870000D01*
X67791440Y-95170000D01*
X67742157Y-94922235D01*
X67601809Y-94712191D01*
X67391765Y-94571843D01*
X67144000Y-94522560D01*
X65444000Y-94522560D01*
X65196235Y-94571843D01*
X64986191Y-94712191D01*
X64845843Y-94922235D01*
X64796560Y-95170000D01*
X64796560Y-96870000D01*
X64845843Y-97117765D01*
X64986191Y-97327809D01*
X65196235Y-97468157D01*
X65241619Y-97477184D01*
X65223375Y-97489375D01*
X64895161Y-97980582D01*
X64779908Y-98560000D01*
X62310001Y-98560000D01*
X62310001Y-98200849D01*
X62324889Y-98126001D01*
X62310001Y-98051153D01*
X62310001Y-98051149D01*
X62265905Y-97829464D01*
X62097930Y-97578072D01*
X62034474Y-97535672D01*
X60675026Y-96176224D01*
X60706000Y-96145250D01*
X60706000Y-94996000D01*
X60960000Y-94996000D01*
X60960000Y-96145250D01*
X61118750Y-96304000D01*
X61759310Y-96304000D01*
X61992699Y-96207327D01*
X62171327Y-96028698D01*
X62268000Y-95795309D01*
X62268000Y-95154750D01*
X62109250Y-94996000D01*
X60960000Y-94996000D01*
X60706000Y-94996000D01*
X60686000Y-94996000D01*
X60686000Y-94742000D01*
X60706000Y-94742000D01*
X60706000Y-94722000D01*
X60960000Y-94722000D01*
X60960000Y-94742000D01*
X62109250Y-94742000D01*
X62268000Y-94583250D01*
X62268000Y-93942691D01*
X62171327Y-93709302D01*
X61992699Y-93530673D01*
X61759310Y-93434000D01*
X61144804Y-93434000D01*
X62492477Y-92086328D01*
X62555930Y-92043930D01*
X62598328Y-91980477D01*
X62598330Y-91980475D01*
X62723904Y-91792539D01*
X62723905Y-91792538D01*
X62768001Y-91570853D01*
X62768001Y-91570849D01*
X62782889Y-91496002D01*
X62768001Y-91421155D01*
X62768001Y-90442846D01*
X62782889Y-90367999D01*
X62768001Y-90293152D01*
X62768001Y-90293147D01*
X62723905Y-90071462D01*
X62555930Y-89820070D01*
X62492474Y-89777670D01*
X62183001Y-89468198D01*
X62183001Y-84847348D01*
X62197889Y-84772500D01*
X62183001Y-84697652D01*
X62183001Y-82636000D01*
X64779908Y-82636000D01*
X64895161Y-83215418D01*
X65223375Y-83706625D01*
X65521761Y-83906000D01*
X65223375Y-84105375D01*
X64895161Y-84596582D01*
X64779908Y-85176000D01*
X64895161Y-85755418D01*
X65223375Y-86246625D01*
X65521761Y-86446000D01*
X65223375Y-86645375D01*
X64895161Y-87136582D01*
X64779908Y-87716000D01*
X64895161Y-88295418D01*
X65223375Y-88786625D01*
X65714582Y-89114839D01*
X66147744Y-89201000D01*
X66440256Y-89201000D01*
X66873418Y-89114839D01*
X67364625Y-88786625D01*
X67692839Y-88295418D01*
X67808092Y-87716000D01*
X67692839Y-87136582D01*
X67364625Y-86645375D01*
X67066239Y-86446000D01*
X67364625Y-86246625D01*
X67692839Y-85755418D01*
X67808092Y-85176000D01*
X67692839Y-84596582D01*
X67364625Y-84105375D01*
X67066239Y-83906000D01*
X67364625Y-83706625D01*
X67692839Y-83215418D01*
X67808092Y-82636000D01*
X67692839Y-82056582D01*
X67364625Y-81565375D01*
X67346381Y-81553184D01*
X67391765Y-81544157D01*
X67601809Y-81403809D01*
X67742157Y-81193765D01*
X67791440Y-80946000D01*
X67791440Y-79246000D01*
X67742157Y-78998235D01*
X67601809Y-78788191D01*
X67391765Y-78647843D01*
X67144000Y-78598560D01*
X65444000Y-78598560D01*
X65196235Y-78647843D01*
X64986191Y-78788191D01*
X64845843Y-78998235D01*
X64796560Y-79246000D01*
X64796560Y-80946000D01*
X64845843Y-81193765D01*
X64986191Y-81403809D01*
X65196235Y-81544157D01*
X65241619Y-81553184D01*
X65223375Y-81565375D01*
X64895161Y-82056582D01*
X64779908Y-82636000D01*
X62183001Y-82636000D01*
X62183001Y-81782845D01*
X62197889Y-81707998D01*
X62183001Y-81633151D01*
X62183001Y-81633147D01*
X62138905Y-81411462D01*
X61970930Y-81160070D01*
X61907474Y-81117670D01*
X61191333Y-80401530D01*
X61148931Y-80338071D01*
X60897539Y-80170096D01*
X60675854Y-80126000D01*
X60675849Y-80126000D01*
X60601002Y-80111112D01*
X60526155Y-80126000D01*
X59053000Y-80126000D01*
X59053000Y-79450043D01*
X59327577Y-79266577D01*
X59398735Y-79160082D01*
X59494673Y-79391698D01*
X59673301Y-79570327D01*
X59906690Y-79667000D01*
X60547250Y-79667000D01*
X60706000Y-79508250D01*
X60706000Y-78359000D01*
X60960000Y-78359000D01*
X60960000Y-79508250D01*
X61118750Y-79667000D01*
X61759310Y-79667000D01*
X61992699Y-79570327D01*
X62171327Y-79391698D01*
X62268000Y-79158309D01*
X62268000Y-78517750D01*
X62109250Y-78359000D01*
X60960000Y-78359000D01*
X60706000Y-78359000D01*
X60686000Y-78359000D01*
X60686000Y-78105000D01*
X60706000Y-78105000D01*
X60706000Y-76955750D01*
X60960000Y-76955750D01*
X60960000Y-78105000D01*
X62109250Y-78105000D01*
X62268000Y-77946250D01*
X62268000Y-77438637D01*
X63964968Y-77438637D01*
X64228391Y-77845731D01*
X65326624Y-78297458D01*
X66514127Y-78294524D01*
X67597609Y-77845731D01*
X67861032Y-77438637D01*
X65913000Y-75490605D01*
X63964968Y-77438637D01*
X62268000Y-77438637D01*
X62268000Y-77305691D01*
X62171327Y-77072302D01*
X61992699Y-76893673D01*
X61759310Y-76797000D01*
X61118750Y-76797000D01*
X60960000Y-76955750D01*
X60706000Y-76955750D01*
X60547250Y-76797000D01*
X59906690Y-76797000D01*
X59673301Y-76893673D01*
X59494673Y-77072302D01*
X59398735Y-77303918D01*
X59327577Y-77197423D01*
X59053000Y-77013957D01*
X59053000Y-75845156D01*
X59201000Y-75487852D01*
X59201000Y-75076104D01*
X59055413Y-74724624D01*
X62926542Y-74724624D01*
X62929476Y-75912127D01*
X63378269Y-76995609D01*
X63785363Y-77259032D01*
X65733395Y-75311000D01*
X63785363Y-73362968D01*
X63378269Y-73626391D01*
X62926542Y-74724624D01*
X59055413Y-74724624D01*
X59043431Y-74695698D01*
X58752280Y-74404547D01*
X58371874Y-74246978D01*
X57960126Y-74246978D01*
X57579720Y-74404547D01*
X57288569Y-74695698D01*
X57131000Y-75076104D01*
X57131000Y-75487852D01*
X57288569Y-75868258D01*
X57533001Y-76112690D01*
X57533000Y-77013956D01*
X57258423Y-77197423D01*
X57023000Y-77549758D01*
X56787577Y-77197423D01*
X56312909Y-76880260D01*
X55894333Y-76797000D01*
X55611667Y-76797000D01*
X55193091Y-76880260D01*
X54718423Y-77197423D01*
X54483000Y-77549758D01*
X54247577Y-77197423D01*
X53772909Y-76880260D01*
X53354333Y-76797000D01*
X53071667Y-76797000D01*
X52653091Y-76880260D01*
X52178423Y-77197423D01*
X51943000Y-77549758D01*
X51707577Y-77197423D01*
X51232909Y-76880260D01*
X50814333Y-76797000D01*
X50531667Y-76797000D01*
X50113091Y-76880260D01*
X49638423Y-77197423D01*
X49403000Y-77549758D01*
X49167577Y-77197423D01*
X48692909Y-76880260D01*
X48274333Y-76797000D01*
X47991667Y-76797000D01*
X47573091Y-76880260D01*
X47098423Y-77197423D01*
X46842053Y-77581108D01*
X46745389Y-77376866D01*
X46330423Y-77000959D01*
X45942039Y-76840096D01*
X45720000Y-76962085D01*
X45720000Y-78105000D01*
X45740000Y-78105000D01*
X45740000Y-78359000D01*
X45720000Y-78359000D01*
X45720000Y-79501915D01*
X45942039Y-79623904D01*
X46330423Y-79463041D01*
X46745389Y-79087134D01*
X46842053Y-78882892D01*
X47098423Y-79266577D01*
X47573091Y-79583740D01*
X47991667Y-79667000D01*
X48274333Y-79667000D01*
X48692909Y-79583740D01*
X49167577Y-79266577D01*
X49403000Y-78914242D01*
X49638423Y-79266577D01*
X50113091Y-79583740D01*
X50531667Y-79667000D01*
X50814333Y-79667000D01*
X51232909Y-79583740D01*
X51707577Y-79266577D01*
X51943000Y-78914242D01*
X52178423Y-79266577D01*
X52653091Y-79583740D01*
X53071667Y-79667000D01*
X53354333Y-79667000D01*
X53772909Y-79583740D01*
X54247577Y-79266577D01*
X54483000Y-78914242D01*
X54718423Y-79266577D01*
X55193091Y-79583740D01*
X55611667Y-79667000D01*
X55894333Y-79667000D01*
X56312909Y-79583740D01*
X56787577Y-79266577D01*
X57023000Y-78914242D01*
X57258423Y-79266577D01*
X57533000Y-79450044D01*
X57533001Y-80811143D01*
X57518111Y-80886000D01*
X57577096Y-81182537D01*
X57745071Y-81433929D01*
X57996463Y-81601904D01*
X58218148Y-81646000D01*
X58293000Y-81660889D01*
X58367852Y-81646000D01*
X58846322Y-81646000D01*
X58799161Y-81716582D01*
X58683908Y-82296000D01*
X58799161Y-82875418D01*
X59127375Y-83366625D01*
X59145619Y-83378816D01*
X59100235Y-83387843D01*
X58890191Y-83528191D01*
X58749843Y-83738235D01*
X58700560Y-83986000D01*
X58700560Y-84076000D01*
X58012440Y-84076000D01*
X58012440Y-83986000D01*
X57963157Y-83738235D01*
X57822809Y-83528191D01*
X57612765Y-83387843D01*
X57567381Y-83378816D01*
X57585625Y-83366625D01*
X57913839Y-82875418D01*
X58029092Y-82296000D01*
X57913839Y-81716582D01*
X57585625Y-81225375D01*
X57094418Y-80897161D01*
X56661256Y-80811000D01*
X56368744Y-80811000D01*
X55935582Y-80897161D01*
X55444375Y-81225375D01*
X55116161Y-81716582D01*
X55000908Y-82296000D01*
X55116161Y-82875418D01*
X55444375Y-83366625D01*
X55462619Y-83378816D01*
X55417235Y-83387843D01*
X55207191Y-83528191D01*
X55066843Y-83738235D01*
X55017560Y-83986000D01*
X55017560Y-84076000D01*
X54329440Y-84076000D01*
X54329440Y-83986000D01*
X54280157Y-83738235D01*
X54139809Y-83528191D01*
X53929765Y-83387843D01*
X53884381Y-83378816D01*
X53902625Y-83366625D01*
X54230839Y-82875418D01*
X54346092Y-82296000D01*
X54230839Y-81716582D01*
X53902625Y-81225375D01*
X53411418Y-80897161D01*
X52978256Y-80811000D01*
X52685744Y-80811000D01*
X52252582Y-80897161D01*
X51761375Y-81225375D01*
X51433161Y-81716582D01*
X51317908Y-82296000D01*
X51433161Y-82875418D01*
X51761375Y-83366625D01*
X51779619Y-83378816D01*
X51734235Y-83387843D01*
X51524191Y-83528191D01*
X51383843Y-83738235D01*
X51334560Y-83986000D01*
X51334560Y-85686000D01*
X51383843Y-85933765D01*
X51524191Y-86143809D01*
X51734235Y-86284157D01*
X51982000Y-86333440D01*
X53682000Y-86333440D01*
X53929765Y-86284157D01*
X54139809Y-86143809D01*
X54280157Y-85933765D01*
X54329440Y-85686000D01*
X54329440Y-85596000D01*
X55017560Y-85596000D01*
X55017560Y-85686000D01*
X55066843Y-85933765D01*
X55207191Y-86143809D01*
X55417235Y-86284157D01*
X55665000Y-86333440D01*
X57365000Y-86333440D01*
X57612765Y-86284157D01*
X57822809Y-86143809D01*
X57963157Y-85933765D01*
X58012440Y-85686000D01*
X58012440Y-85596000D01*
X58700560Y-85596000D01*
X58700560Y-85686000D01*
X58749843Y-85933765D01*
X58890191Y-86143809D01*
X59100235Y-86284157D01*
X59348000Y-86333440D01*
X60663001Y-86333440D01*
X60663002Y-88555830D01*
X60001700Y-87894529D01*
X59959298Y-87831070D01*
X59707906Y-87663095D01*
X59486221Y-87618999D01*
X59486216Y-87618999D01*
X59411369Y-87604111D01*
X59336522Y-87618999D01*
X56094848Y-87618999D01*
X56020001Y-87604111D01*
X55945154Y-87618999D01*
X55945149Y-87618999D01*
X55723464Y-87663095D01*
X55472072Y-87831070D01*
X55429672Y-87894527D01*
X55198201Y-88125998D01*
X44546639Y-88125998D01*
X44295914Y-87958469D01*
X44220551Y-87943478D01*
X44201963Y-79095387D01*
X44343947Y-78882892D01*
X44440611Y-79087134D01*
X44855577Y-79463041D01*
X45243961Y-79623904D01*
X45466000Y-79501915D01*
X45466000Y-78359000D01*
X45446000Y-78359000D01*
X45446000Y-78105000D01*
X45466000Y-78105000D01*
X45466000Y-76962085D01*
X45243961Y-76840096D01*
X44855577Y-77000959D01*
X44440611Y-77376866D01*
X44343947Y-77581108D01*
X44087577Y-77197423D01*
X43612909Y-76880260D01*
X43194333Y-76797000D01*
X42911667Y-76797000D01*
X42493091Y-76880260D01*
X42244971Y-77046049D01*
X38566381Y-77032254D01*
X38320996Y-77080586D01*
X38114987Y-77218237D01*
X37977336Y-77424246D01*
X37929000Y-77667250D01*
X37929000Y-94851449D01*
X37633385Y-94729001D01*
X37042615Y-94729001D01*
X36496815Y-94955079D01*
X36079078Y-95372816D01*
X35853000Y-95918616D01*
X35853000Y-96509386D01*
X36079078Y-97055186D01*
X36496815Y-97472923D01*
X36523560Y-97484001D01*
X36496815Y-97495079D01*
X36079078Y-97912816D01*
X35853000Y-98458616D01*
X35853000Y-99049386D01*
X36079078Y-99595186D01*
X36496815Y-100012923D01*
X36549611Y-100034792D01*
X36267375Y-100223376D01*
X35939161Y-100714583D01*
X35823908Y-101294001D01*
X35939161Y-101873419D01*
X36267375Y-102364626D01*
X36565761Y-102564001D01*
X36267375Y-102763376D01*
X35939161Y-103254583D01*
X35823908Y-103834001D01*
X35939161Y-104413419D01*
X36267375Y-104904626D01*
X36565761Y-105104001D01*
X36267375Y-105303376D01*
X35939161Y-105794583D01*
X35823908Y-106374001D01*
X35939161Y-106953419D01*
X36267375Y-107444626D01*
X36565761Y-107644001D01*
X36267375Y-107843376D01*
X35939161Y-108334583D01*
X35823908Y-108914001D01*
X35939161Y-109493419D01*
X36267375Y-109984626D01*
X36565761Y-110184001D01*
X36267375Y-110383376D01*
X35939161Y-110874583D01*
X35823908Y-111454001D01*
X35939161Y-112033419D01*
X36267375Y-112524626D01*
X36565761Y-112724001D01*
X36267375Y-112923376D01*
X35939161Y-113414583D01*
X35823908Y-113994001D01*
X35939161Y-114573419D01*
X36267375Y-115064626D01*
X36565761Y-115264001D01*
X36267375Y-115463376D01*
X35939161Y-115954583D01*
X35823908Y-116534001D01*
X35939161Y-117113419D01*
X36267375Y-117604626D01*
X36565761Y-117804001D01*
X36267375Y-118003376D01*
X35939161Y-118494583D01*
X35823908Y-119074001D01*
X35939161Y-119653419D01*
X36267375Y-120144626D01*
X36565761Y-120344001D01*
X36267375Y-120543376D01*
X35939161Y-121034583D01*
X35887917Y-121292206D01*
X35638280Y-121042569D01*
X35257874Y-120885000D01*
X34846126Y-120885000D01*
X34465720Y-121042569D01*
X34348289Y-121160000D01*
X34301711Y-121160000D01*
X34050280Y-120908569D01*
X33669874Y-120751000D01*
X33258126Y-120751000D01*
X32877720Y-120908569D01*
X32586569Y-121199720D01*
X32429000Y-121580126D01*
X18599365Y-121580126D01*
X18492839Y-121044583D01*
X18164625Y-120553376D01*
X17866239Y-120354001D01*
X18164625Y-120154626D01*
X18492839Y-119663419D01*
X18608092Y-119084001D01*
X18492839Y-118504583D01*
X18164625Y-118013376D01*
X17866239Y-117814001D01*
X18164625Y-117614626D01*
X18492839Y-117123419D01*
X18608092Y-116544001D01*
X18492839Y-115964583D01*
X18164625Y-115473376D01*
X17866239Y-115274001D01*
X18164625Y-115074626D01*
X18492839Y-114583419D01*
X18608092Y-114004001D01*
X18492839Y-113424583D01*
X18164625Y-112933376D01*
X17866239Y-112734001D01*
X18164625Y-112534626D01*
X18492839Y-112043419D01*
X18590165Y-111554126D01*
X22319999Y-111554126D01*
X22319999Y-111965874D01*
X22467925Y-112323000D01*
X22319999Y-112680126D01*
X22319999Y-113091874D01*
X22477568Y-113472280D01*
X22768719Y-113763431D01*
X23149125Y-113921000D01*
X23315197Y-113921000D01*
X23323975Y-113929778D01*
X23366375Y-113993234D01*
X23429831Y-114035634D01*
X23617766Y-114161209D01*
X23665909Y-114170785D01*
X23839452Y-114205305D01*
X23839456Y-114205305D01*
X23914304Y-114220193D01*
X23989152Y-114205305D01*
X24201288Y-114205305D01*
X24318719Y-114322736D01*
X24699125Y-114480305D01*
X25110873Y-114480305D01*
X25491279Y-114322736D01*
X25782430Y-114031585D01*
X25939999Y-113651179D01*
X25939999Y-113420676D01*
X25991290Y-113399431D01*
X26282441Y-113108280D01*
X26440010Y-112727874D01*
X26440010Y-112316126D01*
X26282441Y-111935720D01*
X25991290Y-111644569D01*
X25610884Y-111487000D01*
X25444811Y-111487000D01*
X25233341Y-111275530D01*
X25190939Y-111212071D01*
X24939547Y-111044096D01*
X24717862Y-111000000D01*
X24717857Y-111000000D01*
X24643010Y-110985112D01*
X24568163Y-111000000D01*
X24058710Y-111000000D01*
X23941279Y-110882569D01*
X23560873Y-110725000D01*
X23149125Y-110725000D01*
X22768719Y-110882569D01*
X22477568Y-111173720D01*
X22319999Y-111554126D01*
X18590165Y-111554126D01*
X18608092Y-111464001D01*
X18492839Y-110884583D01*
X18164625Y-110393376D01*
X17866239Y-110194001D01*
X18164625Y-109994626D01*
X18492839Y-109503419D01*
X18608092Y-108924001D01*
X18492839Y-108344583D01*
X18164625Y-107853376D01*
X17866239Y-107654001D01*
X18126461Y-107480126D01*
X32429000Y-107480126D01*
X32429000Y-107891874D01*
X32586569Y-108272280D01*
X32877720Y-108563431D01*
X33258126Y-108721000D01*
X33669874Y-108721000D01*
X34050280Y-108563431D01*
X34217711Y-108396000D01*
X34351299Y-108396000D01*
X34468730Y-108513431D01*
X34849136Y-108671000D01*
X35260884Y-108671000D01*
X35641290Y-108513431D01*
X35932441Y-108222280D01*
X36090010Y-107841874D01*
X36090010Y-107430126D01*
X35932441Y-107049720D01*
X35641290Y-106758569D01*
X35260884Y-106601000D01*
X34849136Y-106601000D01*
X34468730Y-106758569D01*
X34351299Y-106876000D01*
X34117711Y-106876000D01*
X34050280Y-106808569D01*
X33669874Y-106651000D01*
X33258126Y-106651000D01*
X32877720Y-106808569D01*
X32586569Y-107099720D01*
X32429000Y-107480126D01*
X18126461Y-107480126D01*
X18164625Y-107454626D01*
X18492839Y-106963419D01*
X18608092Y-106384001D01*
X18492839Y-105804583D01*
X18164625Y-105313376D01*
X17866239Y-105114001D01*
X18092039Y-104963126D01*
X19285000Y-104963126D01*
X19285000Y-105374874D01*
X19442569Y-105755280D01*
X19733720Y-106046431D01*
X20114126Y-106204000D01*
X20525874Y-106204000D01*
X20906280Y-106046431D01*
X21197431Y-105755280D01*
X21355000Y-105374874D01*
X21355000Y-104963126D01*
X21197431Y-104582720D01*
X21080000Y-104465289D01*
X21080000Y-103313253D01*
X21200280Y-103263431D01*
X21491431Y-102972280D01*
X21649000Y-102591874D01*
X21649000Y-102180126D01*
X21491431Y-101799720D01*
X21200280Y-101508569D01*
X20819874Y-101351000D01*
X20408126Y-101351000D01*
X20027720Y-101508569D01*
X19736569Y-101799720D01*
X19579000Y-102180126D01*
X19579000Y-102509634D01*
X19545112Y-102680000D01*
X19560001Y-102754852D01*
X19560000Y-104465289D01*
X19442569Y-104582720D01*
X19285000Y-104963126D01*
X18092039Y-104963126D01*
X18164625Y-104914626D01*
X18492839Y-104423419D01*
X18608092Y-103844001D01*
X18492839Y-103264583D01*
X18164625Y-102773376D01*
X17866239Y-102574001D01*
X18164625Y-102374626D01*
X18492839Y-101883419D01*
X18608092Y-101304001D01*
X18492839Y-100724583D01*
X18164625Y-100233376D01*
X17866239Y-100034001D01*
X18164625Y-99834626D01*
X18492839Y-99343419D01*
X18608092Y-98764001D01*
X18492839Y-98184583D01*
X18164625Y-97693376D01*
X17866239Y-97494001D01*
X18164625Y-97294626D01*
X18492839Y-96803419D01*
X18608092Y-96224001D01*
X18492839Y-95644583D01*
X18164625Y-95153376D01*
X17845522Y-94940158D01*
X17975358Y-94879184D01*
X18365645Y-94450925D01*
X18535476Y-94040891D01*
X18414155Y-93811001D01*
X17221000Y-93811001D01*
X17221000Y-93831001D01*
X16967000Y-93831001D01*
X16967000Y-93811001D01*
X15773845Y-93811001D01*
X15652524Y-94040891D01*
X15822355Y-94450925D01*
X16212642Y-94879184D01*
X16342478Y-94940158D01*
X16023375Y-95153376D01*
X15695161Y-95644583D01*
X15579908Y-96224001D01*
X15695161Y-96803419D01*
X16023375Y-97294626D01*
X16321761Y-97494001D01*
X16023375Y-97693376D01*
X15695161Y-98184583D01*
X15579908Y-98764001D01*
X15695161Y-99343419D01*
X16023375Y-99834626D01*
X16321761Y-100034001D01*
X16023375Y-100233376D01*
X15695161Y-100724583D01*
X15579908Y-101304001D01*
X15695161Y-101883419D01*
X16023375Y-102374626D01*
X16321761Y-102574001D01*
X16023375Y-102773376D01*
X15695161Y-103264583D01*
X15579908Y-103844001D01*
X15695161Y-104423419D01*
X16023375Y-104914626D01*
X16321761Y-105114001D01*
X16023375Y-105313376D01*
X15695161Y-105804583D01*
X15579908Y-106384001D01*
X15695161Y-106963419D01*
X16023375Y-107454626D01*
X16321761Y-107654001D01*
X16023375Y-107853376D01*
X15695161Y-108344583D01*
X15579908Y-108924001D01*
X15695161Y-109503419D01*
X16023375Y-109994626D01*
X16321761Y-110194001D01*
X16023375Y-110393376D01*
X15695161Y-110884583D01*
X15579908Y-111464001D01*
X15695161Y-112043419D01*
X16023375Y-112534626D01*
X16321761Y-112734001D01*
X16023375Y-112933376D01*
X15695161Y-113424583D01*
X15579908Y-114004001D01*
X15695161Y-114583419D01*
X16023375Y-115074626D01*
X16321761Y-115274001D01*
X16023375Y-115473376D01*
X15695161Y-115964583D01*
X15579908Y-116544001D01*
X15695161Y-117123419D01*
X16023375Y-117614626D01*
X16321761Y-117814001D01*
X16023375Y-118013376D01*
X15695161Y-118504583D01*
X15579908Y-119084001D01*
X15695161Y-119663419D01*
X16023375Y-120154626D01*
X16321761Y-120354001D01*
X16023375Y-120553376D01*
X15695161Y-121044583D01*
X15579908Y-121624001D01*
X15695161Y-122203419D01*
X16023375Y-122694626D01*
X16267288Y-122857604D01*
X16176815Y-122895079D01*
X15759078Y-123312816D01*
X15533000Y-123858616D01*
X14680000Y-123858616D01*
X14680000Y-88604001D01*
X15579908Y-88604001D01*
X15695161Y-89183419D01*
X16023375Y-89674626D01*
X16321761Y-89874001D01*
X16023375Y-90073376D01*
X15695161Y-90564583D01*
X15579908Y-91144001D01*
X15695161Y-91723419D01*
X16023375Y-92214626D01*
X16342478Y-92427844D01*
X16212642Y-92488818D01*
X15822355Y-92917077D01*
X15652524Y-93327111D01*
X15773845Y-93557001D01*
X16967000Y-93557001D01*
X16967000Y-93537001D01*
X17221000Y-93537001D01*
X17221000Y-93557001D01*
X18414155Y-93557001D01*
X18535476Y-93327111D01*
X18365645Y-92917077D01*
X17975358Y-92488818D01*
X17845522Y-92427844D01*
X18164625Y-92214626D01*
X18492839Y-91723419D01*
X18608092Y-91144001D01*
X18492839Y-90564583D01*
X18164625Y-90073376D01*
X17866239Y-89874001D01*
X18164625Y-89674626D01*
X18492839Y-89183419D01*
X18608092Y-88604001D01*
X18492839Y-88024583D01*
X18164625Y-87533376D01*
X18146381Y-87521185D01*
X18191765Y-87512158D01*
X18401809Y-87371810D01*
X18542157Y-87161766D01*
X18591440Y-86914001D01*
X18591440Y-85214001D01*
X18542157Y-84966236D01*
X18401809Y-84756192D01*
X18191765Y-84615844D01*
X17944000Y-84566561D01*
X16244000Y-84566561D01*
X15996235Y-84615844D01*
X15786191Y-84756192D01*
X15645843Y-84966236D01*
X15596560Y-85214001D01*
X15596560Y-86914001D01*
X15645843Y-87161766D01*
X15786191Y-87371810D01*
X15996235Y-87512158D01*
X16041619Y-87521185D01*
X16023375Y-87533376D01*
X15695161Y-88024583D01*
X15579908Y-88604001D01*
X14680000Y-88604001D01*
X14680000Y-77438637D01*
X15069968Y-77438637D01*
X15333391Y-77845731D01*
X16431624Y-78297458D01*
X17619127Y-78294524D01*
X18702609Y-77845731D01*
X18966032Y-77438637D01*
X17018000Y-75490605D01*
X15069968Y-77438637D01*
X14680000Y-77438637D01*
X14680000Y-77122910D01*
X14890363Y-77259032D01*
X16838395Y-75311000D01*
X17197605Y-75311000D01*
X19145637Y-77259032D01*
X19552731Y-76995609D01*
X20004458Y-75897376D01*
X20002330Y-75036000D01*
X22366560Y-75036000D01*
X22366560Y-76736000D01*
X22415843Y-76983765D01*
X22556191Y-77193809D01*
X22766235Y-77334157D01*
X23014000Y-77383440D01*
X24714000Y-77383440D01*
X24961765Y-77334157D01*
X25171809Y-77193809D01*
X25312157Y-76983765D01*
X25321184Y-76938381D01*
X25333375Y-76956625D01*
X25824582Y-77284839D01*
X26257744Y-77371000D01*
X26550256Y-77371000D01*
X26983418Y-77284839D01*
X27474625Y-76956625D01*
X27802839Y-76465418D01*
X27918092Y-75886000D01*
X27802839Y-75306582D01*
X27474625Y-74815375D01*
X26983418Y-74487161D01*
X26550256Y-74401000D01*
X26257744Y-74401000D01*
X25824582Y-74487161D01*
X25333375Y-74815375D01*
X25321184Y-74833619D01*
X25312157Y-74788235D01*
X25171809Y-74578191D01*
X24961765Y-74437843D01*
X24714000Y-74388560D01*
X23014000Y-74388560D01*
X22766235Y-74437843D01*
X22556191Y-74578191D01*
X22415843Y-74788235D01*
X22366560Y-75036000D01*
X20002330Y-75036000D01*
X20001524Y-74709873D01*
X19552731Y-73626391D01*
X19145637Y-73362968D01*
X17197605Y-75311000D01*
X16838395Y-75311000D01*
X14890363Y-73362968D01*
X14680000Y-73499090D01*
X14680000Y-72846000D01*
X15288269Y-72846000D01*
X15069968Y-73183363D01*
X15069968Y-73183363D01*
G37*
X15069968Y-73183363D02*
X17018000Y-75131395D01*
X18966032Y-73183363D01*
X18747731Y-72846000D01*
X64183269Y-72846000D01*
X63964968Y-73183363D01*
X65913000Y-75131395D01*
X67861032Y-73183363D01*
X67642731Y-72846000D01*
X68124000Y-72846000D01*
X68124000Y-73416911D01*
X68040637Y-73362968D01*
X66092605Y-75311000D01*
X68040637Y-77259032D01*
X68124000Y-77205089D01*
X68124001Y-137974000D01*
X54378349Y-137974000D01*
X54516609Y-137916731D01*
X54780032Y-137509637D01*
X52832000Y-135561605D01*
X50883968Y-137509637D01*
X51147391Y-137916731D01*
X51286623Y-137974000D01*
X18818349Y-137974000D01*
X18956609Y-137916731D01*
X19220032Y-137509637D01*
X17272000Y-135561605D01*
X15323968Y-137509637D01*
X15587391Y-137916731D01*
X15726623Y-137974000D01*
X14680000Y-137974000D01*
X14680000Y-136928349D01*
X14737269Y-137066609D01*
X15144363Y-137330032D01*
X17092395Y-135382000D01*
X17451605Y-135382000D01*
X19399637Y-137330032D01*
X19806731Y-137066609D01*
X20258458Y-135968376D01*
X20255524Y-134780873D01*
X19806731Y-133697391D01*
X19526410Y-133516000D01*
X20854560Y-133516000D01*
X20854560Y-135216000D01*
X20903843Y-135463765D01*
X21044191Y-135673809D01*
X21254235Y-135814157D01*
X21502000Y-135863440D01*
X23202000Y-135863440D01*
X23449765Y-135814157D01*
X23659809Y-135673809D01*
X23800157Y-135463765D01*
X23809184Y-135418381D01*
X23821375Y-135436625D01*
X24312582Y-135764839D01*
X24745744Y-135851000D01*
X25038256Y-135851000D01*
X25471418Y-135764839D01*
X25962625Y-135436625D01*
X26162000Y-135138239D01*
X26361375Y-135436625D01*
X26852582Y-135764839D01*
X27285744Y-135851000D01*
X27578256Y-135851000D01*
X28011418Y-135764839D01*
X28502625Y-135436625D01*
X28702000Y-135138239D01*
X28901375Y-135436625D01*
X29392582Y-135764839D01*
X29825744Y-135851000D01*
X30118256Y-135851000D01*
X30551418Y-135764839D01*
X31042625Y-135436625D01*
X31242000Y-135138239D01*
X31441375Y-135436625D01*
X31932582Y-135764839D01*
X32365744Y-135851000D01*
X32658256Y-135851000D01*
X33091418Y-135764839D01*
X33582625Y-135436625D01*
X33782000Y-135138239D01*
X33981375Y-135436625D01*
X34472582Y-135764839D01*
X34905744Y-135851000D01*
X35198256Y-135851000D01*
X35631418Y-135764839D01*
X36122625Y-135436625D01*
X36322000Y-135138239D01*
X36521375Y-135436625D01*
X37012582Y-135764839D01*
X37445744Y-135851000D01*
X37738256Y-135851000D01*
X38171418Y-135764839D01*
X38662625Y-135436625D01*
X38875843Y-135117522D01*
X38936817Y-135247358D01*
X39365076Y-135637645D01*
X39775110Y-135807476D01*
X40005000Y-135686155D01*
X40005000Y-134493000D01*
X40259000Y-134493000D01*
X40259000Y-135686155D01*
X40488890Y-135807476D01*
X40898924Y-135637645D01*
X41327183Y-135247358D01*
X41573486Y-134722892D01*
X41452819Y-134493000D01*
X40259000Y-134493000D01*
X40005000Y-134493000D01*
X39985000Y-134493000D01*
X39985000Y-134239000D01*
X40005000Y-134239000D01*
X40005000Y-133045845D01*
X40259000Y-133045845D01*
X40259000Y-134239000D01*
X41452819Y-134239000D01*
X41532134Y-134087890D01*
X42627524Y-134087890D01*
X42797355Y-134497924D01*
X43187642Y-134926183D01*
X43712108Y-135172486D01*
X43942000Y-135051819D01*
X43942000Y-133858000D01*
X44196000Y-133858000D01*
X44196000Y-135051819D01*
X44425892Y-135172486D01*
X44950358Y-134926183D01*
X45069340Y-134795624D01*
X49845542Y-134795624D01*
X49848476Y-135983127D01*
X50297269Y-137066609D01*
X50704363Y-137330032D01*
X52652395Y-135382000D01*
X53011605Y-135382000D01*
X54959637Y-137330032D01*
X55366731Y-137066609D01*
X55818458Y-135968376D01*
X55815524Y-134780873D01*
X55366731Y-133697391D01*
X54959637Y-133433968D01*
X53011605Y-135382000D01*
X52652395Y-135382000D01*
X50704363Y-133433968D01*
X50297269Y-133697391D01*
X49845542Y-134795624D01*
X45069340Y-134795624D01*
X45340645Y-134497924D01*
X45510476Y-134087890D01*
X45389155Y-133858000D01*
X44196000Y-133858000D01*
X43942000Y-133858000D01*
X42748845Y-133858000D01*
X42627524Y-134087890D01*
X41532134Y-134087890D01*
X41573486Y-134009108D01*
X41327183Y-133484642D01*
X40898924Y-133094355D01*
X40488890Y-132924524D01*
X40259000Y-133045845D01*
X40005000Y-133045845D01*
X39775110Y-132924524D01*
X39365076Y-133094355D01*
X38936817Y-133484642D01*
X38875843Y-133614478D01*
X38662625Y-133295375D01*
X38352000Y-133087822D01*
X38352000Y-130955342D01*
X38399000Y-130841874D01*
X38399000Y-130430126D01*
X38241431Y-130049720D01*
X37950280Y-129758569D01*
X37569874Y-129601000D01*
X37158126Y-129601000D01*
X36777720Y-129758569D01*
X36739000Y-129797289D01*
X36700280Y-129758569D01*
X36319874Y-129601000D01*
X35908126Y-129601000D01*
X35527720Y-129758569D01*
X35236569Y-130049720D01*
X35079000Y-130430126D01*
X35079000Y-130841874D01*
X35236569Y-131222280D01*
X35354001Y-131339712D01*
X35354000Y-132911979D01*
X35198256Y-132881000D01*
X34905744Y-132881000D01*
X34472582Y-132967161D01*
X33981375Y-133295375D01*
X33782000Y-133593761D01*
X33582625Y-133295375D01*
X33091418Y-132967161D01*
X32658256Y-132881000D01*
X32365744Y-132881000D01*
X31932582Y-132967161D01*
X31441375Y-133295375D01*
X31242000Y-133593761D01*
X31042625Y-133295375D01*
X30551418Y-132967161D01*
X30118256Y-132881000D01*
X29825744Y-132881000D01*
X29392582Y-132967161D01*
X28901375Y-133295375D01*
X28702000Y-133593761D01*
X28502625Y-133295375D01*
X28011418Y-132967161D01*
X27578256Y-132881000D01*
X27285744Y-132881000D01*
X26852582Y-132967161D01*
X26361375Y-133295375D01*
X26162000Y-133593761D01*
X25962625Y-133295375D01*
X25471418Y-132967161D01*
X25038256Y-132881000D01*
X24745744Y-132881000D01*
X24312582Y-132967161D01*
X23821375Y-133295375D01*
X23809184Y-133313619D01*
X23800157Y-133268235D01*
X23659809Y-133058191D01*
X23449765Y-132917843D01*
X23202000Y-132868560D01*
X21502000Y-132868560D01*
X21254235Y-132917843D01*
X21044191Y-133058191D01*
X20903843Y-133268235D01*
X20854560Y-133516000D01*
X19526410Y-133516000D01*
X19399637Y-133433968D01*
X17451605Y-135382000D01*
X17092395Y-135382000D01*
X15144363Y-133433968D01*
X14737269Y-133697391D01*
X14680000Y-133836623D01*
X14680000Y-133254363D01*
X15323968Y-133254363D01*
X17272000Y-135202395D01*
X19220032Y-133254363D01*
X18956609Y-132847269D01*
X17858376Y-132395542D01*
X16670873Y-132398476D01*
X15587391Y-132847269D01*
X15323968Y-133254363D01*
X14680000Y-133254363D01*
X14680000Y-123858616D01*
X15533000Y-123858616D01*
X15533000Y-124449386D01*
X15759078Y-124995186D01*
X16176815Y-125412923D01*
X16722615Y-125639001D01*
X17313385Y-125639001D01*
X17859185Y-125412923D01*
X18276922Y-124995186D01*
X18310550Y-124914001D01*
X25771152Y-124914001D01*
X25845999Y-124928889D01*
X25900837Y-124917981D01*
X25908126Y-124921000D01*
X26319874Y-124921000D01*
X26700280Y-124763431D01*
X26991431Y-124472280D01*
X27149000Y-124091874D01*
X27149000Y-123680126D01*
X26991431Y-123299720D01*
X26700280Y-123008569D01*
X26319874Y-122851000D01*
X25908126Y-122851000D01*
X25527720Y-123008569D01*
X25236569Y-123299720D01*
X25197517Y-123394001D01*
X18310550Y-123394001D01*
X18276922Y-123312816D01*
X17861364Y-122897258D01*
X18164625Y-122694626D01*
X18492839Y-122203419D01*
X18608092Y-121624001D01*
X18599365Y-121580126D01*
X32429000Y-121580126D01*
X32429000Y-121991874D01*
X32586569Y-122372280D01*
X32877720Y-122663431D01*
X33258126Y-122821000D01*
X33669874Y-122821000D01*
X34010279Y-122680000D01*
X34348289Y-122680000D01*
X34465720Y-122797431D01*
X34846126Y-122955000D01*
X35257874Y-122955000D01*
X35638280Y-122797431D01*
X35929431Y-122506280D01*
X36013153Y-122304156D01*
X36267375Y-122684626D01*
X36565761Y-122884001D01*
X36267375Y-123083376D01*
X35939161Y-123574583D01*
X35823908Y-124154001D01*
X35939161Y-124733419D01*
X36267375Y-125224626D01*
X36758582Y-125552840D01*
X37191744Y-125639001D01*
X37484256Y-125639001D01*
X37917418Y-125552840D01*
X37929000Y-125545101D01*
X37929000Y-128786000D01*
X37977336Y-129029004D01*
X38114987Y-129235013D01*
X38320996Y-129372664D01*
X38564000Y-129421000D01*
X42571560Y-129421000D01*
X42571560Y-129501000D01*
X42620843Y-129748765D01*
X42761191Y-129958809D01*
X42971235Y-130099157D01*
X43016619Y-130108184D01*
X42998375Y-130120375D01*
X42670161Y-130611582D01*
X42554908Y-131191000D01*
X42670161Y-131770418D01*
X42998375Y-132261625D01*
X43317478Y-132474843D01*
X43187642Y-132535817D01*
X42797355Y-132964076D01*
X42627524Y-133374110D01*
X42748845Y-133604000D01*
X43942000Y-133604000D01*
X43942000Y-133584000D01*
X44196000Y-133584000D01*
X44196000Y-133604000D01*
X45389155Y-133604000D01*
X45510476Y-133374110D01*
X45340645Y-132964076D01*
X44950358Y-132535817D01*
X44820522Y-132474843D01*
X45139625Y-132261625D01*
X45467839Y-131770418D01*
X45583092Y-131191000D01*
X45467839Y-130611582D01*
X45139625Y-130120375D01*
X45121381Y-130108184D01*
X45166765Y-130099157D01*
X45376809Y-129958809D01*
X45517157Y-129748765D01*
X45566440Y-129501000D01*
X45566440Y-129421000D01*
X46363848Y-129421000D01*
X46363848Y-129538889D01*
X46413131Y-129786654D01*
X46553479Y-129996698D01*
X46763523Y-130137046D01*
X46808907Y-130146073D01*
X46790663Y-130158264D01*
X46462449Y-130649471D01*
X46347196Y-131228889D01*
X46462449Y-131808307D01*
X46790663Y-132299514D01*
X47281870Y-132627728D01*
X47715032Y-132713889D01*
X48007544Y-132713889D01*
X48440706Y-132627728D01*
X48931913Y-132299514D01*
X49260127Y-131808307D01*
X49375380Y-131228889D01*
X49260127Y-130649471D01*
X48979443Y-130229398D01*
X53507021Y-132432004D01*
X53418376Y-132395542D01*
X52230873Y-132398476D01*
X51147391Y-132847269D01*
X50883968Y-133254363D01*
X52832000Y-135202395D01*
X54780032Y-133254363D01*
X54588273Y-132958018D01*
X56491560Y-133883941D01*
X56491560Y-135042000D01*
X56540843Y-135289765D01*
X56681191Y-135499809D01*
X56891235Y-135640157D01*
X57139000Y-135689440D01*
X58939000Y-135689440D01*
X59186765Y-135640157D01*
X59396809Y-135499809D01*
X59537157Y-135289765D01*
X59586440Y-135042000D01*
X59586440Y-132969000D01*
X62304000Y-132969000D01*
X62304000Y-134069000D01*
X62469446Y-134646752D01*
X62843394Y-135117212D01*
X63368914Y-135408756D01*
X63474260Y-135433036D01*
X63712000Y-135312378D01*
X63712000Y-132969000D01*
X63966000Y-132969000D01*
X63966000Y-135312378D01*
X64203740Y-135433036D01*
X64309086Y-135408756D01*
X64834606Y-135117212D01*
X65208554Y-134646752D01*
X65374000Y-134069000D01*
X65374000Y-132969000D01*
X63966000Y-132969000D01*
X63712000Y-132969000D01*
X62304000Y-132969000D01*
X59586440Y-132969000D01*
X59586440Y-131615000D01*
X62304000Y-131615000D01*
X62304000Y-132715000D01*
X63712000Y-132715000D01*
X63712000Y-130371622D01*
X63966000Y-130371622D01*
X63966000Y-132715000D01*
X65374000Y-132715000D01*
X65374000Y-131615000D01*
X65208554Y-131037248D01*
X64834606Y-130566788D01*
X64309086Y-130275244D01*
X64203740Y-130250964D01*
X63966000Y-130371622D01*
X63712000Y-130371622D01*
X63474260Y-130250964D01*
X63368914Y-130275244D01*
X62843394Y-130566788D01*
X62469446Y-131037248D01*
X62304000Y-131615000D01*
X59586440Y-131615000D01*
X59586440Y-130642000D01*
X59537157Y-130394235D01*
X59396809Y-130184191D01*
X59343596Y-130148635D01*
X59367001Y-129493294D01*
X59787818Y-129577000D01*
X62290182Y-129577000D01*
X62737927Y-129487938D01*
X63245673Y-129148673D01*
X63584938Y-128640927D01*
X63704072Y-128042000D01*
X63584938Y-127443073D01*
X63245673Y-126935327D01*
X62737927Y-126596062D01*
X62290182Y-126507000D01*
X59787818Y-126507000D01*
X59471407Y-126569938D01*
X59498595Y-125808664D01*
X59458336Y-125562415D01*
X59327532Y-125351992D01*
X59247110Y-125294343D01*
X59327577Y-125240577D01*
X59563000Y-124888242D01*
X59798423Y-125240577D01*
X60273091Y-125557740D01*
X60691667Y-125641000D01*
X60974333Y-125641000D01*
X61392909Y-125557740D01*
X61867577Y-125240577D01*
X62184740Y-124765909D01*
X62296113Y-124206000D01*
X62184740Y-123646091D01*
X61977544Y-123336000D01*
X62308874Y-123336000D01*
X62689280Y-123178431D01*
X62980431Y-122887280D01*
X63138000Y-122506874D01*
X63138000Y-122095126D01*
X62980431Y-121714720D01*
X62689280Y-121423569D01*
X62308874Y-121266000D01*
X61897126Y-121266000D01*
X61516720Y-121423569D01*
X61399289Y-121541000D01*
X61023848Y-121541000D01*
X60949000Y-121526112D01*
X60874152Y-121541000D01*
X60874148Y-121541000D01*
X60700605Y-121575520D01*
X60652462Y-121585096D01*
X60525250Y-121670097D01*
X60401071Y-121753071D01*
X60358671Y-121816527D01*
X60030692Y-122144506D01*
X59991431Y-122049720D01*
X59700280Y-121758569D01*
X59319874Y-121601000D01*
X58908126Y-121601000D01*
X58877318Y-121613761D01*
X58864000Y-121611112D01*
X58789153Y-121626000D01*
X44928802Y-121626000D01*
X44922007Y-121619205D01*
X44922007Y-121357116D01*
X44764438Y-120976710D01*
X44473287Y-120685559D01*
X44289177Y-120609298D01*
X44271647Y-112265097D01*
X44343947Y-112156892D01*
X44440611Y-112361134D01*
X44855577Y-112737041D01*
X45243961Y-112897904D01*
X45466000Y-112775915D01*
X45466000Y-111633000D01*
X45446000Y-111633000D01*
X45446000Y-111379000D01*
X45466000Y-111379000D01*
X45466000Y-110236085D01*
X45243961Y-110114096D01*
X44855577Y-110274959D01*
X44440611Y-110650866D01*
X44343947Y-110855108D01*
X44268448Y-110742115D01*
X44263402Y-108340436D01*
X44323000Y-108251242D01*
X44558423Y-108603577D01*
X45033091Y-108920740D01*
X45451667Y-109004000D01*
X45734333Y-109004000D01*
X46152909Y-108920740D01*
X46627577Y-108603577D01*
X46863000Y-108251242D01*
X47098423Y-108603577D01*
X47573091Y-108920740D01*
X47991667Y-109004000D01*
X48274333Y-109004000D01*
X48692909Y-108920740D01*
X49167577Y-108603577D01*
X49403000Y-108251242D01*
X49638423Y-108603577D01*
X50113091Y-108920740D01*
X50531667Y-109004000D01*
X50814333Y-109004000D01*
X51232909Y-108920740D01*
X51707577Y-108603577D01*
X51943000Y-108251242D01*
X52178423Y-108603577D01*
X52653091Y-108920740D01*
X53071667Y-109004000D01*
X53354333Y-109004000D01*
X53772909Y-108920740D01*
X54247577Y-108603577D01*
X54483000Y-108251242D01*
X54718423Y-108603577D01*
X55193091Y-108920740D01*
X55611667Y-109004000D01*
X55894333Y-109004000D01*
X56312909Y-108920740D01*
X56787577Y-108603577D01*
X57023000Y-108251242D01*
X57258423Y-108603577D01*
X57733091Y-108920740D01*
X58151667Y-109004000D01*
X58434333Y-109004000D01*
X58852909Y-108920740D01*
X59327577Y-108603577D01*
X59563000Y-108251242D01*
X59798423Y-108603577D01*
X59991567Y-108732631D01*
X58616886Y-110107312D01*
X58434333Y-110071000D01*
X58151667Y-110071000D01*
X57733091Y-110154260D01*
X57258423Y-110471423D01*
X57023000Y-110823758D01*
X56787577Y-110471423D01*
X56312909Y-110154260D01*
X55894333Y-110071000D01*
X55611667Y-110071000D01*
X55193091Y-110154260D01*
X54718423Y-110471423D01*
X54483000Y-110823758D01*
X54247577Y-110471423D01*
X53772909Y-110154260D01*
X53354333Y-110071000D01*
X53071667Y-110071000D01*
X52653091Y-110154260D01*
X52178423Y-110471423D01*
X51943000Y-110823758D01*
X51707577Y-110471423D01*
X51232909Y-110154260D01*
X50814333Y-110071000D01*
X50531667Y-110071000D01*
X50113091Y-110154260D01*
X49638423Y-110471423D01*
X49403000Y-110823758D01*
X49167577Y-110471423D01*
X48692909Y-110154260D01*
X48274333Y-110071000D01*
X47991667Y-110071000D01*
X47573091Y-110154260D01*
X47098423Y-110471423D01*
X46842053Y-110855108D01*
X46745389Y-110650866D01*
X46330423Y-110274959D01*
X45942039Y-110114096D01*
X45720000Y-110236085D01*
X45720000Y-111379000D01*
X45740000Y-111379000D01*
X45740000Y-111633000D01*
X45720000Y-111633000D01*
X45720000Y-112775915D01*
X45942039Y-112897904D01*
X46330423Y-112737041D01*
X46745389Y-112361134D01*
X46842053Y-112156892D01*
X47098423Y-112540577D01*
X47573091Y-112857740D01*
X47991667Y-112941000D01*
X48274333Y-112941000D01*
X48692909Y-112857740D01*
X49167577Y-112540577D01*
X49403000Y-112188242D01*
X49638423Y-112540577D01*
X50113091Y-112857740D01*
X50531667Y-112941000D01*
X50814333Y-112941000D01*
X51232909Y-112857740D01*
X51707577Y-112540577D01*
X51943000Y-112188242D01*
X52178423Y-112540577D01*
X52653091Y-112857740D01*
X53071667Y-112941000D01*
X53354333Y-112941000D01*
X53772909Y-112857740D01*
X54247577Y-112540577D01*
X54483000Y-112188242D01*
X54718423Y-112540577D01*
X55193091Y-112857740D01*
X55611667Y-112941000D01*
X55894333Y-112941000D01*
X56312909Y-112857740D01*
X56787577Y-112540577D01*
X57023000Y-112188242D01*
X57258423Y-112540577D01*
X57533000Y-112724044D01*
X57533000Y-114252354D01*
X57221418Y-114044161D01*
X56788256Y-113958000D01*
X56495744Y-113958000D01*
X56062582Y-114044161D01*
X55571375Y-114372375D01*
X55243161Y-114863582D01*
X55127908Y-115443000D01*
X55243161Y-116022418D01*
X55571375Y-116513625D01*
X55589619Y-116525816D01*
X55544235Y-116534843D01*
X55334191Y-116675191D01*
X55193843Y-116885235D01*
X55144560Y-117133000D01*
X55144560Y-117223000D01*
X54456440Y-117223000D01*
X54456440Y-117133000D01*
X54407157Y-116885235D01*
X54266809Y-116675191D01*
X54056765Y-116534843D01*
X54011381Y-116525816D01*
X54029625Y-116513625D01*
X54357839Y-116022418D01*
X54473092Y-115443000D01*
X54357839Y-114863582D01*
X54029625Y-114372375D01*
X53538418Y-114044161D01*
X53105256Y-113958000D01*
X52812744Y-113958000D01*
X52379582Y-114044161D01*
X51888375Y-114372375D01*
X51560161Y-114863582D01*
X51444908Y-115443000D01*
X51560161Y-116022418D01*
X51888375Y-116513625D01*
X51906619Y-116525816D01*
X51861235Y-116534843D01*
X51651191Y-116675191D01*
X51510843Y-116885235D01*
X51461560Y-117133000D01*
X51461560Y-118833000D01*
X51510843Y-119080765D01*
X51651191Y-119290809D01*
X51861235Y-119431157D01*
X52109000Y-119480440D01*
X53809000Y-119480440D01*
X54056765Y-119431157D01*
X54266809Y-119290809D01*
X54407157Y-119080765D01*
X54456440Y-118833000D01*
X54456440Y-118743000D01*
X55144560Y-118743000D01*
X55144560Y-118833000D01*
X55193843Y-119080765D01*
X55334191Y-119290809D01*
X55544235Y-119431157D01*
X55792000Y-119480440D01*
X57492000Y-119480440D01*
X57739765Y-119431157D01*
X57949809Y-119290809D01*
X58090157Y-119080765D01*
X58139440Y-118833000D01*
X58139440Y-118743000D01*
X58827560Y-118743000D01*
X58827560Y-118833000D01*
X58876843Y-119080765D01*
X59017191Y-119290809D01*
X59227235Y-119431157D01*
X59475000Y-119480440D01*
X61175000Y-119480440D01*
X61422765Y-119431157D01*
X61632809Y-119290809D01*
X61773157Y-119080765D01*
X61822440Y-118833000D01*
X61822440Y-117133000D01*
X61773157Y-116885235D01*
X61632809Y-116675191D01*
X61422765Y-116534843D01*
X61377381Y-116525816D01*
X61395625Y-116513625D01*
X61723839Y-116022418D01*
X61839092Y-115443000D01*
X61723839Y-114863582D01*
X61395625Y-114372375D01*
X61296288Y-114306000D01*
X64599908Y-114306000D01*
X64715161Y-114885418D01*
X65043375Y-115376625D01*
X65341761Y-115576000D01*
X65043375Y-115775375D01*
X64715161Y-116266582D01*
X64599908Y-116846000D01*
X64715161Y-117425418D01*
X65043375Y-117916625D01*
X65341761Y-118116000D01*
X65043375Y-118315375D01*
X64715161Y-118806582D01*
X64599908Y-119386000D01*
X64715161Y-119965418D01*
X65043375Y-120456625D01*
X65534582Y-120784839D01*
X65967744Y-120871000D01*
X66260256Y-120871000D01*
X66693418Y-120784839D01*
X67184625Y-120456625D01*
X67512839Y-119965418D01*
X67628092Y-119386000D01*
X67512839Y-118806582D01*
X67184625Y-118315375D01*
X66886239Y-118116000D01*
X67184625Y-117916625D01*
X67512839Y-117425418D01*
X67628092Y-116846000D01*
X67512839Y-116266582D01*
X67184625Y-115775375D01*
X66886239Y-115576000D01*
X67184625Y-115376625D01*
X67512839Y-114885418D01*
X67628092Y-114306000D01*
X67512839Y-113726582D01*
X67184625Y-113235375D01*
X67166381Y-113223184D01*
X67211765Y-113214157D01*
X67421809Y-113073809D01*
X67562157Y-112863765D01*
X67611440Y-112616000D01*
X67611440Y-110916000D01*
X67562157Y-110668235D01*
X67421809Y-110458191D01*
X67211765Y-110317843D01*
X66964000Y-110268560D01*
X65264000Y-110268560D01*
X65016235Y-110317843D01*
X64806191Y-110458191D01*
X64665843Y-110668235D01*
X64616560Y-110916000D01*
X64616560Y-112616000D01*
X64665843Y-112863765D01*
X64806191Y-113073809D01*
X65016235Y-113214157D01*
X65061619Y-113223184D01*
X65043375Y-113235375D01*
X64715161Y-113726582D01*
X64599908Y-114306000D01*
X61296288Y-114306000D01*
X60904418Y-114044161D01*
X60471256Y-113958000D01*
X60178744Y-113958000D01*
X59745582Y-114044161D01*
X59254375Y-114372375D01*
X59053000Y-114673754D01*
X59053000Y-112724043D01*
X59327577Y-112540577D01*
X59398735Y-112434082D01*
X59494673Y-112665698D01*
X59673301Y-112844327D01*
X59906690Y-112941000D01*
X60547250Y-112941000D01*
X60706000Y-112782250D01*
X60706000Y-111633000D01*
X60960000Y-111633000D01*
X60960000Y-112782250D01*
X61118750Y-112941000D01*
X61759310Y-112941000D01*
X61992699Y-112844327D01*
X62171327Y-112665698D01*
X62268000Y-112432309D01*
X62268000Y-111791750D01*
X62109250Y-111633000D01*
X60960000Y-111633000D01*
X60706000Y-111633000D01*
X60686000Y-111633000D01*
X60686000Y-111379000D01*
X60706000Y-111379000D01*
X60706000Y-110229750D01*
X60960000Y-110229750D01*
X60960000Y-111379000D01*
X62109250Y-111379000D01*
X62268000Y-111220250D01*
X62268000Y-110579691D01*
X62171327Y-110346302D01*
X61992699Y-110167673D01*
X61759310Y-110071000D01*
X61118750Y-110071000D01*
X60960000Y-110229750D01*
X60706000Y-110229750D01*
X60675026Y-110198776D01*
X61227802Y-109646000D01*
X65660275Y-109646000D01*
X65777706Y-109763431D01*
X66158112Y-109921000D01*
X66569860Y-109921000D01*
X66950266Y-109763431D01*
X67241417Y-109472280D01*
X67398986Y-109091874D01*
X67398986Y-108680126D01*
X67241417Y-108299720D01*
X66950266Y-108008569D01*
X66569860Y-107851000D01*
X66158112Y-107851000D01*
X65777706Y-108008569D01*
X65660275Y-108126000D01*
X62185319Y-108126000D01*
X62296113Y-107569000D01*
X62184740Y-107009091D01*
X61867577Y-106534423D01*
X61395105Y-106218728D01*
X61487000Y-105996874D01*
X61487000Y-105585126D01*
X61329431Y-105204720D01*
X61038280Y-104913569D01*
X60657874Y-104756000D01*
X60246126Y-104756000D01*
X59865720Y-104913569D01*
X59844647Y-104934642D01*
X59518366Y-104799492D01*
X59106618Y-104799492D01*
X58726212Y-104957061D01*
X58608781Y-105074492D01*
X44877284Y-105074492D01*
X44339667Y-104536876D01*
X44254982Y-104332427D01*
X44236805Y-95680242D01*
X44343947Y-95519892D01*
X44440611Y-95724134D01*
X44855577Y-96100041D01*
X45243961Y-96260904D01*
X45466000Y-96138915D01*
X45466000Y-94996000D01*
X45446000Y-94996000D01*
X45446000Y-94742000D01*
X45466000Y-94742000D01*
X45466000Y-93599085D01*
X45243961Y-93477096D01*
X44855577Y-93637959D01*
X44440611Y-94013866D01*
X44343947Y-94218108D01*
X44233386Y-94052641D01*
X44228560Y-91755581D01*
X44323000Y-91614242D01*
X44558423Y-91966577D01*
X45033091Y-92283740D01*
X45451667Y-92367000D01*
X45734333Y-92367000D01*
X46152909Y-92283740D01*
X46627577Y-91966577D01*
X46863000Y-91614242D01*
X47098423Y-91966577D01*
X47573091Y-92283740D01*
X47991667Y-92367000D01*
X48274333Y-92367000D01*
X48692909Y-92283740D01*
X49167577Y-91966577D01*
X49403000Y-91614242D01*
X49638423Y-91966577D01*
X50113091Y-92283740D01*
X50531667Y-92367000D01*
X50814333Y-92367000D01*
X51232909Y-92283740D01*
X51707577Y-91966577D01*
X51943000Y-91614242D01*
X52178423Y-91966577D01*
X52653091Y-92283740D01*
X53071667Y-92367000D01*
X53354333Y-92367000D01*
X53772909Y-92283740D01*
X54247577Y-91966577D01*
X54483000Y-91614242D01*
X54718423Y-91966577D01*
X55193091Y-92283740D01*
X55611667Y-92367000D01*
X55894333Y-92367000D01*
X56312909Y-92283740D01*
X56787577Y-91966577D01*
X57023000Y-91614242D01*
X57258423Y-91966577D01*
X57733091Y-92283740D01*
X58151667Y-92367000D01*
X58434333Y-92367000D01*
X58852909Y-92283740D01*
X59327577Y-91966577D01*
X59563000Y-91614242D01*
X59798423Y-91966577D01*
X60196582Y-92232618D01*
X59128105Y-93301096D01*
X59092998Y-93294113D01*
X59018151Y-93309001D01*
X59018147Y-93309001D01*
X58796462Y-93353097D01*
X58796460Y-93353098D01*
X58796461Y-93353098D01*
X58620084Y-93470948D01*
X58434333Y-93434000D01*
X58151667Y-93434000D01*
X57733091Y-93517260D01*
X57258423Y-93834423D01*
X57023000Y-94186758D01*
X56787577Y-93834423D01*
X56312909Y-93517260D01*
X55894333Y-93434000D01*
X55611667Y-93434000D01*
X55193091Y-93517260D01*
X54718423Y-93834423D01*
X54483000Y-94186758D01*
X54247577Y-93834423D01*
X53772909Y-93517260D01*
X53354333Y-93434000D01*
X53071667Y-93434000D01*
X52653091Y-93517260D01*
X52178423Y-93834423D01*
X51943000Y-94186758D01*
X51707577Y-93834423D01*
X51232909Y-93517260D01*
X50814333Y-93434000D01*
X50531667Y-93434000D01*
X50113091Y-93517260D01*
X49638423Y-93834423D01*
X49403000Y-94186758D01*
X49167577Y-93834423D01*
X48692909Y-93517260D01*
X48274333Y-93434000D01*
X47991667Y-93434000D01*
X47573091Y-93517260D01*
X47098423Y-93834423D01*
X46842053Y-94218108D01*
X46745389Y-94013866D01*
X46330423Y-93637959D01*
X45942039Y-93477096D01*
X45720000Y-93599085D01*
X45720000Y-94742000D01*
X45740000Y-94742000D01*
X45740000Y-94996000D01*
X45720000Y-94996000D01*
X45720000Y-96138915D01*
X45942039Y-96260904D01*
X46330423Y-96100041D01*
X46745389Y-95724134D01*
X46842053Y-95519892D01*
X47098423Y-95903577D01*
X47573091Y-96220740D01*
X47991667Y-96304000D01*
X48274333Y-96304000D01*
X48692909Y-96220740D01*
X49167577Y-95903577D01*
X49403000Y-95551242D01*
X49638423Y-95903577D01*
X50113091Y-96220740D01*
X50531667Y-96304000D01*
X50814333Y-96304000D01*
X51232909Y-96220740D01*
X51707577Y-95903577D01*
X51943000Y-95551242D01*
X52178423Y-95903577D01*
X52653091Y-96220740D01*
X53071667Y-96304000D01*
X53354333Y-96304000D01*
X53772909Y-96220740D01*
X54247577Y-95903577D01*
X54483000Y-95551242D01*
X54718423Y-95903577D01*
X55193091Y-96220740D01*
X55611667Y-96304000D01*
X55894333Y-96304000D01*
X56312909Y-96220740D01*
X56787577Y-95903577D01*
X57023000Y-95551242D01*
X57258423Y-95903577D01*
X57733091Y-96220740D01*
X58151667Y-96304000D01*
X58434333Y-96304000D01*
X58616887Y-96267688D01*
X59675912Y-97326713D01*
X59254375Y-97608375D01*
X58926161Y-98099582D01*
X58810908Y-98679000D01*
X58926161Y-99258418D01*
X59254375Y-99749625D01*
X59272619Y-99761816D01*
X59227235Y-99770843D01*
X59017191Y-99911191D01*
X58876843Y-100121235D01*
X58827560Y-100369000D01*
X58827560Y-100459000D01*
X58139440Y-100459000D01*
X58139440Y-100369000D01*
X58090157Y-100121235D01*
X57949809Y-99911191D01*
X57739765Y-99770843D01*
X57694381Y-99761816D01*
X57712625Y-99749625D01*
X58040839Y-99258418D01*
X58156092Y-98679000D01*
X58040839Y-98099582D01*
X57712625Y-97608375D01*
X57221418Y-97280161D01*
X56788256Y-97194000D01*
X56495744Y-97194000D01*
X56062582Y-97280161D01*
X55571375Y-97608375D01*
X55243161Y-98099582D01*
X55127908Y-98679000D01*
X55243161Y-99258418D01*
X55571375Y-99749625D01*
X55589619Y-99761816D01*
X55544235Y-99770843D01*
X55334191Y-99911191D01*
X55193843Y-100121235D01*
X55144560Y-100369000D01*
X55144560Y-100459000D01*
X54456440Y-100459000D01*
X54456440Y-100369000D01*
X54407157Y-100121235D01*
X54266809Y-99911191D01*
X54056765Y-99770843D01*
X54011381Y-99761816D01*
X54029625Y-99749625D01*
X54357839Y-99258418D01*
X54473092Y-98679000D01*
X54357839Y-98099582D01*
X54029625Y-97608375D01*
X53538418Y-97280161D01*
X53105256Y-97194000D01*
X52812744Y-97194000D01*
X52379582Y-97280161D01*
X51888375Y-97608375D01*
X51560161Y-98099582D01*
X51444908Y-98679000D01*
X51560161Y-99258418D01*
X51888375Y-99749625D01*
X51906619Y-99761816D01*
X51861235Y-99770843D01*
X51651191Y-99911191D01*
X51510843Y-100121235D01*
X51461560Y-100369000D01*
X51461560Y-102069000D01*
X51510843Y-102316765D01*
X51651191Y-102526809D01*
X51861235Y-102667157D01*
X52109000Y-102716440D01*
X53809000Y-102716440D01*
X54056765Y-102667157D01*
X54266809Y-102526809D01*
X54407157Y-102316765D01*
X54456440Y-102069000D01*
X54456440Y-101979000D01*
X55144560Y-101979000D01*
X55144560Y-102069000D01*
X55193843Y-102316765D01*
X55334191Y-102526809D01*
X55544235Y-102667157D01*
X55792000Y-102716440D01*
X57492000Y-102716440D01*
X57739765Y-102667157D01*
X57949809Y-102526809D01*
X58090157Y-102316765D01*
X58139440Y-102069000D01*
X58139440Y-101979000D01*
X58827560Y-101979000D01*
X58827560Y-102069000D01*
X58876843Y-102316765D01*
X59017191Y-102526809D01*
X59227235Y-102667157D01*
X59475000Y-102716440D01*
X61175000Y-102716440D01*
X61422765Y-102667157D01*
X61632809Y-102526809D01*
X61773157Y-102316765D01*
X61822440Y-102069000D01*
X61822440Y-101895547D01*
X62014930Y-101766929D01*
X62048175Y-101717174D01*
X62097930Y-101683929D01*
X62265905Y-101432537D01*
X62310001Y-101210852D01*
X62310001Y-101210848D01*
X62324889Y-101136000D01*
X62310001Y-101061152D01*
X62310001Y-98560000D01*
X64779908Y-98560000D01*
X64895161Y-99139418D01*
X65223375Y-99630625D01*
X65521761Y-99830000D01*
X65223375Y-100029375D01*
X64895161Y-100520582D01*
X64779908Y-101100000D01*
X64895161Y-101679418D01*
X65223375Y-102170625D01*
X65521761Y-102370000D01*
X65223375Y-102569375D01*
X64895161Y-103060582D01*
X64779908Y-103640000D01*
X64895161Y-104219418D01*
X65223375Y-104710625D01*
X65714582Y-105038839D01*
X66147744Y-105125000D01*
X66440256Y-105125000D01*
X66873418Y-105038839D01*
X67364625Y-104710625D01*
X67692839Y-104219418D01*
X67808092Y-103640000D01*
X67692839Y-103060582D01*
X67364625Y-102569375D01*
X67066239Y-102370000D01*
X67364625Y-102170625D01*
X67692839Y-101679418D01*
X67808092Y-101100000D01*
X67692839Y-100520582D01*
X67364625Y-100029375D01*
X67066239Y-99830000D01*
X67364625Y-99630625D01*
X67692839Y-99139418D01*
X67808092Y-98560000D01*
X67692839Y-97980582D01*
X67364625Y-97489375D01*
X67346381Y-97477184D01*
X67391765Y-97468157D01*
X67601809Y-97327809D01*
X67742157Y-97117765D01*
X67791440Y-96870000D01*
X67791440Y-95170000D01*
X67742157Y-94922235D01*
X67601809Y-94712191D01*
X67391765Y-94571843D01*
X67144000Y-94522560D01*
X65444000Y-94522560D01*
X65196235Y-94571843D01*
X64986191Y-94712191D01*
X64845843Y-94922235D01*
X64796560Y-95170000D01*
X64796560Y-96870000D01*
X64845843Y-97117765D01*
X64986191Y-97327809D01*
X65196235Y-97468157D01*
X65241619Y-97477184D01*
X65223375Y-97489375D01*
X64895161Y-97980582D01*
X64779908Y-98560000D01*
X62310001Y-98560000D01*
X62310001Y-98200849D01*
X62324889Y-98126001D01*
X62310001Y-98051153D01*
X62310001Y-98051149D01*
X62265905Y-97829464D01*
X62097930Y-97578072D01*
X62034474Y-97535672D01*
X60675026Y-96176224D01*
X60706000Y-96145250D01*
X60706000Y-94996000D01*
X60960000Y-94996000D01*
X60960000Y-96145250D01*
X61118750Y-96304000D01*
X61759310Y-96304000D01*
X61992699Y-96207327D01*
X62171327Y-96028698D01*
X62268000Y-95795309D01*
X62268000Y-95154750D01*
X62109250Y-94996000D01*
X60960000Y-94996000D01*
X60706000Y-94996000D01*
X60686000Y-94996000D01*
X60686000Y-94742000D01*
X60706000Y-94742000D01*
X60706000Y-94722000D01*
X60960000Y-94722000D01*
X60960000Y-94742000D01*
X62109250Y-94742000D01*
X62268000Y-94583250D01*
X62268000Y-93942691D01*
X62171327Y-93709302D01*
X61992699Y-93530673D01*
X61759310Y-93434000D01*
X61144804Y-93434000D01*
X62492477Y-92086328D01*
X62555930Y-92043930D01*
X62598328Y-91980477D01*
X62598330Y-91980475D01*
X62723904Y-91792539D01*
X62723905Y-91792538D01*
X62768001Y-91570853D01*
X62768001Y-91570849D01*
X62782889Y-91496002D01*
X62768001Y-91421155D01*
X62768001Y-90442846D01*
X62782889Y-90367999D01*
X62768001Y-90293152D01*
X62768001Y-90293147D01*
X62723905Y-90071462D01*
X62555930Y-89820070D01*
X62492474Y-89777670D01*
X62183001Y-89468198D01*
X62183001Y-84847348D01*
X62197889Y-84772500D01*
X62183001Y-84697652D01*
X62183001Y-82636000D01*
X64779908Y-82636000D01*
X64895161Y-83215418D01*
X65223375Y-83706625D01*
X65521761Y-83906000D01*
X65223375Y-84105375D01*
X64895161Y-84596582D01*
X64779908Y-85176000D01*
X64895161Y-85755418D01*
X65223375Y-86246625D01*
X65521761Y-86446000D01*
X65223375Y-86645375D01*
X64895161Y-87136582D01*
X64779908Y-87716000D01*
X64895161Y-88295418D01*
X65223375Y-88786625D01*
X65714582Y-89114839D01*
X66147744Y-89201000D01*
X66440256Y-89201000D01*
X66873418Y-89114839D01*
X67364625Y-88786625D01*
X67692839Y-88295418D01*
X67808092Y-87716000D01*
X67692839Y-87136582D01*
X67364625Y-86645375D01*
X67066239Y-86446000D01*
X67364625Y-86246625D01*
X67692839Y-85755418D01*
X67808092Y-85176000D01*
X67692839Y-84596582D01*
X67364625Y-84105375D01*
X67066239Y-83906000D01*
X67364625Y-83706625D01*
X67692839Y-83215418D01*
X67808092Y-82636000D01*
X67692839Y-82056582D01*
X67364625Y-81565375D01*
X67346381Y-81553184D01*
X67391765Y-81544157D01*
X67601809Y-81403809D01*
X67742157Y-81193765D01*
X67791440Y-80946000D01*
X67791440Y-79246000D01*
X67742157Y-78998235D01*
X67601809Y-78788191D01*
X67391765Y-78647843D01*
X67144000Y-78598560D01*
X65444000Y-78598560D01*
X65196235Y-78647843D01*
X64986191Y-78788191D01*
X64845843Y-78998235D01*
X64796560Y-79246000D01*
X64796560Y-80946000D01*
X64845843Y-81193765D01*
X64986191Y-81403809D01*
X65196235Y-81544157D01*
X65241619Y-81553184D01*
X65223375Y-81565375D01*
X64895161Y-82056582D01*
X64779908Y-82636000D01*
X62183001Y-82636000D01*
X62183001Y-81782845D01*
X62197889Y-81707998D01*
X62183001Y-81633151D01*
X62183001Y-81633147D01*
X62138905Y-81411462D01*
X61970930Y-81160070D01*
X61907474Y-81117670D01*
X61191333Y-80401530D01*
X61148931Y-80338071D01*
X60897539Y-80170096D01*
X60675854Y-80126000D01*
X60675849Y-80126000D01*
X60601002Y-80111112D01*
X60526155Y-80126000D01*
X59053000Y-80126000D01*
X59053000Y-79450043D01*
X59327577Y-79266577D01*
X59398735Y-79160082D01*
X59494673Y-79391698D01*
X59673301Y-79570327D01*
X59906690Y-79667000D01*
X60547250Y-79667000D01*
X60706000Y-79508250D01*
X60706000Y-78359000D01*
X60960000Y-78359000D01*
X60960000Y-79508250D01*
X61118750Y-79667000D01*
X61759310Y-79667000D01*
X61992699Y-79570327D01*
X62171327Y-79391698D01*
X62268000Y-79158309D01*
X62268000Y-78517750D01*
X62109250Y-78359000D01*
X60960000Y-78359000D01*
X60706000Y-78359000D01*
X60686000Y-78359000D01*
X60686000Y-78105000D01*
X60706000Y-78105000D01*
X60706000Y-76955750D01*
X60960000Y-76955750D01*
X60960000Y-78105000D01*
X62109250Y-78105000D01*
X62268000Y-77946250D01*
X62268000Y-77438637D01*
X63964968Y-77438637D01*
X64228391Y-77845731D01*
X65326624Y-78297458D01*
X66514127Y-78294524D01*
X67597609Y-77845731D01*
X67861032Y-77438637D01*
X65913000Y-75490605D01*
X63964968Y-77438637D01*
X62268000Y-77438637D01*
X62268000Y-77305691D01*
X62171327Y-77072302D01*
X61992699Y-76893673D01*
X61759310Y-76797000D01*
X61118750Y-76797000D01*
X60960000Y-76955750D01*
X60706000Y-76955750D01*
X60547250Y-76797000D01*
X59906690Y-76797000D01*
X59673301Y-76893673D01*
X59494673Y-77072302D01*
X59398735Y-77303918D01*
X59327577Y-77197423D01*
X59053000Y-77013957D01*
X59053000Y-75845156D01*
X59201000Y-75487852D01*
X59201000Y-75076104D01*
X59055413Y-74724624D01*
X62926542Y-74724624D01*
X62929476Y-75912127D01*
X63378269Y-76995609D01*
X63785363Y-77259032D01*
X65733395Y-75311000D01*
X63785363Y-73362968D01*
X63378269Y-73626391D01*
X62926542Y-74724624D01*
X59055413Y-74724624D01*
X59043431Y-74695698D01*
X58752280Y-74404547D01*
X58371874Y-74246978D01*
X57960126Y-74246978D01*
X57579720Y-74404547D01*
X57288569Y-74695698D01*
X57131000Y-75076104D01*
X57131000Y-75487852D01*
X57288569Y-75868258D01*
X57533001Y-76112690D01*
X57533000Y-77013956D01*
X57258423Y-77197423D01*
X57023000Y-77549758D01*
X56787577Y-77197423D01*
X56312909Y-76880260D01*
X55894333Y-76797000D01*
X55611667Y-76797000D01*
X55193091Y-76880260D01*
X54718423Y-77197423D01*
X54483000Y-77549758D01*
X54247577Y-77197423D01*
X53772909Y-76880260D01*
X53354333Y-76797000D01*
X53071667Y-76797000D01*
X52653091Y-76880260D01*
X52178423Y-77197423D01*
X51943000Y-77549758D01*
X51707577Y-77197423D01*
X51232909Y-76880260D01*
X50814333Y-76797000D01*
X50531667Y-76797000D01*
X50113091Y-76880260D01*
X49638423Y-77197423D01*
X49403000Y-77549758D01*
X49167577Y-77197423D01*
X48692909Y-76880260D01*
X48274333Y-76797000D01*
X47991667Y-76797000D01*
X47573091Y-76880260D01*
X47098423Y-77197423D01*
X46842053Y-77581108D01*
X46745389Y-77376866D01*
X46330423Y-77000959D01*
X45942039Y-76840096D01*
X45720000Y-76962085D01*
X45720000Y-78105000D01*
X45740000Y-78105000D01*
X45740000Y-78359000D01*
X45720000Y-78359000D01*
X45720000Y-79501915D01*
X45942039Y-79623904D01*
X46330423Y-79463041D01*
X46745389Y-79087134D01*
X46842053Y-78882892D01*
X47098423Y-79266577D01*
X47573091Y-79583740D01*
X47991667Y-79667000D01*
X48274333Y-79667000D01*
X48692909Y-79583740D01*
X49167577Y-79266577D01*
X49403000Y-78914242D01*
X49638423Y-79266577D01*
X50113091Y-79583740D01*
X50531667Y-79667000D01*
X50814333Y-79667000D01*
X51232909Y-79583740D01*
X51707577Y-79266577D01*
X51943000Y-78914242D01*
X52178423Y-79266577D01*
X52653091Y-79583740D01*
X53071667Y-79667000D01*
X53354333Y-79667000D01*
X53772909Y-79583740D01*
X54247577Y-79266577D01*
X54483000Y-78914242D01*
X54718423Y-79266577D01*
X55193091Y-79583740D01*
X55611667Y-79667000D01*
X55894333Y-79667000D01*
X56312909Y-79583740D01*
X56787577Y-79266577D01*
X57023000Y-78914242D01*
X57258423Y-79266577D01*
X57533000Y-79450044D01*
X57533001Y-80811143D01*
X57518111Y-80886000D01*
X57577096Y-81182537D01*
X57745071Y-81433929D01*
X57996463Y-81601904D01*
X58218148Y-81646000D01*
X58293000Y-81660889D01*
X58367852Y-81646000D01*
X58846322Y-81646000D01*
X58799161Y-81716582D01*
X58683908Y-82296000D01*
X58799161Y-82875418D01*
X59127375Y-83366625D01*
X59145619Y-83378816D01*
X59100235Y-83387843D01*
X58890191Y-83528191D01*
X58749843Y-83738235D01*
X58700560Y-83986000D01*
X58700560Y-84076000D01*
X58012440Y-84076000D01*
X58012440Y-83986000D01*
X57963157Y-83738235D01*
X57822809Y-83528191D01*
X57612765Y-83387843D01*
X57567381Y-83378816D01*
X57585625Y-83366625D01*
X57913839Y-82875418D01*
X58029092Y-82296000D01*
X57913839Y-81716582D01*
X57585625Y-81225375D01*
X57094418Y-80897161D01*
X56661256Y-80811000D01*
X56368744Y-80811000D01*
X55935582Y-80897161D01*
X55444375Y-81225375D01*
X55116161Y-81716582D01*
X55000908Y-82296000D01*
X55116161Y-82875418D01*
X55444375Y-83366625D01*
X55462619Y-83378816D01*
X55417235Y-83387843D01*
X55207191Y-83528191D01*
X55066843Y-83738235D01*
X55017560Y-83986000D01*
X55017560Y-84076000D01*
X54329440Y-84076000D01*
X54329440Y-83986000D01*
X54280157Y-83738235D01*
X54139809Y-83528191D01*
X53929765Y-83387843D01*
X53884381Y-83378816D01*
X53902625Y-83366625D01*
X54230839Y-82875418D01*
X54346092Y-82296000D01*
X54230839Y-81716582D01*
X53902625Y-81225375D01*
X53411418Y-80897161D01*
X52978256Y-80811000D01*
X52685744Y-80811000D01*
X52252582Y-80897161D01*
X51761375Y-81225375D01*
X51433161Y-81716582D01*
X51317908Y-82296000D01*
X51433161Y-82875418D01*
X51761375Y-83366625D01*
X51779619Y-83378816D01*
X51734235Y-83387843D01*
X51524191Y-83528191D01*
X51383843Y-83738235D01*
X51334560Y-83986000D01*
X51334560Y-85686000D01*
X51383843Y-85933765D01*
X51524191Y-86143809D01*
X51734235Y-86284157D01*
X51982000Y-86333440D01*
X53682000Y-86333440D01*
X53929765Y-86284157D01*
X54139809Y-86143809D01*
X54280157Y-85933765D01*
X54329440Y-85686000D01*
X54329440Y-85596000D01*
X55017560Y-85596000D01*
X55017560Y-85686000D01*
X55066843Y-85933765D01*
X55207191Y-86143809D01*
X55417235Y-86284157D01*
X55665000Y-86333440D01*
X57365000Y-86333440D01*
X57612765Y-86284157D01*
X57822809Y-86143809D01*
X57963157Y-85933765D01*
X58012440Y-85686000D01*
X58012440Y-85596000D01*
X58700560Y-85596000D01*
X58700560Y-85686000D01*
X58749843Y-85933765D01*
X58890191Y-86143809D01*
X59100235Y-86284157D01*
X59348000Y-86333440D01*
X60663001Y-86333440D01*
X60663002Y-88555830D01*
X60001700Y-87894529D01*
X59959298Y-87831070D01*
X59707906Y-87663095D01*
X59486221Y-87618999D01*
X59486216Y-87618999D01*
X59411369Y-87604111D01*
X59336522Y-87618999D01*
X56094848Y-87618999D01*
X56020001Y-87604111D01*
X55945154Y-87618999D01*
X55945149Y-87618999D01*
X55723464Y-87663095D01*
X55472072Y-87831070D01*
X55429672Y-87894527D01*
X55198201Y-88125998D01*
X44546639Y-88125998D01*
X44295914Y-87958469D01*
X44220551Y-87943478D01*
X44201963Y-79095387D01*
X44343947Y-78882892D01*
X44440611Y-79087134D01*
X44855577Y-79463041D01*
X45243961Y-79623904D01*
X45466000Y-79501915D01*
X45466000Y-78359000D01*
X45446000Y-78359000D01*
X45446000Y-78105000D01*
X45466000Y-78105000D01*
X45466000Y-76962085D01*
X45243961Y-76840096D01*
X44855577Y-77000959D01*
X44440611Y-77376866D01*
X44343947Y-77581108D01*
X44087577Y-77197423D01*
X43612909Y-76880260D01*
X43194333Y-76797000D01*
X42911667Y-76797000D01*
X42493091Y-76880260D01*
X42244971Y-77046049D01*
X38566381Y-77032254D01*
X38320996Y-77080586D01*
X38114987Y-77218237D01*
X37977336Y-77424246D01*
X37929000Y-77667250D01*
X37929000Y-94851449D01*
X37633385Y-94729001D01*
X37042615Y-94729001D01*
X36496815Y-94955079D01*
X36079078Y-95372816D01*
X35853000Y-95918616D01*
X35853000Y-96509386D01*
X36079078Y-97055186D01*
X36496815Y-97472923D01*
X36523560Y-97484001D01*
X36496815Y-97495079D01*
X36079078Y-97912816D01*
X35853000Y-98458616D01*
X35853000Y-99049386D01*
X36079078Y-99595186D01*
X36496815Y-100012923D01*
X36549611Y-100034792D01*
X36267375Y-100223376D01*
X35939161Y-100714583D01*
X35823908Y-101294001D01*
X35939161Y-101873419D01*
X36267375Y-102364626D01*
X36565761Y-102564001D01*
X36267375Y-102763376D01*
X35939161Y-103254583D01*
X35823908Y-103834001D01*
X35939161Y-104413419D01*
X36267375Y-104904626D01*
X36565761Y-105104001D01*
X36267375Y-105303376D01*
X35939161Y-105794583D01*
X35823908Y-106374001D01*
X35939161Y-106953419D01*
X36267375Y-107444626D01*
X36565761Y-107644001D01*
X36267375Y-107843376D01*
X35939161Y-108334583D01*
X35823908Y-108914001D01*
X35939161Y-109493419D01*
X36267375Y-109984626D01*
X36565761Y-110184001D01*
X36267375Y-110383376D01*
X35939161Y-110874583D01*
X35823908Y-111454001D01*
X35939161Y-112033419D01*
X36267375Y-112524626D01*
X36565761Y-112724001D01*
X36267375Y-112923376D01*
X35939161Y-113414583D01*
X35823908Y-113994001D01*
X35939161Y-114573419D01*
X36267375Y-115064626D01*
X36565761Y-115264001D01*
X36267375Y-115463376D01*
X35939161Y-115954583D01*
X35823908Y-116534001D01*
X35939161Y-117113419D01*
X36267375Y-117604626D01*
X36565761Y-117804001D01*
X36267375Y-118003376D01*
X35939161Y-118494583D01*
X35823908Y-119074001D01*
X35939161Y-119653419D01*
X36267375Y-120144626D01*
X36565761Y-120344001D01*
X36267375Y-120543376D01*
X35939161Y-121034583D01*
X35887917Y-121292206D01*
X35638280Y-121042569D01*
X35257874Y-120885000D01*
X34846126Y-120885000D01*
X34465720Y-121042569D01*
X34348289Y-121160000D01*
X34301711Y-121160000D01*
X34050280Y-120908569D01*
X33669874Y-120751000D01*
X33258126Y-120751000D01*
X32877720Y-120908569D01*
X32586569Y-121199720D01*
X32429000Y-121580126D01*
X18599365Y-121580126D01*
X18492839Y-121044583D01*
X18164625Y-120553376D01*
X17866239Y-120354001D01*
X18164625Y-120154626D01*
X18492839Y-119663419D01*
X18608092Y-119084001D01*
X18492839Y-118504583D01*
X18164625Y-118013376D01*
X17866239Y-117814001D01*
X18164625Y-117614626D01*
X18492839Y-117123419D01*
X18608092Y-116544001D01*
X18492839Y-115964583D01*
X18164625Y-115473376D01*
X17866239Y-115274001D01*
X18164625Y-115074626D01*
X18492839Y-114583419D01*
X18608092Y-114004001D01*
X18492839Y-113424583D01*
X18164625Y-112933376D01*
X17866239Y-112734001D01*
X18164625Y-112534626D01*
X18492839Y-112043419D01*
X18590165Y-111554126D01*
X22319999Y-111554126D01*
X22319999Y-111965874D01*
X22467925Y-112323000D01*
X22319999Y-112680126D01*
X22319999Y-113091874D01*
X22477568Y-113472280D01*
X22768719Y-113763431D01*
X23149125Y-113921000D01*
X23315197Y-113921000D01*
X23323975Y-113929778D01*
X23366375Y-113993234D01*
X23429831Y-114035634D01*
X23617766Y-114161209D01*
X23665909Y-114170785D01*
X23839452Y-114205305D01*
X23839456Y-114205305D01*
X23914304Y-114220193D01*
X23989152Y-114205305D01*
X24201288Y-114205305D01*
X24318719Y-114322736D01*
X24699125Y-114480305D01*
X25110873Y-114480305D01*
X25491279Y-114322736D01*
X25782430Y-114031585D01*
X25939999Y-113651179D01*
X25939999Y-113420676D01*
X25991290Y-113399431D01*
X26282441Y-113108280D01*
X26440010Y-112727874D01*
X26440010Y-112316126D01*
X26282441Y-111935720D01*
X25991290Y-111644569D01*
X25610884Y-111487000D01*
X25444811Y-111487000D01*
X25233341Y-111275530D01*
X25190939Y-111212071D01*
X24939547Y-111044096D01*
X24717862Y-111000000D01*
X24717857Y-111000000D01*
X24643010Y-110985112D01*
X24568163Y-111000000D01*
X24058710Y-111000000D01*
X23941279Y-110882569D01*
X23560873Y-110725000D01*
X23149125Y-110725000D01*
X22768719Y-110882569D01*
X22477568Y-111173720D01*
X22319999Y-111554126D01*
X18590165Y-111554126D01*
X18608092Y-111464001D01*
X18492839Y-110884583D01*
X18164625Y-110393376D01*
X17866239Y-110194001D01*
X18164625Y-109994626D01*
X18492839Y-109503419D01*
X18608092Y-108924001D01*
X18492839Y-108344583D01*
X18164625Y-107853376D01*
X17866239Y-107654001D01*
X18126461Y-107480126D01*
X32429000Y-107480126D01*
X32429000Y-107891874D01*
X32586569Y-108272280D01*
X32877720Y-108563431D01*
X33258126Y-108721000D01*
X33669874Y-108721000D01*
X34050280Y-108563431D01*
X34217711Y-108396000D01*
X34351299Y-108396000D01*
X34468730Y-108513431D01*
X34849136Y-108671000D01*
X35260884Y-108671000D01*
X35641290Y-108513431D01*
X35932441Y-108222280D01*
X36090010Y-107841874D01*
X36090010Y-107430126D01*
X35932441Y-107049720D01*
X35641290Y-106758569D01*
X35260884Y-106601000D01*
X34849136Y-106601000D01*
X34468730Y-106758569D01*
X34351299Y-106876000D01*
X34117711Y-106876000D01*
X34050280Y-106808569D01*
X33669874Y-106651000D01*
X33258126Y-106651000D01*
X32877720Y-106808569D01*
X32586569Y-107099720D01*
X32429000Y-107480126D01*
X18126461Y-107480126D01*
X18164625Y-107454626D01*
X18492839Y-106963419D01*
X18608092Y-106384001D01*
X18492839Y-105804583D01*
X18164625Y-105313376D01*
X17866239Y-105114001D01*
X18092039Y-104963126D01*
X19285000Y-104963126D01*
X19285000Y-105374874D01*
X19442569Y-105755280D01*
X19733720Y-106046431D01*
X20114126Y-106204000D01*
X20525874Y-106204000D01*
X20906280Y-106046431D01*
X21197431Y-105755280D01*
X21355000Y-105374874D01*
X21355000Y-104963126D01*
X21197431Y-104582720D01*
X21080000Y-104465289D01*
X21080000Y-103313253D01*
X21200280Y-103263431D01*
X21491431Y-102972280D01*
X21649000Y-102591874D01*
X21649000Y-102180126D01*
X21491431Y-101799720D01*
X21200280Y-101508569D01*
X20819874Y-101351000D01*
X20408126Y-101351000D01*
X20027720Y-101508569D01*
X19736569Y-101799720D01*
X19579000Y-102180126D01*
X19579000Y-102509634D01*
X19545112Y-102680000D01*
X19560001Y-102754852D01*
X19560000Y-104465289D01*
X19442569Y-104582720D01*
X19285000Y-104963126D01*
X18092039Y-104963126D01*
X18164625Y-104914626D01*
X18492839Y-104423419D01*
X18608092Y-103844001D01*
X18492839Y-103264583D01*
X18164625Y-102773376D01*
X17866239Y-102574001D01*
X18164625Y-102374626D01*
X18492839Y-101883419D01*
X18608092Y-101304001D01*
X18492839Y-100724583D01*
X18164625Y-100233376D01*
X17866239Y-100034001D01*
X18164625Y-99834626D01*
X18492839Y-99343419D01*
X18608092Y-98764001D01*
X18492839Y-98184583D01*
X18164625Y-97693376D01*
X17866239Y-97494001D01*
X18164625Y-97294626D01*
X18492839Y-96803419D01*
X18608092Y-96224001D01*
X18492839Y-95644583D01*
X18164625Y-95153376D01*
X17845522Y-94940158D01*
X17975358Y-94879184D01*
X18365645Y-94450925D01*
X18535476Y-94040891D01*
X18414155Y-93811001D01*
X17221000Y-93811001D01*
X17221000Y-93831001D01*
X16967000Y-93831001D01*
X16967000Y-93811001D01*
X15773845Y-93811001D01*
X15652524Y-94040891D01*
X15822355Y-94450925D01*
X16212642Y-94879184D01*
X16342478Y-94940158D01*
X16023375Y-95153376D01*
X15695161Y-95644583D01*
X15579908Y-96224001D01*
X15695161Y-96803419D01*
X16023375Y-97294626D01*
X16321761Y-97494001D01*
X16023375Y-97693376D01*
X15695161Y-98184583D01*
X15579908Y-98764001D01*
X15695161Y-99343419D01*
X16023375Y-99834626D01*
X16321761Y-100034001D01*
X16023375Y-100233376D01*
X15695161Y-100724583D01*
X15579908Y-101304001D01*
X15695161Y-101883419D01*
X16023375Y-102374626D01*
X16321761Y-102574001D01*
X16023375Y-102773376D01*
X15695161Y-103264583D01*
X15579908Y-103844001D01*
X15695161Y-104423419D01*
X16023375Y-104914626D01*
X16321761Y-105114001D01*
X16023375Y-105313376D01*
X15695161Y-105804583D01*
X15579908Y-106384001D01*
X15695161Y-106963419D01*
X16023375Y-107454626D01*
X16321761Y-107654001D01*
X16023375Y-107853376D01*
X15695161Y-108344583D01*
X15579908Y-108924001D01*
X15695161Y-109503419D01*
X16023375Y-109994626D01*
X16321761Y-110194001D01*
X16023375Y-110393376D01*
X15695161Y-110884583D01*
X15579908Y-111464001D01*
X15695161Y-112043419D01*
X16023375Y-112534626D01*
X16321761Y-112734001D01*
X16023375Y-112933376D01*
X15695161Y-113424583D01*
X15579908Y-114004001D01*
X15695161Y-114583419D01*
X16023375Y-115074626D01*
X16321761Y-115274001D01*
X16023375Y-115473376D01*
X15695161Y-115964583D01*
X15579908Y-116544001D01*
X15695161Y-117123419D01*
X16023375Y-117614626D01*
X16321761Y-117814001D01*
X16023375Y-118013376D01*
X15695161Y-118504583D01*
X15579908Y-119084001D01*
X15695161Y-119663419D01*
X16023375Y-120154626D01*
X16321761Y-120354001D01*
X16023375Y-120553376D01*
X15695161Y-121044583D01*
X15579908Y-121624001D01*
X15695161Y-122203419D01*
X16023375Y-122694626D01*
X16267288Y-122857604D01*
X16176815Y-122895079D01*
X15759078Y-123312816D01*
X15533000Y-123858616D01*
X14680000Y-123858616D01*
X14680000Y-88604001D01*
X15579908Y-88604001D01*
X15695161Y-89183419D01*
X16023375Y-89674626D01*
X16321761Y-89874001D01*
X16023375Y-90073376D01*
X15695161Y-90564583D01*
X15579908Y-91144001D01*
X15695161Y-91723419D01*
X16023375Y-92214626D01*
X16342478Y-92427844D01*
X16212642Y-92488818D01*
X15822355Y-92917077D01*
X15652524Y-93327111D01*
X15773845Y-93557001D01*
X16967000Y-93557001D01*
X16967000Y-93537001D01*
X17221000Y-93537001D01*
X17221000Y-93557001D01*
X18414155Y-93557001D01*
X18535476Y-93327111D01*
X18365645Y-92917077D01*
X17975358Y-92488818D01*
X17845522Y-92427844D01*
X18164625Y-92214626D01*
X18492839Y-91723419D01*
X18608092Y-91144001D01*
X18492839Y-90564583D01*
X18164625Y-90073376D01*
X17866239Y-89874001D01*
X18164625Y-89674626D01*
X18492839Y-89183419D01*
X18608092Y-88604001D01*
X18492839Y-88024583D01*
X18164625Y-87533376D01*
X18146381Y-87521185D01*
X18191765Y-87512158D01*
X18401809Y-87371810D01*
X18542157Y-87161766D01*
X18591440Y-86914001D01*
X18591440Y-85214001D01*
X18542157Y-84966236D01*
X18401809Y-84756192D01*
X18191765Y-84615844D01*
X17944000Y-84566561D01*
X16244000Y-84566561D01*
X15996235Y-84615844D01*
X15786191Y-84756192D01*
X15645843Y-84966236D01*
X15596560Y-85214001D01*
X15596560Y-86914001D01*
X15645843Y-87161766D01*
X15786191Y-87371810D01*
X15996235Y-87512158D01*
X16041619Y-87521185D01*
X16023375Y-87533376D01*
X15695161Y-88024583D01*
X15579908Y-88604001D01*
X14680000Y-88604001D01*
X14680000Y-77438637D01*
X15069968Y-77438637D01*
X15333391Y-77845731D01*
X16431624Y-78297458D01*
X17619127Y-78294524D01*
X18702609Y-77845731D01*
X18966032Y-77438637D01*
X17018000Y-75490605D01*
X15069968Y-77438637D01*
X14680000Y-77438637D01*
X14680000Y-77122910D01*
X14890363Y-77259032D01*
X16838395Y-75311000D01*
X17197605Y-75311000D01*
X19145637Y-77259032D01*
X19552731Y-76995609D01*
X20004458Y-75897376D01*
X20002330Y-75036000D01*
X22366560Y-75036000D01*
X22366560Y-76736000D01*
X22415843Y-76983765D01*
X22556191Y-77193809D01*
X22766235Y-77334157D01*
X23014000Y-77383440D01*
X24714000Y-77383440D01*
X24961765Y-77334157D01*
X25171809Y-77193809D01*
X25312157Y-76983765D01*
X25321184Y-76938381D01*
X25333375Y-76956625D01*
X25824582Y-77284839D01*
X26257744Y-77371000D01*
X26550256Y-77371000D01*
X26983418Y-77284839D01*
X27474625Y-76956625D01*
X27802839Y-76465418D01*
X27918092Y-75886000D01*
X27802839Y-75306582D01*
X27474625Y-74815375D01*
X26983418Y-74487161D01*
X26550256Y-74401000D01*
X26257744Y-74401000D01*
X25824582Y-74487161D01*
X25333375Y-74815375D01*
X25321184Y-74833619D01*
X25312157Y-74788235D01*
X25171809Y-74578191D01*
X24961765Y-74437843D01*
X24714000Y-74388560D01*
X23014000Y-74388560D01*
X22766235Y-74437843D01*
X22556191Y-74578191D01*
X22415843Y-74788235D01*
X22366560Y-75036000D01*
X20002330Y-75036000D01*
X20001524Y-74709873D01*
X19552731Y-73626391D01*
X19145637Y-73362968D01*
X17197605Y-75311000D01*
X16838395Y-75311000D01*
X14890363Y-73362968D01*
X14680000Y-73499090D01*
X14680000Y-72846000D01*
X15288269Y-72846000D01*
X15069968Y-73183363D01*
G04 #@! TD*
M02*
