G04 #@! TF.GenerationSoftware,KiCad,Pcbnew,(5.0.2)-1*
G04 #@! TF.CreationDate,2020-07-19T21:14:17-04:00*
G04 #@! TF.ProjectId,KiCad Schematic,4b694361-6420-4536-9368-656d61746963,rev?*
G04 #@! TF.SameCoordinates,Original*
G04 #@! TF.FileFunction,Soldermask,Bot*
G04 #@! TF.FilePolarity,Negative*
%FSLAX46Y46*%
G04 Gerber Fmt 4.6, Leading zero omitted, Abs format (unit mm)*
G04 Created by KiCad (PCBNEW (5.0.2)-1) date 7/19/2020 9:14:17 PM*
%MOMM*%
%LPD*%
G01*
G04 APERTURE LIST*
%ADD10C,0.100000*%
G04 APERTURE END LIST*
D10*
G36*
X53300412Y-133027135D02*
X53532346Y-133073269D01*
X53713338Y-133148239D01*
X53969299Y-133254261D01*
X54362551Y-133517024D01*
X54696976Y-133851449D01*
X54959739Y-134244701D01*
X55054263Y-134472903D01*
X55120164Y-134632000D01*
X55140731Y-134681655D01*
X55233000Y-135145521D01*
X55233000Y-135618479D01*
X55140731Y-136082345D01*
X54959739Y-136519299D01*
X54696976Y-136912551D01*
X54362551Y-137246976D01*
X53969299Y-137509739D01*
X53713338Y-137615761D01*
X53532346Y-137690731D01*
X53300412Y-137736866D01*
X53068479Y-137783000D01*
X52595521Y-137783000D01*
X52363588Y-137736866D01*
X52131654Y-137690731D01*
X51950662Y-137615761D01*
X51694701Y-137509739D01*
X51301449Y-137246976D01*
X50967024Y-136912551D01*
X50704261Y-136519299D01*
X50523269Y-136082345D01*
X50431000Y-135618479D01*
X50431000Y-135145521D01*
X50523269Y-134681655D01*
X50543837Y-134632000D01*
X50609737Y-134472903D01*
X50704261Y-134244701D01*
X50967024Y-133851449D01*
X51301449Y-133517024D01*
X51694701Y-133254261D01*
X51950662Y-133148239D01*
X52131654Y-133073269D01*
X52363588Y-133027135D01*
X52595521Y-132981000D01*
X53068479Y-132981000D01*
X53300412Y-133027135D01*
X53300412Y-133027135D01*
G37*
G36*
X17740412Y-133027135D02*
X17972346Y-133073269D01*
X18153338Y-133148239D01*
X18409299Y-133254261D01*
X18802551Y-133517024D01*
X19136976Y-133851449D01*
X19399739Y-134244701D01*
X19494263Y-134472903D01*
X19560164Y-134632000D01*
X19580731Y-134681655D01*
X19673000Y-135145521D01*
X19673000Y-135618479D01*
X19580731Y-136082345D01*
X19399739Y-136519299D01*
X19136976Y-136912551D01*
X18802551Y-137246976D01*
X18409299Y-137509739D01*
X18153338Y-137615761D01*
X17972346Y-137690731D01*
X17740412Y-137736866D01*
X17508479Y-137783000D01*
X17035521Y-137783000D01*
X16803588Y-137736866D01*
X16571654Y-137690731D01*
X16390662Y-137615761D01*
X16134701Y-137509739D01*
X15741449Y-137246976D01*
X15407024Y-136912551D01*
X15144261Y-136519299D01*
X14963269Y-136082345D01*
X14871000Y-135618479D01*
X14871000Y-135145521D01*
X14963269Y-134681655D01*
X14983837Y-134632000D01*
X15049737Y-134472903D01*
X15144261Y-134244701D01*
X15407024Y-133851449D01*
X15741449Y-133517024D01*
X16134701Y-133254261D01*
X16390662Y-133148239D01*
X16571654Y-133073269D01*
X16803588Y-133027135D01*
X17035521Y-132981000D01*
X17508479Y-132981000D01*
X17740412Y-133027135D01*
X17740412Y-133027135D01*
G37*
G36*
X35162442Y-133471518D02*
X35228627Y-133478037D01*
X35341853Y-133512384D01*
X35398467Y-133529557D01*
X35537087Y-133603652D01*
X35554991Y-133613222D01*
X35590729Y-133642552D01*
X35692186Y-133725814D01*
X35775448Y-133827271D01*
X35804778Y-133863009D01*
X35804779Y-133863011D01*
X35888443Y-134019533D01*
X35888443Y-134019534D01*
X35939963Y-134189373D01*
X35957359Y-134366000D01*
X35939963Y-134542627D01*
X35932435Y-134567443D01*
X35888443Y-134712467D01*
X35828367Y-134824859D01*
X35804778Y-134868991D01*
X35781298Y-134897601D01*
X35692186Y-135006186D01*
X35590729Y-135089448D01*
X35554991Y-135118778D01*
X35554989Y-135118779D01*
X35398467Y-135202443D01*
X35341853Y-135219616D01*
X35228627Y-135253963D01*
X35162443Y-135260481D01*
X35096260Y-135267000D01*
X35007740Y-135267000D01*
X34941557Y-135260481D01*
X34875373Y-135253963D01*
X34762147Y-135219616D01*
X34705533Y-135202443D01*
X34549011Y-135118779D01*
X34549009Y-135118778D01*
X34513271Y-135089448D01*
X34411814Y-135006186D01*
X34322702Y-134897601D01*
X34299222Y-134868991D01*
X34275633Y-134824859D01*
X34215557Y-134712467D01*
X34171565Y-134567443D01*
X34164037Y-134542627D01*
X34146641Y-134366000D01*
X34164037Y-134189373D01*
X34215557Y-134019534D01*
X34215557Y-134019533D01*
X34299221Y-133863011D01*
X34299222Y-133863009D01*
X34328552Y-133827271D01*
X34411814Y-133725814D01*
X34513271Y-133642552D01*
X34549009Y-133613222D01*
X34566913Y-133603652D01*
X34705533Y-133529557D01*
X34762147Y-133512384D01*
X34875373Y-133478037D01*
X34941558Y-133471518D01*
X35007740Y-133465000D01*
X35096260Y-133465000D01*
X35162442Y-133471518D01*
X35162442Y-133471518D01*
G37*
G36*
X23253000Y-135267000D02*
X21451000Y-135267000D01*
X21451000Y-133465000D01*
X23253000Y-133465000D01*
X23253000Y-135267000D01*
X23253000Y-135267000D01*
G37*
G36*
X25002442Y-133471518D02*
X25068627Y-133478037D01*
X25181853Y-133512384D01*
X25238467Y-133529557D01*
X25377087Y-133603652D01*
X25394991Y-133613222D01*
X25430729Y-133642552D01*
X25532186Y-133725814D01*
X25615448Y-133827271D01*
X25644778Y-133863009D01*
X25644779Y-133863011D01*
X25728443Y-134019533D01*
X25728443Y-134019534D01*
X25779963Y-134189373D01*
X25797359Y-134366000D01*
X25779963Y-134542627D01*
X25772435Y-134567443D01*
X25728443Y-134712467D01*
X25668367Y-134824859D01*
X25644778Y-134868991D01*
X25621298Y-134897601D01*
X25532186Y-135006186D01*
X25430729Y-135089448D01*
X25394991Y-135118778D01*
X25394989Y-135118779D01*
X25238467Y-135202443D01*
X25181853Y-135219616D01*
X25068627Y-135253963D01*
X25002443Y-135260481D01*
X24936260Y-135267000D01*
X24847740Y-135267000D01*
X24781557Y-135260481D01*
X24715373Y-135253963D01*
X24602147Y-135219616D01*
X24545533Y-135202443D01*
X24389011Y-135118779D01*
X24389009Y-135118778D01*
X24353271Y-135089448D01*
X24251814Y-135006186D01*
X24162702Y-134897601D01*
X24139222Y-134868991D01*
X24115633Y-134824859D01*
X24055557Y-134712467D01*
X24011565Y-134567443D01*
X24004037Y-134542627D01*
X23986641Y-134366000D01*
X24004037Y-134189373D01*
X24055557Y-134019534D01*
X24055557Y-134019533D01*
X24139221Y-133863011D01*
X24139222Y-133863009D01*
X24168552Y-133827271D01*
X24251814Y-133725814D01*
X24353271Y-133642552D01*
X24389009Y-133613222D01*
X24406913Y-133603652D01*
X24545533Y-133529557D01*
X24602147Y-133512384D01*
X24715373Y-133478037D01*
X24781558Y-133471518D01*
X24847740Y-133465000D01*
X24936260Y-133465000D01*
X25002442Y-133471518D01*
X25002442Y-133471518D01*
G37*
G36*
X27542442Y-133471518D02*
X27608627Y-133478037D01*
X27721853Y-133512384D01*
X27778467Y-133529557D01*
X27917087Y-133603652D01*
X27934991Y-133613222D01*
X27970729Y-133642552D01*
X28072186Y-133725814D01*
X28155448Y-133827271D01*
X28184778Y-133863009D01*
X28184779Y-133863011D01*
X28268443Y-134019533D01*
X28268443Y-134019534D01*
X28319963Y-134189373D01*
X28337359Y-134366000D01*
X28319963Y-134542627D01*
X28312435Y-134567443D01*
X28268443Y-134712467D01*
X28208367Y-134824859D01*
X28184778Y-134868991D01*
X28161298Y-134897601D01*
X28072186Y-135006186D01*
X27970729Y-135089448D01*
X27934991Y-135118778D01*
X27934989Y-135118779D01*
X27778467Y-135202443D01*
X27721853Y-135219616D01*
X27608627Y-135253963D01*
X27542443Y-135260481D01*
X27476260Y-135267000D01*
X27387740Y-135267000D01*
X27321557Y-135260481D01*
X27255373Y-135253963D01*
X27142147Y-135219616D01*
X27085533Y-135202443D01*
X26929011Y-135118779D01*
X26929009Y-135118778D01*
X26893271Y-135089448D01*
X26791814Y-135006186D01*
X26702702Y-134897601D01*
X26679222Y-134868991D01*
X26655633Y-134824859D01*
X26595557Y-134712467D01*
X26551565Y-134567443D01*
X26544037Y-134542627D01*
X26526641Y-134366000D01*
X26544037Y-134189373D01*
X26595557Y-134019534D01*
X26595557Y-134019533D01*
X26679221Y-133863011D01*
X26679222Y-133863009D01*
X26708552Y-133827271D01*
X26791814Y-133725814D01*
X26893271Y-133642552D01*
X26929009Y-133613222D01*
X26946913Y-133603652D01*
X27085533Y-133529557D01*
X27142147Y-133512384D01*
X27255373Y-133478037D01*
X27321558Y-133471518D01*
X27387740Y-133465000D01*
X27476260Y-133465000D01*
X27542442Y-133471518D01*
X27542442Y-133471518D01*
G37*
G36*
X30082442Y-133471518D02*
X30148627Y-133478037D01*
X30261853Y-133512384D01*
X30318467Y-133529557D01*
X30457087Y-133603652D01*
X30474991Y-133613222D01*
X30510729Y-133642552D01*
X30612186Y-133725814D01*
X30695448Y-133827271D01*
X30724778Y-133863009D01*
X30724779Y-133863011D01*
X30808443Y-134019533D01*
X30808443Y-134019534D01*
X30859963Y-134189373D01*
X30877359Y-134366000D01*
X30859963Y-134542627D01*
X30852435Y-134567443D01*
X30808443Y-134712467D01*
X30748367Y-134824859D01*
X30724778Y-134868991D01*
X30701298Y-134897601D01*
X30612186Y-135006186D01*
X30510729Y-135089448D01*
X30474991Y-135118778D01*
X30474989Y-135118779D01*
X30318467Y-135202443D01*
X30261853Y-135219616D01*
X30148627Y-135253963D01*
X30082443Y-135260481D01*
X30016260Y-135267000D01*
X29927740Y-135267000D01*
X29861557Y-135260481D01*
X29795373Y-135253963D01*
X29682147Y-135219616D01*
X29625533Y-135202443D01*
X29469011Y-135118779D01*
X29469009Y-135118778D01*
X29433271Y-135089448D01*
X29331814Y-135006186D01*
X29242702Y-134897601D01*
X29219222Y-134868991D01*
X29195633Y-134824859D01*
X29135557Y-134712467D01*
X29091565Y-134567443D01*
X29084037Y-134542627D01*
X29066641Y-134366000D01*
X29084037Y-134189373D01*
X29135557Y-134019534D01*
X29135557Y-134019533D01*
X29219221Y-133863011D01*
X29219222Y-133863009D01*
X29248552Y-133827271D01*
X29331814Y-133725814D01*
X29433271Y-133642552D01*
X29469009Y-133613222D01*
X29486913Y-133603652D01*
X29625533Y-133529557D01*
X29682147Y-133512384D01*
X29795373Y-133478037D01*
X29861558Y-133471518D01*
X29927740Y-133465000D01*
X30016260Y-133465000D01*
X30082442Y-133471518D01*
X30082442Y-133471518D01*
G37*
G36*
X37702442Y-133471518D02*
X37768627Y-133478037D01*
X37881853Y-133512384D01*
X37938467Y-133529557D01*
X38077087Y-133603652D01*
X38094991Y-133613222D01*
X38130729Y-133642552D01*
X38232186Y-133725814D01*
X38315448Y-133827271D01*
X38344778Y-133863009D01*
X38344779Y-133863011D01*
X38428443Y-134019533D01*
X38428443Y-134019534D01*
X38479963Y-134189373D01*
X38497359Y-134366000D01*
X38479963Y-134542627D01*
X38472435Y-134567443D01*
X38428443Y-134712467D01*
X38368367Y-134824859D01*
X38344778Y-134868991D01*
X38321298Y-134897601D01*
X38232186Y-135006186D01*
X38130729Y-135089448D01*
X38094991Y-135118778D01*
X38094989Y-135118779D01*
X37938467Y-135202443D01*
X37881853Y-135219616D01*
X37768627Y-135253963D01*
X37702443Y-135260481D01*
X37636260Y-135267000D01*
X37547740Y-135267000D01*
X37481557Y-135260481D01*
X37415373Y-135253963D01*
X37302147Y-135219616D01*
X37245533Y-135202443D01*
X37089011Y-135118779D01*
X37089009Y-135118778D01*
X37053271Y-135089448D01*
X36951814Y-135006186D01*
X36862702Y-134897601D01*
X36839222Y-134868991D01*
X36815633Y-134824859D01*
X36755557Y-134712467D01*
X36711565Y-134567443D01*
X36704037Y-134542627D01*
X36686641Y-134366000D01*
X36704037Y-134189373D01*
X36755557Y-134019534D01*
X36755557Y-134019533D01*
X36839221Y-133863011D01*
X36839222Y-133863009D01*
X36868552Y-133827271D01*
X36951814Y-133725814D01*
X37053271Y-133642552D01*
X37089009Y-133613222D01*
X37106913Y-133603652D01*
X37245533Y-133529557D01*
X37302147Y-133512384D01*
X37415373Y-133478037D01*
X37481558Y-133471518D01*
X37547740Y-133465000D01*
X37636260Y-133465000D01*
X37702442Y-133471518D01*
X37702442Y-133471518D01*
G37*
G36*
X40242442Y-133471518D02*
X40308627Y-133478037D01*
X40421853Y-133512384D01*
X40478467Y-133529557D01*
X40617087Y-133603652D01*
X40634991Y-133613222D01*
X40670729Y-133642552D01*
X40772186Y-133725814D01*
X40855448Y-133827271D01*
X40884778Y-133863009D01*
X40884779Y-133863011D01*
X40968443Y-134019533D01*
X40968443Y-134019534D01*
X41019963Y-134189373D01*
X41037359Y-134366000D01*
X41019963Y-134542627D01*
X41012435Y-134567443D01*
X40968443Y-134712467D01*
X40908367Y-134824859D01*
X40884778Y-134868991D01*
X40861298Y-134897601D01*
X40772186Y-135006186D01*
X40670729Y-135089448D01*
X40634991Y-135118778D01*
X40634989Y-135118779D01*
X40478467Y-135202443D01*
X40421853Y-135219616D01*
X40308627Y-135253963D01*
X40242443Y-135260481D01*
X40176260Y-135267000D01*
X40087740Y-135267000D01*
X40021557Y-135260481D01*
X39955373Y-135253963D01*
X39842147Y-135219616D01*
X39785533Y-135202443D01*
X39629011Y-135118779D01*
X39629009Y-135118778D01*
X39593271Y-135089448D01*
X39491814Y-135006186D01*
X39402702Y-134897601D01*
X39379222Y-134868991D01*
X39355633Y-134824859D01*
X39295557Y-134712467D01*
X39251565Y-134567443D01*
X39244037Y-134542627D01*
X39226641Y-134366000D01*
X39244037Y-134189373D01*
X39295557Y-134019534D01*
X39295557Y-134019533D01*
X39379221Y-133863011D01*
X39379222Y-133863009D01*
X39408552Y-133827271D01*
X39491814Y-133725814D01*
X39593271Y-133642552D01*
X39629009Y-133613222D01*
X39646913Y-133603652D01*
X39785533Y-133529557D01*
X39842147Y-133512384D01*
X39955373Y-133478037D01*
X40021558Y-133471518D01*
X40087740Y-133465000D01*
X40176260Y-133465000D01*
X40242442Y-133471518D01*
X40242442Y-133471518D01*
G37*
G36*
X32622442Y-133471518D02*
X32688627Y-133478037D01*
X32801853Y-133512384D01*
X32858467Y-133529557D01*
X32997087Y-133603652D01*
X33014991Y-133613222D01*
X33050729Y-133642552D01*
X33152186Y-133725814D01*
X33235448Y-133827271D01*
X33264778Y-133863009D01*
X33264779Y-133863011D01*
X33348443Y-134019533D01*
X33348443Y-134019534D01*
X33399963Y-134189373D01*
X33417359Y-134366000D01*
X33399963Y-134542627D01*
X33392435Y-134567443D01*
X33348443Y-134712467D01*
X33288367Y-134824859D01*
X33264778Y-134868991D01*
X33241298Y-134897601D01*
X33152186Y-135006186D01*
X33050729Y-135089448D01*
X33014991Y-135118778D01*
X33014989Y-135118779D01*
X32858467Y-135202443D01*
X32801853Y-135219616D01*
X32688627Y-135253963D01*
X32622443Y-135260481D01*
X32556260Y-135267000D01*
X32467740Y-135267000D01*
X32401557Y-135260481D01*
X32335373Y-135253963D01*
X32222147Y-135219616D01*
X32165533Y-135202443D01*
X32009011Y-135118779D01*
X32009009Y-135118778D01*
X31973271Y-135089448D01*
X31871814Y-135006186D01*
X31782702Y-134897601D01*
X31759222Y-134868991D01*
X31735633Y-134824859D01*
X31675557Y-134712467D01*
X31631565Y-134567443D01*
X31624037Y-134542627D01*
X31606641Y-134366000D01*
X31624037Y-134189373D01*
X31675557Y-134019534D01*
X31675557Y-134019533D01*
X31759221Y-133863011D01*
X31759222Y-133863009D01*
X31788552Y-133827271D01*
X31871814Y-133725814D01*
X31973271Y-133642552D01*
X32009009Y-133613222D01*
X32026913Y-133603652D01*
X32165533Y-133529557D01*
X32222147Y-133512384D01*
X32335373Y-133478037D01*
X32401558Y-133471518D01*
X32467740Y-133465000D01*
X32556260Y-133465000D01*
X32622442Y-133471518D01*
X32622442Y-133471518D01*
G37*
G36*
X58990000Y-135093000D02*
X57088000Y-135093000D01*
X57088000Y-130591000D01*
X58990000Y-130591000D01*
X58990000Y-135093000D01*
X58990000Y-135093000D01*
G37*
G36*
X64025424Y-130804760D02*
X64025427Y-130804761D01*
X64025428Y-130804761D01*
X64204692Y-130859140D01*
X64204694Y-130859141D01*
X64204697Y-130859142D01*
X64369904Y-130947446D01*
X64514712Y-131066288D01*
X64633552Y-131211095D01*
X64633553Y-131211097D01*
X64721860Y-131376307D01*
X64730720Y-131405516D01*
X64776240Y-131555575D01*
X64790000Y-131695282D01*
X64790000Y-133988718D01*
X64776240Y-134128425D01*
X64776239Y-134128428D01*
X64776239Y-134128429D01*
X64740969Y-134244700D01*
X64721859Y-134307695D01*
X64633552Y-134472905D01*
X64514712Y-134617712D01*
X64369905Y-134736552D01*
X64369903Y-134736553D01*
X64204693Y-134824860D01*
X64025429Y-134879239D01*
X64025428Y-134879239D01*
X64025425Y-134879240D01*
X63839000Y-134897601D01*
X63652576Y-134879240D01*
X63652573Y-134879239D01*
X63652572Y-134879239D01*
X63473308Y-134824860D01*
X63308098Y-134736553D01*
X63308096Y-134736552D01*
X63163289Y-134617712D01*
X63044449Y-134472905D01*
X62956142Y-134307695D01*
X62937033Y-134244700D01*
X62901762Y-134128429D01*
X62901762Y-134128428D01*
X62901761Y-134128425D01*
X62888001Y-133988718D01*
X62888000Y-131695283D01*
X62901760Y-131555576D01*
X62901761Y-131555572D01*
X62956140Y-131376308D01*
X62956141Y-131376306D01*
X62956142Y-131376303D01*
X63044446Y-131211096D01*
X63163288Y-131066288D01*
X63308095Y-130947448D01*
X63473305Y-130859141D01*
X63473307Y-130859140D01*
X63652571Y-130804761D01*
X63652572Y-130804761D01*
X63652575Y-130804760D01*
X63839000Y-130786399D01*
X64025424Y-130804760D01*
X64025424Y-130804760D01*
G37*
G36*
X44179443Y-132836519D02*
X44245627Y-132843037D01*
X44358853Y-132877384D01*
X44415467Y-132894557D01*
X44554087Y-132968652D01*
X44571991Y-132978222D01*
X44607729Y-133007552D01*
X44709186Y-133090814D01*
X44792448Y-133192271D01*
X44821778Y-133228009D01*
X44821779Y-133228011D01*
X44905443Y-133384533D01*
X44905443Y-133384534D01*
X44956963Y-133554373D01*
X44974359Y-133731000D01*
X44956963Y-133907627D01*
X44932364Y-133988718D01*
X44905443Y-134077467D01*
X44845627Y-134189373D01*
X44821778Y-134233991D01*
X44812989Y-134244700D01*
X44709186Y-134371186D01*
X44607729Y-134454448D01*
X44571991Y-134483778D01*
X44571989Y-134483779D01*
X44415467Y-134567443D01*
X44358853Y-134584616D01*
X44245627Y-134618963D01*
X44179442Y-134625482D01*
X44113260Y-134632000D01*
X44024740Y-134632000D01*
X43958558Y-134625482D01*
X43892373Y-134618963D01*
X43779147Y-134584616D01*
X43722533Y-134567443D01*
X43566011Y-134483779D01*
X43566009Y-134483778D01*
X43530271Y-134454448D01*
X43428814Y-134371186D01*
X43325011Y-134244700D01*
X43316222Y-134233991D01*
X43292373Y-134189373D01*
X43232557Y-134077467D01*
X43205636Y-133988718D01*
X43181037Y-133907627D01*
X43163641Y-133731000D01*
X43181037Y-133554373D01*
X43232557Y-133384534D01*
X43232557Y-133384533D01*
X43316221Y-133228011D01*
X43316222Y-133228009D01*
X43345552Y-133192271D01*
X43428814Y-133090814D01*
X43530271Y-133007552D01*
X43566009Y-132978222D01*
X43583913Y-132968652D01*
X43722533Y-132894557D01*
X43779147Y-132877384D01*
X43892373Y-132843037D01*
X43958557Y-132836519D01*
X44024740Y-132830000D01*
X44113260Y-132830000D01*
X44179443Y-132836519D01*
X44179443Y-132836519D01*
G37*
G36*
X47971731Y-130334408D02*
X48037915Y-130340926D01*
X48151141Y-130375273D01*
X48207755Y-130392446D01*
X48346375Y-130466541D01*
X48364279Y-130476111D01*
X48400017Y-130505441D01*
X48501474Y-130588703D01*
X48582971Y-130688009D01*
X48614066Y-130725898D01*
X48614067Y-130725900D01*
X48697731Y-130882422D01*
X48697731Y-130882423D01*
X48749251Y-131052262D01*
X48766647Y-131228889D01*
X48749251Y-131405516D01*
X48714904Y-131518742D01*
X48697731Y-131575356D01*
X48634319Y-131693989D01*
X48614066Y-131731880D01*
X48584736Y-131767618D01*
X48501474Y-131869075D01*
X48400017Y-131952337D01*
X48364279Y-131981667D01*
X48364277Y-131981668D01*
X48207755Y-132065332D01*
X48162819Y-132078963D01*
X48037915Y-132116852D01*
X47971730Y-132123371D01*
X47905548Y-132129889D01*
X47817028Y-132129889D01*
X47750846Y-132123371D01*
X47684661Y-132116852D01*
X47559757Y-132078963D01*
X47514821Y-132065332D01*
X47358299Y-131981668D01*
X47358297Y-131981667D01*
X47322559Y-131952337D01*
X47221102Y-131869075D01*
X47137840Y-131767618D01*
X47108510Y-131731880D01*
X47088257Y-131693989D01*
X47024845Y-131575356D01*
X47007672Y-131518742D01*
X46973325Y-131405516D01*
X46955929Y-131228889D01*
X46973325Y-131052262D01*
X47024845Y-130882423D01*
X47024845Y-130882422D01*
X47108509Y-130725900D01*
X47108510Y-130725898D01*
X47139605Y-130688009D01*
X47221102Y-130588703D01*
X47322559Y-130505441D01*
X47358297Y-130476111D01*
X47376201Y-130466541D01*
X47514821Y-130392446D01*
X47571435Y-130375273D01*
X47684661Y-130340926D01*
X47750845Y-130334408D01*
X47817028Y-130327889D01*
X47905548Y-130327889D01*
X47971731Y-130334408D01*
X47971731Y-130334408D01*
G37*
G36*
X44179443Y-130296519D02*
X44245627Y-130303037D01*
X44327553Y-130327889D01*
X44415467Y-130354557D01*
X44486351Y-130392446D01*
X44571991Y-130438222D01*
X44607729Y-130467552D01*
X44709186Y-130550814D01*
X44792448Y-130652271D01*
X44821778Y-130688009D01*
X44821779Y-130688011D01*
X44905443Y-130844533D01*
X44922616Y-130901147D01*
X44956963Y-131014373D01*
X44974359Y-131191000D01*
X44956963Y-131367627D01*
X44922616Y-131480853D01*
X44905443Y-131537467D01*
X44831348Y-131676087D01*
X44821778Y-131693991D01*
X44820715Y-131695286D01*
X44709186Y-131831186D01*
X44607729Y-131914448D01*
X44571991Y-131943778D01*
X44571989Y-131943779D01*
X44415467Y-132027443D01*
X44358853Y-132044616D01*
X44245627Y-132078963D01*
X44179443Y-132085481D01*
X44113260Y-132092000D01*
X44024740Y-132092000D01*
X43958557Y-132085481D01*
X43892373Y-132078963D01*
X43779147Y-132044616D01*
X43722533Y-132027443D01*
X43566011Y-131943779D01*
X43566009Y-131943778D01*
X43530271Y-131914448D01*
X43428814Y-131831186D01*
X43317285Y-131695286D01*
X43316222Y-131693991D01*
X43306652Y-131676087D01*
X43232557Y-131537467D01*
X43215384Y-131480853D01*
X43181037Y-131367627D01*
X43163641Y-131191000D01*
X43181037Y-131014373D01*
X43215384Y-130901147D01*
X43232557Y-130844533D01*
X43316221Y-130688011D01*
X43316222Y-130688009D01*
X43345552Y-130652271D01*
X43428814Y-130550814D01*
X43530271Y-130467552D01*
X43566009Y-130438222D01*
X43651649Y-130392446D01*
X43722533Y-130354557D01*
X43810447Y-130327889D01*
X43892373Y-130303037D01*
X43958557Y-130296519D01*
X44024740Y-130290000D01*
X44113260Y-130290000D01*
X44179443Y-130296519D01*
X44179443Y-130296519D01*
G37*
G36*
X48762288Y-129589889D02*
X46960288Y-129589889D01*
X46960288Y-127787889D01*
X48762288Y-127787889D01*
X48762288Y-129589889D01*
X48762288Y-129589889D01*
G37*
G36*
X44970000Y-129552000D02*
X43168000Y-129552000D01*
X43168000Y-127750000D01*
X44970000Y-127750000D01*
X44970000Y-129552000D01*
X44970000Y-129552000D01*
G37*
G36*
X62325425Y-127104760D02*
X62325428Y-127104761D01*
X62325429Y-127104761D01*
X62504693Y-127159140D01*
X62504695Y-127159141D01*
X62669905Y-127247448D01*
X62814712Y-127366288D01*
X62933552Y-127511095D01*
X63021859Y-127676305D01*
X63076240Y-127855575D01*
X63094601Y-128042000D01*
X63076240Y-128228425D01*
X63021859Y-128407695D01*
X62933552Y-128572905D01*
X62814712Y-128717712D01*
X62669905Y-128836552D01*
X62669903Y-128836553D01*
X62504693Y-128924860D01*
X62325429Y-128979239D01*
X62325428Y-128979239D01*
X62325425Y-128979240D01*
X62185718Y-128993000D01*
X59892282Y-128993000D01*
X59752575Y-128979240D01*
X59752572Y-128979239D01*
X59752571Y-128979239D01*
X59573307Y-128924860D01*
X59408097Y-128836553D01*
X59408095Y-128836552D01*
X59263288Y-128717712D01*
X59144448Y-128572905D01*
X59056141Y-128407695D01*
X59001760Y-128228425D01*
X58983399Y-128042000D01*
X59001760Y-127855575D01*
X59056141Y-127676305D01*
X59144448Y-127511095D01*
X59263288Y-127366288D01*
X59408095Y-127247448D01*
X59573305Y-127159141D01*
X59573307Y-127159140D01*
X59752571Y-127104761D01*
X59752572Y-127104761D01*
X59752575Y-127104760D01*
X59892282Y-127091000D01*
X62185718Y-127091000D01*
X62325425Y-127104760D01*
X62325425Y-127104760D01*
G37*
G36*
X60999821Y-123367313D02*
X60999824Y-123367314D01*
X60999825Y-123367314D01*
X61160239Y-123415975D01*
X61160241Y-123415976D01*
X61160244Y-123415977D01*
X61308078Y-123494995D01*
X61437659Y-123601341D01*
X61544005Y-123730922D01*
X61623023Y-123878756D01*
X61671687Y-124039179D01*
X61688117Y-124206000D01*
X61671687Y-124372821D01*
X61623023Y-124533244D01*
X61544005Y-124681078D01*
X61437659Y-124810659D01*
X61308078Y-124917005D01*
X61160244Y-124996023D01*
X61160241Y-124996024D01*
X61160239Y-124996025D01*
X60999825Y-125044686D01*
X60999824Y-125044686D01*
X60999821Y-125044687D01*
X60874804Y-125057000D01*
X60791196Y-125057000D01*
X60666179Y-125044687D01*
X60666176Y-125044686D01*
X60666175Y-125044686D01*
X60505761Y-124996025D01*
X60505759Y-124996024D01*
X60505756Y-124996023D01*
X60357922Y-124917005D01*
X60228341Y-124810659D01*
X60121995Y-124681078D01*
X60042977Y-124533244D01*
X59994313Y-124372821D01*
X59977883Y-124206000D01*
X59994313Y-124039179D01*
X60042977Y-123878756D01*
X60121995Y-123730922D01*
X60228341Y-123601341D01*
X60357922Y-123494995D01*
X60505756Y-123415977D01*
X60505759Y-123415976D01*
X60505761Y-123415975D01*
X60666175Y-123367314D01*
X60666176Y-123367314D01*
X60666179Y-123367313D01*
X60791196Y-123355000D01*
X60874804Y-123355000D01*
X60999821Y-123367313D01*
X60999821Y-123367313D01*
G37*
G36*
X58459821Y-123367313D02*
X58459824Y-123367314D01*
X58459825Y-123367314D01*
X58620239Y-123415975D01*
X58620241Y-123415976D01*
X58620244Y-123415977D01*
X58768078Y-123494995D01*
X58897659Y-123601341D01*
X59004005Y-123730922D01*
X59083023Y-123878756D01*
X59131687Y-124039179D01*
X59148117Y-124206000D01*
X59131687Y-124372821D01*
X59083023Y-124533244D01*
X59004005Y-124681078D01*
X58897659Y-124810659D01*
X58768078Y-124917005D01*
X58620244Y-124996023D01*
X58620241Y-124996024D01*
X58620239Y-124996025D01*
X58459825Y-125044686D01*
X58459824Y-125044686D01*
X58459821Y-125044687D01*
X58334804Y-125057000D01*
X58251196Y-125057000D01*
X58126179Y-125044687D01*
X58126176Y-125044686D01*
X58126175Y-125044686D01*
X57965761Y-124996025D01*
X57965759Y-124996024D01*
X57965756Y-124996023D01*
X57817922Y-124917005D01*
X57688341Y-124810659D01*
X57581995Y-124681078D01*
X57502977Y-124533244D01*
X57454313Y-124372821D01*
X57437883Y-124206000D01*
X57454313Y-124039179D01*
X57502977Y-123878756D01*
X57581995Y-123730922D01*
X57688341Y-123601341D01*
X57817922Y-123494995D01*
X57965756Y-123415977D01*
X57965759Y-123415976D01*
X57965761Y-123415975D01*
X58126175Y-123367314D01*
X58126176Y-123367314D01*
X58126179Y-123367313D01*
X58251196Y-123355000D01*
X58334804Y-123355000D01*
X58459821Y-123367313D01*
X58459821Y-123367313D01*
G37*
G36*
X55919821Y-123367313D02*
X55919824Y-123367314D01*
X55919825Y-123367314D01*
X56080239Y-123415975D01*
X56080241Y-123415976D01*
X56080244Y-123415977D01*
X56228078Y-123494995D01*
X56357659Y-123601341D01*
X56464005Y-123730922D01*
X56543023Y-123878756D01*
X56591687Y-124039179D01*
X56608117Y-124206000D01*
X56591687Y-124372821D01*
X56543023Y-124533244D01*
X56464005Y-124681078D01*
X56357659Y-124810659D01*
X56228078Y-124917005D01*
X56080244Y-124996023D01*
X56080241Y-124996024D01*
X56080239Y-124996025D01*
X55919825Y-125044686D01*
X55919824Y-125044686D01*
X55919821Y-125044687D01*
X55794804Y-125057000D01*
X55711196Y-125057000D01*
X55586179Y-125044687D01*
X55586176Y-125044686D01*
X55586175Y-125044686D01*
X55425761Y-124996025D01*
X55425759Y-124996024D01*
X55425756Y-124996023D01*
X55277922Y-124917005D01*
X55148341Y-124810659D01*
X55041995Y-124681078D01*
X54962977Y-124533244D01*
X54914313Y-124372821D01*
X54897883Y-124206000D01*
X54914313Y-124039179D01*
X54962977Y-123878756D01*
X55041995Y-123730922D01*
X55148341Y-123601341D01*
X55277922Y-123494995D01*
X55425756Y-123415977D01*
X55425759Y-123415976D01*
X55425761Y-123415975D01*
X55586175Y-123367314D01*
X55586176Y-123367314D01*
X55586179Y-123367313D01*
X55711196Y-123355000D01*
X55794804Y-123355000D01*
X55919821Y-123367313D01*
X55919821Y-123367313D01*
G37*
G36*
X53379821Y-123367313D02*
X53379824Y-123367314D01*
X53379825Y-123367314D01*
X53540239Y-123415975D01*
X53540241Y-123415976D01*
X53540244Y-123415977D01*
X53688078Y-123494995D01*
X53817659Y-123601341D01*
X53924005Y-123730922D01*
X54003023Y-123878756D01*
X54051687Y-124039179D01*
X54068117Y-124206000D01*
X54051687Y-124372821D01*
X54003023Y-124533244D01*
X53924005Y-124681078D01*
X53817659Y-124810659D01*
X53688078Y-124917005D01*
X53540244Y-124996023D01*
X53540241Y-124996024D01*
X53540239Y-124996025D01*
X53379825Y-125044686D01*
X53379824Y-125044686D01*
X53379821Y-125044687D01*
X53254804Y-125057000D01*
X53171196Y-125057000D01*
X53046179Y-125044687D01*
X53046176Y-125044686D01*
X53046175Y-125044686D01*
X52885761Y-124996025D01*
X52885759Y-124996024D01*
X52885756Y-124996023D01*
X52737922Y-124917005D01*
X52608341Y-124810659D01*
X52501995Y-124681078D01*
X52422977Y-124533244D01*
X52374313Y-124372821D01*
X52357883Y-124206000D01*
X52374313Y-124039179D01*
X52422977Y-123878756D01*
X52501995Y-123730922D01*
X52608341Y-123601341D01*
X52737922Y-123494995D01*
X52885756Y-123415977D01*
X52885759Y-123415976D01*
X52885761Y-123415975D01*
X53046175Y-123367314D01*
X53046176Y-123367314D01*
X53046179Y-123367313D01*
X53171196Y-123355000D01*
X53254804Y-123355000D01*
X53379821Y-123367313D01*
X53379821Y-123367313D01*
G37*
G36*
X50839821Y-123367313D02*
X50839824Y-123367314D01*
X50839825Y-123367314D01*
X51000239Y-123415975D01*
X51000241Y-123415976D01*
X51000244Y-123415977D01*
X51148078Y-123494995D01*
X51277659Y-123601341D01*
X51384005Y-123730922D01*
X51463023Y-123878756D01*
X51511687Y-124039179D01*
X51528117Y-124206000D01*
X51511687Y-124372821D01*
X51463023Y-124533244D01*
X51384005Y-124681078D01*
X51277659Y-124810659D01*
X51148078Y-124917005D01*
X51000244Y-124996023D01*
X51000241Y-124996024D01*
X51000239Y-124996025D01*
X50839825Y-125044686D01*
X50839824Y-125044686D01*
X50839821Y-125044687D01*
X50714804Y-125057000D01*
X50631196Y-125057000D01*
X50506179Y-125044687D01*
X50506176Y-125044686D01*
X50506175Y-125044686D01*
X50345761Y-124996025D01*
X50345759Y-124996024D01*
X50345756Y-124996023D01*
X50197922Y-124917005D01*
X50068341Y-124810659D01*
X49961995Y-124681078D01*
X49882977Y-124533244D01*
X49834313Y-124372821D01*
X49817883Y-124206000D01*
X49834313Y-124039179D01*
X49882977Y-123878756D01*
X49961995Y-123730922D01*
X50068341Y-123601341D01*
X50197922Y-123494995D01*
X50345756Y-123415977D01*
X50345759Y-123415976D01*
X50345761Y-123415975D01*
X50506175Y-123367314D01*
X50506176Y-123367314D01*
X50506179Y-123367313D01*
X50631196Y-123355000D01*
X50714804Y-123355000D01*
X50839821Y-123367313D01*
X50839821Y-123367313D01*
G37*
G36*
X48299821Y-123367313D02*
X48299824Y-123367314D01*
X48299825Y-123367314D01*
X48460239Y-123415975D01*
X48460241Y-123415976D01*
X48460244Y-123415977D01*
X48608078Y-123494995D01*
X48737659Y-123601341D01*
X48844005Y-123730922D01*
X48923023Y-123878756D01*
X48971687Y-124039179D01*
X48988117Y-124206000D01*
X48971687Y-124372821D01*
X48923023Y-124533244D01*
X48844005Y-124681078D01*
X48737659Y-124810659D01*
X48608078Y-124917005D01*
X48460244Y-124996023D01*
X48460241Y-124996024D01*
X48460239Y-124996025D01*
X48299825Y-125044686D01*
X48299824Y-125044686D01*
X48299821Y-125044687D01*
X48174804Y-125057000D01*
X48091196Y-125057000D01*
X47966179Y-125044687D01*
X47966176Y-125044686D01*
X47966175Y-125044686D01*
X47805761Y-124996025D01*
X47805759Y-124996024D01*
X47805756Y-124996023D01*
X47657922Y-124917005D01*
X47528341Y-124810659D01*
X47421995Y-124681078D01*
X47342977Y-124533244D01*
X47294313Y-124372821D01*
X47277883Y-124206000D01*
X47294313Y-124039179D01*
X47342977Y-123878756D01*
X47421995Y-123730922D01*
X47528341Y-123601341D01*
X47657922Y-123494995D01*
X47805756Y-123415977D01*
X47805759Y-123415976D01*
X47805761Y-123415975D01*
X47966175Y-123367314D01*
X47966176Y-123367314D01*
X47966179Y-123367313D01*
X48091196Y-123355000D01*
X48174804Y-123355000D01*
X48299821Y-123367313D01*
X48299821Y-123367313D01*
G37*
G36*
X43219821Y-123367313D02*
X43219824Y-123367314D01*
X43219825Y-123367314D01*
X43380239Y-123415975D01*
X43380241Y-123415976D01*
X43380244Y-123415977D01*
X43528078Y-123494995D01*
X43657659Y-123601341D01*
X43764005Y-123730922D01*
X43843023Y-123878756D01*
X43891687Y-124039179D01*
X43908117Y-124206000D01*
X43891687Y-124372821D01*
X43843023Y-124533244D01*
X43764005Y-124681078D01*
X43657659Y-124810659D01*
X43528078Y-124917005D01*
X43380244Y-124996023D01*
X43380241Y-124996024D01*
X43380239Y-124996025D01*
X43219825Y-125044686D01*
X43219824Y-125044686D01*
X43219821Y-125044687D01*
X43094804Y-125057000D01*
X43011196Y-125057000D01*
X42886179Y-125044687D01*
X42886176Y-125044686D01*
X42886175Y-125044686D01*
X42725761Y-124996025D01*
X42725759Y-124996024D01*
X42725756Y-124996023D01*
X42577922Y-124917005D01*
X42448341Y-124810659D01*
X42341995Y-124681078D01*
X42262977Y-124533244D01*
X42214313Y-124372821D01*
X42197883Y-124206000D01*
X42214313Y-124039179D01*
X42262977Y-123878756D01*
X42341995Y-123730922D01*
X42448341Y-123601341D01*
X42577922Y-123494995D01*
X42725756Y-123415977D01*
X42725759Y-123415976D01*
X42725761Y-123415975D01*
X42886175Y-123367314D01*
X42886176Y-123367314D01*
X42886179Y-123367313D01*
X43011196Y-123355000D01*
X43094804Y-123355000D01*
X43219821Y-123367313D01*
X43219821Y-123367313D01*
G37*
G36*
X45759821Y-123367313D02*
X45759824Y-123367314D01*
X45759825Y-123367314D01*
X45920239Y-123415975D01*
X45920241Y-123415976D01*
X45920244Y-123415977D01*
X46068078Y-123494995D01*
X46197659Y-123601341D01*
X46304005Y-123730922D01*
X46383023Y-123878756D01*
X46431687Y-124039179D01*
X46448117Y-124206000D01*
X46431687Y-124372821D01*
X46383023Y-124533244D01*
X46304005Y-124681078D01*
X46197659Y-124810659D01*
X46068078Y-124917005D01*
X45920244Y-124996023D01*
X45920241Y-124996024D01*
X45920239Y-124996025D01*
X45759825Y-125044686D01*
X45759824Y-125044686D01*
X45759821Y-125044687D01*
X45634804Y-125057000D01*
X45551196Y-125057000D01*
X45426179Y-125044687D01*
X45426176Y-125044686D01*
X45426175Y-125044686D01*
X45265761Y-124996025D01*
X45265759Y-124996024D01*
X45265756Y-124996023D01*
X45117922Y-124917005D01*
X44988341Y-124810659D01*
X44881995Y-124681078D01*
X44802977Y-124533244D01*
X44754313Y-124372821D01*
X44737883Y-124206000D01*
X44754313Y-124039179D01*
X44802977Y-123878756D01*
X44881995Y-123730922D01*
X44988341Y-123601341D01*
X45117922Y-123494995D01*
X45265756Y-123415977D01*
X45265759Y-123415976D01*
X45265761Y-123415975D01*
X45426175Y-123367314D01*
X45426176Y-123367314D01*
X45426179Y-123367313D01*
X45551196Y-123355000D01*
X45634804Y-123355000D01*
X45759821Y-123367313D01*
X45759821Y-123367313D01*
G37*
G36*
X17280812Y-123287625D02*
X17444784Y-123355545D01*
X17592354Y-123454148D01*
X17717853Y-123579647D01*
X17816456Y-123727217D01*
X17884376Y-123891189D01*
X17919000Y-124065260D01*
X17919000Y-124242742D01*
X17884376Y-124416813D01*
X17816456Y-124580785D01*
X17717853Y-124728355D01*
X17592354Y-124853854D01*
X17444784Y-124952457D01*
X17280812Y-125020377D01*
X17106741Y-125055001D01*
X16929259Y-125055001D01*
X16755188Y-125020377D01*
X16591216Y-124952457D01*
X16443646Y-124853854D01*
X16318147Y-124728355D01*
X16219544Y-124580785D01*
X16151624Y-124416813D01*
X16117000Y-124242742D01*
X16117000Y-124065260D01*
X16151624Y-123891189D01*
X16219544Y-123727217D01*
X16318147Y-123579647D01*
X16443646Y-123454148D01*
X16591216Y-123355545D01*
X16755188Y-123287625D01*
X16929259Y-123253001D01*
X17106741Y-123253001D01*
X17280812Y-123287625D01*
X17280812Y-123287625D01*
G37*
G36*
X37448442Y-123259519D02*
X37514627Y-123266038D01*
X37627853Y-123300385D01*
X37684467Y-123317558D01*
X37823087Y-123391653D01*
X37840991Y-123401223D01*
X37876729Y-123430553D01*
X37978186Y-123513815D01*
X38061448Y-123615272D01*
X38090778Y-123651010D01*
X38090779Y-123651012D01*
X38174443Y-123807534D01*
X38174443Y-123807535D01*
X38225963Y-123977374D01*
X38243359Y-124154001D01*
X38225963Y-124330628D01*
X38199819Y-124416813D01*
X38174443Y-124500468D01*
X38131513Y-124580783D01*
X38090778Y-124656992D01*
X38071011Y-124681078D01*
X37978186Y-124794187D01*
X37905480Y-124853854D01*
X37840991Y-124906779D01*
X37840989Y-124906780D01*
X37684467Y-124990444D01*
X37627853Y-125007617D01*
X37514627Y-125041964D01*
X37448443Y-125048482D01*
X37382260Y-125055001D01*
X37293740Y-125055001D01*
X37227557Y-125048482D01*
X37161373Y-125041964D01*
X37048147Y-125007617D01*
X36991533Y-124990444D01*
X36835011Y-124906780D01*
X36835009Y-124906779D01*
X36770520Y-124853854D01*
X36697814Y-124794187D01*
X36604989Y-124681078D01*
X36585222Y-124656992D01*
X36544487Y-124580783D01*
X36501557Y-124500468D01*
X36476181Y-124416813D01*
X36450037Y-124330628D01*
X36432641Y-124154001D01*
X36450037Y-123977374D01*
X36501557Y-123807535D01*
X36501557Y-123807534D01*
X36585221Y-123651012D01*
X36585222Y-123651010D01*
X36614552Y-123615272D01*
X36697814Y-123513815D01*
X36799271Y-123430553D01*
X36835009Y-123401223D01*
X36852913Y-123391653D01*
X36991533Y-123317558D01*
X37048147Y-123300385D01*
X37161373Y-123266038D01*
X37227558Y-123259519D01*
X37293740Y-123253001D01*
X37382260Y-123253001D01*
X37448442Y-123259519D01*
X37448442Y-123259519D01*
G37*
G36*
X17204442Y-120729519D02*
X17270627Y-120736038D01*
X17383853Y-120770385D01*
X17440467Y-120787558D01*
X17578281Y-120861222D01*
X17596991Y-120871223D01*
X17632729Y-120900553D01*
X17734186Y-120983815D01*
X17817448Y-121085272D01*
X17846778Y-121121010D01*
X17846779Y-121121012D01*
X17930443Y-121277534D01*
X17930443Y-121277535D01*
X17981963Y-121447374D01*
X17999359Y-121624001D01*
X17981963Y-121800628D01*
X17947616Y-121913854D01*
X17930443Y-121970468D01*
X17856348Y-122109088D01*
X17846778Y-122126992D01*
X17817448Y-122162730D01*
X17734186Y-122264187D01*
X17632729Y-122347449D01*
X17596991Y-122376779D01*
X17596989Y-122376780D01*
X17440467Y-122460444D01*
X17383853Y-122477617D01*
X17270627Y-122511964D01*
X17204442Y-122518483D01*
X17138260Y-122525001D01*
X17049740Y-122525001D01*
X16983558Y-122518483D01*
X16917373Y-122511964D01*
X16804147Y-122477617D01*
X16747533Y-122460444D01*
X16591011Y-122376780D01*
X16591009Y-122376779D01*
X16555271Y-122347449D01*
X16453814Y-122264187D01*
X16370552Y-122162730D01*
X16341222Y-122126992D01*
X16331652Y-122109088D01*
X16257557Y-121970468D01*
X16240384Y-121913854D01*
X16206037Y-121800628D01*
X16188641Y-121624001D01*
X16206037Y-121447374D01*
X16257557Y-121277535D01*
X16257557Y-121277534D01*
X16341221Y-121121012D01*
X16341222Y-121121010D01*
X16370552Y-121085272D01*
X16453814Y-120983815D01*
X16555271Y-120900553D01*
X16591009Y-120871223D01*
X16609719Y-120861222D01*
X16747533Y-120787558D01*
X16804147Y-120770385D01*
X16917373Y-120736038D01*
X16983558Y-120729519D01*
X17049740Y-120723001D01*
X17138260Y-120723001D01*
X17204442Y-120729519D01*
X17204442Y-120729519D01*
G37*
G36*
X37448442Y-120719519D02*
X37514627Y-120726038D01*
X37627853Y-120760385D01*
X37684467Y-120777558D01*
X37703175Y-120787558D01*
X37840991Y-120861223D01*
X37876729Y-120890553D01*
X37978186Y-120973815D01*
X38061448Y-121075272D01*
X38090778Y-121111010D01*
X38090779Y-121111012D01*
X38174443Y-121267534D01*
X38191616Y-121324148D01*
X38225963Y-121437374D01*
X38243359Y-121614001D01*
X38225963Y-121790628D01*
X38191616Y-121903854D01*
X38174443Y-121960468D01*
X38100348Y-122099088D01*
X38090778Y-122116992D01*
X38082571Y-122126992D01*
X37978186Y-122254187D01*
X37876729Y-122337449D01*
X37840991Y-122366779D01*
X37840989Y-122366780D01*
X37684467Y-122450444D01*
X37627853Y-122467617D01*
X37514627Y-122501964D01*
X37448442Y-122508483D01*
X37382260Y-122515001D01*
X37293740Y-122515001D01*
X37227558Y-122508483D01*
X37161373Y-122501964D01*
X37048147Y-122467617D01*
X36991533Y-122450444D01*
X36835011Y-122366780D01*
X36835009Y-122366779D01*
X36799271Y-122337449D01*
X36697814Y-122254187D01*
X36593429Y-122126992D01*
X36585222Y-122116992D01*
X36575652Y-122099088D01*
X36501557Y-121960468D01*
X36484384Y-121903854D01*
X36450037Y-121790628D01*
X36432641Y-121614001D01*
X36450037Y-121437374D01*
X36484384Y-121324148D01*
X36501557Y-121267534D01*
X36585221Y-121111012D01*
X36585222Y-121111010D01*
X36614552Y-121075272D01*
X36697814Y-120973815D01*
X36799271Y-120890553D01*
X36835009Y-120861223D01*
X36972825Y-120787558D01*
X36991533Y-120777558D01*
X37048147Y-120760385D01*
X37161373Y-120726038D01*
X37227558Y-120719519D01*
X37293740Y-120713001D01*
X37382260Y-120713001D01*
X37448442Y-120719519D01*
X37448442Y-120719519D01*
G37*
G36*
X66224442Y-118491518D02*
X66290627Y-118498037D01*
X66403853Y-118532384D01*
X66460467Y-118549557D01*
X66519314Y-118581012D01*
X66616991Y-118633222D01*
X66652729Y-118662552D01*
X66754186Y-118745814D01*
X66837448Y-118847271D01*
X66866778Y-118883009D01*
X66866779Y-118883011D01*
X66950443Y-119039533D01*
X66963932Y-119084001D01*
X67001963Y-119209373D01*
X67019359Y-119386000D01*
X67001963Y-119562627D01*
X66967616Y-119675853D01*
X66950443Y-119732467D01*
X66900031Y-119826779D01*
X66866778Y-119888991D01*
X66849172Y-119910444D01*
X66754186Y-120026186D01*
X66652729Y-120109448D01*
X66616991Y-120138778D01*
X66616989Y-120138779D01*
X66460467Y-120222443D01*
X66403853Y-120239616D01*
X66290627Y-120273963D01*
X66224443Y-120280481D01*
X66158260Y-120287000D01*
X66069740Y-120287000D01*
X66003557Y-120280481D01*
X65937373Y-120273963D01*
X65824147Y-120239616D01*
X65767533Y-120222443D01*
X65611011Y-120138779D01*
X65611009Y-120138778D01*
X65575271Y-120109448D01*
X65473814Y-120026186D01*
X65378828Y-119910444D01*
X65361222Y-119888991D01*
X65327969Y-119826779D01*
X65277557Y-119732467D01*
X65260384Y-119675853D01*
X65226037Y-119562627D01*
X65208641Y-119386000D01*
X65226037Y-119209373D01*
X65264068Y-119084001D01*
X65277557Y-119039533D01*
X65361221Y-118883011D01*
X65361222Y-118883009D01*
X65390552Y-118847271D01*
X65473814Y-118745814D01*
X65575271Y-118662552D01*
X65611009Y-118633222D01*
X65708686Y-118581012D01*
X65767533Y-118549557D01*
X65824147Y-118532384D01*
X65937373Y-118498037D01*
X66003558Y-118491518D01*
X66069740Y-118485000D01*
X66158260Y-118485000D01*
X66224442Y-118491518D01*
X66224442Y-118491518D01*
G37*
G36*
X17204443Y-118189520D02*
X17270627Y-118196038D01*
X17383853Y-118230385D01*
X17440467Y-118247558D01*
X17578281Y-118321222D01*
X17596991Y-118331223D01*
X17632729Y-118360553D01*
X17734186Y-118443815D01*
X17817448Y-118545272D01*
X17846778Y-118581010D01*
X17846779Y-118581012D01*
X17930443Y-118737534D01*
X17932955Y-118745815D01*
X17981963Y-118907374D01*
X17999359Y-119084001D01*
X17981963Y-119260628D01*
X17947616Y-119373854D01*
X17930443Y-119430468D01*
X17859803Y-119562625D01*
X17846778Y-119586992D01*
X17817448Y-119622730D01*
X17734186Y-119724187D01*
X17632729Y-119807449D01*
X17596991Y-119836779D01*
X17596989Y-119836780D01*
X17440467Y-119920444D01*
X17383853Y-119937617D01*
X17270627Y-119971964D01*
X17204442Y-119978483D01*
X17138260Y-119985001D01*
X17049740Y-119985001D01*
X16983558Y-119978483D01*
X16917373Y-119971964D01*
X16804147Y-119937617D01*
X16747533Y-119920444D01*
X16591011Y-119836780D01*
X16591009Y-119836779D01*
X16555271Y-119807449D01*
X16453814Y-119724187D01*
X16370552Y-119622730D01*
X16341222Y-119586992D01*
X16328197Y-119562625D01*
X16257557Y-119430468D01*
X16240384Y-119373854D01*
X16206037Y-119260628D01*
X16188641Y-119084001D01*
X16206037Y-118907374D01*
X16255045Y-118745815D01*
X16257557Y-118737534D01*
X16341221Y-118581012D01*
X16341222Y-118581010D01*
X16370552Y-118545272D01*
X16453814Y-118443815D01*
X16555271Y-118360553D01*
X16591009Y-118331223D01*
X16609719Y-118321222D01*
X16747533Y-118247558D01*
X16804147Y-118230385D01*
X16917373Y-118196038D01*
X16983557Y-118189520D01*
X17049740Y-118183001D01*
X17138260Y-118183001D01*
X17204443Y-118189520D01*
X17204443Y-118189520D01*
G37*
G36*
X37448442Y-118179519D02*
X37514627Y-118186038D01*
X37627853Y-118220385D01*
X37684467Y-118237558D01*
X37703175Y-118247558D01*
X37840991Y-118321223D01*
X37876729Y-118350553D01*
X37978186Y-118433815D01*
X38061448Y-118535272D01*
X38090778Y-118571010D01*
X38090779Y-118571012D01*
X38174443Y-118727534D01*
X38179988Y-118745814D01*
X38225963Y-118897374D01*
X38243359Y-119074001D01*
X38225963Y-119250628D01*
X38191616Y-119363854D01*
X38174443Y-119420468D01*
X38100348Y-119559088D01*
X38090778Y-119576992D01*
X38082571Y-119586992D01*
X37978186Y-119714187D01*
X37876729Y-119797449D01*
X37840991Y-119826779D01*
X37840989Y-119826780D01*
X37684467Y-119910444D01*
X37627853Y-119927617D01*
X37514627Y-119961964D01*
X37448442Y-119968483D01*
X37382260Y-119975001D01*
X37293740Y-119975001D01*
X37227558Y-119968483D01*
X37161373Y-119961964D01*
X37048147Y-119927617D01*
X36991533Y-119910444D01*
X36835011Y-119826780D01*
X36835009Y-119826779D01*
X36799271Y-119797449D01*
X36697814Y-119714187D01*
X36593429Y-119586992D01*
X36585222Y-119576992D01*
X36575652Y-119559088D01*
X36501557Y-119420468D01*
X36484384Y-119363854D01*
X36450037Y-119250628D01*
X36432641Y-119074001D01*
X36450037Y-118897374D01*
X36496012Y-118745814D01*
X36501557Y-118727534D01*
X36585221Y-118571012D01*
X36585222Y-118571010D01*
X36614552Y-118535272D01*
X36697814Y-118433815D01*
X36799271Y-118350553D01*
X36835009Y-118321223D01*
X36972825Y-118247558D01*
X36991533Y-118237558D01*
X37048147Y-118220385D01*
X37161373Y-118186038D01*
X37227558Y-118179519D01*
X37293740Y-118173001D01*
X37382260Y-118173001D01*
X37448442Y-118179519D01*
X37448442Y-118179519D01*
G37*
G36*
X61226000Y-118884000D02*
X59424000Y-118884000D01*
X59424000Y-117082000D01*
X61226000Y-117082000D01*
X61226000Y-118884000D01*
X61226000Y-118884000D01*
G37*
G36*
X53860000Y-118884000D02*
X52058000Y-118884000D01*
X52058000Y-117082000D01*
X53860000Y-117082000D01*
X53860000Y-118884000D01*
X53860000Y-118884000D01*
G37*
G36*
X57543000Y-118884000D02*
X55741000Y-118884000D01*
X55741000Y-117082000D01*
X57543000Y-117082000D01*
X57543000Y-118884000D01*
X57543000Y-118884000D01*
G37*
G36*
X66224442Y-115951518D02*
X66290627Y-115958037D01*
X66403853Y-115992384D01*
X66460467Y-116009557D01*
X66519314Y-116041012D01*
X66616991Y-116093222D01*
X66652729Y-116122552D01*
X66754186Y-116205814D01*
X66837448Y-116307271D01*
X66866778Y-116343009D01*
X66866779Y-116343011D01*
X66950443Y-116499533D01*
X66963932Y-116544001D01*
X67001963Y-116669373D01*
X67019359Y-116846000D01*
X67001963Y-117022627D01*
X66983952Y-117082000D01*
X66950443Y-117192467D01*
X66900031Y-117286779D01*
X66866778Y-117348991D01*
X66849172Y-117370444D01*
X66754186Y-117486186D01*
X66652729Y-117569448D01*
X66616991Y-117598778D01*
X66616989Y-117598779D01*
X66460467Y-117682443D01*
X66403853Y-117699616D01*
X66290627Y-117733963D01*
X66224442Y-117740482D01*
X66158260Y-117747000D01*
X66069740Y-117747000D01*
X66003558Y-117740482D01*
X65937373Y-117733963D01*
X65824147Y-117699616D01*
X65767533Y-117682443D01*
X65611011Y-117598779D01*
X65611009Y-117598778D01*
X65575271Y-117569448D01*
X65473814Y-117486186D01*
X65378828Y-117370444D01*
X65361222Y-117348991D01*
X65327969Y-117286779D01*
X65277557Y-117192467D01*
X65244048Y-117082000D01*
X65226037Y-117022627D01*
X65208641Y-116846000D01*
X65226037Y-116669373D01*
X65264068Y-116544001D01*
X65277557Y-116499533D01*
X65361221Y-116343011D01*
X65361222Y-116343009D01*
X65390552Y-116307271D01*
X65473814Y-116205814D01*
X65575271Y-116122552D01*
X65611009Y-116093222D01*
X65708686Y-116041012D01*
X65767533Y-116009557D01*
X65824147Y-115992384D01*
X65937373Y-115958037D01*
X66003558Y-115951518D01*
X66069740Y-115945000D01*
X66158260Y-115945000D01*
X66224442Y-115951518D01*
X66224442Y-115951518D01*
G37*
G36*
X17204443Y-115649520D02*
X17270627Y-115656038D01*
X17383853Y-115690385D01*
X17440467Y-115707558D01*
X17578281Y-115781222D01*
X17596991Y-115791223D01*
X17632729Y-115820553D01*
X17734186Y-115903815D01*
X17817448Y-116005272D01*
X17846778Y-116041010D01*
X17846779Y-116041012D01*
X17930443Y-116197534D01*
X17932955Y-116205815D01*
X17981963Y-116367374D01*
X17999359Y-116544001D01*
X17981963Y-116720628D01*
X17947616Y-116833854D01*
X17930443Y-116890468D01*
X17859803Y-117022625D01*
X17846778Y-117046992D01*
X17818047Y-117082000D01*
X17734186Y-117184187D01*
X17632729Y-117267449D01*
X17596991Y-117296779D01*
X17596989Y-117296780D01*
X17440467Y-117380444D01*
X17383853Y-117397617D01*
X17270627Y-117431964D01*
X17204442Y-117438483D01*
X17138260Y-117445001D01*
X17049740Y-117445001D01*
X16983558Y-117438483D01*
X16917373Y-117431964D01*
X16804147Y-117397617D01*
X16747533Y-117380444D01*
X16591011Y-117296780D01*
X16591009Y-117296779D01*
X16555271Y-117267449D01*
X16453814Y-117184187D01*
X16369953Y-117082000D01*
X16341222Y-117046992D01*
X16328197Y-117022625D01*
X16257557Y-116890468D01*
X16240384Y-116833854D01*
X16206037Y-116720628D01*
X16188641Y-116544001D01*
X16206037Y-116367374D01*
X16255045Y-116205815D01*
X16257557Y-116197534D01*
X16341221Y-116041012D01*
X16341222Y-116041010D01*
X16370552Y-116005272D01*
X16453814Y-115903815D01*
X16555271Y-115820553D01*
X16591009Y-115791223D01*
X16609719Y-115781222D01*
X16747533Y-115707558D01*
X16804147Y-115690385D01*
X16917373Y-115656038D01*
X16983557Y-115649520D01*
X17049740Y-115643001D01*
X17138260Y-115643001D01*
X17204443Y-115649520D01*
X17204443Y-115649520D01*
G37*
G36*
X37448443Y-115639520D02*
X37514627Y-115646038D01*
X37627853Y-115680385D01*
X37684467Y-115697558D01*
X37703175Y-115707558D01*
X37840991Y-115781223D01*
X37876729Y-115810553D01*
X37978186Y-115893815D01*
X38061448Y-115995272D01*
X38090778Y-116031010D01*
X38090779Y-116031012D01*
X38174443Y-116187534D01*
X38179988Y-116205814D01*
X38225963Y-116357374D01*
X38243359Y-116534001D01*
X38225963Y-116710628D01*
X38191616Y-116823854D01*
X38174443Y-116880468D01*
X38100348Y-117019088D01*
X38090778Y-117036992D01*
X38082571Y-117046992D01*
X37978186Y-117174187D01*
X37876729Y-117257449D01*
X37840991Y-117286779D01*
X37840989Y-117286780D01*
X37684467Y-117370444D01*
X37627853Y-117387617D01*
X37514627Y-117421964D01*
X37448443Y-117428482D01*
X37382260Y-117435001D01*
X37293740Y-117435001D01*
X37227557Y-117428482D01*
X37161373Y-117421964D01*
X37048147Y-117387617D01*
X36991533Y-117370444D01*
X36835011Y-117286780D01*
X36835009Y-117286779D01*
X36799271Y-117257449D01*
X36697814Y-117174187D01*
X36593429Y-117046992D01*
X36585222Y-117036992D01*
X36575652Y-117019088D01*
X36501557Y-116880468D01*
X36484384Y-116823854D01*
X36450037Y-116710628D01*
X36432641Y-116534001D01*
X36450037Y-116357374D01*
X36496012Y-116205814D01*
X36501557Y-116187534D01*
X36585221Y-116031012D01*
X36585222Y-116031010D01*
X36614552Y-115995272D01*
X36697814Y-115893815D01*
X36799271Y-115810553D01*
X36835009Y-115781223D01*
X36972825Y-115707558D01*
X36991533Y-115697558D01*
X37048147Y-115680385D01*
X37161373Y-115646038D01*
X37227557Y-115639520D01*
X37293740Y-115633001D01*
X37382260Y-115633001D01*
X37448443Y-115639520D01*
X37448443Y-115639520D01*
G37*
G36*
X53069443Y-114548519D02*
X53135627Y-114555037D01*
X53248853Y-114589384D01*
X53305467Y-114606557D01*
X53391355Y-114652466D01*
X53461991Y-114690222D01*
X53497729Y-114719552D01*
X53599186Y-114802814D01*
X53672348Y-114891964D01*
X53711778Y-114940009D01*
X53711779Y-114940011D01*
X53795443Y-115096533D01*
X53795443Y-115096534D01*
X53846963Y-115266373D01*
X53864359Y-115443000D01*
X53846963Y-115619627D01*
X53823323Y-115697558D01*
X53795443Y-115789467D01*
X53794504Y-115791223D01*
X53711778Y-115945991D01*
X53701892Y-115958037D01*
X53599186Y-116083186D01*
X53497729Y-116166448D01*
X53461991Y-116195778D01*
X53461989Y-116195779D01*
X53305467Y-116279443D01*
X53248853Y-116296616D01*
X53135627Y-116330963D01*
X53069442Y-116337482D01*
X53003260Y-116344000D01*
X52914740Y-116344000D01*
X52848558Y-116337482D01*
X52782373Y-116330963D01*
X52669147Y-116296616D01*
X52612533Y-116279443D01*
X52456011Y-116195779D01*
X52456009Y-116195778D01*
X52420271Y-116166448D01*
X52318814Y-116083186D01*
X52216108Y-115958037D01*
X52206222Y-115945991D01*
X52123496Y-115791223D01*
X52122557Y-115789467D01*
X52094677Y-115697558D01*
X52071037Y-115619627D01*
X52053641Y-115443000D01*
X52071037Y-115266373D01*
X52122557Y-115096534D01*
X52122557Y-115096533D01*
X52206221Y-114940011D01*
X52206222Y-114940009D01*
X52245652Y-114891964D01*
X52318814Y-114802814D01*
X52420271Y-114719552D01*
X52456009Y-114690222D01*
X52526645Y-114652466D01*
X52612533Y-114606557D01*
X52669147Y-114589384D01*
X52782373Y-114555037D01*
X52848557Y-114548519D01*
X52914740Y-114542000D01*
X53003260Y-114542000D01*
X53069443Y-114548519D01*
X53069443Y-114548519D01*
G37*
G36*
X60435443Y-114548519D02*
X60501627Y-114555037D01*
X60614853Y-114589384D01*
X60671467Y-114606557D01*
X60757355Y-114652466D01*
X60827991Y-114690222D01*
X60863729Y-114719552D01*
X60965186Y-114802814D01*
X61038348Y-114891964D01*
X61077778Y-114940009D01*
X61077779Y-114940011D01*
X61161443Y-115096533D01*
X61161443Y-115096534D01*
X61212963Y-115266373D01*
X61230359Y-115443000D01*
X61212963Y-115619627D01*
X61189323Y-115697558D01*
X61161443Y-115789467D01*
X61160504Y-115791223D01*
X61077778Y-115945991D01*
X61067892Y-115958037D01*
X60965186Y-116083186D01*
X60863729Y-116166448D01*
X60827991Y-116195778D01*
X60827989Y-116195779D01*
X60671467Y-116279443D01*
X60614853Y-116296616D01*
X60501627Y-116330963D01*
X60435442Y-116337482D01*
X60369260Y-116344000D01*
X60280740Y-116344000D01*
X60214558Y-116337482D01*
X60148373Y-116330963D01*
X60035147Y-116296616D01*
X59978533Y-116279443D01*
X59822011Y-116195779D01*
X59822009Y-116195778D01*
X59786271Y-116166448D01*
X59684814Y-116083186D01*
X59582108Y-115958037D01*
X59572222Y-115945991D01*
X59489496Y-115791223D01*
X59488557Y-115789467D01*
X59460677Y-115697558D01*
X59437037Y-115619627D01*
X59419641Y-115443000D01*
X59437037Y-115266373D01*
X59488557Y-115096534D01*
X59488557Y-115096533D01*
X59572221Y-114940011D01*
X59572222Y-114940009D01*
X59611652Y-114891964D01*
X59684814Y-114802814D01*
X59786271Y-114719552D01*
X59822009Y-114690222D01*
X59892645Y-114652466D01*
X59978533Y-114606557D01*
X60035147Y-114589384D01*
X60148373Y-114555037D01*
X60214557Y-114548519D01*
X60280740Y-114542000D01*
X60369260Y-114542000D01*
X60435443Y-114548519D01*
X60435443Y-114548519D01*
G37*
G36*
X56752443Y-114548519D02*
X56818627Y-114555037D01*
X56931853Y-114589384D01*
X56988467Y-114606557D01*
X57074355Y-114652466D01*
X57144991Y-114690222D01*
X57180729Y-114719552D01*
X57282186Y-114802814D01*
X57355348Y-114891964D01*
X57394778Y-114940009D01*
X57394779Y-114940011D01*
X57478443Y-115096533D01*
X57478443Y-115096534D01*
X57529963Y-115266373D01*
X57547359Y-115443000D01*
X57529963Y-115619627D01*
X57506323Y-115697558D01*
X57478443Y-115789467D01*
X57477504Y-115791223D01*
X57394778Y-115945991D01*
X57384892Y-115958037D01*
X57282186Y-116083186D01*
X57180729Y-116166448D01*
X57144991Y-116195778D01*
X57144989Y-116195779D01*
X56988467Y-116279443D01*
X56931853Y-116296616D01*
X56818627Y-116330963D01*
X56752442Y-116337482D01*
X56686260Y-116344000D01*
X56597740Y-116344000D01*
X56531558Y-116337482D01*
X56465373Y-116330963D01*
X56352147Y-116296616D01*
X56295533Y-116279443D01*
X56139011Y-116195779D01*
X56139009Y-116195778D01*
X56103271Y-116166448D01*
X56001814Y-116083186D01*
X55899108Y-115958037D01*
X55889222Y-115945991D01*
X55806496Y-115791223D01*
X55805557Y-115789467D01*
X55777677Y-115697558D01*
X55754037Y-115619627D01*
X55736641Y-115443000D01*
X55754037Y-115266373D01*
X55805557Y-115096534D01*
X55805557Y-115096533D01*
X55889221Y-114940011D01*
X55889222Y-114940009D01*
X55928652Y-114891964D01*
X56001814Y-114802814D01*
X56103271Y-114719552D01*
X56139009Y-114690222D01*
X56209645Y-114652466D01*
X56295533Y-114606557D01*
X56352147Y-114589384D01*
X56465373Y-114555037D01*
X56531557Y-114548519D01*
X56597740Y-114542000D01*
X56686260Y-114542000D01*
X56752443Y-114548519D01*
X56752443Y-114548519D01*
G37*
G36*
X66224443Y-113411519D02*
X66290627Y-113418037D01*
X66403853Y-113452384D01*
X66460467Y-113469557D01*
X66519314Y-113501012D01*
X66616991Y-113553222D01*
X66652729Y-113582552D01*
X66754186Y-113665814D01*
X66837448Y-113767271D01*
X66866778Y-113803009D01*
X66866779Y-113803011D01*
X66950443Y-113959533D01*
X66963932Y-114004001D01*
X67001963Y-114129373D01*
X67019359Y-114306000D01*
X67001963Y-114482627D01*
X66967616Y-114595853D01*
X66950443Y-114652467D01*
X66930262Y-114690222D01*
X66866778Y-114808991D01*
X66849172Y-114830444D01*
X66754186Y-114946186D01*
X66652729Y-115029448D01*
X66616991Y-115058778D01*
X66616989Y-115058779D01*
X66460467Y-115142443D01*
X66403853Y-115159616D01*
X66290627Y-115193963D01*
X66224442Y-115200482D01*
X66158260Y-115207000D01*
X66069740Y-115207000D01*
X66003558Y-115200482D01*
X65937373Y-115193963D01*
X65824147Y-115159616D01*
X65767533Y-115142443D01*
X65611011Y-115058779D01*
X65611009Y-115058778D01*
X65575271Y-115029448D01*
X65473814Y-114946186D01*
X65378828Y-114830444D01*
X65361222Y-114808991D01*
X65297738Y-114690222D01*
X65277557Y-114652467D01*
X65260384Y-114595853D01*
X65226037Y-114482627D01*
X65208641Y-114306000D01*
X65226037Y-114129373D01*
X65264068Y-114004001D01*
X65277557Y-113959533D01*
X65361221Y-113803011D01*
X65361222Y-113803009D01*
X65390552Y-113767271D01*
X65473814Y-113665814D01*
X65575271Y-113582552D01*
X65611009Y-113553222D01*
X65708686Y-113501012D01*
X65767533Y-113469557D01*
X65824147Y-113452384D01*
X65937373Y-113418037D01*
X66003557Y-113411519D01*
X66069740Y-113405000D01*
X66158260Y-113405000D01*
X66224443Y-113411519D01*
X66224443Y-113411519D01*
G37*
G36*
X17204442Y-113109519D02*
X17270627Y-113116038D01*
X17383853Y-113150385D01*
X17440467Y-113167558D01*
X17578281Y-113241222D01*
X17596991Y-113251223D01*
X17632729Y-113280553D01*
X17734186Y-113363815D01*
X17817448Y-113465272D01*
X17846778Y-113501010D01*
X17846779Y-113501012D01*
X17930443Y-113657534D01*
X17932955Y-113665815D01*
X17981963Y-113827374D01*
X17999359Y-114004001D01*
X17981963Y-114180628D01*
X17947616Y-114293854D01*
X17930443Y-114350468D01*
X17859803Y-114482625D01*
X17846778Y-114506992D01*
X17818047Y-114542000D01*
X17734186Y-114644187D01*
X17632729Y-114727449D01*
X17596991Y-114756779D01*
X17596989Y-114756780D01*
X17440467Y-114840444D01*
X17383853Y-114857617D01*
X17270627Y-114891964D01*
X17204443Y-114898482D01*
X17138260Y-114905001D01*
X17049740Y-114905001D01*
X16983557Y-114898482D01*
X16917373Y-114891964D01*
X16804147Y-114857617D01*
X16747533Y-114840444D01*
X16591011Y-114756780D01*
X16591009Y-114756779D01*
X16555271Y-114727449D01*
X16453814Y-114644187D01*
X16369953Y-114542000D01*
X16341222Y-114506992D01*
X16328197Y-114482625D01*
X16257557Y-114350468D01*
X16240384Y-114293854D01*
X16206037Y-114180628D01*
X16188641Y-114004001D01*
X16206037Y-113827374D01*
X16255045Y-113665815D01*
X16257557Y-113657534D01*
X16341221Y-113501012D01*
X16341222Y-113501010D01*
X16370552Y-113465272D01*
X16453814Y-113363815D01*
X16555271Y-113280553D01*
X16591009Y-113251223D01*
X16609719Y-113241222D01*
X16747533Y-113167558D01*
X16804147Y-113150385D01*
X16917373Y-113116038D01*
X16983558Y-113109519D01*
X17049740Y-113103001D01*
X17138260Y-113103001D01*
X17204442Y-113109519D01*
X17204442Y-113109519D01*
G37*
G36*
X37448442Y-113099519D02*
X37514627Y-113106038D01*
X37627853Y-113140385D01*
X37684467Y-113157558D01*
X37703175Y-113167558D01*
X37840991Y-113241223D01*
X37876729Y-113270553D01*
X37978186Y-113353815D01*
X38061448Y-113455272D01*
X38090778Y-113491010D01*
X38090779Y-113491012D01*
X38174443Y-113647534D01*
X38179988Y-113665814D01*
X38225963Y-113817374D01*
X38243359Y-113994001D01*
X38225963Y-114170628D01*
X38191616Y-114283854D01*
X38174443Y-114340468D01*
X38100348Y-114479088D01*
X38090778Y-114496992D01*
X38082571Y-114506992D01*
X37978186Y-114634187D01*
X37876729Y-114717449D01*
X37840991Y-114746779D01*
X37840989Y-114746780D01*
X37684467Y-114830444D01*
X37627853Y-114847617D01*
X37514627Y-114881964D01*
X37448442Y-114888483D01*
X37382260Y-114895001D01*
X37293740Y-114895001D01*
X37227558Y-114888483D01*
X37161373Y-114881964D01*
X37048147Y-114847617D01*
X36991533Y-114830444D01*
X36835011Y-114746780D01*
X36835009Y-114746779D01*
X36799271Y-114717449D01*
X36697814Y-114634187D01*
X36593429Y-114506992D01*
X36585222Y-114496992D01*
X36575652Y-114479088D01*
X36501557Y-114340468D01*
X36484384Y-114283854D01*
X36450037Y-114170628D01*
X36432641Y-113994001D01*
X36450037Y-113817374D01*
X36496012Y-113665814D01*
X36501557Y-113647534D01*
X36585221Y-113491012D01*
X36585222Y-113491010D01*
X36614552Y-113455272D01*
X36697814Y-113353815D01*
X36799271Y-113270553D01*
X36835009Y-113241223D01*
X36972825Y-113167558D01*
X36991533Y-113157558D01*
X37048147Y-113140385D01*
X37161373Y-113106038D01*
X37227558Y-113099519D01*
X37293740Y-113093001D01*
X37382260Y-113093001D01*
X37448442Y-113099519D01*
X37448442Y-113099519D01*
G37*
G36*
X67015000Y-112667000D02*
X65213000Y-112667000D01*
X65213000Y-110865000D01*
X67015000Y-110865000D01*
X67015000Y-112667000D01*
X67015000Y-112667000D01*
G37*
G36*
X17204443Y-110569520D02*
X17270627Y-110576038D01*
X17383853Y-110610385D01*
X17440467Y-110627558D01*
X17514842Y-110667313D01*
X17596991Y-110711223D01*
X17632729Y-110740553D01*
X17734186Y-110823815D01*
X17797809Y-110901341D01*
X17846778Y-110961010D01*
X17846779Y-110961012D01*
X17930443Y-111117534D01*
X17930443Y-111117535D01*
X17981963Y-111287374D01*
X17999359Y-111464001D01*
X17981963Y-111640628D01*
X17972197Y-111672821D01*
X17930443Y-111810468D01*
X17856348Y-111949088D01*
X17846778Y-111966992D01*
X17817448Y-112002730D01*
X17734186Y-112104187D01*
X17632729Y-112187449D01*
X17596991Y-112216779D01*
X17596989Y-112216780D01*
X17440467Y-112300444D01*
X17383853Y-112317617D01*
X17270627Y-112351964D01*
X17204443Y-112358482D01*
X17138260Y-112365001D01*
X17049740Y-112365001D01*
X16983557Y-112358482D01*
X16917373Y-112351964D01*
X16804147Y-112317617D01*
X16747533Y-112300444D01*
X16591011Y-112216780D01*
X16591009Y-112216779D01*
X16555271Y-112187449D01*
X16453814Y-112104187D01*
X16370552Y-112002730D01*
X16341222Y-111966992D01*
X16331652Y-111949088D01*
X16257557Y-111810468D01*
X16215803Y-111672821D01*
X16206037Y-111640628D01*
X16188641Y-111464001D01*
X16206037Y-111287374D01*
X16257557Y-111117535D01*
X16257557Y-111117534D01*
X16341221Y-110961012D01*
X16341222Y-110961010D01*
X16390191Y-110901341D01*
X16453814Y-110823815D01*
X16555271Y-110740553D01*
X16591009Y-110711223D01*
X16673158Y-110667313D01*
X16747533Y-110627558D01*
X16804147Y-110610385D01*
X16917373Y-110576038D01*
X16983557Y-110569520D01*
X17049740Y-110563001D01*
X17138260Y-110563001D01*
X17204443Y-110569520D01*
X17204443Y-110569520D01*
G37*
G36*
X53379821Y-110667313D02*
X53379824Y-110667314D01*
X53379825Y-110667314D01*
X53540239Y-110715975D01*
X53540241Y-110715976D01*
X53540244Y-110715977D01*
X53688078Y-110794995D01*
X53817659Y-110901341D01*
X53924005Y-111030922D01*
X54003023Y-111178756D01*
X54051687Y-111339179D01*
X54068117Y-111506000D01*
X54051687Y-111672821D01*
X54051686Y-111672824D01*
X54051686Y-111672825D01*
X54009933Y-111810467D01*
X54003023Y-111833244D01*
X53924005Y-111981078D01*
X53817659Y-112110659D01*
X53688078Y-112217005D01*
X53540244Y-112296023D01*
X53540241Y-112296024D01*
X53540239Y-112296025D01*
X53379825Y-112344686D01*
X53379824Y-112344686D01*
X53379821Y-112344687D01*
X53254804Y-112357000D01*
X53171196Y-112357000D01*
X53046179Y-112344687D01*
X53046176Y-112344686D01*
X53046175Y-112344686D01*
X52885761Y-112296025D01*
X52885759Y-112296024D01*
X52885756Y-112296023D01*
X52737922Y-112217005D01*
X52608341Y-112110659D01*
X52501995Y-111981078D01*
X52422977Y-111833244D01*
X52416068Y-111810467D01*
X52374314Y-111672825D01*
X52374314Y-111672824D01*
X52374313Y-111672821D01*
X52357883Y-111506000D01*
X52374313Y-111339179D01*
X52422977Y-111178756D01*
X52501995Y-111030922D01*
X52608341Y-110901341D01*
X52737922Y-110794995D01*
X52885756Y-110715977D01*
X52885759Y-110715976D01*
X52885761Y-110715975D01*
X53046175Y-110667314D01*
X53046176Y-110667314D01*
X53046179Y-110667313D01*
X53171196Y-110655000D01*
X53254804Y-110655000D01*
X53379821Y-110667313D01*
X53379821Y-110667313D01*
G37*
G36*
X43219821Y-110667313D02*
X43219824Y-110667314D01*
X43219825Y-110667314D01*
X43380239Y-110715975D01*
X43380241Y-110715976D01*
X43380244Y-110715977D01*
X43528078Y-110794995D01*
X43657659Y-110901341D01*
X43764005Y-111030922D01*
X43843023Y-111178756D01*
X43891687Y-111339179D01*
X43908117Y-111506000D01*
X43891687Y-111672821D01*
X43891686Y-111672824D01*
X43891686Y-111672825D01*
X43849933Y-111810467D01*
X43843023Y-111833244D01*
X43764005Y-111981078D01*
X43657659Y-112110659D01*
X43528078Y-112217005D01*
X43380244Y-112296023D01*
X43380241Y-112296024D01*
X43380239Y-112296025D01*
X43219825Y-112344686D01*
X43219824Y-112344686D01*
X43219821Y-112344687D01*
X43094804Y-112357000D01*
X43011196Y-112357000D01*
X42886179Y-112344687D01*
X42886176Y-112344686D01*
X42886175Y-112344686D01*
X42725761Y-112296025D01*
X42725759Y-112296024D01*
X42725756Y-112296023D01*
X42577922Y-112217005D01*
X42448341Y-112110659D01*
X42341995Y-111981078D01*
X42262977Y-111833244D01*
X42256068Y-111810467D01*
X42214314Y-111672825D01*
X42214314Y-111672824D01*
X42214313Y-111672821D01*
X42197883Y-111506000D01*
X42214313Y-111339179D01*
X42262977Y-111178756D01*
X42341995Y-111030922D01*
X42448341Y-110901341D01*
X42577922Y-110794995D01*
X42725756Y-110715977D01*
X42725759Y-110715976D01*
X42725761Y-110715975D01*
X42886175Y-110667314D01*
X42886176Y-110667314D01*
X42886179Y-110667313D01*
X43011196Y-110655000D01*
X43094804Y-110655000D01*
X43219821Y-110667313D01*
X43219821Y-110667313D01*
G37*
G36*
X45759821Y-110667313D02*
X45759824Y-110667314D01*
X45759825Y-110667314D01*
X45920239Y-110715975D01*
X45920241Y-110715976D01*
X45920244Y-110715977D01*
X46068078Y-110794995D01*
X46197659Y-110901341D01*
X46304005Y-111030922D01*
X46383023Y-111178756D01*
X46431687Y-111339179D01*
X46448117Y-111506000D01*
X46431687Y-111672821D01*
X46431686Y-111672824D01*
X46431686Y-111672825D01*
X46389933Y-111810467D01*
X46383023Y-111833244D01*
X46304005Y-111981078D01*
X46197659Y-112110659D01*
X46068078Y-112217005D01*
X45920244Y-112296023D01*
X45920241Y-112296024D01*
X45920239Y-112296025D01*
X45759825Y-112344686D01*
X45759824Y-112344686D01*
X45759821Y-112344687D01*
X45634804Y-112357000D01*
X45551196Y-112357000D01*
X45426179Y-112344687D01*
X45426176Y-112344686D01*
X45426175Y-112344686D01*
X45265761Y-112296025D01*
X45265759Y-112296024D01*
X45265756Y-112296023D01*
X45117922Y-112217005D01*
X44988341Y-112110659D01*
X44881995Y-111981078D01*
X44802977Y-111833244D01*
X44796068Y-111810467D01*
X44754314Y-111672825D01*
X44754314Y-111672824D01*
X44754313Y-111672821D01*
X44737883Y-111506000D01*
X44754313Y-111339179D01*
X44802977Y-111178756D01*
X44881995Y-111030922D01*
X44988341Y-110901341D01*
X45117922Y-110794995D01*
X45265756Y-110715977D01*
X45265759Y-110715976D01*
X45265761Y-110715975D01*
X45426175Y-110667314D01*
X45426176Y-110667314D01*
X45426179Y-110667313D01*
X45551196Y-110655000D01*
X45634804Y-110655000D01*
X45759821Y-110667313D01*
X45759821Y-110667313D01*
G37*
G36*
X48299821Y-110667313D02*
X48299824Y-110667314D01*
X48299825Y-110667314D01*
X48460239Y-110715975D01*
X48460241Y-110715976D01*
X48460244Y-110715977D01*
X48608078Y-110794995D01*
X48737659Y-110901341D01*
X48844005Y-111030922D01*
X48923023Y-111178756D01*
X48971687Y-111339179D01*
X48988117Y-111506000D01*
X48971687Y-111672821D01*
X48971686Y-111672824D01*
X48971686Y-111672825D01*
X48929933Y-111810467D01*
X48923023Y-111833244D01*
X48844005Y-111981078D01*
X48737659Y-112110659D01*
X48608078Y-112217005D01*
X48460244Y-112296023D01*
X48460241Y-112296024D01*
X48460239Y-112296025D01*
X48299825Y-112344686D01*
X48299824Y-112344686D01*
X48299821Y-112344687D01*
X48174804Y-112357000D01*
X48091196Y-112357000D01*
X47966179Y-112344687D01*
X47966176Y-112344686D01*
X47966175Y-112344686D01*
X47805761Y-112296025D01*
X47805759Y-112296024D01*
X47805756Y-112296023D01*
X47657922Y-112217005D01*
X47528341Y-112110659D01*
X47421995Y-111981078D01*
X47342977Y-111833244D01*
X47336068Y-111810467D01*
X47294314Y-111672825D01*
X47294314Y-111672824D01*
X47294313Y-111672821D01*
X47277883Y-111506000D01*
X47294313Y-111339179D01*
X47342977Y-111178756D01*
X47421995Y-111030922D01*
X47528341Y-110901341D01*
X47657922Y-110794995D01*
X47805756Y-110715977D01*
X47805759Y-110715976D01*
X47805761Y-110715975D01*
X47966175Y-110667314D01*
X47966176Y-110667314D01*
X47966179Y-110667313D01*
X48091196Y-110655000D01*
X48174804Y-110655000D01*
X48299821Y-110667313D01*
X48299821Y-110667313D01*
G37*
G36*
X58459821Y-110667313D02*
X58459824Y-110667314D01*
X58459825Y-110667314D01*
X58620239Y-110715975D01*
X58620241Y-110715976D01*
X58620244Y-110715977D01*
X58768078Y-110794995D01*
X58897659Y-110901341D01*
X59004005Y-111030922D01*
X59083023Y-111178756D01*
X59131687Y-111339179D01*
X59148117Y-111506000D01*
X59131687Y-111672821D01*
X59131686Y-111672824D01*
X59131686Y-111672825D01*
X59089933Y-111810467D01*
X59083023Y-111833244D01*
X59004005Y-111981078D01*
X58897659Y-112110659D01*
X58768078Y-112217005D01*
X58620244Y-112296023D01*
X58620241Y-112296024D01*
X58620239Y-112296025D01*
X58459825Y-112344686D01*
X58459824Y-112344686D01*
X58459821Y-112344687D01*
X58334804Y-112357000D01*
X58251196Y-112357000D01*
X58126179Y-112344687D01*
X58126176Y-112344686D01*
X58126175Y-112344686D01*
X57965761Y-112296025D01*
X57965759Y-112296024D01*
X57965756Y-112296023D01*
X57817922Y-112217005D01*
X57688341Y-112110659D01*
X57581995Y-111981078D01*
X57502977Y-111833244D01*
X57496068Y-111810467D01*
X57454314Y-111672825D01*
X57454314Y-111672824D01*
X57454313Y-111672821D01*
X57437883Y-111506000D01*
X57454313Y-111339179D01*
X57502977Y-111178756D01*
X57581995Y-111030922D01*
X57688341Y-110901341D01*
X57817922Y-110794995D01*
X57965756Y-110715977D01*
X57965759Y-110715976D01*
X57965761Y-110715975D01*
X58126175Y-110667314D01*
X58126176Y-110667314D01*
X58126179Y-110667313D01*
X58251196Y-110655000D01*
X58334804Y-110655000D01*
X58459821Y-110667313D01*
X58459821Y-110667313D01*
G37*
G36*
X50839821Y-110667313D02*
X50839824Y-110667314D01*
X50839825Y-110667314D01*
X51000239Y-110715975D01*
X51000241Y-110715976D01*
X51000244Y-110715977D01*
X51148078Y-110794995D01*
X51277659Y-110901341D01*
X51384005Y-111030922D01*
X51463023Y-111178756D01*
X51511687Y-111339179D01*
X51528117Y-111506000D01*
X51511687Y-111672821D01*
X51511686Y-111672824D01*
X51511686Y-111672825D01*
X51469933Y-111810467D01*
X51463023Y-111833244D01*
X51384005Y-111981078D01*
X51277659Y-112110659D01*
X51148078Y-112217005D01*
X51000244Y-112296023D01*
X51000241Y-112296024D01*
X51000239Y-112296025D01*
X50839825Y-112344686D01*
X50839824Y-112344686D01*
X50839821Y-112344687D01*
X50714804Y-112357000D01*
X50631196Y-112357000D01*
X50506179Y-112344687D01*
X50506176Y-112344686D01*
X50506175Y-112344686D01*
X50345761Y-112296025D01*
X50345759Y-112296024D01*
X50345756Y-112296023D01*
X50197922Y-112217005D01*
X50068341Y-112110659D01*
X49961995Y-111981078D01*
X49882977Y-111833244D01*
X49876068Y-111810467D01*
X49834314Y-111672825D01*
X49834314Y-111672824D01*
X49834313Y-111672821D01*
X49817883Y-111506000D01*
X49834313Y-111339179D01*
X49882977Y-111178756D01*
X49961995Y-111030922D01*
X50068341Y-110901341D01*
X50197922Y-110794995D01*
X50345756Y-110715977D01*
X50345759Y-110715976D01*
X50345761Y-110715975D01*
X50506175Y-110667314D01*
X50506176Y-110667314D01*
X50506179Y-110667313D01*
X50631196Y-110655000D01*
X50714804Y-110655000D01*
X50839821Y-110667313D01*
X50839821Y-110667313D01*
G37*
G36*
X61684000Y-112357000D02*
X59982000Y-112357000D01*
X59982000Y-110655000D01*
X61684000Y-110655000D01*
X61684000Y-112357000D01*
X61684000Y-112357000D01*
G37*
G36*
X55919821Y-110667313D02*
X55919824Y-110667314D01*
X55919825Y-110667314D01*
X56080239Y-110715975D01*
X56080241Y-110715976D01*
X56080244Y-110715977D01*
X56228078Y-110794995D01*
X56357659Y-110901341D01*
X56464005Y-111030922D01*
X56543023Y-111178756D01*
X56591687Y-111339179D01*
X56608117Y-111506000D01*
X56591687Y-111672821D01*
X56591686Y-111672824D01*
X56591686Y-111672825D01*
X56549933Y-111810467D01*
X56543023Y-111833244D01*
X56464005Y-111981078D01*
X56357659Y-112110659D01*
X56228078Y-112217005D01*
X56080244Y-112296023D01*
X56080241Y-112296024D01*
X56080239Y-112296025D01*
X55919825Y-112344686D01*
X55919824Y-112344686D01*
X55919821Y-112344687D01*
X55794804Y-112357000D01*
X55711196Y-112357000D01*
X55586179Y-112344687D01*
X55586176Y-112344686D01*
X55586175Y-112344686D01*
X55425761Y-112296025D01*
X55425759Y-112296024D01*
X55425756Y-112296023D01*
X55277922Y-112217005D01*
X55148341Y-112110659D01*
X55041995Y-111981078D01*
X54962977Y-111833244D01*
X54956068Y-111810467D01*
X54914314Y-111672825D01*
X54914314Y-111672824D01*
X54914313Y-111672821D01*
X54897883Y-111506000D01*
X54914313Y-111339179D01*
X54962977Y-111178756D01*
X55041995Y-111030922D01*
X55148341Y-110901341D01*
X55277922Y-110794995D01*
X55425756Y-110715977D01*
X55425759Y-110715976D01*
X55425761Y-110715975D01*
X55586175Y-110667314D01*
X55586176Y-110667314D01*
X55586179Y-110667313D01*
X55711196Y-110655000D01*
X55794804Y-110655000D01*
X55919821Y-110667313D01*
X55919821Y-110667313D01*
G37*
G36*
X37448443Y-110559520D02*
X37514627Y-110566038D01*
X37627853Y-110600385D01*
X37684467Y-110617558D01*
X37823087Y-110691653D01*
X37840991Y-110701223D01*
X37876729Y-110730553D01*
X37978186Y-110813815D01*
X38061448Y-110915272D01*
X38090778Y-110951010D01*
X38090779Y-110951012D01*
X38174443Y-111107534D01*
X38191616Y-111164148D01*
X38225963Y-111277374D01*
X38243359Y-111454001D01*
X38225963Y-111630628D01*
X38191616Y-111743854D01*
X38174443Y-111800468D01*
X38100348Y-111939088D01*
X38090778Y-111956992D01*
X38082571Y-111966992D01*
X37978186Y-112094187D01*
X37876729Y-112177449D01*
X37840991Y-112206779D01*
X37840989Y-112206780D01*
X37684467Y-112290444D01*
X37627853Y-112307617D01*
X37514627Y-112341964D01*
X37448442Y-112348483D01*
X37382260Y-112355001D01*
X37293740Y-112355001D01*
X37227558Y-112348483D01*
X37161373Y-112341964D01*
X37048147Y-112307617D01*
X36991533Y-112290444D01*
X36835011Y-112206780D01*
X36835009Y-112206779D01*
X36799271Y-112177449D01*
X36697814Y-112094187D01*
X36593429Y-111966992D01*
X36585222Y-111956992D01*
X36575652Y-111939088D01*
X36501557Y-111800468D01*
X36484384Y-111743854D01*
X36450037Y-111630628D01*
X36432641Y-111454001D01*
X36450037Y-111277374D01*
X36484384Y-111164148D01*
X36501557Y-111107534D01*
X36585221Y-110951012D01*
X36585222Y-110951010D01*
X36614552Y-110915272D01*
X36697814Y-110813815D01*
X36799271Y-110730553D01*
X36835009Y-110701223D01*
X36852913Y-110691653D01*
X36991533Y-110617558D01*
X37048147Y-110600385D01*
X37161373Y-110566038D01*
X37227557Y-110559520D01*
X37293740Y-110553001D01*
X37382260Y-110553001D01*
X37448443Y-110559520D01*
X37448443Y-110559520D01*
G37*
G36*
X17204442Y-108029519D02*
X17270627Y-108036038D01*
X17383853Y-108070385D01*
X17440467Y-108087558D01*
X17578281Y-108161222D01*
X17596991Y-108171223D01*
X17599959Y-108173659D01*
X17734186Y-108283815D01*
X17795908Y-108359025D01*
X17846778Y-108421010D01*
X17846779Y-108421012D01*
X17930443Y-108577534D01*
X17930443Y-108577535D01*
X17981963Y-108747374D01*
X17999359Y-108924001D01*
X17981963Y-109100628D01*
X17947616Y-109213854D01*
X17930443Y-109270468D01*
X17856348Y-109409088D01*
X17846778Y-109426992D01*
X17817448Y-109462730D01*
X17734186Y-109564187D01*
X17632729Y-109647449D01*
X17596991Y-109676779D01*
X17596989Y-109676780D01*
X17440467Y-109760444D01*
X17383853Y-109777617D01*
X17270627Y-109811964D01*
X17204442Y-109818483D01*
X17138260Y-109825001D01*
X17049740Y-109825001D01*
X16983558Y-109818483D01*
X16917373Y-109811964D01*
X16804147Y-109777617D01*
X16747533Y-109760444D01*
X16591011Y-109676780D01*
X16591009Y-109676779D01*
X16555271Y-109647449D01*
X16453814Y-109564187D01*
X16370552Y-109462730D01*
X16341222Y-109426992D01*
X16331652Y-109409088D01*
X16257557Y-109270468D01*
X16240384Y-109213854D01*
X16206037Y-109100628D01*
X16188641Y-108924001D01*
X16206037Y-108747374D01*
X16257557Y-108577535D01*
X16257557Y-108577534D01*
X16341221Y-108421012D01*
X16341222Y-108421010D01*
X16392092Y-108359025D01*
X16453814Y-108283815D01*
X16588041Y-108173659D01*
X16591009Y-108171223D01*
X16609719Y-108161222D01*
X16747533Y-108087558D01*
X16804147Y-108070385D01*
X16917373Y-108036038D01*
X16983558Y-108029519D01*
X17049740Y-108023001D01*
X17138260Y-108023001D01*
X17204442Y-108029519D01*
X17204442Y-108029519D01*
G37*
G36*
X37448443Y-108019520D02*
X37514627Y-108026038D01*
X37627853Y-108060385D01*
X37684467Y-108077558D01*
X37703175Y-108087558D01*
X37840991Y-108161223D01*
X37856144Y-108173659D01*
X37978186Y-108273815D01*
X38048113Y-108359023D01*
X38090778Y-108411010D01*
X38090779Y-108411012D01*
X38174443Y-108567534D01*
X38191616Y-108624148D01*
X38225963Y-108737374D01*
X38243359Y-108914001D01*
X38225963Y-109090628D01*
X38191616Y-109203854D01*
X38174443Y-109260468D01*
X38100348Y-109399088D01*
X38090778Y-109416992D01*
X38082571Y-109426992D01*
X37978186Y-109554187D01*
X37876729Y-109637449D01*
X37840991Y-109666779D01*
X37840989Y-109666780D01*
X37684467Y-109750444D01*
X37627853Y-109767617D01*
X37514627Y-109801964D01*
X37448443Y-109808482D01*
X37382260Y-109815001D01*
X37293740Y-109815001D01*
X37227557Y-109808482D01*
X37161373Y-109801964D01*
X37048147Y-109767617D01*
X36991533Y-109750444D01*
X36835011Y-109666780D01*
X36835009Y-109666779D01*
X36799271Y-109637449D01*
X36697814Y-109554187D01*
X36593429Y-109426992D01*
X36585222Y-109416992D01*
X36575652Y-109399088D01*
X36501557Y-109260468D01*
X36484384Y-109203854D01*
X36450037Y-109090628D01*
X36432641Y-108914001D01*
X36450037Y-108737374D01*
X36484384Y-108624148D01*
X36501557Y-108567534D01*
X36585221Y-108411012D01*
X36585222Y-108411010D01*
X36627887Y-108359023D01*
X36697814Y-108273815D01*
X36819856Y-108173659D01*
X36835009Y-108161223D01*
X36972825Y-108087558D01*
X36991533Y-108077558D01*
X37048147Y-108060385D01*
X37161373Y-108026038D01*
X37227557Y-108019520D01*
X37293740Y-108013001D01*
X37382260Y-108013001D01*
X37448443Y-108019520D01*
X37448443Y-108019520D01*
G37*
G36*
X43219821Y-106730313D02*
X43219824Y-106730314D01*
X43219825Y-106730314D01*
X43380239Y-106778975D01*
X43380241Y-106778976D01*
X43380244Y-106778977D01*
X43528078Y-106857995D01*
X43657659Y-106964341D01*
X43764005Y-107093922D01*
X43843023Y-107241756D01*
X43843024Y-107241759D01*
X43843025Y-107241761D01*
X43891686Y-107402175D01*
X43891687Y-107402179D01*
X43908117Y-107569000D01*
X43891687Y-107735821D01*
X43843023Y-107896244D01*
X43764005Y-108044078D01*
X43657659Y-108173659D01*
X43528078Y-108280005D01*
X43380244Y-108359023D01*
X43380241Y-108359024D01*
X43380239Y-108359025D01*
X43219825Y-108407686D01*
X43219824Y-108407686D01*
X43219821Y-108407687D01*
X43094804Y-108420000D01*
X43011196Y-108420000D01*
X42886179Y-108407687D01*
X42886176Y-108407686D01*
X42886175Y-108407686D01*
X42725761Y-108359025D01*
X42725759Y-108359024D01*
X42725756Y-108359023D01*
X42577922Y-108280005D01*
X42448341Y-108173659D01*
X42341995Y-108044078D01*
X42262977Y-107896244D01*
X42214313Y-107735821D01*
X42197883Y-107569000D01*
X42214313Y-107402179D01*
X42214314Y-107402175D01*
X42262975Y-107241761D01*
X42262976Y-107241759D01*
X42262977Y-107241756D01*
X42341995Y-107093922D01*
X42448341Y-106964341D01*
X42577922Y-106857995D01*
X42725756Y-106778977D01*
X42725759Y-106778976D01*
X42725761Y-106778975D01*
X42886175Y-106730314D01*
X42886176Y-106730314D01*
X42886179Y-106730313D01*
X43011196Y-106718000D01*
X43094804Y-106718000D01*
X43219821Y-106730313D01*
X43219821Y-106730313D01*
G37*
G36*
X48299821Y-106730313D02*
X48299824Y-106730314D01*
X48299825Y-106730314D01*
X48460239Y-106778975D01*
X48460241Y-106778976D01*
X48460244Y-106778977D01*
X48608078Y-106857995D01*
X48737659Y-106964341D01*
X48844005Y-107093922D01*
X48923023Y-107241756D01*
X48923024Y-107241759D01*
X48923025Y-107241761D01*
X48971686Y-107402175D01*
X48971687Y-107402179D01*
X48988117Y-107569000D01*
X48971687Y-107735821D01*
X48923023Y-107896244D01*
X48844005Y-108044078D01*
X48737659Y-108173659D01*
X48608078Y-108280005D01*
X48460244Y-108359023D01*
X48460241Y-108359024D01*
X48460239Y-108359025D01*
X48299825Y-108407686D01*
X48299824Y-108407686D01*
X48299821Y-108407687D01*
X48174804Y-108420000D01*
X48091196Y-108420000D01*
X47966179Y-108407687D01*
X47966176Y-108407686D01*
X47966175Y-108407686D01*
X47805761Y-108359025D01*
X47805759Y-108359024D01*
X47805756Y-108359023D01*
X47657922Y-108280005D01*
X47528341Y-108173659D01*
X47421995Y-108044078D01*
X47342977Y-107896244D01*
X47294313Y-107735821D01*
X47277883Y-107569000D01*
X47294313Y-107402179D01*
X47294314Y-107402175D01*
X47342975Y-107241761D01*
X47342976Y-107241759D01*
X47342977Y-107241756D01*
X47421995Y-107093922D01*
X47528341Y-106964341D01*
X47657922Y-106857995D01*
X47805756Y-106778977D01*
X47805759Y-106778976D01*
X47805761Y-106778975D01*
X47966175Y-106730314D01*
X47966176Y-106730314D01*
X47966179Y-106730313D01*
X48091196Y-106718000D01*
X48174804Y-106718000D01*
X48299821Y-106730313D01*
X48299821Y-106730313D01*
G37*
G36*
X50839821Y-106730313D02*
X50839824Y-106730314D01*
X50839825Y-106730314D01*
X51000239Y-106778975D01*
X51000241Y-106778976D01*
X51000244Y-106778977D01*
X51148078Y-106857995D01*
X51277659Y-106964341D01*
X51384005Y-107093922D01*
X51463023Y-107241756D01*
X51463024Y-107241759D01*
X51463025Y-107241761D01*
X51511686Y-107402175D01*
X51511687Y-107402179D01*
X51528117Y-107569000D01*
X51511687Y-107735821D01*
X51463023Y-107896244D01*
X51384005Y-108044078D01*
X51277659Y-108173659D01*
X51148078Y-108280005D01*
X51000244Y-108359023D01*
X51000241Y-108359024D01*
X51000239Y-108359025D01*
X50839825Y-108407686D01*
X50839824Y-108407686D01*
X50839821Y-108407687D01*
X50714804Y-108420000D01*
X50631196Y-108420000D01*
X50506179Y-108407687D01*
X50506176Y-108407686D01*
X50506175Y-108407686D01*
X50345761Y-108359025D01*
X50345759Y-108359024D01*
X50345756Y-108359023D01*
X50197922Y-108280005D01*
X50068341Y-108173659D01*
X49961995Y-108044078D01*
X49882977Y-107896244D01*
X49834313Y-107735821D01*
X49817883Y-107569000D01*
X49834313Y-107402179D01*
X49834314Y-107402175D01*
X49882975Y-107241761D01*
X49882976Y-107241759D01*
X49882977Y-107241756D01*
X49961995Y-107093922D01*
X50068341Y-106964341D01*
X50197922Y-106857995D01*
X50345756Y-106778977D01*
X50345759Y-106778976D01*
X50345761Y-106778975D01*
X50506175Y-106730314D01*
X50506176Y-106730314D01*
X50506179Y-106730313D01*
X50631196Y-106718000D01*
X50714804Y-106718000D01*
X50839821Y-106730313D01*
X50839821Y-106730313D01*
G37*
G36*
X53379821Y-106730313D02*
X53379824Y-106730314D01*
X53379825Y-106730314D01*
X53540239Y-106778975D01*
X53540241Y-106778976D01*
X53540244Y-106778977D01*
X53688078Y-106857995D01*
X53817659Y-106964341D01*
X53924005Y-107093922D01*
X54003023Y-107241756D01*
X54003024Y-107241759D01*
X54003025Y-107241761D01*
X54051686Y-107402175D01*
X54051687Y-107402179D01*
X54068117Y-107569000D01*
X54051687Y-107735821D01*
X54003023Y-107896244D01*
X53924005Y-108044078D01*
X53817659Y-108173659D01*
X53688078Y-108280005D01*
X53540244Y-108359023D01*
X53540241Y-108359024D01*
X53540239Y-108359025D01*
X53379825Y-108407686D01*
X53379824Y-108407686D01*
X53379821Y-108407687D01*
X53254804Y-108420000D01*
X53171196Y-108420000D01*
X53046179Y-108407687D01*
X53046176Y-108407686D01*
X53046175Y-108407686D01*
X52885761Y-108359025D01*
X52885759Y-108359024D01*
X52885756Y-108359023D01*
X52737922Y-108280005D01*
X52608341Y-108173659D01*
X52501995Y-108044078D01*
X52422977Y-107896244D01*
X52374313Y-107735821D01*
X52357883Y-107569000D01*
X52374313Y-107402179D01*
X52374314Y-107402175D01*
X52422975Y-107241761D01*
X52422976Y-107241759D01*
X52422977Y-107241756D01*
X52501995Y-107093922D01*
X52608341Y-106964341D01*
X52737922Y-106857995D01*
X52885756Y-106778977D01*
X52885759Y-106778976D01*
X52885761Y-106778975D01*
X53046175Y-106730314D01*
X53046176Y-106730314D01*
X53046179Y-106730313D01*
X53171196Y-106718000D01*
X53254804Y-106718000D01*
X53379821Y-106730313D01*
X53379821Y-106730313D01*
G37*
G36*
X58459821Y-106730313D02*
X58459824Y-106730314D01*
X58459825Y-106730314D01*
X58620239Y-106778975D01*
X58620241Y-106778976D01*
X58620244Y-106778977D01*
X58768078Y-106857995D01*
X58897659Y-106964341D01*
X59004005Y-107093922D01*
X59083023Y-107241756D01*
X59083024Y-107241759D01*
X59083025Y-107241761D01*
X59131686Y-107402175D01*
X59131687Y-107402179D01*
X59148117Y-107569000D01*
X59131687Y-107735821D01*
X59083023Y-107896244D01*
X59004005Y-108044078D01*
X58897659Y-108173659D01*
X58768078Y-108280005D01*
X58620244Y-108359023D01*
X58620241Y-108359024D01*
X58620239Y-108359025D01*
X58459825Y-108407686D01*
X58459824Y-108407686D01*
X58459821Y-108407687D01*
X58334804Y-108420000D01*
X58251196Y-108420000D01*
X58126179Y-108407687D01*
X58126176Y-108407686D01*
X58126175Y-108407686D01*
X57965761Y-108359025D01*
X57965759Y-108359024D01*
X57965756Y-108359023D01*
X57817922Y-108280005D01*
X57688341Y-108173659D01*
X57581995Y-108044078D01*
X57502977Y-107896244D01*
X57454313Y-107735821D01*
X57437883Y-107569000D01*
X57454313Y-107402179D01*
X57454314Y-107402175D01*
X57502975Y-107241761D01*
X57502976Y-107241759D01*
X57502977Y-107241756D01*
X57581995Y-107093922D01*
X57688341Y-106964341D01*
X57817922Y-106857995D01*
X57965756Y-106778977D01*
X57965759Y-106778976D01*
X57965761Y-106778975D01*
X58126175Y-106730314D01*
X58126176Y-106730314D01*
X58126179Y-106730313D01*
X58251196Y-106718000D01*
X58334804Y-106718000D01*
X58459821Y-106730313D01*
X58459821Y-106730313D01*
G37*
G36*
X55919821Y-106730313D02*
X55919824Y-106730314D01*
X55919825Y-106730314D01*
X56080239Y-106778975D01*
X56080241Y-106778976D01*
X56080244Y-106778977D01*
X56228078Y-106857995D01*
X56357659Y-106964341D01*
X56464005Y-107093922D01*
X56543023Y-107241756D01*
X56543024Y-107241759D01*
X56543025Y-107241761D01*
X56591686Y-107402175D01*
X56591687Y-107402179D01*
X56608117Y-107569000D01*
X56591687Y-107735821D01*
X56543023Y-107896244D01*
X56464005Y-108044078D01*
X56357659Y-108173659D01*
X56228078Y-108280005D01*
X56080244Y-108359023D01*
X56080241Y-108359024D01*
X56080239Y-108359025D01*
X55919825Y-108407686D01*
X55919824Y-108407686D01*
X55919821Y-108407687D01*
X55794804Y-108420000D01*
X55711196Y-108420000D01*
X55586179Y-108407687D01*
X55586176Y-108407686D01*
X55586175Y-108407686D01*
X55425761Y-108359025D01*
X55425759Y-108359024D01*
X55425756Y-108359023D01*
X55277922Y-108280005D01*
X55148341Y-108173659D01*
X55041995Y-108044078D01*
X54962977Y-107896244D01*
X54914313Y-107735821D01*
X54897883Y-107569000D01*
X54914313Y-107402179D01*
X54914314Y-107402175D01*
X54962975Y-107241761D01*
X54962976Y-107241759D01*
X54962977Y-107241756D01*
X55041995Y-107093922D01*
X55148341Y-106964341D01*
X55277922Y-106857995D01*
X55425756Y-106778977D01*
X55425759Y-106778976D01*
X55425761Y-106778975D01*
X55586175Y-106730314D01*
X55586176Y-106730314D01*
X55586179Y-106730313D01*
X55711196Y-106718000D01*
X55794804Y-106718000D01*
X55919821Y-106730313D01*
X55919821Y-106730313D01*
G37*
G36*
X45759821Y-106730313D02*
X45759824Y-106730314D01*
X45759825Y-106730314D01*
X45920239Y-106778975D01*
X45920241Y-106778976D01*
X45920244Y-106778977D01*
X46068078Y-106857995D01*
X46197659Y-106964341D01*
X46304005Y-107093922D01*
X46383023Y-107241756D01*
X46383024Y-107241759D01*
X46383025Y-107241761D01*
X46431686Y-107402175D01*
X46431687Y-107402179D01*
X46448117Y-107569000D01*
X46431687Y-107735821D01*
X46383023Y-107896244D01*
X46304005Y-108044078D01*
X46197659Y-108173659D01*
X46068078Y-108280005D01*
X45920244Y-108359023D01*
X45920241Y-108359024D01*
X45920239Y-108359025D01*
X45759825Y-108407686D01*
X45759824Y-108407686D01*
X45759821Y-108407687D01*
X45634804Y-108420000D01*
X45551196Y-108420000D01*
X45426179Y-108407687D01*
X45426176Y-108407686D01*
X45426175Y-108407686D01*
X45265761Y-108359025D01*
X45265759Y-108359024D01*
X45265756Y-108359023D01*
X45117922Y-108280005D01*
X44988341Y-108173659D01*
X44881995Y-108044078D01*
X44802977Y-107896244D01*
X44754313Y-107735821D01*
X44737883Y-107569000D01*
X44754313Y-107402179D01*
X44754314Y-107402175D01*
X44802975Y-107241761D01*
X44802976Y-107241759D01*
X44802977Y-107241756D01*
X44881995Y-107093922D01*
X44988341Y-106964341D01*
X45117922Y-106857995D01*
X45265756Y-106778977D01*
X45265759Y-106778976D01*
X45265761Y-106778975D01*
X45426175Y-106730314D01*
X45426176Y-106730314D01*
X45426179Y-106730313D01*
X45551196Y-106718000D01*
X45634804Y-106718000D01*
X45759821Y-106730313D01*
X45759821Y-106730313D01*
G37*
G36*
X60999821Y-106730313D02*
X60999824Y-106730314D01*
X60999825Y-106730314D01*
X61160239Y-106778975D01*
X61160241Y-106778976D01*
X61160244Y-106778977D01*
X61308078Y-106857995D01*
X61437659Y-106964341D01*
X61544005Y-107093922D01*
X61623023Y-107241756D01*
X61623024Y-107241759D01*
X61623025Y-107241761D01*
X61671686Y-107402175D01*
X61671687Y-107402179D01*
X61688117Y-107569000D01*
X61671687Y-107735821D01*
X61623023Y-107896244D01*
X61544005Y-108044078D01*
X61437659Y-108173659D01*
X61308078Y-108280005D01*
X61160244Y-108359023D01*
X61160241Y-108359024D01*
X61160239Y-108359025D01*
X60999825Y-108407686D01*
X60999824Y-108407686D01*
X60999821Y-108407687D01*
X60874804Y-108420000D01*
X60791196Y-108420000D01*
X60666179Y-108407687D01*
X60666176Y-108407686D01*
X60666175Y-108407686D01*
X60505761Y-108359025D01*
X60505759Y-108359024D01*
X60505756Y-108359023D01*
X60357922Y-108280005D01*
X60228341Y-108173659D01*
X60121995Y-108044078D01*
X60042977Y-107896244D01*
X59994313Y-107735821D01*
X59977883Y-107569000D01*
X59994313Y-107402179D01*
X59994314Y-107402175D01*
X60042975Y-107241761D01*
X60042976Y-107241759D01*
X60042977Y-107241756D01*
X60121995Y-107093922D01*
X60228341Y-106964341D01*
X60357922Y-106857995D01*
X60505756Y-106778977D01*
X60505759Y-106778976D01*
X60505761Y-106778975D01*
X60666175Y-106730314D01*
X60666176Y-106730314D01*
X60666179Y-106730313D01*
X60791196Y-106718000D01*
X60874804Y-106718000D01*
X60999821Y-106730313D01*
X60999821Y-106730313D01*
G37*
G36*
X17204442Y-105489519D02*
X17270627Y-105496038D01*
X17383853Y-105530385D01*
X17440467Y-105547558D01*
X17578281Y-105621222D01*
X17596991Y-105631223D01*
X17632729Y-105660553D01*
X17734186Y-105743815D01*
X17817448Y-105845272D01*
X17846778Y-105881010D01*
X17846779Y-105881012D01*
X17930443Y-106037534D01*
X17930443Y-106037535D01*
X17981963Y-106207374D01*
X17999359Y-106384001D01*
X17981963Y-106560628D01*
X17947616Y-106673854D01*
X17930443Y-106730468D01*
X17904515Y-106778975D01*
X17846778Y-106886992D01*
X17817448Y-106922730D01*
X17734186Y-107024187D01*
X17649212Y-107093922D01*
X17596991Y-107136779D01*
X17596989Y-107136780D01*
X17440467Y-107220444D01*
X17383853Y-107237617D01*
X17270627Y-107271964D01*
X17204442Y-107278483D01*
X17138260Y-107285001D01*
X17049740Y-107285001D01*
X16983558Y-107278483D01*
X16917373Y-107271964D01*
X16804147Y-107237617D01*
X16747533Y-107220444D01*
X16591011Y-107136780D01*
X16591009Y-107136779D01*
X16538788Y-107093922D01*
X16453814Y-107024187D01*
X16370552Y-106922730D01*
X16341222Y-106886992D01*
X16283485Y-106778975D01*
X16257557Y-106730468D01*
X16240384Y-106673854D01*
X16206037Y-106560628D01*
X16188641Y-106384001D01*
X16206037Y-106207374D01*
X16257557Y-106037535D01*
X16257557Y-106037534D01*
X16341221Y-105881012D01*
X16341222Y-105881010D01*
X16370552Y-105845272D01*
X16453814Y-105743815D01*
X16555271Y-105660553D01*
X16591009Y-105631223D01*
X16609719Y-105621222D01*
X16747533Y-105547558D01*
X16804147Y-105530385D01*
X16917373Y-105496038D01*
X16983558Y-105489519D01*
X17049740Y-105483001D01*
X17138260Y-105483001D01*
X17204442Y-105489519D01*
X17204442Y-105489519D01*
G37*
G36*
X37448442Y-105479519D02*
X37514627Y-105486038D01*
X37627853Y-105520385D01*
X37684467Y-105537558D01*
X37703175Y-105547558D01*
X37840991Y-105621223D01*
X37876729Y-105650553D01*
X37978186Y-105733815D01*
X38061448Y-105835272D01*
X38090778Y-105871010D01*
X38090779Y-105871012D01*
X38174443Y-106027534D01*
X38191616Y-106084148D01*
X38225963Y-106197374D01*
X38243359Y-106374001D01*
X38225963Y-106550628D01*
X38191616Y-106663854D01*
X38174443Y-106720468D01*
X38143170Y-106778975D01*
X38090778Y-106876992D01*
X38082571Y-106886992D01*
X37978186Y-107014187D01*
X37881027Y-107093922D01*
X37840991Y-107126779D01*
X37840989Y-107126780D01*
X37684467Y-107210444D01*
X37627853Y-107227617D01*
X37514627Y-107261964D01*
X37448443Y-107268482D01*
X37382260Y-107275001D01*
X37293740Y-107275001D01*
X37227557Y-107268482D01*
X37161373Y-107261964D01*
X37048147Y-107227617D01*
X36991533Y-107210444D01*
X36835011Y-107126780D01*
X36835009Y-107126779D01*
X36794973Y-107093922D01*
X36697814Y-107014187D01*
X36593429Y-106886992D01*
X36585222Y-106876992D01*
X36532830Y-106778975D01*
X36501557Y-106720468D01*
X36484384Y-106663854D01*
X36450037Y-106550628D01*
X36432641Y-106374001D01*
X36450037Y-106197374D01*
X36484384Y-106084148D01*
X36501557Y-106027534D01*
X36585221Y-105871012D01*
X36585222Y-105871010D01*
X36614552Y-105835272D01*
X36697814Y-105733815D01*
X36799271Y-105650553D01*
X36835009Y-105621223D01*
X36972825Y-105547558D01*
X36991533Y-105537558D01*
X37048147Y-105520385D01*
X37161373Y-105486038D01*
X37227557Y-105479520D01*
X37293740Y-105473001D01*
X37382260Y-105473001D01*
X37448442Y-105479519D01*
X37448442Y-105479519D01*
G37*
G36*
X17204442Y-102949519D02*
X17270627Y-102956038D01*
X17383853Y-102990385D01*
X17440467Y-103007558D01*
X17578281Y-103081222D01*
X17596991Y-103091223D01*
X17632729Y-103120553D01*
X17734186Y-103203815D01*
X17807815Y-103293534D01*
X17846778Y-103341010D01*
X17846779Y-103341012D01*
X17930443Y-103497534D01*
X17930443Y-103497535D01*
X17981963Y-103667374D01*
X17999359Y-103844001D01*
X17981963Y-104020628D01*
X17947616Y-104133854D01*
X17930443Y-104190468D01*
X17882487Y-104280186D01*
X17846778Y-104346992D01*
X17817448Y-104382730D01*
X17734186Y-104484187D01*
X17632729Y-104567449D01*
X17596991Y-104596779D01*
X17596989Y-104596780D01*
X17440467Y-104680444D01*
X17383853Y-104697617D01*
X17270627Y-104731964D01*
X17204443Y-104738482D01*
X17138260Y-104745001D01*
X17049740Y-104745001D01*
X16983558Y-104738483D01*
X16917373Y-104731964D01*
X16804147Y-104697617D01*
X16747533Y-104680444D01*
X16591011Y-104596780D01*
X16591009Y-104596779D01*
X16555271Y-104567449D01*
X16453814Y-104484187D01*
X16370552Y-104382730D01*
X16341222Y-104346992D01*
X16305513Y-104280186D01*
X16257557Y-104190468D01*
X16240384Y-104133854D01*
X16206037Y-104020628D01*
X16188641Y-103844001D01*
X16206037Y-103667374D01*
X16257557Y-103497535D01*
X16257557Y-103497534D01*
X16341221Y-103341012D01*
X16341222Y-103341010D01*
X16380185Y-103293534D01*
X16453814Y-103203815D01*
X16555271Y-103120553D01*
X16591009Y-103091223D01*
X16609719Y-103081222D01*
X16747533Y-103007558D01*
X16804147Y-102990385D01*
X16917373Y-102956038D01*
X16983558Y-102949519D01*
X17049740Y-102943001D01*
X17138260Y-102943001D01*
X17204442Y-102949519D01*
X17204442Y-102949519D01*
G37*
G36*
X37448443Y-102939520D02*
X37514627Y-102946038D01*
X37627853Y-102980385D01*
X37684467Y-102997558D01*
X37688689Y-102999815D01*
X37840991Y-103081223D01*
X37876729Y-103110553D01*
X37978186Y-103193815D01*
X38060021Y-103293533D01*
X38090778Y-103331010D01*
X38090779Y-103331012D01*
X38174443Y-103487534D01*
X38191616Y-103544148D01*
X38225963Y-103657374D01*
X38243359Y-103834001D01*
X38225963Y-104010628D01*
X38191616Y-104123854D01*
X38174443Y-104180468D01*
X38121142Y-104280185D01*
X38090778Y-104336992D01*
X38082571Y-104346992D01*
X37978186Y-104474187D01*
X37876729Y-104557449D01*
X37840991Y-104586779D01*
X37840989Y-104586780D01*
X37684467Y-104670444D01*
X37627853Y-104687617D01*
X37514627Y-104721964D01*
X37448443Y-104728482D01*
X37382260Y-104735001D01*
X37293740Y-104735001D01*
X37227557Y-104728482D01*
X37161373Y-104721964D01*
X37048147Y-104687617D01*
X36991533Y-104670444D01*
X36835011Y-104586780D01*
X36835009Y-104586779D01*
X36799271Y-104557449D01*
X36697814Y-104474187D01*
X36593429Y-104346992D01*
X36585222Y-104336992D01*
X36554858Y-104280185D01*
X36501557Y-104180468D01*
X36484384Y-104123854D01*
X36450037Y-104010628D01*
X36432641Y-103834001D01*
X36450037Y-103657374D01*
X36484384Y-103544148D01*
X36501557Y-103487534D01*
X36585221Y-103331012D01*
X36585222Y-103331010D01*
X36615979Y-103293533D01*
X36697814Y-103193815D01*
X36799271Y-103110553D01*
X36835009Y-103081223D01*
X36987311Y-102999815D01*
X36991533Y-102997558D01*
X37048147Y-102980385D01*
X37161373Y-102946038D01*
X37227557Y-102939520D01*
X37293740Y-102933001D01*
X37382260Y-102933001D01*
X37448443Y-102939520D01*
X37448443Y-102939520D01*
G37*
G36*
X66404442Y-102745518D02*
X66470627Y-102752037D01*
X66583853Y-102786384D01*
X66640467Y-102803557D01*
X66779087Y-102877652D01*
X66796991Y-102887222D01*
X66832729Y-102916552D01*
X66934186Y-102999814D01*
X67009201Y-103091222D01*
X67046778Y-103137009D01*
X67046779Y-103137011D01*
X67130443Y-103293533D01*
X67130443Y-103293534D01*
X67181963Y-103463373D01*
X67199359Y-103640000D01*
X67181963Y-103816627D01*
X67173659Y-103844001D01*
X67130443Y-103986467D01*
X67117528Y-104010628D01*
X67046778Y-104142991D01*
X67017448Y-104178729D01*
X66934186Y-104280186D01*
X66852781Y-104346992D01*
X66796991Y-104392778D01*
X66796989Y-104392779D01*
X66640467Y-104476443D01*
X66583853Y-104493616D01*
X66470627Y-104527963D01*
X66404442Y-104534482D01*
X66338260Y-104541000D01*
X66249740Y-104541000D01*
X66183558Y-104534482D01*
X66117373Y-104527963D01*
X66004147Y-104493616D01*
X65947533Y-104476443D01*
X65791011Y-104392779D01*
X65791009Y-104392778D01*
X65735219Y-104346992D01*
X65653814Y-104280186D01*
X65570552Y-104178729D01*
X65541222Y-104142991D01*
X65470472Y-104010628D01*
X65457557Y-103986467D01*
X65414341Y-103844001D01*
X65406037Y-103816627D01*
X65388641Y-103640000D01*
X65406037Y-103463373D01*
X65457557Y-103293534D01*
X65457557Y-103293533D01*
X65541221Y-103137011D01*
X65541222Y-103137009D01*
X65578799Y-103091222D01*
X65653814Y-102999814D01*
X65755271Y-102916552D01*
X65791009Y-102887222D01*
X65808913Y-102877652D01*
X65947533Y-102803557D01*
X66004147Y-102786384D01*
X66117373Y-102752037D01*
X66183557Y-102745519D01*
X66249740Y-102739000D01*
X66338260Y-102739000D01*
X66404442Y-102745518D01*
X66404442Y-102745518D01*
G37*
G36*
X17204442Y-100409519D02*
X17270627Y-100416038D01*
X17383853Y-100450385D01*
X17440467Y-100467558D01*
X17578281Y-100541222D01*
X17596991Y-100551223D01*
X17632729Y-100580553D01*
X17734186Y-100663815D01*
X17807815Y-100753534D01*
X17846778Y-100801010D01*
X17846779Y-100801012D01*
X17930443Y-100957534D01*
X17930443Y-100957535D01*
X17981963Y-101127374D01*
X17999359Y-101304001D01*
X17981963Y-101480628D01*
X17947616Y-101593854D01*
X17930443Y-101650468D01*
X17882487Y-101740186D01*
X17846778Y-101806992D01*
X17817448Y-101842730D01*
X17734186Y-101944187D01*
X17632729Y-102027449D01*
X17596991Y-102056779D01*
X17596989Y-102056780D01*
X17440467Y-102140444D01*
X17383853Y-102157617D01*
X17270627Y-102191964D01*
X17204442Y-102198483D01*
X17138260Y-102205001D01*
X17049740Y-102205001D01*
X16983558Y-102198483D01*
X16917373Y-102191964D01*
X16804147Y-102157617D01*
X16747533Y-102140444D01*
X16591011Y-102056780D01*
X16591009Y-102056779D01*
X16555271Y-102027449D01*
X16453814Y-101944187D01*
X16370552Y-101842730D01*
X16341222Y-101806992D01*
X16305513Y-101740186D01*
X16257557Y-101650468D01*
X16240384Y-101593854D01*
X16206037Y-101480628D01*
X16188641Y-101304001D01*
X16206037Y-101127374D01*
X16257557Y-100957535D01*
X16257557Y-100957534D01*
X16341221Y-100801012D01*
X16341222Y-100801010D01*
X16380185Y-100753534D01*
X16453814Y-100663815D01*
X16555271Y-100580553D01*
X16591009Y-100551223D01*
X16609719Y-100541222D01*
X16747533Y-100467558D01*
X16804147Y-100450385D01*
X16917373Y-100416038D01*
X16983558Y-100409519D01*
X17049740Y-100403001D01*
X17138260Y-100403001D01*
X17204442Y-100409519D01*
X17204442Y-100409519D01*
G37*
G36*
X37448442Y-100399519D02*
X37514627Y-100406038D01*
X37627853Y-100440385D01*
X37684467Y-100457558D01*
X37688689Y-100459815D01*
X37840991Y-100541223D01*
X37876729Y-100570553D01*
X37978186Y-100653815D01*
X38060021Y-100753533D01*
X38090778Y-100791010D01*
X38090779Y-100791012D01*
X38174443Y-100947534D01*
X38191616Y-101004148D01*
X38225963Y-101117374D01*
X38243359Y-101294001D01*
X38225963Y-101470628D01*
X38191616Y-101583854D01*
X38174443Y-101640468D01*
X38121142Y-101740185D01*
X38090778Y-101796992D01*
X38082571Y-101806992D01*
X37978186Y-101934187D01*
X37876729Y-102017449D01*
X37840991Y-102046779D01*
X37840989Y-102046780D01*
X37684467Y-102130444D01*
X37627853Y-102147617D01*
X37514627Y-102181964D01*
X37448443Y-102188482D01*
X37382260Y-102195001D01*
X37293740Y-102195001D01*
X37227557Y-102188482D01*
X37161373Y-102181964D01*
X37048147Y-102147617D01*
X36991533Y-102130444D01*
X36835011Y-102046780D01*
X36835009Y-102046779D01*
X36799271Y-102017449D01*
X36697814Y-101934187D01*
X36593429Y-101806992D01*
X36585222Y-101796992D01*
X36554858Y-101740185D01*
X36501557Y-101640468D01*
X36484384Y-101583854D01*
X36450037Y-101470628D01*
X36432641Y-101294001D01*
X36450037Y-101117374D01*
X36484384Y-101004148D01*
X36501557Y-100947534D01*
X36585221Y-100791012D01*
X36585222Y-100791010D01*
X36615979Y-100753533D01*
X36697814Y-100653815D01*
X36799271Y-100570553D01*
X36835009Y-100541223D01*
X36987311Y-100459815D01*
X36991533Y-100457558D01*
X37048147Y-100440385D01*
X37161373Y-100406038D01*
X37227558Y-100399519D01*
X37293740Y-100393001D01*
X37382260Y-100393001D01*
X37448442Y-100399519D01*
X37448442Y-100399519D01*
G37*
G36*
X53860000Y-102120000D02*
X52058000Y-102120000D01*
X52058000Y-100318000D01*
X53860000Y-100318000D01*
X53860000Y-102120000D01*
X53860000Y-102120000D01*
G37*
G36*
X61226000Y-102120000D02*
X59424000Y-102120000D01*
X59424000Y-100318000D01*
X61226000Y-100318000D01*
X61226000Y-102120000D01*
X61226000Y-102120000D01*
G37*
G36*
X57543000Y-102120000D02*
X55741000Y-102120000D01*
X55741000Y-100318000D01*
X57543000Y-100318000D01*
X57543000Y-102120000D01*
X57543000Y-102120000D01*
G37*
G36*
X66404442Y-100205518D02*
X66470627Y-100212037D01*
X66583853Y-100246384D01*
X66640467Y-100263557D01*
X66742321Y-100318000D01*
X66796991Y-100347222D01*
X66832729Y-100376552D01*
X66934186Y-100459814D01*
X67009201Y-100551222D01*
X67046778Y-100597009D01*
X67046779Y-100597011D01*
X67130443Y-100753533D01*
X67130443Y-100753534D01*
X67181963Y-100923373D01*
X67199359Y-101100000D01*
X67181963Y-101276627D01*
X67173659Y-101304001D01*
X67130443Y-101446467D01*
X67117528Y-101470628D01*
X67046778Y-101602991D01*
X67017448Y-101638729D01*
X66934186Y-101740186D01*
X66852781Y-101806992D01*
X66796991Y-101852778D01*
X66796989Y-101852779D01*
X66640467Y-101936443D01*
X66583853Y-101953616D01*
X66470627Y-101987963D01*
X66404442Y-101994482D01*
X66338260Y-102001000D01*
X66249740Y-102001000D01*
X66183558Y-101994482D01*
X66117373Y-101987963D01*
X66004147Y-101953616D01*
X65947533Y-101936443D01*
X65791011Y-101852779D01*
X65791009Y-101852778D01*
X65735219Y-101806992D01*
X65653814Y-101740186D01*
X65570552Y-101638729D01*
X65541222Y-101602991D01*
X65470472Y-101470628D01*
X65457557Y-101446467D01*
X65414341Y-101304001D01*
X65406037Y-101276627D01*
X65388641Y-101100000D01*
X65406037Y-100923373D01*
X65457557Y-100753534D01*
X65457557Y-100753533D01*
X65541221Y-100597011D01*
X65541222Y-100597009D01*
X65578799Y-100551222D01*
X65653814Y-100459814D01*
X65755271Y-100376552D01*
X65791009Y-100347222D01*
X65845679Y-100318000D01*
X65947533Y-100263557D01*
X66004147Y-100246384D01*
X66117373Y-100212037D01*
X66183558Y-100205518D01*
X66249740Y-100199000D01*
X66338260Y-100199000D01*
X66404442Y-100205518D01*
X66404442Y-100205518D01*
G37*
G36*
X17204442Y-97869519D02*
X17270627Y-97876038D01*
X17383853Y-97910385D01*
X17440467Y-97927558D01*
X17492826Y-97955545D01*
X17596991Y-98011223D01*
X17630610Y-98038814D01*
X17734186Y-98123815D01*
X17807815Y-98213534D01*
X17846778Y-98261010D01*
X17846779Y-98261012D01*
X17930443Y-98417534D01*
X17930443Y-98417535D01*
X17981963Y-98587374D01*
X17999359Y-98764001D01*
X17981963Y-98940628D01*
X17956228Y-99025466D01*
X17930443Y-99110468D01*
X17882487Y-99200186D01*
X17846778Y-99266992D01*
X17817448Y-99302730D01*
X17734186Y-99404187D01*
X17632729Y-99487449D01*
X17596991Y-99516779D01*
X17596989Y-99516780D01*
X17440467Y-99600444D01*
X17383853Y-99617617D01*
X17270627Y-99651964D01*
X17204443Y-99658482D01*
X17138260Y-99665001D01*
X17049740Y-99665001D01*
X16983557Y-99658482D01*
X16917373Y-99651964D01*
X16804147Y-99617617D01*
X16747533Y-99600444D01*
X16591011Y-99516780D01*
X16591009Y-99516779D01*
X16555271Y-99487449D01*
X16453814Y-99404187D01*
X16370552Y-99302730D01*
X16341222Y-99266992D01*
X16305513Y-99200186D01*
X16257557Y-99110468D01*
X16231772Y-99025466D01*
X16206037Y-98940628D01*
X16188641Y-98764001D01*
X16206037Y-98587374D01*
X16257557Y-98417535D01*
X16257557Y-98417534D01*
X16341221Y-98261012D01*
X16341222Y-98261010D01*
X16380185Y-98213534D01*
X16453814Y-98123815D01*
X16557390Y-98038814D01*
X16591009Y-98011223D01*
X16695174Y-97955545D01*
X16747533Y-97927558D01*
X16804147Y-97910385D01*
X16917373Y-97876038D01*
X16983558Y-97869519D01*
X17049740Y-97863001D01*
X17138260Y-97863001D01*
X17204442Y-97869519D01*
X17204442Y-97869519D01*
G37*
G36*
X37600812Y-97887625D02*
X37764784Y-97955545D01*
X37912354Y-98054148D01*
X38037853Y-98179647D01*
X38136456Y-98327217D01*
X38204376Y-98491189D01*
X38239000Y-98665260D01*
X38239000Y-98842742D01*
X38204376Y-99016813D01*
X38136456Y-99180785D01*
X38037853Y-99328355D01*
X37912354Y-99453854D01*
X37764784Y-99552457D01*
X37600812Y-99620377D01*
X37426741Y-99655001D01*
X37249259Y-99655001D01*
X37075188Y-99620377D01*
X36911216Y-99552457D01*
X36763646Y-99453854D01*
X36638147Y-99328355D01*
X36539544Y-99180785D01*
X36471624Y-99016813D01*
X36437000Y-98842742D01*
X36437000Y-98665260D01*
X36471624Y-98491189D01*
X36539544Y-98327217D01*
X36638147Y-98179647D01*
X36763646Y-98054148D01*
X36911216Y-97955545D01*
X37075188Y-97887625D01*
X37249259Y-97853001D01*
X37426741Y-97853001D01*
X37600812Y-97887625D01*
X37600812Y-97887625D01*
G37*
G36*
X56752442Y-97784518D02*
X56818627Y-97791037D01*
X56931853Y-97825384D01*
X56988467Y-97842557D01*
X57072782Y-97887625D01*
X57144991Y-97926222D01*
X57180721Y-97955545D01*
X57282186Y-98038814D01*
X57351943Y-98123815D01*
X57394778Y-98176009D01*
X57394779Y-98176011D01*
X57478443Y-98332533D01*
X57478443Y-98332534D01*
X57529963Y-98502373D01*
X57547359Y-98679000D01*
X57529963Y-98855627D01*
X57514541Y-98906466D01*
X57478443Y-99025467D01*
X57433009Y-99110467D01*
X57394778Y-99181991D01*
X57365448Y-99217729D01*
X57282186Y-99319186D01*
X57188047Y-99396443D01*
X57144991Y-99431778D01*
X57144989Y-99431779D01*
X56988467Y-99515443D01*
X56931853Y-99532616D01*
X56818627Y-99566963D01*
X56752442Y-99573482D01*
X56686260Y-99580000D01*
X56597740Y-99580000D01*
X56531558Y-99573482D01*
X56465373Y-99566963D01*
X56352147Y-99532616D01*
X56295533Y-99515443D01*
X56139011Y-99431779D01*
X56139009Y-99431778D01*
X56095953Y-99396443D01*
X56001814Y-99319186D01*
X55918552Y-99217729D01*
X55889222Y-99181991D01*
X55850991Y-99110467D01*
X55805557Y-99025467D01*
X55769459Y-98906466D01*
X55754037Y-98855627D01*
X55736641Y-98679000D01*
X55754037Y-98502373D01*
X55805557Y-98332534D01*
X55805557Y-98332533D01*
X55889221Y-98176011D01*
X55889222Y-98176009D01*
X55932057Y-98123815D01*
X56001814Y-98038814D01*
X56103279Y-97955545D01*
X56139009Y-97926222D01*
X56211218Y-97887625D01*
X56295533Y-97842557D01*
X56352147Y-97825384D01*
X56465373Y-97791037D01*
X56531558Y-97784518D01*
X56597740Y-97778000D01*
X56686260Y-97778000D01*
X56752442Y-97784518D01*
X56752442Y-97784518D01*
G37*
G36*
X60435442Y-97784518D02*
X60501627Y-97791037D01*
X60614853Y-97825384D01*
X60671467Y-97842557D01*
X60755782Y-97887625D01*
X60827991Y-97926222D01*
X60863721Y-97955545D01*
X60965186Y-98038814D01*
X61034943Y-98123815D01*
X61077778Y-98176009D01*
X61077779Y-98176011D01*
X61161443Y-98332533D01*
X61161443Y-98332534D01*
X61212963Y-98502373D01*
X61230359Y-98679000D01*
X61212963Y-98855627D01*
X61197541Y-98906466D01*
X61161443Y-99025467D01*
X61116009Y-99110467D01*
X61077778Y-99181991D01*
X61048448Y-99217729D01*
X60965186Y-99319186D01*
X60871047Y-99396443D01*
X60827991Y-99431778D01*
X60827989Y-99431779D01*
X60671467Y-99515443D01*
X60614853Y-99532616D01*
X60501627Y-99566963D01*
X60435442Y-99573482D01*
X60369260Y-99580000D01*
X60280740Y-99580000D01*
X60214558Y-99573482D01*
X60148373Y-99566963D01*
X60035147Y-99532616D01*
X59978533Y-99515443D01*
X59822011Y-99431779D01*
X59822009Y-99431778D01*
X59778953Y-99396443D01*
X59684814Y-99319186D01*
X59601552Y-99217729D01*
X59572222Y-99181991D01*
X59533991Y-99110467D01*
X59488557Y-99025467D01*
X59452459Y-98906466D01*
X59437037Y-98855627D01*
X59419641Y-98679000D01*
X59437037Y-98502373D01*
X59488557Y-98332534D01*
X59488557Y-98332533D01*
X59572221Y-98176011D01*
X59572222Y-98176009D01*
X59615057Y-98123815D01*
X59684814Y-98038814D01*
X59786279Y-97955545D01*
X59822009Y-97926222D01*
X59894218Y-97887625D01*
X59978533Y-97842557D01*
X60035147Y-97825384D01*
X60148373Y-97791037D01*
X60214558Y-97784518D01*
X60280740Y-97778000D01*
X60369260Y-97778000D01*
X60435442Y-97784518D01*
X60435442Y-97784518D01*
G37*
G36*
X53069442Y-97784518D02*
X53135627Y-97791037D01*
X53248853Y-97825384D01*
X53305467Y-97842557D01*
X53389782Y-97887625D01*
X53461991Y-97926222D01*
X53497721Y-97955545D01*
X53599186Y-98038814D01*
X53668943Y-98123815D01*
X53711778Y-98176009D01*
X53711779Y-98176011D01*
X53795443Y-98332533D01*
X53795443Y-98332534D01*
X53846963Y-98502373D01*
X53864359Y-98679000D01*
X53846963Y-98855627D01*
X53831541Y-98906466D01*
X53795443Y-99025467D01*
X53750009Y-99110467D01*
X53711778Y-99181991D01*
X53682448Y-99217729D01*
X53599186Y-99319186D01*
X53505047Y-99396443D01*
X53461991Y-99431778D01*
X53461989Y-99431779D01*
X53305467Y-99515443D01*
X53248853Y-99532616D01*
X53135627Y-99566963D01*
X53069442Y-99573482D01*
X53003260Y-99580000D01*
X52914740Y-99580000D01*
X52848558Y-99573482D01*
X52782373Y-99566963D01*
X52669147Y-99532616D01*
X52612533Y-99515443D01*
X52456011Y-99431779D01*
X52456009Y-99431778D01*
X52412953Y-99396443D01*
X52318814Y-99319186D01*
X52235552Y-99217729D01*
X52206222Y-99181991D01*
X52167991Y-99110467D01*
X52122557Y-99025467D01*
X52086459Y-98906466D01*
X52071037Y-98855627D01*
X52053641Y-98679000D01*
X52071037Y-98502373D01*
X52122557Y-98332534D01*
X52122557Y-98332533D01*
X52206221Y-98176011D01*
X52206222Y-98176009D01*
X52249057Y-98123815D01*
X52318814Y-98038814D01*
X52420279Y-97955545D01*
X52456009Y-97926222D01*
X52528218Y-97887625D01*
X52612533Y-97842557D01*
X52669147Y-97825384D01*
X52782373Y-97791037D01*
X52848558Y-97784518D01*
X52914740Y-97778000D01*
X53003260Y-97778000D01*
X53069442Y-97784518D01*
X53069442Y-97784518D01*
G37*
G36*
X66404443Y-97665519D02*
X66470627Y-97672037D01*
X66583853Y-97706384D01*
X66640467Y-97723557D01*
X66742321Y-97778000D01*
X66796991Y-97807222D01*
X66832729Y-97836552D01*
X66934186Y-97919814D01*
X67009201Y-98011222D01*
X67046778Y-98057009D01*
X67046779Y-98057011D01*
X67130443Y-98213533D01*
X67130443Y-98213534D01*
X67181963Y-98383373D01*
X67199359Y-98560000D01*
X67181963Y-98736627D01*
X67173659Y-98764001D01*
X67130443Y-98906467D01*
X67112184Y-98940626D01*
X67046778Y-99062991D01*
X67017448Y-99098729D01*
X66934186Y-99200186D01*
X66852781Y-99266992D01*
X66796991Y-99312778D01*
X66796989Y-99312779D01*
X66640467Y-99396443D01*
X66583853Y-99413616D01*
X66470627Y-99447963D01*
X66410844Y-99453851D01*
X66338260Y-99461000D01*
X66249740Y-99461000D01*
X66177156Y-99453851D01*
X66117373Y-99447963D01*
X66004147Y-99413616D01*
X65947533Y-99396443D01*
X65791011Y-99312779D01*
X65791009Y-99312778D01*
X65735219Y-99266992D01*
X65653814Y-99200186D01*
X65570552Y-99098729D01*
X65541222Y-99062991D01*
X65475816Y-98940626D01*
X65457557Y-98906467D01*
X65414341Y-98764001D01*
X65406037Y-98736627D01*
X65388641Y-98560000D01*
X65406037Y-98383373D01*
X65457557Y-98213534D01*
X65457557Y-98213533D01*
X65541221Y-98057011D01*
X65541222Y-98057009D01*
X65578799Y-98011222D01*
X65653814Y-97919814D01*
X65755271Y-97836552D01*
X65791009Y-97807222D01*
X65845679Y-97778000D01*
X65947533Y-97723557D01*
X66004147Y-97706384D01*
X66117373Y-97672037D01*
X66183557Y-97665519D01*
X66249740Y-97659000D01*
X66338260Y-97659000D01*
X66404443Y-97665519D01*
X66404443Y-97665519D01*
G37*
G36*
X17204443Y-95329520D02*
X17270627Y-95336038D01*
X17383853Y-95370385D01*
X17440467Y-95387558D01*
X17492826Y-95415545D01*
X17596991Y-95471223D01*
X17599959Y-95473659D01*
X17734186Y-95583815D01*
X17795908Y-95659025D01*
X17846778Y-95721010D01*
X17846779Y-95721012D01*
X17930443Y-95877534D01*
X17930443Y-95877535D01*
X17981963Y-96047374D01*
X17999359Y-96224001D01*
X17981963Y-96400628D01*
X17947616Y-96513854D01*
X17930443Y-96570468D01*
X17892858Y-96640783D01*
X17846778Y-96726992D01*
X17817448Y-96762730D01*
X17734186Y-96864187D01*
X17632729Y-96947449D01*
X17596991Y-96976779D01*
X17596989Y-96976780D01*
X17440467Y-97060444D01*
X17383853Y-97077617D01*
X17270627Y-97111964D01*
X17204443Y-97118482D01*
X17138260Y-97125001D01*
X17049740Y-97125001D01*
X16983557Y-97118482D01*
X16917373Y-97111964D01*
X16804147Y-97077617D01*
X16747533Y-97060444D01*
X16591011Y-96976780D01*
X16591009Y-96976779D01*
X16555271Y-96947449D01*
X16453814Y-96864187D01*
X16370552Y-96762730D01*
X16341222Y-96726992D01*
X16295142Y-96640783D01*
X16257557Y-96570468D01*
X16240384Y-96513854D01*
X16206037Y-96400628D01*
X16188641Y-96224001D01*
X16206037Y-96047374D01*
X16257557Y-95877535D01*
X16257557Y-95877534D01*
X16341221Y-95721012D01*
X16341222Y-95721010D01*
X16392092Y-95659025D01*
X16453814Y-95583815D01*
X16588041Y-95473659D01*
X16591009Y-95471223D01*
X16695174Y-95415545D01*
X16747533Y-95387558D01*
X16804147Y-95370385D01*
X16917373Y-95336038D01*
X16983557Y-95329520D01*
X17049740Y-95323001D01*
X17138260Y-95323001D01*
X17204443Y-95329520D01*
X17204443Y-95329520D01*
G37*
G36*
X37600812Y-95347625D02*
X37764784Y-95415545D01*
X37912354Y-95514148D01*
X38037853Y-95639647D01*
X38136456Y-95787217D01*
X38204376Y-95951189D01*
X38239000Y-96125260D01*
X38239000Y-96302742D01*
X38204376Y-96476813D01*
X38136456Y-96640785D01*
X38037853Y-96788355D01*
X37912354Y-96913854D01*
X37764784Y-97012457D01*
X37600812Y-97080377D01*
X37426741Y-97115001D01*
X37249259Y-97115001D01*
X37075188Y-97080377D01*
X36911216Y-97012457D01*
X36763646Y-96913854D01*
X36638147Y-96788355D01*
X36539544Y-96640785D01*
X36471624Y-96476813D01*
X36437000Y-96302742D01*
X36437000Y-96125260D01*
X36471624Y-95951189D01*
X36539544Y-95787217D01*
X36638147Y-95639647D01*
X36763646Y-95514148D01*
X36911216Y-95415545D01*
X37075188Y-95347625D01*
X37249259Y-95313001D01*
X37426741Y-95313001D01*
X37600812Y-95347625D01*
X37600812Y-95347625D01*
G37*
G36*
X67195000Y-96921000D02*
X65393000Y-96921000D01*
X65393000Y-95119000D01*
X67195000Y-95119000D01*
X67195000Y-96921000D01*
X67195000Y-96921000D01*
G37*
G36*
X45759821Y-94030313D02*
X45759824Y-94030314D01*
X45759825Y-94030314D01*
X45920239Y-94078975D01*
X45920241Y-94078976D01*
X45920244Y-94078977D01*
X46068078Y-94157995D01*
X46197659Y-94264341D01*
X46304005Y-94393922D01*
X46383023Y-94541756D01*
X46383024Y-94541759D01*
X46383025Y-94541761D01*
X46431686Y-94702175D01*
X46431687Y-94702179D01*
X46448117Y-94869000D01*
X46431687Y-95035821D01*
X46383023Y-95196244D01*
X46304005Y-95344078D01*
X46197659Y-95473659D01*
X46068078Y-95580005D01*
X45920244Y-95659023D01*
X45920241Y-95659024D01*
X45920239Y-95659025D01*
X45759825Y-95707686D01*
X45759824Y-95707686D01*
X45759821Y-95707687D01*
X45634804Y-95720000D01*
X45551196Y-95720000D01*
X45426179Y-95707687D01*
X45426176Y-95707686D01*
X45426175Y-95707686D01*
X45265761Y-95659025D01*
X45265759Y-95659024D01*
X45265756Y-95659023D01*
X45117922Y-95580005D01*
X44988341Y-95473659D01*
X44881995Y-95344078D01*
X44802977Y-95196244D01*
X44754313Y-95035821D01*
X44737883Y-94869000D01*
X44754313Y-94702179D01*
X44754314Y-94702175D01*
X44802975Y-94541761D01*
X44802976Y-94541759D01*
X44802977Y-94541756D01*
X44881995Y-94393922D01*
X44988341Y-94264341D01*
X45117922Y-94157995D01*
X45265756Y-94078977D01*
X45265759Y-94078976D01*
X45265761Y-94078975D01*
X45426175Y-94030314D01*
X45426176Y-94030314D01*
X45426179Y-94030313D01*
X45551196Y-94018000D01*
X45634804Y-94018000D01*
X45759821Y-94030313D01*
X45759821Y-94030313D01*
G37*
G36*
X61684000Y-95720000D02*
X59982000Y-95720000D01*
X59982000Y-94018000D01*
X61684000Y-94018000D01*
X61684000Y-95720000D01*
X61684000Y-95720000D01*
G37*
G36*
X43219821Y-94030313D02*
X43219824Y-94030314D01*
X43219825Y-94030314D01*
X43380239Y-94078975D01*
X43380241Y-94078976D01*
X43380244Y-94078977D01*
X43528078Y-94157995D01*
X43657659Y-94264341D01*
X43764005Y-94393922D01*
X43843023Y-94541756D01*
X43843024Y-94541759D01*
X43843025Y-94541761D01*
X43891686Y-94702175D01*
X43891687Y-94702179D01*
X43908117Y-94869000D01*
X43891687Y-95035821D01*
X43843023Y-95196244D01*
X43764005Y-95344078D01*
X43657659Y-95473659D01*
X43528078Y-95580005D01*
X43380244Y-95659023D01*
X43380241Y-95659024D01*
X43380239Y-95659025D01*
X43219825Y-95707686D01*
X43219824Y-95707686D01*
X43219821Y-95707687D01*
X43094804Y-95720000D01*
X43011196Y-95720000D01*
X42886179Y-95707687D01*
X42886176Y-95707686D01*
X42886175Y-95707686D01*
X42725761Y-95659025D01*
X42725759Y-95659024D01*
X42725756Y-95659023D01*
X42577922Y-95580005D01*
X42448341Y-95473659D01*
X42341995Y-95344078D01*
X42262977Y-95196244D01*
X42214313Y-95035821D01*
X42197883Y-94869000D01*
X42214313Y-94702179D01*
X42214314Y-94702175D01*
X42262975Y-94541761D01*
X42262976Y-94541759D01*
X42262977Y-94541756D01*
X42341995Y-94393922D01*
X42448341Y-94264341D01*
X42577922Y-94157995D01*
X42725756Y-94078977D01*
X42725759Y-94078976D01*
X42725761Y-94078975D01*
X42886175Y-94030314D01*
X42886176Y-94030314D01*
X42886179Y-94030313D01*
X43011196Y-94018000D01*
X43094804Y-94018000D01*
X43219821Y-94030313D01*
X43219821Y-94030313D01*
G37*
G36*
X58459821Y-94030313D02*
X58459824Y-94030314D01*
X58459825Y-94030314D01*
X58620239Y-94078975D01*
X58620241Y-94078976D01*
X58620244Y-94078977D01*
X58768078Y-94157995D01*
X58897659Y-94264341D01*
X59004005Y-94393922D01*
X59083023Y-94541756D01*
X59083024Y-94541759D01*
X59083025Y-94541761D01*
X59131686Y-94702175D01*
X59131687Y-94702179D01*
X59148117Y-94869000D01*
X59131687Y-95035821D01*
X59083023Y-95196244D01*
X59004005Y-95344078D01*
X58897659Y-95473659D01*
X58768078Y-95580005D01*
X58620244Y-95659023D01*
X58620241Y-95659024D01*
X58620239Y-95659025D01*
X58459825Y-95707686D01*
X58459824Y-95707686D01*
X58459821Y-95707687D01*
X58334804Y-95720000D01*
X58251196Y-95720000D01*
X58126179Y-95707687D01*
X58126176Y-95707686D01*
X58126175Y-95707686D01*
X57965761Y-95659025D01*
X57965759Y-95659024D01*
X57965756Y-95659023D01*
X57817922Y-95580005D01*
X57688341Y-95473659D01*
X57581995Y-95344078D01*
X57502977Y-95196244D01*
X57454313Y-95035821D01*
X57437883Y-94869000D01*
X57454313Y-94702179D01*
X57454314Y-94702175D01*
X57502975Y-94541761D01*
X57502976Y-94541759D01*
X57502977Y-94541756D01*
X57581995Y-94393922D01*
X57688341Y-94264341D01*
X57817922Y-94157995D01*
X57965756Y-94078977D01*
X57965759Y-94078976D01*
X57965761Y-94078975D01*
X58126175Y-94030314D01*
X58126176Y-94030314D01*
X58126179Y-94030313D01*
X58251196Y-94018000D01*
X58334804Y-94018000D01*
X58459821Y-94030313D01*
X58459821Y-94030313D01*
G37*
G36*
X48299821Y-94030313D02*
X48299824Y-94030314D01*
X48299825Y-94030314D01*
X48460239Y-94078975D01*
X48460241Y-94078976D01*
X48460244Y-94078977D01*
X48608078Y-94157995D01*
X48737659Y-94264341D01*
X48844005Y-94393922D01*
X48923023Y-94541756D01*
X48923024Y-94541759D01*
X48923025Y-94541761D01*
X48971686Y-94702175D01*
X48971687Y-94702179D01*
X48988117Y-94869000D01*
X48971687Y-95035821D01*
X48923023Y-95196244D01*
X48844005Y-95344078D01*
X48737659Y-95473659D01*
X48608078Y-95580005D01*
X48460244Y-95659023D01*
X48460241Y-95659024D01*
X48460239Y-95659025D01*
X48299825Y-95707686D01*
X48299824Y-95707686D01*
X48299821Y-95707687D01*
X48174804Y-95720000D01*
X48091196Y-95720000D01*
X47966179Y-95707687D01*
X47966176Y-95707686D01*
X47966175Y-95707686D01*
X47805761Y-95659025D01*
X47805759Y-95659024D01*
X47805756Y-95659023D01*
X47657922Y-95580005D01*
X47528341Y-95473659D01*
X47421995Y-95344078D01*
X47342977Y-95196244D01*
X47294313Y-95035821D01*
X47277883Y-94869000D01*
X47294313Y-94702179D01*
X47294314Y-94702175D01*
X47342975Y-94541761D01*
X47342976Y-94541759D01*
X47342977Y-94541756D01*
X47421995Y-94393922D01*
X47528341Y-94264341D01*
X47657922Y-94157995D01*
X47805756Y-94078977D01*
X47805759Y-94078976D01*
X47805761Y-94078975D01*
X47966175Y-94030314D01*
X47966176Y-94030314D01*
X47966179Y-94030313D01*
X48091196Y-94018000D01*
X48174804Y-94018000D01*
X48299821Y-94030313D01*
X48299821Y-94030313D01*
G37*
G36*
X50839821Y-94030313D02*
X50839824Y-94030314D01*
X50839825Y-94030314D01*
X51000239Y-94078975D01*
X51000241Y-94078976D01*
X51000244Y-94078977D01*
X51148078Y-94157995D01*
X51277659Y-94264341D01*
X51384005Y-94393922D01*
X51463023Y-94541756D01*
X51463024Y-94541759D01*
X51463025Y-94541761D01*
X51511686Y-94702175D01*
X51511687Y-94702179D01*
X51528117Y-94869000D01*
X51511687Y-95035821D01*
X51463023Y-95196244D01*
X51384005Y-95344078D01*
X51277659Y-95473659D01*
X51148078Y-95580005D01*
X51000244Y-95659023D01*
X51000241Y-95659024D01*
X51000239Y-95659025D01*
X50839825Y-95707686D01*
X50839824Y-95707686D01*
X50839821Y-95707687D01*
X50714804Y-95720000D01*
X50631196Y-95720000D01*
X50506179Y-95707687D01*
X50506176Y-95707686D01*
X50506175Y-95707686D01*
X50345761Y-95659025D01*
X50345759Y-95659024D01*
X50345756Y-95659023D01*
X50197922Y-95580005D01*
X50068341Y-95473659D01*
X49961995Y-95344078D01*
X49882977Y-95196244D01*
X49834313Y-95035821D01*
X49817883Y-94869000D01*
X49834313Y-94702179D01*
X49834314Y-94702175D01*
X49882975Y-94541761D01*
X49882976Y-94541759D01*
X49882977Y-94541756D01*
X49961995Y-94393922D01*
X50068341Y-94264341D01*
X50197922Y-94157995D01*
X50345756Y-94078977D01*
X50345759Y-94078976D01*
X50345761Y-94078975D01*
X50506175Y-94030314D01*
X50506176Y-94030314D01*
X50506179Y-94030313D01*
X50631196Y-94018000D01*
X50714804Y-94018000D01*
X50839821Y-94030313D01*
X50839821Y-94030313D01*
G37*
G36*
X53379821Y-94030313D02*
X53379824Y-94030314D01*
X53379825Y-94030314D01*
X53540239Y-94078975D01*
X53540241Y-94078976D01*
X53540244Y-94078977D01*
X53688078Y-94157995D01*
X53817659Y-94264341D01*
X53924005Y-94393922D01*
X54003023Y-94541756D01*
X54003024Y-94541759D01*
X54003025Y-94541761D01*
X54051686Y-94702175D01*
X54051687Y-94702179D01*
X54068117Y-94869000D01*
X54051687Y-95035821D01*
X54003023Y-95196244D01*
X53924005Y-95344078D01*
X53817659Y-95473659D01*
X53688078Y-95580005D01*
X53540244Y-95659023D01*
X53540241Y-95659024D01*
X53540239Y-95659025D01*
X53379825Y-95707686D01*
X53379824Y-95707686D01*
X53379821Y-95707687D01*
X53254804Y-95720000D01*
X53171196Y-95720000D01*
X53046179Y-95707687D01*
X53046176Y-95707686D01*
X53046175Y-95707686D01*
X52885761Y-95659025D01*
X52885759Y-95659024D01*
X52885756Y-95659023D01*
X52737922Y-95580005D01*
X52608341Y-95473659D01*
X52501995Y-95344078D01*
X52422977Y-95196244D01*
X52374313Y-95035821D01*
X52357883Y-94869000D01*
X52374313Y-94702179D01*
X52374314Y-94702175D01*
X52422975Y-94541761D01*
X52422976Y-94541759D01*
X52422977Y-94541756D01*
X52501995Y-94393922D01*
X52608341Y-94264341D01*
X52737922Y-94157995D01*
X52885756Y-94078977D01*
X52885759Y-94078976D01*
X52885761Y-94078975D01*
X53046175Y-94030314D01*
X53046176Y-94030314D01*
X53046179Y-94030313D01*
X53171196Y-94018000D01*
X53254804Y-94018000D01*
X53379821Y-94030313D01*
X53379821Y-94030313D01*
G37*
G36*
X55919821Y-94030313D02*
X55919824Y-94030314D01*
X55919825Y-94030314D01*
X56080239Y-94078975D01*
X56080241Y-94078976D01*
X56080244Y-94078977D01*
X56228078Y-94157995D01*
X56357659Y-94264341D01*
X56464005Y-94393922D01*
X56543023Y-94541756D01*
X56543024Y-94541759D01*
X56543025Y-94541761D01*
X56591686Y-94702175D01*
X56591687Y-94702179D01*
X56608117Y-94869000D01*
X56591687Y-95035821D01*
X56543023Y-95196244D01*
X56464005Y-95344078D01*
X56357659Y-95473659D01*
X56228078Y-95580005D01*
X56080244Y-95659023D01*
X56080241Y-95659024D01*
X56080239Y-95659025D01*
X55919825Y-95707686D01*
X55919824Y-95707686D01*
X55919821Y-95707687D01*
X55794804Y-95720000D01*
X55711196Y-95720000D01*
X55586179Y-95707687D01*
X55586176Y-95707686D01*
X55586175Y-95707686D01*
X55425761Y-95659025D01*
X55425759Y-95659024D01*
X55425756Y-95659023D01*
X55277922Y-95580005D01*
X55148341Y-95473659D01*
X55041995Y-95344078D01*
X54962977Y-95196244D01*
X54914313Y-95035821D01*
X54897883Y-94869000D01*
X54914313Y-94702179D01*
X54914314Y-94702175D01*
X54962975Y-94541761D01*
X54962976Y-94541759D01*
X54962977Y-94541756D01*
X55041995Y-94393922D01*
X55148341Y-94264341D01*
X55277922Y-94157995D01*
X55425756Y-94078977D01*
X55425759Y-94078976D01*
X55425761Y-94078975D01*
X55586175Y-94030314D01*
X55586176Y-94030314D01*
X55586179Y-94030313D01*
X55711196Y-94018000D01*
X55794804Y-94018000D01*
X55919821Y-94030313D01*
X55919821Y-94030313D01*
G37*
G36*
X17204443Y-92789520D02*
X17270627Y-92796038D01*
X17383853Y-92830385D01*
X17440467Y-92847558D01*
X17579087Y-92921653D01*
X17596991Y-92931223D01*
X17632729Y-92960553D01*
X17734186Y-93043815D01*
X17817448Y-93145272D01*
X17846778Y-93181010D01*
X17846779Y-93181012D01*
X17930443Y-93337534D01*
X17930443Y-93337535D01*
X17981963Y-93507374D01*
X17999359Y-93684001D01*
X17981963Y-93860628D01*
X17947616Y-93973854D01*
X17930443Y-94030468D01*
X17904515Y-94078975D01*
X17846778Y-94186992D01*
X17817448Y-94222730D01*
X17734186Y-94324187D01*
X17649212Y-94393922D01*
X17596991Y-94436779D01*
X17596989Y-94436780D01*
X17440467Y-94520444D01*
X17383853Y-94537617D01*
X17270627Y-94571964D01*
X17204442Y-94578483D01*
X17138260Y-94585001D01*
X17049740Y-94585001D01*
X16983558Y-94578483D01*
X16917373Y-94571964D01*
X16804147Y-94537617D01*
X16747533Y-94520444D01*
X16591011Y-94436780D01*
X16591009Y-94436779D01*
X16538788Y-94393922D01*
X16453814Y-94324187D01*
X16370552Y-94222730D01*
X16341222Y-94186992D01*
X16283485Y-94078975D01*
X16257557Y-94030468D01*
X16240384Y-93973854D01*
X16206037Y-93860628D01*
X16188641Y-93684001D01*
X16206037Y-93507374D01*
X16257557Y-93337535D01*
X16257557Y-93337534D01*
X16341221Y-93181012D01*
X16341222Y-93181010D01*
X16370552Y-93145272D01*
X16453814Y-93043815D01*
X16555271Y-92960553D01*
X16591009Y-92931223D01*
X16608913Y-92921653D01*
X16747533Y-92847558D01*
X16804147Y-92830385D01*
X16917373Y-92796038D01*
X16983557Y-92789520D01*
X17049740Y-92783001D01*
X17138260Y-92783001D01*
X17204443Y-92789520D01*
X17204443Y-92789520D01*
G37*
G36*
X17204443Y-90249520D02*
X17270627Y-90256038D01*
X17383853Y-90290385D01*
X17440467Y-90307558D01*
X17579087Y-90381653D01*
X17596991Y-90391223D01*
X17632729Y-90420553D01*
X17734186Y-90503815D01*
X17817025Y-90604756D01*
X17846778Y-90641010D01*
X17846779Y-90641012D01*
X17930443Y-90797534D01*
X17930443Y-90797535D01*
X17981963Y-90967374D01*
X17999359Y-91144001D01*
X17981963Y-91320628D01*
X17955739Y-91407078D01*
X17930443Y-91490468D01*
X17905753Y-91536659D01*
X17846778Y-91646992D01*
X17817448Y-91682730D01*
X17734186Y-91784187D01*
X17632729Y-91867449D01*
X17596991Y-91896779D01*
X17596989Y-91896780D01*
X17440467Y-91980444D01*
X17383853Y-91997617D01*
X17270627Y-92031964D01*
X17204442Y-92038483D01*
X17138260Y-92045001D01*
X17049740Y-92045001D01*
X16983558Y-92038483D01*
X16917373Y-92031964D01*
X16804147Y-91997617D01*
X16747533Y-91980444D01*
X16591011Y-91896780D01*
X16591009Y-91896779D01*
X16555271Y-91867449D01*
X16453814Y-91784187D01*
X16370552Y-91682730D01*
X16341222Y-91646992D01*
X16282247Y-91536659D01*
X16257557Y-91490468D01*
X16232261Y-91407078D01*
X16206037Y-91320628D01*
X16188641Y-91144001D01*
X16206037Y-90967374D01*
X16257557Y-90797535D01*
X16257557Y-90797534D01*
X16341221Y-90641012D01*
X16341222Y-90641010D01*
X16370975Y-90604756D01*
X16453814Y-90503815D01*
X16555271Y-90420553D01*
X16591009Y-90391223D01*
X16608913Y-90381653D01*
X16747533Y-90307558D01*
X16804147Y-90290385D01*
X16917373Y-90256038D01*
X16983557Y-90249520D01*
X17049740Y-90243001D01*
X17138260Y-90243001D01*
X17204443Y-90249520D01*
X17204443Y-90249520D01*
G37*
G36*
X58459821Y-90093313D02*
X58459824Y-90093314D01*
X58459825Y-90093314D01*
X58620239Y-90141975D01*
X58620241Y-90141976D01*
X58620244Y-90141977D01*
X58768078Y-90220995D01*
X58897659Y-90327341D01*
X59004005Y-90456922D01*
X59083023Y-90604756D01*
X59083024Y-90604759D01*
X59083025Y-90604761D01*
X59131686Y-90765175D01*
X59131687Y-90765179D01*
X59148117Y-90932000D01*
X59131687Y-91098821D01*
X59083023Y-91259244D01*
X59004005Y-91407078D01*
X58897659Y-91536659D01*
X58768078Y-91643005D01*
X58620244Y-91722023D01*
X58620241Y-91722024D01*
X58620239Y-91722025D01*
X58459825Y-91770686D01*
X58459824Y-91770686D01*
X58459821Y-91770687D01*
X58334804Y-91783000D01*
X58251196Y-91783000D01*
X58126179Y-91770687D01*
X58126176Y-91770686D01*
X58126175Y-91770686D01*
X57965761Y-91722025D01*
X57965759Y-91722024D01*
X57965756Y-91722023D01*
X57817922Y-91643005D01*
X57688341Y-91536659D01*
X57581995Y-91407078D01*
X57502977Y-91259244D01*
X57454313Y-91098821D01*
X57437883Y-90932000D01*
X57454313Y-90765179D01*
X57454314Y-90765175D01*
X57502975Y-90604761D01*
X57502976Y-90604759D01*
X57502977Y-90604756D01*
X57581995Y-90456922D01*
X57688341Y-90327341D01*
X57817922Y-90220995D01*
X57965756Y-90141977D01*
X57965759Y-90141976D01*
X57965761Y-90141975D01*
X58126175Y-90093314D01*
X58126176Y-90093314D01*
X58126179Y-90093313D01*
X58251196Y-90081000D01*
X58334804Y-90081000D01*
X58459821Y-90093313D01*
X58459821Y-90093313D01*
G37*
G36*
X55919821Y-90093313D02*
X55919824Y-90093314D01*
X55919825Y-90093314D01*
X56080239Y-90141975D01*
X56080241Y-90141976D01*
X56080244Y-90141977D01*
X56228078Y-90220995D01*
X56357659Y-90327341D01*
X56464005Y-90456922D01*
X56543023Y-90604756D01*
X56543024Y-90604759D01*
X56543025Y-90604761D01*
X56591686Y-90765175D01*
X56591687Y-90765179D01*
X56608117Y-90932000D01*
X56591687Y-91098821D01*
X56543023Y-91259244D01*
X56464005Y-91407078D01*
X56357659Y-91536659D01*
X56228078Y-91643005D01*
X56080244Y-91722023D01*
X56080241Y-91722024D01*
X56080239Y-91722025D01*
X55919825Y-91770686D01*
X55919824Y-91770686D01*
X55919821Y-91770687D01*
X55794804Y-91783000D01*
X55711196Y-91783000D01*
X55586179Y-91770687D01*
X55586176Y-91770686D01*
X55586175Y-91770686D01*
X55425761Y-91722025D01*
X55425759Y-91722024D01*
X55425756Y-91722023D01*
X55277922Y-91643005D01*
X55148341Y-91536659D01*
X55041995Y-91407078D01*
X54962977Y-91259244D01*
X54914313Y-91098821D01*
X54897883Y-90932000D01*
X54914313Y-90765179D01*
X54914314Y-90765175D01*
X54962975Y-90604761D01*
X54962976Y-90604759D01*
X54962977Y-90604756D01*
X55041995Y-90456922D01*
X55148341Y-90327341D01*
X55277922Y-90220995D01*
X55425756Y-90141977D01*
X55425759Y-90141976D01*
X55425761Y-90141975D01*
X55586175Y-90093314D01*
X55586176Y-90093314D01*
X55586179Y-90093313D01*
X55711196Y-90081000D01*
X55794804Y-90081000D01*
X55919821Y-90093313D01*
X55919821Y-90093313D01*
G37*
G36*
X53379821Y-90093313D02*
X53379824Y-90093314D01*
X53379825Y-90093314D01*
X53540239Y-90141975D01*
X53540241Y-90141976D01*
X53540244Y-90141977D01*
X53688078Y-90220995D01*
X53817659Y-90327341D01*
X53924005Y-90456922D01*
X54003023Y-90604756D01*
X54003024Y-90604759D01*
X54003025Y-90604761D01*
X54051686Y-90765175D01*
X54051687Y-90765179D01*
X54068117Y-90932000D01*
X54051687Y-91098821D01*
X54003023Y-91259244D01*
X53924005Y-91407078D01*
X53817659Y-91536659D01*
X53688078Y-91643005D01*
X53540244Y-91722023D01*
X53540241Y-91722024D01*
X53540239Y-91722025D01*
X53379825Y-91770686D01*
X53379824Y-91770686D01*
X53379821Y-91770687D01*
X53254804Y-91783000D01*
X53171196Y-91783000D01*
X53046179Y-91770687D01*
X53046176Y-91770686D01*
X53046175Y-91770686D01*
X52885761Y-91722025D01*
X52885759Y-91722024D01*
X52885756Y-91722023D01*
X52737922Y-91643005D01*
X52608341Y-91536659D01*
X52501995Y-91407078D01*
X52422977Y-91259244D01*
X52374313Y-91098821D01*
X52357883Y-90932000D01*
X52374313Y-90765179D01*
X52374314Y-90765175D01*
X52422975Y-90604761D01*
X52422976Y-90604759D01*
X52422977Y-90604756D01*
X52501995Y-90456922D01*
X52608341Y-90327341D01*
X52737922Y-90220995D01*
X52885756Y-90141977D01*
X52885759Y-90141976D01*
X52885761Y-90141975D01*
X53046175Y-90093314D01*
X53046176Y-90093314D01*
X53046179Y-90093313D01*
X53171196Y-90081000D01*
X53254804Y-90081000D01*
X53379821Y-90093313D01*
X53379821Y-90093313D01*
G37*
G36*
X50839821Y-90093313D02*
X50839824Y-90093314D01*
X50839825Y-90093314D01*
X51000239Y-90141975D01*
X51000241Y-90141976D01*
X51000244Y-90141977D01*
X51148078Y-90220995D01*
X51277659Y-90327341D01*
X51384005Y-90456922D01*
X51463023Y-90604756D01*
X51463024Y-90604759D01*
X51463025Y-90604761D01*
X51511686Y-90765175D01*
X51511687Y-90765179D01*
X51528117Y-90932000D01*
X51511687Y-91098821D01*
X51463023Y-91259244D01*
X51384005Y-91407078D01*
X51277659Y-91536659D01*
X51148078Y-91643005D01*
X51000244Y-91722023D01*
X51000241Y-91722024D01*
X51000239Y-91722025D01*
X50839825Y-91770686D01*
X50839824Y-91770686D01*
X50839821Y-91770687D01*
X50714804Y-91783000D01*
X50631196Y-91783000D01*
X50506179Y-91770687D01*
X50506176Y-91770686D01*
X50506175Y-91770686D01*
X50345761Y-91722025D01*
X50345759Y-91722024D01*
X50345756Y-91722023D01*
X50197922Y-91643005D01*
X50068341Y-91536659D01*
X49961995Y-91407078D01*
X49882977Y-91259244D01*
X49834313Y-91098821D01*
X49817883Y-90932000D01*
X49834313Y-90765179D01*
X49834314Y-90765175D01*
X49882975Y-90604761D01*
X49882976Y-90604759D01*
X49882977Y-90604756D01*
X49961995Y-90456922D01*
X50068341Y-90327341D01*
X50197922Y-90220995D01*
X50345756Y-90141977D01*
X50345759Y-90141976D01*
X50345761Y-90141975D01*
X50506175Y-90093314D01*
X50506176Y-90093314D01*
X50506179Y-90093313D01*
X50631196Y-90081000D01*
X50714804Y-90081000D01*
X50839821Y-90093313D01*
X50839821Y-90093313D01*
G37*
G36*
X48299821Y-90093313D02*
X48299824Y-90093314D01*
X48299825Y-90093314D01*
X48460239Y-90141975D01*
X48460241Y-90141976D01*
X48460244Y-90141977D01*
X48608078Y-90220995D01*
X48737659Y-90327341D01*
X48844005Y-90456922D01*
X48923023Y-90604756D01*
X48923024Y-90604759D01*
X48923025Y-90604761D01*
X48971686Y-90765175D01*
X48971687Y-90765179D01*
X48988117Y-90932000D01*
X48971687Y-91098821D01*
X48923023Y-91259244D01*
X48844005Y-91407078D01*
X48737659Y-91536659D01*
X48608078Y-91643005D01*
X48460244Y-91722023D01*
X48460241Y-91722024D01*
X48460239Y-91722025D01*
X48299825Y-91770686D01*
X48299824Y-91770686D01*
X48299821Y-91770687D01*
X48174804Y-91783000D01*
X48091196Y-91783000D01*
X47966179Y-91770687D01*
X47966176Y-91770686D01*
X47966175Y-91770686D01*
X47805761Y-91722025D01*
X47805759Y-91722024D01*
X47805756Y-91722023D01*
X47657922Y-91643005D01*
X47528341Y-91536659D01*
X47421995Y-91407078D01*
X47342977Y-91259244D01*
X47294313Y-91098821D01*
X47277883Y-90932000D01*
X47294313Y-90765179D01*
X47294314Y-90765175D01*
X47342975Y-90604761D01*
X47342976Y-90604759D01*
X47342977Y-90604756D01*
X47421995Y-90456922D01*
X47528341Y-90327341D01*
X47657922Y-90220995D01*
X47805756Y-90141977D01*
X47805759Y-90141976D01*
X47805761Y-90141975D01*
X47966175Y-90093314D01*
X47966176Y-90093314D01*
X47966179Y-90093313D01*
X48091196Y-90081000D01*
X48174804Y-90081000D01*
X48299821Y-90093313D01*
X48299821Y-90093313D01*
G37*
G36*
X45759821Y-90093313D02*
X45759824Y-90093314D01*
X45759825Y-90093314D01*
X45920239Y-90141975D01*
X45920241Y-90141976D01*
X45920244Y-90141977D01*
X46068078Y-90220995D01*
X46197659Y-90327341D01*
X46304005Y-90456922D01*
X46383023Y-90604756D01*
X46383024Y-90604759D01*
X46383025Y-90604761D01*
X46431686Y-90765175D01*
X46431687Y-90765179D01*
X46448117Y-90932000D01*
X46431687Y-91098821D01*
X46383023Y-91259244D01*
X46304005Y-91407078D01*
X46197659Y-91536659D01*
X46068078Y-91643005D01*
X45920244Y-91722023D01*
X45920241Y-91722024D01*
X45920239Y-91722025D01*
X45759825Y-91770686D01*
X45759824Y-91770686D01*
X45759821Y-91770687D01*
X45634804Y-91783000D01*
X45551196Y-91783000D01*
X45426179Y-91770687D01*
X45426176Y-91770686D01*
X45426175Y-91770686D01*
X45265761Y-91722025D01*
X45265759Y-91722024D01*
X45265756Y-91722023D01*
X45117922Y-91643005D01*
X44988341Y-91536659D01*
X44881995Y-91407078D01*
X44802977Y-91259244D01*
X44754313Y-91098821D01*
X44737883Y-90932000D01*
X44754313Y-90765179D01*
X44754314Y-90765175D01*
X44802975Y-90604761D01*
X44802976Y-90604759D01*
X44802977Y-90604756D01*
X44881995Y-90456922D01*
X44988341Y-90327341D01*
X45117922Y-90220995D01*
X45265756Y-90141977D01*
X45265759Y-90141976D01*
X45265761Y-90141975D01*
X45426175Y-90093314D01*
X45426176Y-90093314D01*
X45426179Y-90093313D01*
X45551196Y-90081000D01*
X45634804Y-90081000D01*
X45759821Y-90093313D01*
X45759821Y-90093313D01*
G37*
G36*
X43219821Y-90093313D02*
X43219824Y-90093314D01*
X43219825Y-90093314D01*
X43380239Y-90141975D01*
X43380241Y-90141976D01*
X43380244Y-90141977D01*
X43528078Y-90220995D01*
X43657659Y-90327341D01*
X43764005Y-90456922D01*
X43843023Y-90604756D01*
X43843024Y-90604759D01*
X43843025Y-90604761D01*
X43891686Y-90765175D01*
X43891687Y-90765179D01*
X43908117Y-90932000D01*
X43891687Y-91098821D01*
X43843023Y-91259244D01*
X43764005Y-91407078D01*
X43657659Y-91536659D01*
X43528078Y-91643005D01*
X43380244Y-91722023D01*
X43380241Y-91722024D01*
X43380239Y-91722025D01*
X43219825Y-91770686D01*
X43219824Y-91770686D01*
X43219821Y-91770687D01*
X43094804Y-91783000D01*
X43011196Y-91783000D01*
X42886179Y-91770687D01*
X42886176Y-91770686D01*
X42886175Y-91770686D01*
X42725761Y-91722025D01*
X42725759Y-91722024D01*
X42725756Y-91722023D01*
X42577922Y-91643005D01*
X42448341Y-91536659D01*
X42341995Y-91407078D01*
X42262977Y-91259244D01*
X42214313Y-91098821D01*
X42197883Y-90932000D01*
X42214313Y-90765179D01*
X42214314Y-90765175D01*
X42262975Y-90604761D01*
X42262976Y-90604759D01*
X42262977Y-90604756D01*
X42341995Y-90456922D01*
X42448341Y-90327341D01*
X42577922Y-90220995D01*
X42725756Y-90141977D01*
X42725759Y-90141976D01*
X42725761Y-90141975D01*
X42886175Y-90093314D01*
X42886176Y-90093314D01*
X42886179Y-90093313D01*
X43011196Y-90081000D01*
X43094804Y-90081000D01*
X43219821Y-90093313D01*
X43219821Y-90093313D01*
G37*
G36*
X60999821Y-90093313D02*
X60999824Y-90093314D01*
X60999825Y-90093314D01*
X61160239Y-90141975D01*
X61160241Y-90141976D01*
X61160244Y-90141977D01*
X61308078Y-90220995D01*
X61437659Y-90327341D01*
X61544005Y-90456922D01*
X61623023Y-90604756D01*
X61623024Y-90604759D01*
X61623025Y-90604761D01*
X61671686Y-90765175D01*
X61671687Y-90765179D01*
X61688117Y-90932000D01*
X61671687Y-91098821D01*
X61623023Y-91259244D01*
X61544005Y-91407078D01*
X61437659Y-91536659D01*
X61308078Y-91643005D01*
X61160244Y-91722023D01*
X61160241Y-91722024D01*
X61160239Y-91722025D01*
X60999825Y-91770686D01*
X60999824Y-91770686D01*
X60999821Y-91770687D01*
X60874804Y-91783000D01*
X60791196Y-91783000D01*
X60666179Y-91770687D01*
X60666176Y-91770686D01*
X60666175Y-91770686D01*
X60505761Y-91722025D01*
X60505759Y-91722024D01*
X60505756Y-91722023D01*
X60357922Y-91643005D01*
X60228341Y-91536659D01*
X60121995Y-91407078D01*
X60042977Y-91259244D01*
X59994313Y-91098821D01*
X59977883Y-90932000D01*
X59994313Y-90765179D01*
X59994314Y-90765175D01*
X60042975Y-90604761D01*
X60042976Y-90604759D01*
X60042977Y-90604756D01*
X60121995Y-90456922D01*
X60228341Y-90327341D01*
X60357922Y-90220995D01*
X60505756Y-90141977D01*
X60505759Y-90141976D01*
X60505761Y-90141975D01*
X60666175Y-90093314D01*
X60666176Y-90093314D01*
X60666179Y-90093313D01*
X60791196Y-90081000D01*
X60874804Y-90081000D01*
X60999821Y-90093313D01*
X60999821Y-90093313D01*
G37*
G36*
X17204442Y-87709519D02*
X17270627Y-87716038D01*
X17383853Y-87750385D01*
X17440467Y-87767558D01*
X17579087Y-87841653D01*
X17596991Y-87851223D01*
X17632729Y-87880553D01*
X17734186Y-87963815D01*
X17815146Y-88062466D01*
X17846778Y-88101010D01*
X17846779Y-88101012D01*
X17930443Y-88257534D01*
X17930443Y-88257535D01*
X17981963Y-88427374D01*
X17999359Y-88604001D01*
X17981963Y-88780628D01*
X17947616Y-88893854D01*
X17930443Y-88950468D01*
X17856348Y-89089088D01*
X17846778Y-89106992D01*
X17817448Y-89142730D01*
X17734186Y-89244187D01*
X17632729Y-89327449D01*
X17596991Y-89356779D01*
X17596989Y-89356780D01*
X17440467Y-89440444D01*
X17383853Y-89457617D01*
X17270627Y-89491964D01*
X17204443Y-89498482D01*
X17138260Y-89505001D01*
X17049740Y-89505001D01*
X16983557Y-89498482D01*
X16917373Y-89491964D01*
X16804147Y-89457617D01*
X16747533Y-89440444D01*
X16591011Y-89356780D01*
X16591009Y-89356779D01*
X16555271Y-89327449D01*
X16453814Y-89244187D01*
X16370552Y-89142730D01*
X16341222Y-89106992D01*
X16331652Y-89089088D01*
X16257557Y-88950468D01*
X16240384Y-88893854D01*
X16206037Y-88780628D01*
X16188641Y-88604001D01*
X16206037Y-88427374D01*
X16257557Y-88257535D01*
X16257557Y-88257534D01*
X16341221Y-88101012D01*
X16341222Y-88101010D01*
X16372854Y-88062466D01*
X16453814Y-87963815D01*
X16555271Y-87880553D01*
X16591009Y-87851223D01*
X16608913Y-87841653D01*
X16747533Y-87767558D01*
X16804147Y-87750385D01*
X16917373Y-87716038D01*
X16983558Y-87709519D01*
X17049740Y-87703001D01*
X17138260Y-87703001D01*
X17204442Y-87709519D01*
X17204442Y-87709519D01*
G37*
G36*
X66404443Y-86821519D02*
X66470627Y-86828037D01*
X66583853Y-86862384D01*
X66640467Y-86879557D01*
X66779087Y-86953652D01*
X66796991Y-86963222D01*
X66832729Y-86992552D01*
X66934186Y-87075814D01*
X67017448Y-87177271D01*
X67046778Y-87213009D01*
X67046779Y-87213011D01*
X67130443Y-87369533D01*
X67130443Y-87369534D01*
X67181963Y-87539373D01*
X67199359Y-87716000D01*
X67181963Y-87892627D01*
X67160368Y-87963815D01*
X67130443Y-88062467D01*
X67109841Y-88101010D01*
X67046778Y-88218991D01*
X67017448Y-88254729D01*
X66934186Y-88356186D01*
X66847442Y-88427374D01*
X66796991Y-88468778D01*
X66796989Y-88468779D01*
X66640467Y-88552443D01*
X66583853Y-88569616D01*
X66470627Y-88603963D01*
X66404442Y-88610482D01*
X66338260Y-88617000D01*
X66249740Y-88617000D01*
X66183558Y-88610482D01*
X66117373Y-88603963D01*
X66004147Y-88569616D01*
X65947533Y-88552443D01*
X65791011Y-88468779D01*
X65791009Y-88468778D01*
X65740558Y-88427374D01*
X65653814Y-88356186D01*
X65570552Y-88254729D01*
X65541222Y-88218991D01*
X65478159Y-88101010D01*
X65457557Y-88062467D01*
X65427632Y-87963815D01*
X65406037Y-87892627D01*
X65388641Y-87716000D01*
X65406037Y-87539373D01*
X65457557Y-87369534D01*
X65457557Y-87369533D01*
X65541221Y-87213011D01*
X65541222Y-87213009D01*
X65570552Y-87177271D01*
X65653814Y-87075814D01*
X65755271Y-86992552D01*
X65791009Y-86963222D01*
X65808913Y-86953652D01*
X65947533Y-86879557D01*
X66004147Y-86862384D01*
X66117373Y-86828037D01*
X66183557Y-86821519D01*
X66249740Y-86815000D01*
X66338260Y-86815000D01*
X66404443Y-86821519D01*
X66404443Y-86821519D01*
G37*
G36*
X17995000Y-86965001D02*
X16193000Y-86965001D01*
X16193000Y-85163001D01*
X17995000Y-85163001D01*
X17995000Y-86965001D01*
X17995000Y-86965001D01*
G37*
G36*
X66404442Y-84281518D02*
X66470627Y-84288037D01*
X66583853Y-84322384D01*
X66640467Y-84339557D01*
X66779087Y-84413652D01*
X66796991Y-84423222D01*
X66832729Y-84452552D01*
X66934186Y-84535814D01*
X67017448Y-84637271D01*
X67046778Y-84673009D01*
X67046779Y-84673011D01*
X67130443Y-84829533D01*
X67130443Y-84829534D01*
X67181963Y-84999373D01*
X67199359Y-85176000D01*
X67181963Y-85352627D01*
X67147616Y-85465853D01*
X67130443Y-85522467D01*
X67056348Y-85661087D01*
X67046778Y-85678991D01*
X67017448Y-85714729D01*
X66934186Y-85816186D01*
X66832729Y-85899448D01*
X66796991Y-85928778D01*
X66796989Y-85928779D01*
X66640467Y-86012443D01*
X66583853Y-86029616D01*
X66470627Y-86063963D01*
X66404443Y-86070481D01*
X66338260Y-86077000D01*
X66249740Y-86077000D01*
X66183557Y-86070481D01*
X66117373Y-86063963D01*
X66004147Y-86029616D01*
X65947533Y-86012443D01*
X65791011Y-85928779D01*
X65791009Y-85928778D01*
X65755271Y-85899448D01*
X65653814Y-85816186D01*
X65570552Y-85714729D01*
X65541222Y-85678991D01*
X65531652Y-85661087D01*
X65457557Y-85522467D01*
X65440384Y-85465853D01*
X65406037Y-85352627D01*
X65388641Y-85176000D01*
X65406037Y-84999373D01*
X65457557Y-84829534D01*
X65457557Y-84829533D01*
X65541221Y-84673011D01*
X65541222Y-84673009D01*
X65570552Y-84637271D01*
X65653814Y-84535814D01*
X65755271Y-84452552D01*
X65791009Y-84423222D01*
X65808913Y-84413652D01*
X65947533Y-84339557D01*
X66004147Y-84322384D01*
X66117373Y-84288037D01*
X66183558Y-84281518D01*
X66249740Y-84275000D01*
X66338260Y-84275000D01*
X66404442Y-84281518D01*
X66404442Y-84281518D01*
G37*
G36*
X57416000Y-85737000D02*
X55614000Y-85737000D01*
X55614000Y-83935000D01*
X57416000Y-83935000D01*
X57416000Y-85737000D01*
X57416000Y-85737000D01*
G37*
G36*
X53733000Y-85737000D02*
X51931000Y-85737000D01*
X51931000Y-83935000D01*
X53733000Y-83935000D01*
X53733000Y-85737000D01*
X53733000Y-85737000D01*
G37*
G36*
X61099000Y-85737000D02*
X59297000Y-85737000D01*
X59297000Y-83935000D01*
X61099000Y-83935000D01*
X61099000Y-85737000D01*
X61099000Y-85737000D01*
G37*
G36*
X66404443Y-81741519D02*
X66470627Y-81748037D01*
X66583853Y-81782384D01*
X66640467Y-81799557D01*
X66779087Y-81873652D01*
X66796991Y-81883222D01*
X66832729Y-81912552D01*
X66934186Y-81995814D01*
X67017448Y-82097271D01*
X67046778Y-82133009D01*
X67046779Y-82133011D01*
X67130443Y-82289533D01*
X67147616Y-82346147D01*
X67181963Y-82459373D01*
X67199359Y-82636000D01*
X67181963Y-82812627D01*
X67147616Y-82925853D01*
X67130443Y-82982467D01*
X67094998Y-83048779D01*
X67046778Y-83138991D01*
X67017448Y-83174729D01*
X66934186Y-83276186D01*
X66832729Y-83359448D01*
X66796991Y-83388778D01*
X66796989Y-83388779D01*
X66640467Y-83472443D01*
X66583853Y-83489616D01*
X66470627Y-83523963D01*
X66404443Y-83530481D01*
X66338260Y-83537000D01*
X66249740Y-83537000D01*
X66183557Y-83530481D01*
X66117373Y-83523963D01*
X66004147Y-83489616D01*
X65947533Y-83472443D01*
X65791011Y-83388779D01*
X65791009Y-83388778D01*
X65755271Y-83359448D01*
X65653814Y-83276186D01*
X65570552Y-83174729D01*
X65541222Y-83138991D01*
X65493002Y-83048779D01*
X65457557Y-82982467D01*
X65440384Y-82925853D01*
X65406037Y-82812627D01*
X65388641Y-82636000D01*
X65406037Y-82459373D01*
X65440384Y-82346147D01*
X65457557Y-82289533D01*
X65541221Y-82133011D01*
X65541222Y-82133009D01*
X65570552Y-82097271D01*
X65653814Y-81995814D01*
X65755271Y-81912552D01*
X65791009Y-81883222D01*
X65808913Y-81873652D01*
X65947533Y-81799557D01*
X66004147Y-81782384D01*
X66117373Y-81748037D01*
X66183557Y-81741519D01*
X66249740Y-81735000D01*
X66338260Y-81735000D01*
X66404443Y-81741519D01*
X66404443Y-81741519D01*
G37*
G36*
X56625443Y-81401519D02*
X56691627Y-81408037D01*
X56804853Y-81442384D01*
X56861467Y-81459557D01*
X57000087Y-81533652D01*
X57017991Y-81543222D01*
X57053729Y-81572552D01*
X57155186Y-81655814D01*
X57220171Y-81735000D01*
X57267778Y-81793009D01*
X57267779Y-81793011D01*
X57351443Y-81949533D01*
X57351443Y-81949534D01*
X57402963Y-82119373D01*
X57420359Y-82296000D01*
X57402963Y-82472627D01*
X57368616Y-82585853D01*
X57351443Y-82642467D01*
X57277348Y-82781087D01*
X57267778Y-82798991D01*
X57256587Y-82812627D01*
X57155186Y-82936186D01*
X57053729Y-83019448D01*
X57017991Y-83048778D01*
X57017989Y-83048779D01*
X56861467Y-83132443D01*
X56804853Y-83149616D01*
X56691627Y-83183963D01*
X56625442Y-83190482D01*
X56559260Y-83197000D01*
X56470740Y-83197000D01*
X56404558Y-83190482D01*
X56338373Y-83183963D01*
X56225147Y-83149616D01*
X56168533Y-83132443D01*
X56012011Y-83048779D01*
X56012009Y-83048778D01*
X55976271Y-83019448D01*
X55874814Y-82936186D01*
X55773413Y-82812627D01*
X55762222Y-82798991D01*
X55752652Y-82781087D01*
X55678557Y-82642467D01*
X55661384Y-82585853D01*
X55627037Y-82472627D01*
X55609641Y-82296000D01*
X55627037Y-82119373D01*
X55678557Y-81949534D01*
X55678557Y-81949533D01*
X55762221Y-81793011D01*
X55762222Y-81793009D01*
X55809829Y-81735000D01*
X55874814Y-81655814D01*
X55976271Y-81572552D01*
X56012009Y-81543222D01*
X56029913Y-81533652D01*
X56168533Y-81459557D01*
X56225147Y-81442384D01*
X56338373Y-81408037D01*
X56404557Y-81401519D01*
X56470740Y-81395000D01*
X56559260Y-81395000D01*
X56625443Y-81401519D01*
X56625443Y-81401519D01*
G37*
G36*
X60308443Y-81401519D02*
X60374627Y-81408037D01*
X60487853Y-81442384D01*
X60544467Y-81459557D01*
X60683087Y-81533652D01*
X60700991Y-81543222D01*
X60736729Y-81572552D01*
X60838186Y-81655814D01*
X60903171Y-81735000D01*
X60950778Y-81793009D01*
X60950779Y-81793011D01*
X61034443Y-81949533D01*
X61034443Y-81949534D01*
X61085963Y-82119373D01*
X61103359Y-82296000D01*
X61085963Y-82472627D01*
X61051616Y-82585853D01*
X61034443Y-82642467D01*
X60960348Y-82781087D01*
X60950778Y-82798991D01*
X60939587Y-82812627D01*
X60838186Y-82936186D01*
X60736729Y-83019448D01*
X60700991Y-83048778D01*
X60700989Y-83048779D01*
X60544467Y-83132443D01*
X60487853Y-83149616D01*
X60374627Y-83183963D01*
X60308442Y-83190482D01*
X60242260Y-83197000D01*
X60153740Y-83197000D01*
X60087558Y-83190482D01*
X60021373Y-83183963D01*
X59908147Y-83149616D01*
X59851533Y-83132443D01*
X59695011Y-83048779D01*
X59695009Y-83048778D01*
X59659271Y-83019448D01*
X59557814Y-82936186D01*
X59456413Y-82812627D01*
X59445222Y-82798991D01*
X59435652Y-82781087D01*
X59361557Y-82642467D01*
X59344384Y-82585853D01*
X59310037Y-82472627D01*
X59292641Y-82296000D01*
X59310037Y-82119373D01*
X59361557Y-81949534D01*
X59361557Y-81949533D01*
X59445221Y-81793011D01*
X59445222Y-81793009D01*
X59492829Y-81735000D01*
X59557814Y-81655814D01*
X59659271Y-81572552D01*
X59695009Y-81543222D01*
X59712913Y-81533652D01*
X59851533Y-81459557D01*
X59908147Y-81442384D01*
X60021373Y-81408037D01*
X60087557Y-81401519D01*
X60153740Y-81395000D01*
X60242260Y-81395000D01*
X60308443Y-81401519D01*
X60308443Y-81401519D01*
G37*
G36*
X52942443Y-81401519D02*
X53008627Y-81408037D01*
X53121853Y-81442384D01*
X53178467Y-81459557D01*
X53317087Y-81533652D01*
X53334991Y-81543222D01*
X53370729Y-81572552D01*
X53472186Y-81655814D01*
X53537171Y-81735000D01*
X53584778Y-81793009D01*
X53584779Y-81793011D01*
X53668443Y-81949533D01*
X53668443Y-81949534D01*
X53719963Y-82119373D01*
X53737359Y-82296000D01*
X53719963Y-82472627D01*
X53685616Y-82585853D01*
X53668443Y-82642467D01*
X53594348Y-82781087D01*
X53584778Y-82798991D01*
X53573587Y-82812627D01*
X53472186Y-82936186D01*
X53370729Y-83019448D01*
X53334991Y-83048778D01*
X53334989Y-83048779D01*
X53178467Y-83132443D01*
X53121853Y-83149616D01*
X53008627Y-83183963D01*
X52942442Y-83190482D01*
X52876260Y-83197000D01*
X52787740Y-83197000D01*
X52721558Y-83190482D01*
X52655373Y-83183963D01*
X52542147Y-83149616D01*
X52485533Y-83132443D01*
X52329011Y-83048779D01*
X52329009Y-83048778D01*
X52293271Y-83019448D01*
X52191814Y-82936186D01*
X52090413Y-82812627D01*
X52079222Y-82798991D01*
X52069652Y-82781087D01*
X51995557Y-82642467D01*
X51978384Y-82585853D01*
X51944037Y-82472627D01*
X51926641Y-82296000D01*
X51944037Y-82119373D01*
X51995557Y-81949534D01*
X51995557Y-81949533D01*
X52079221Y-81793011D01*
X52079222Y-81793009D01*
X52126829Y-81735000D01*
X52191814Y-81655814D01*
X52293271Y-81572552D01*
X52329009Y-81543222D01*
X52346913Y-81533652D01*
X52485533Y-81459557D01*
X52542147Y-81442384D01*
X52655373Y-81408037D01*
X52721557Y-81401519D01*
X52787740Y-81395000D01*
X52876260Y-81395000D01*
X52942443Y-81401519D01*
X52942443Y-81401519D01*
G37*
G36*
X67195000Y-80997000D02*
X65393000Y-80997000D01*
X65393000Y-79195000D01*
X67195000Y-79195000D01*
X67195000Y-80997000D01*
X67195000Y-80997000D01*
G37*
G36*
X48299821Y-77393313D02*
X48299824Y-77393314D01*
X48299825Y-77393314D01*
X48460239Y-77441975D01*
X48460241Y-77441976D01*
X48460244Y-77441977D01*
X48608078Y-77520995D01*
X48737659Y-77627341D01*
X48844005Y-77756922D01*
X48923023Y-77904756D01*
X48971687Y-78065179D01*
X48988117Y-78232000D01*
X48971687Y-78398821D01*
X48923023Y-78559244D01*
X48844005Y-78707078D01*
X48737659Y-78836659D01*
X48608078Y-78943005D01*
X48460244Y-79022023D01*
X48460241Y-79022024D01*
X48460239Y-79022025D01*
X48299825Y-79070686D01*
X48299824Y-79070686D01*
X48299821Y-79070687D01*
X48174804Y-79083000D01*
X48091196Y-79083000D01*
X47966179Y-79070687D01*
X47966176Y-79070686D01*
X47966175Y-79070686D01*
X47805761Y-79022025D01*
X47805759Y-79022024D01*
X47805756Y-79022023D01*
X47657922Y-78943005D01*
X47528341Y-78836659D01*
X47421995Y-78707078D01*
X47342977Y-78559244D01*
X47294313Y-78398821D01*
X47277883Y-78232000D01*
X47294313Y-78065179D01*
X47342977Y-77904756D01*
X47421995Y-77756922D01*
X47528341Y-77627341D01*
X47657922Y-77520995D01*
X47805756Y-77441977D01*
X47805759Y-77441976D01*
X47805761Y-77441975D01*
X47966175Y-77393314D01*
X47966176Y-77393314D01*
X47966179Y-77393313D01*
X48091196Y-77381000D01*
X48174804Y-77381000D01*
X48299821Y-77393313D01*
X48299821Y-77393313D01*
G37*
G36*
X53379821Y-77393313D02*
X53379824Y-77393314D01*
X53379825Y-77393314D01*
X53540239Y-77441975D01*
X53540241Y-77441976D01*
X53540244Y-77441977D01*
X53688078Y-77520995D01*
X53817659Y-77627341D01*
X53924005Y-77756922D01*
X54003023Y-77904756D01*
X54051687Y-78065179D01*
X54068117Y-78232000D01*
X54051687Y-78398821D01*
X54003023Y-78559244D01*
X53924005Y-78707078D01*
X53817659Y-78836659D01*
X53688078Y-78943005D01*
X53540244Y-79022023D01*
X53540241Y-79022024D01*
X53540239Y-79022025D01*
X53379825Y-79070686D01*
X53379824Y-79070686D01*
X53379821Y-79070687D01*
X53254804Y-79083000D01*
X53171196Y-79083000D01*
X53046179Y-79070687D01*
X53046176Y-79070686D01*
X53046175Y-79070686D01*
X52885761Y-79022025D01*
X52885759Y-79022024D01*
X52885756Y-79022023D01*
X52737922Y-78943005D01*
X52608341Y-78836659D01*
X52501995Y-78707078D01*
X52422977Y-78559244D01*
X52374313Y-78398821D01*
X52357883Y-78232000D01*
X52374313Y-78065179D01*
X52422977Y-77904756D01*
X52501995Y-77756922D01*
X52608341Y-77627341D01*
X52737922Y-77520995D01*
X52885756Y-77441977D01*
X52885759Y-77441976D01*
X52885761Y-77441975D01*
X53046175Y-77393314D01*
X53046176Y-77393314D01*
X53046179Y-77393313D01*
X53171196Y-77381000D01*
X53254804Y-77381000D01*
X53379821Y-77393313D01*
X53379821Y-77393313D01*
G37*
G36*
X43219821Y-77393313D02*
X43219824Y-77393314D01*
X43219825Y-77393314D01*
X43380239Y-77441975D01*
X43380241Y-77441976D01*
X43380244Y-77441977D01*
X43528078Y-77520995D01*
X43657659Y-77627341D01*
X43764005Y-77756922D01*
X43843023Y-77904756D01*
X43891687Y-78065179D01*
X43908117Y-78232000D01*
X43891687Y-78398821D01*
X43843023Y-78559244D01*
X43764005Y-78707078D01*
X43657659Y-78836659D01*
X43528078Y-78943005D01*
X43380244Y-79022023D01*
X43380241Y-79022024D01*
X43380239Y-79022025D01*
X43219825Y-79070686D01*
X43219824Y-79070686D01*
X43219821Y-79070687D01*
X43094804Y-79083000D01*
X43011196Y-79083000D01*
X42886179Y-79070687D01*
X42886176Y-79070686D01*
X42886175Y-79070686D01*
X42725761Y-79022025D01*
X42725759Y-79022024D01*
X42725756Y-79022023D01*
X42577922Y-78943005D01*
X42448341Y-78836659D01*
X42341995Y-78707078D01*
X42262977Y-78559244D01*
X42214313Y-78398821D01*
X42197883Y-78232000D01*
X42214313Y-78065179D01*
X42262977Y-77904756D01*
X42341995Y-77756922D01*
X42448341Y-77627341D01*
X42577922Y-77520995D01*
X42725756Y-77441977D01*
X42725759Y-77441976D01*
X42725761Y-77441975D01*
X42886175Y-77393314D01*
X42886176Y-77393314D01*
X42886179Y-77393313D01*
X43011196Y-77381000D01*
X43094804Y-77381000D01*
X43219821Y-77393313D01*
X43219821Y-77393313D01*
G37*
G36*
X55919821Y-77393313D02*
X55919824Y-77393314D01*
X55919825Y-77393314D01*
X56080239Y-77441975D01*
X56080241Y-77441976D01*
X56080244Y-77441977D01*
X56228078Y-77520995D01*
X56357659Y-77627341D01*
X56464005Y-77756922D01*
X56543023Y-77904756D01*
X56591687Y-78065179D01*
X56608117Y-78232000D01*
X56591687Y-78398821D01*
X56543023Y-78559244D01*
X56464005Y-78707078D01*
X56357659Y-78836659D01*
X56228078Y-78943005D01*
X56080244Y-79022023D01*
X56080241Y-79022024D01*
X56080239Y-79022025D01*
X55919825Y-79070686D01*
X55919824Y-79070686D01*
X55919821Y-79070687D01*
X55794804Y-79083000D01*
X55711196Y-79083000D01*
X55586179Y-79070687D01*
X55586176Y-79070686D01*
X55586175Y-79070686D01*
X55425761Y-79022025D01*
X55425759Y-79022024D01*
X55425756Y-79022023D01*
X55277922Y-78943005D01*
X55148341Y-78836659D01*
X55041995Y-78707078D01*
X54962977Y-78559244D01*
X54914313Y-78398821D01*
X54897883Y-78232000D01*
X54914313Y-78065179D01*
X54962977Y-77904756D01*
X55041995Y-77756922D01*
X55148341Y-77627341D01*
X55277922Y-77520995D01*
X55425756Y-77441977D01*
X55425759Y-77441976D01*
X55425761Y-77441975D01*
X55586175Y-77393314D01*
X55586176Y-77393314D01*
X55586179Y-77393313D01*
X55711196Y-77381000D01*
X55794804Y-77381000D01*
X55919821Y-77393313D01*
X55919821Y-77393313D01*
G37*
G36*
X50839821Y-77393313D02*
X50839824Y-77393314D01*
X50839825Y-77393314D01*
X51000239Y-77441975D01*
X51000241Y-77441976D01*
X51000244Y-77441977D01*
X51148078Y-77520995D01*
X51277659Y-77627341D01*
X51384005Y-77756922D01*
X51463023Y-77904756D01*
X51511687Y-78065179D01*
X51528117Y-78232000D01*
X51511687Y-78398821D01*
X51463023Y-78559244D01*
X51384005Y-78707078D01*
X51277659Y-78836659D01*
X51148078Y-78943005D01*
X51000244Y-79022023D01*
X51000241Y-79022024D01*
X51000239Y-79022025D01*
X50839825Y-79070686D01*
X50839824Y-79070686D01*
X50839821Y-79070687D01*
X50714804Y-79083000D01*
X50631196Y-79083000D01*
X50506179Y-79070687D01*
X50506176Y-79070686D01*
X50506175Y-79070686D01*
X50345761Y-79022025D01*
X50345759Y-79022024D01*
X50345756Y-79022023D01*
X50197922Y-78943005D01*
X50068341Y-78836659D01*
X49961995Y-78707078D01*
X49882977Y-78559244D01*
X49834313Y-78398821D01*
X49817883Y-78232000D01*
X49834313Y-78065179D01*
X49882977Y-77904756D01*
X49961995Y-77756922D01*
X50068341Y-77627341D01*
X50197922Y-77520995D01*
X50345756Y-77441977D01*
X50345759Y-77441976D01*
X50345761Y-77441975D01*
X50506175Y-77393314D01*
X50506176Y-77393314D01*
X50506179Y-77393313D01*
X50631196Y-77381000D01*
X50714804Y-77381000D01*
X50839821Y-77393313D01*
X50839821Y-77393313D01*
G37*
G36*
X45759821Y-77393313D02*
X45759824Y-77393314D01*
X45759825Y-77393314D01*
X45920239Y-77441975D01*
X45920241Y-77441976D01*
X45920244Y-77441977D01*
X46068078Y-77520995D01*
X46197659Y-77627341D01*
X46304005Y-77756922D01*
X46383023Y-77904756D01*
X46431687Y-78065179D01*
X46448117Y-78232000D01*
X46431687Y-78398821D01*
X46383023Y-78559244D01*
X46304005Y-78707078D01*
X46197659Y-78836659D01*
X46068078Y-78943005D01*
X45920244Y-79022023D01*
X45920241Y-79022024D01*
X45920239Y-79022025D01*
X45759825Y-79070686D01*
X45759824Y-79070686D01*
X45759821Y-79070687D01*
X45634804Y-79083000D01*
X45551196Y-79083000D01*
X45426179Y-79070687D01*
X45426176Y-79070686D01*
X45426175Y-79070686D01*
X45265761Y-79022025D01*
X45265759Y-79022024D01*
X45265756Y-79022023D01*
X45117922Y-78943005D01*
X44988341Y-78836659D01*
X44881995Y-78707078D01*
X44802977Y-78559244D01*
X44754313Y-78398821D01*
X44737883Y-78232000D01*
X44754313Y-78065179D01*
X44802977Y-77904756D01*
X44881995Y-77756922D01*
X44988341Y-77627341D01*
X45117922Y-77520995D01*
X45265756Y-77441977D01*
X45265759Y-77441976D01*
X45265761Y-77441975D01*
X45426175Y-77393314D01*
X45426176Y-77393314D01*
X45426179Y-77393313D01*
X45551196Y-77381000D01*
X45634804Y-77381000D01*
X45759821Y-77393313D01*
X45759821Y-77393313D01*
G37*
G36*
X58459821Y-77393313D02*
X58459824Y-77393314D01*
X58459825Y-77393314D01*
X58620239Y-77441975D01*
X58620241Y-77441976D01*
X58620244Y-77441977D01*
X58768078Y-77520995D01*
X58897659Y-77627341D01*
X59004005Y-77756922D01*
X59083023Y-77904756D01*
X59131687Y-78065179D01*
X59148117Y-78232000D01*
X59131687Y-78398821D01*
X59083023Y-78559244D01*
X59004005Y-78707078D01*
X58897659Y-78836659D01*
X58768078Y-78943005D01*
X58620244Y-79022023D01*
X58620241Y-79022024D01*
X58620239Y-79022025D01*
X58459825Y-79070686D01*
X58459824Y-79070686D01*
X58459821Y-79070687D01*
X58334804Y-79083000D01*
X58251196Y-79083000D01*
X58126179Y-79070687D01*
X58126176Y-79070686D01*
X58126175Y-79070686D01*
X57965761Y-79022025D01*
X57965759Y-79022024D01*
X57965756Y-79022023D01*
X57817922Y-78943005D01*
X57688341Y-78836659D01*
X57581995Y-78707078D01*
X57502977Y-78559244D01*
X57454313Y-78398821D01*
X57437883Y-78232000D01*
X57454313Y-78065179D01*
X57502977Y-77904756D01*
X57581995Y-77756922D01*
X57688341Y-77627341D01*
X57817922Y-77520995D01*
X57965756Y-77441977D01*
X57965759Y-77441976D01*
X57965761Y-77441975D01*
X58126175Y-77393314D01*
X58126176Y-77393314D01*
X58126179Y-77393313D01*
X58251196Y-77381000D01*
X58334804Y-77381000D01*
X58459821Y-77393313D01*
X58459821Y-77393313D01*
G37*
G36*
X61684000Y-79083000D02*
X59982000Y-79083000D01*
X59982000Y-77381000D01*
X61684000Y-77381000D01*
X61684000Y-79083000D01*
X61684000Y-79083000D01*
G37*
G36*
X17486412Y-72956134D02*
X17718346Y-73002269D01*
X17899338Y-73077239D01*
X18155299Y-73183261D01*
X18548551Y-73446024D01*
X18882976Y-73780449D01*
X19145739Y-74173701D01*
X19251761Y-74429662D01*
X19326731Y-74610654D01*
X19419000Y-75074522D01*
X19419000Y-75547478D01*
X19326731Y-76011346D01*
X19251761Y-76192338D01*
X19145739Y-76448299D01*
X18882976Y-76841551D01*
X18548551Y-77175976D01*
X18155299Y-77438739D01*
X17899338Y-77544761D01*
X17718346Y-77619731D01*
X17486412Y-77665865D01*
X17254479Y-77712000D01*
X16781521Y-77712000D01*
X16549588Y-77665865D01*
X16317654Y-77619731D01*
X16136662Y-77544761D01*
X15880701Y-77438739D01*
X15487449Y-77175976D01*
X15153024Y-76841551D01*
X14890261Y-76448299D01*
X14784239Y-76192338D01*
X14709269Y-76011346D01*
X14617000Y-75547478D01*
X14617000Y-75074522D01*
X14709269Y-74610654D01*
X14784239Y-74429662D01*
X14890261Y-74173701D01*
X15153024Y-73780449D01*
X15487449Y-73446024D01*
X15880701Y-73183261D01*
X16136662Y-73077239D01*
X16317654Y-73002269D01*
X16549588Y-72956134D01*
X16781521Y-72910000D01*
X17254479Y-72910000D01*
X17486412Y-72956134D01*
X17486412Y-72956134D01*
G37*
G36*
X66381412Y-72956134D02*
X66613346Y-73002269D01*
X66794338Y-73077239D01*
X67050299Y-73183261D01*
X67443551Y-73446024D01*
X67777976Y-73780449D01*
X68040739Y-74173701D01*
X68146761Y-74429662D01*
X68221731Y-74610654D01*
X68314000Y-75074522D01*
X68314000Y-75547478D01*
X68221731Y-76011346D01*
X68146761Y-76192338D01*
X68040739Y-76448299D01*
X67777976Y-76841551D01*
X67443551Y-77175976D01*
X67050299Y-77438739D01*
X66794338Y-77544761D01*
X66613346Y-77619731D01*
X66381412Y-77665865D01*
X66149479Y-77712000D01*
X65676521Y-77712000D01*
X65444588Y-77665865D01*
X65212654Y-77619731D01*
X65031662Y-77544761D01*
X64775701Y-77438739D01*
X64382449Y-77175976D01*
X64048024Y-76841551D01*
X63785261Y-76448299D01*
X63679239Y-76192338D01*
X63604269Y-76011346D01*
X63512000Y-75547478D01*
X63512000Y-75074522D01*
X63604269Y-74610654D01*
X63679239Y-74429662D01*
X63785261Y-74173701D01*
X64048024Y-73780449D01*
X64382449Y-73446024D01*
X64775701Y-73183261D01*
X65031662Y-73077239D01*
X65212654Y-73002269D01*
X65444588Y-72956134D01*
X65676521Y-72910000D01*
X66149479Y-72910000D01*
X66381412Y-72956134D01*
X66381412Y-72956134D01*
G37*
G36*
X26514442Y-74991518D02*
X26580627Y-74998037D01*
X26693853Y-75032384D01*
X26750467Y-75049557D01*
X26889087Y-75123652D01*
X26906991Y-75133222D01*
X26942729Y-75162552D01*
X27044186Y-75245814D01*
X27127448Y-75347271D01*
X27156778Y-75383009D01*
X27156779Y-75383011D01*
X27240443Y-75539533D01*
X27240443Y-75539534D01*
X27291963Y-75709373D01*
X27309359Y-75886000D01*
X27291963Y-76062627D01*
X27257616Y-76175853D01*
X27240443Y-76232467D01*
X27166348Y-76371087D01*
X27156778Y-76388991D01*
X27127448Y-76424729D01*
X27044186Y-76526186D01*
X26942729Y-76609448D01*
X26906991Y-76638778D01*
X26906989Y-76638779D01*
X26750467Y-76722443D01*
X26693853Y-76739616D01*
X26580627Y-76773963D01*
X26514443Y-76780481D01*
X26448260Y-76787000D01*
X26359740Y-76787000D01*
X26293557Y-76780481D01*
X26227373Y-76773963D01*
X26114147Y-76739616D01*
X26057533Y-76722443D01*
X25901011Y-76638779D01*
X25901009Y-76638778D01*
X25865271Y-76609448D01*
X25763814Y-76526186D01*
X25680552Y-76424729D01*
X25651222Y-76388991D01*
X25641652Y-76371087D01*
X25567557Y-76232467D01*
X25550384Y-76175853D01*
X25516037Y-76062627D01*
X25498641Y-75886000D01*
X25516037Y-75709373D01*
X25567557Y-75539534D01*
X25567557Y-75539533D01*
X25651221Y-75383011D01*
X25651222Y-75383009D01*
X25680552Y-75347271D01*
X25763814Y-75245814D01*
X25865271Y-75162552D01*
X25901009Y-75133222D01*
X25918913Y-75123652D01*
X26057533Y-75049557D01*
X26114147Y-75032384D01*
X26227373Y-74998037D01*
X26293558Y-74991518D01*
X26359740Y-74985000D01*
X26448260Y-74985000D01*
X26514442Y-74991518D01*
X26514442Y-74991518D01*
G37*
G36*
X24765000Y-76787000D02*
X22963000Y-76787000D01*
X22963000Y-74985000D01*
X24765000Y-74985000D01*
X24765000Y-76787000D01*
X24765000Y-76787000D01*
G37*
M02*
